<?xml version="1.0" encoding="utf-8"?>
<!-- Generator: Adobe Illustrator 27.9.0, SVG Export Plug-In . SVG Version: 6.00 Build 0)  -->
<svg version="1.1" id="Layer_1" xmlns="http://www.w3.org/2000/svg" xmlns:xlink="http://www.w3.org/1999/xlink" x="0px" y="0px"
	 viewBox="0 0 24 24" style="enable-background:new 0 0 24 24;" xml:space="preserve">
<style type="text/css">
	.st0{fill:#2ECC71;}
</style>
<path class="st0" d="M22.2,16.3c-1.8,3.4-5.3,5.5-9.2,5.5c-0.6,0-1.1,0-1.7-0.1c-5.7-0.9-9.5-6.3-8.6-11.9C3.3,6.6,5.2,3.9,8,2.3
	c0.4-0.2,1-0.2,1.5,0.1c0.4,0.3,0.7,0.8,0.6,1.4v0.1c-0.8,4.3,1.7,8.6,5.8,10.1c1,0.3,2,0.5,3,0.5c0.6,0,1.2-0.1,1.9-0.2
	c0.8-0.1,1.5,0.4,1.6,1.1C22.4,15.7,22.3,16,22.2,16.3z"/>
</svg>
