<?xml version="1.0" encoding="utf-8"?>
<!-- Generator: Adobe Illustrator 27.9.0, SVG Export Plug-In . SVG Version: 6.00 Build 0)  -->
<svg version="1.1" id="Layer_1" xmlns="http://www.w3.org/2000/svg" xmlns:xlink="http://www.w3.org/1999/xlink" x="0px" y="0px"
	 viewBox="0 0 24 24" style="enable-background:new 0 0 24 24;" xml:space="preserve">
<style type="text/css">
	.st0{fill:#2ECC71;}
</style>
<g>
	<path class="st0" d="M12.1,0.7c0.5,0,0.9,0.4,0.9,0.9v3.6c0,0.5-0.4,0.9-0.9,0.9s-0.9-0.4-0.9-0.9V1.6C11.2,1.1,11.6,0.7,12.1,0.7z
		 M5.7,3.9c-0.4-0.3-0.9-0.3-1.3,0c-0.3,0.4-0.3,0.9,0,1.3L7,7.7C7.4,8,7.9,8,8.3,7.7c0.3-0.4,0.3-0.9,0-1.3L5.7,3.9L5.7,3.9z
		 M2.1,10.7c-0.5,0-0.9,0.4-0.9,0.9s0.4,0.9,0.9,0.9h3.6c0.5,0,0.9-0.4,0.9-0.9s-0.4-0.9-0.9-0.9H2.1z M17.5,11.6
		c0-0.5,0.4-0.9,0.9-0.9H22c0.5,0,0.9,0.4,0.9,0.9s-0.4,0.9-0.9,0.9h-3.6C17.9,12.5,17.5,12.1,17.5,11.6z M17.2,15.4
		c-0.4-0.3-0.9-0.3-1.3,0c-0.3,0.4-0.3,0.9,0,1.3l2.6,2.6c0.3,0.4,0.9,0.4,1.3,0c0.4-0.3,0.4-0.9,0-1.3l0,0L17.2,15.4L17.2,15.4z
		 M8.2,16.7c0.4-0.3,0.4-0.9,0-1.3C7.9,15,7.3,15,7,15.4l0,0L4.4,18c-0.4,0.3-0.4,0.9,0,1.3c0.3,0.4,0.9,0.4,1.3,0l0,0L8.2,16.7
		L8.2,16.7z M19.7,5.2c0.3-0.4,0.3-0.9,0-1.3c-0.4-0.3-0.9-0.3-1.3,0l-2.6,2.6c-0.4,0.3-0.4,0.9,0,1.3c0.3,0.4,0.9,0.4,1.3,0l0,0
		L19.7,5.2z M13,17.9c0-0.5-0.4-0.9-0.9-0.9s-0.9,0.4-0.9,0.9v3.6c0,0.5,0.4,0.9,0.9,0.9S13,22,13,21.5V17.9z M12.1,7.1
		c-2.5,0-4.5,2-4.5,4.5s2,4.5,4.5,4.5s4.5-2,4.5-4.5S14.6,7.1,12.1,7.1z"/>
</g>
</svg>
