<svg xmlns="http://www.w3.org/2000/svg" style="display: none;">
    <!-- Sun Icon -->
    <symbol id="sun-icon" viewBox="0 0 24 24" class="theme-icon">
        <circle cx="12" cy="12" r="5" class="theme-icon-fill"/>
        <line x1="12" y1="1" x2="12" y2="3" class="theme-icon-stroke"/>
        <line x1="12" y1="21" x2="12" y2="23" class="theme-icon-stroke"/>
        <line x1="4.22" y1="4.22" x2="5.64" y2="5.64" class="theme-icon-stroke"/>
        <line x1="18.36" y1="18.36" x2="19.78" y2="19.78" class="theme-icon-stroke"/>
        <line x1="1" y1="12" x2="3" y2="12" class="theme-icon-stroke"/>
        <line x1="21" y1="12" x2="23" y2="12" class="theme-icon-stroke"/>
        <line x1="4.22" y1="19.78" x2="5.64" y2="18.36" class="theme-icon-stroke"/>
        <line x1="18.36" y1="5.64" x2="19.78" y2="4.22" class="theme-icon-stroke"/>
    </symbol>

    <!-- Moon Icon -->
    <symbol id="moon-icon" viewBox="0 0 24 24" class="theme-icon">
        <path d="M21 12.79A9 9 0 1 1 11.21 3 7 7 0 0 0 21 12.79z" class="theme-icon-fill"/>
    </symbol>

    <!-- Verification Badge Icon -->
    <symbol id="verified-badge" viewBox="0 0 24 24">
      <circle cx="12" cy="12" r="10" fill="#4CAF50"/>
      <path d="M8 12.5l2.5 2.5 5-5" fill="none" stroke="#fff" stroke-width="2" stroke-linecap="round" stroke-linejoin="round"/>
    </symbol>
</svg> 