<?xml version="1.0" encoding="utf-8"?>
<!-- Generator: Adobe Illustrator 28.0.0, SVG Export Plug-In . SVG Version: 6.00 Build 0)  -->
<svg version="1.1" id="Layer_1" xmlns="http://www.w3.org/2000/svg" xmlns:xlink="http://www.w3.org/1999/xlink" x="0px" y="0px"
	 viewBox="0 0 1741.6 1389.9" style="enable-background:new 0 0 1741.6 1389.9;" xml:space="preserve">
<g>
	<path d="M428.5,830.8c0-51.5,0-102.9,0.1-154.4c0-4.8-1.1-9.1-3.3-13.3c-21.2-40-42.4-80-63.6-120c-24.7-46.7-49.5-93.5-74.2-140.2
		c-0.5-0.9-0.8-2.1-1.5-2.5c-3.8-2.5-3-6.3-3-9.8c0-94.8,0-189.6,0-284.4c0-6.3,0.5-6.9,6.8-7.5c1.5-0.1,3-0.1,4.5-0.1
		c25.6,0,51.3,0,76.9,0c9,0,9.1,0.1,9.1,9.1c0,77.3-0.1,154.5-0.1,231.8c0,2.3,0,4.6,0,6.9c-0.1,5.6,1.2,10.8,3.9,15.7
		c29.9,55.4,59.8,110.8,89.7,166.2c0.3,0.6,0.6,1.2,0.9,1.7c1.3,1.9,2.4,1.9,3.7-0.1c1.1-1.7,1.9-3.5,2.8-5.2
		c29.3-54.3,58.5-108.5,87.8-162.7c2.4-4.5,3.6-9,3.6-14.1c-0.1-79.8,0-159.5,0-239.3c0-10,0.2-10.2,10.3-10.2c25,0,50,0,74.9,0
		c2.1,0,4.3,0,6.4,0.2c3.1,0.4,3.9,1.3,4.2,4.5c0.1,1.1,0.1,2.3,0.1,3.5c0,94,0,188,0,282c0,4.3-1.3,8.1-3.3,11.8
		c-30,57.1-59.9,114.1-89.9,171.2c-15.9,30.3-31.8,60.6-47.8,90.8c-2.3,4.4-3.4,8.8-3.4,13.8c0,102.1-0.1,204.2-0.1,306.3
		c0,2.5-0.1,5-0.2,7.4c-0.1,2.6-1.5,3.9-4.1,4c-1,0-2,0.1-3,0.1c-26.8,0-53.6,0-80.4,0c-7.7,0-8.1-0.4-8.1-8.2
		C428.4,934,428.4,882.4,428.5,830.8C428.4,830.8,428.5,830.8,428.5,830.8z"/>
	<path d="M1317.4,531c1.9-1.7,2.8-3.9,3.9-5.9c29.4-54.5,58.8-109.1,88.3-163.6c2.6-4.8,3.6-9.8,3.6-15.2c0-75.3,0-150.6,0.1-225.9
		c0-5,0-9.9,0-14.9c0.1-6.4,0.8-7.2,7.1-7.2c11.1,0,22.2,0,33.2,0c16,0,32.1,0,48.1,0c6.3,0,7.1,0.7,7.1,7.2c0.1,15.7,0,31.4,0,47.2
		c0,76.8-0.1,153.6,0,230.3c0,7.5-1.6,14.1-5.2,20.8c-45.3,86-90.4,172-135.6,258c-2.4,4.6-3.4,9.1-3.4,14.2
		c0.1,101.6,0,203.2,0,304.8c0,1.8,0,3.6,0,5.5c-0.1,5.9-0.8,6.6-6.6,6.8c-0.3,0-0.7,0-1,0c-26.6,0-53.3,0-79.9,0
		c-7.8,0-8.2-0.3-8.2-8.1c-0.1-37.6-0.1-75.1,0-112.7c0-65.4,0.1-130.7,0.2-196.1c0-5.5-1.6-10.4-4.2-15.1
		c-24.2-45.7-48.4-91.4-72.6-137.1c-21.3-40.2-42.5-80.3-63.9-120.5c-2.6-4.8-3.4-9.9-3.4-15.3c0.1-18.4,0-36.7,0-55.1
		c0-75.3,0.1-150.6,0.1-225.9c0-8.5,0.2-8.8,8.5-8.8c26.3,0,52.6,0,78.9,0c1,0,2,0,3,0c4.2,0.2,4.8,0.8,5.1,5
		c0.1,1.8,0.1,3.6,0.1,5.5c0,78.3,0,156.5-0.1,234.8c0,7.3,1.6,13.9,5.1,20.4c29.4,54.2,58.6,108.5,87.8,162.7
		C1314.5,528.2,1315.2,529.9,1317.4,531z"/>
	<path d="M945.7,626.8c0,118.6,0,237.3,0,355.9c0,2,0.1,4-0.1,6c-0.3,3.1-1.2,4-4.3,4.5c-1.5,0.2-3,0.2-4.4,0.2
		c-26.3,0.1-52.6,0.1-78.9,0.2c-7.3,0-8-0.6-8.2-7.8c-0.2-9.3,0-18.5,0-27.8c0.1-72.3,0.1-144.6,0.2-216.9
		c0.1-157.7,0.2-315.4,0.2-473c0-0.8,0-1.7,0-2.5c-0.3-3.9-1-4.6-4.8-4.8c-2-0.1-4,0-6,0c-40.9,0-81.7,0-122.6,0
		c-10.8,0-10.9,0-10.9-10.6c0-41.7,0-83.4,0.1-125.1c0-6.8,0-13.6,0.1-20.3c0.1-5.5,0.9-6.3,6.4-6.4c15.2-0.1,30.4,0,45.6-0.1
		c106.7,0,213.4,0,320-0.1c2.5,0,5,0,7.4,0.1c2.5,0.1,4,1.4,4,4.1c0,1.8,0.1,3.6,0.1,5.5c0,47.8,0,95.6-0.1,143.4
		c0,8.9-0.1,9.1-9.2,9.1c-40.9,0.1-81.7,0.1-122.6,0.2c-2.8,0-5.6,0.2-8.4,0.1c-2-0.1-2.9,0.8-3.4,2.7c-0.4,1.6-0.4,3.3-0.4,4.9
		C945.8,387.9,945.8,507.3,945.7,626.8C945.8,626.8,945.8,626.8,945.7,626.8z"/>
	<path d="M544.3,1064.2c1,5.3-1.3,9.9-4.9,14.4c-9.2,12-7.7,7.4-7.9,22.3c0,1.2,0,2.3-0.1,3.5c-0.4,4.1-1.2,4.9-5.2,4.8
		c-3.7,0-4.8-0.9-5-4.5c-0.2-3.8-0.3-7.6,0-11.4c0.2-3.2-0.8-5.8-2.8-8.1c-2.4-2.9-4.7-6-7-9c-1.7-2.1-2.8-4.5-3-7.2
		c-0.2-4-0.4-7.9,0.1-11.9c0.4-3.6,1.7-4.6,5.1-4.4c3.3,0.1,4.1,0.9,4.3,4.6c0.1,1.5,0.2,3,0,4.4c-0.9,6.5,2.6,11,6.5,15.4
		c1.3,1.5,2.4,1.4,3.6-0.1c3.8-4.4,7.6-8.9,6.4-15.4c-0.3-1.4,0-3,0.1-4.4c0.3-3.5,1.3-4.4,4.5-4.5c3.5-0.1,4.6,0.9,5,4.6
		c0.1,0.5,0.1,1,0.1,1.5C544.3,1060.3,544.3,1062,544.3,1064.2z"/>
	<path d="M609.4,1103.4c0.1,5-0.4,5.6-5.6,5.6c-8.3,0-16.5,0.1-24.8,0.1c-5.2,0-5.5-0.2-5.5-5.7c-0.1-7.4,0-14.9,0-22.3c0,0,0,0,0,0
		c0-7.6,0-15.2,0-22.8c0.1-4.8,0.7-5.4,5.6-5.4c8.4,0,16.9-0.1,25.3,0c4.1,0,5,1.2,5,5.5c0,4.6-0.7,5.7-4.7,5.8
		c-5.3,0.1-10.6,0-15.9,0.1c-1.8,0-4.1-0.5-4.8,1.6c-0.9,2.6-1,5.5,0.2,8.2c0.6,1.3,1.9,1.1,3.1,1.2c3.3,0.1,6.6,0,9.9,0.1
		c4.5,0.1,5.5,1.1,5.6,5.6c0,1-0.3,2-0.3,3c-0.1,2.2-1.3,3.3-3.5,3.2c-3.3,0-6.6,0-9.9,0.1c-1.9,0.1-4.3-0.4-5.1,2
		c-0.9,2.5-0.8,5.2,0.2,7.8c0.5,1.3,1.9,1.1,3,1.2c4.3,0.1,8.6,0.1,12.9,0.1c1.5,0,3,0,4.5,0.1
		C608.7,1098.7,609.3,1099.3,609.4,1103.4z"/>
	<path d="M671.6,1089.9c0.3,3.7,0,7.3-1,10.8c-1.7,5.8-5.9,8.7-10.8,8.5c-4.6-0.1-9.2-0.1-13.9,0c-4.8,0-7.6-2.7-9.4-6.8
		c-1.1-2.5-0.4-3.9,2.4-4.1c3.1-0.2,6.3,0,9.4,0v-0.1c2.8,0,5.6,0.1,8.4,0c4-0.2,4.8-1,4.9-5.2c0.1-4.8-0.7-5.7-5.6-5.9
		c-1.7,0-3.3,0-4.9,0c-1.3,0-2.6,0-4-0.2c-6.8-0.8-10.7-4.9-11.1-11.7c-0.2-3.8-0.2-7.6,0-11.4c0.5-6.5,4.8-10.5,11.3-10.7
		c4.6-0.1,9.2,0,13.9,0c4.6,0,7.3,2.7,8.9,6.6c1.2,2.9,0.5,4.1-2.5,4.3c-3.5,0.2-6.9,0.1-10.4,0.2c-2,0-4-0.2-5.9,0
		c-1.8,0.2-4.2-0.7-5.2,1.7c-1.1,2.7-1,5.5,0.2,8.2c0.5,1,1.6,1.1,2.6,1.1c2.3,0,4.6,0,6.9,0
		C665.9,1075.4,670.7,1079.9,671.6,1089.9z"/>
	<path d="M734.5,1056.9c-0.1,5.6,0,11.2,0,16.8h0c0,5.3,0.1,10.6,0,15.9c-0.1,5-1.9,9.3-5,13.2c-7,8.8-19,8.8-25.9-0.1
		c-2.8-3.6-4.7-7.6-4.8-12.2c-0.1-10.9-0.1-21.8,0-32.7c0-4.1,1.6-5.5,5.4-5.2c3.2,0.3,4.3,1.4,4.3,5.4c0.1,9.1,0.1,18.2,0,27.3
		c0,2.5,0.1,5,1,7.3c1.3,3.6,4.1,5.6,7.4,5.4c3.3-0.2,6.1-2.5,7-6c0.4-1.7,0.5-3.6,0.5-5.4c0.1-8.4,0-16.9,0-25.3c0-1.2,0-2.3,0-3.5
		c0.3-4.1,2.1-5.6,6.1-5C733,1053.1,734.5,1054,734.5,1056.9z"/>
	<path d="M858.6,1056.5c0,1.2,0.1,2.3,0,3.5c-0.3,3.5-0.7,3.9-4.2,4.2c-1.2,0.1-2.3,0-3.5,0c-4.4,0.1-4.5,0.2-4.7,4.4
		c-0.1,2.8-0.1,5.6-0.1,8.4c0,8.8,0,17.5,0,26.3c0,4.7-1,5.8-4.7,5.9c-4.2,0.1-5.3-0.8-5.4-5.1c-0.1-6,0-11.9,0-17.9
		c0-5.5,0-10.9,0-16.4c0-5.4-0.4-5.7-5.5-5.8c-0.8,0-1.7,0-2.5,0c-4-0.1-5.1-1.3-5.2-5.5c-0.1-4.2,1.1-5.8,4.9-5.9
		c8.9-0.1,17.9,0,26.8,0C857.1,1052.8,858.5,1053.9,858.6,1056.5z"/>
	<path d="M922.2,1100.2c1.1,2.5,1,5.2-0.2,7.7c-0.5,1.1-1.6,1.1-2.5,1.1c-9.7,0-19.5,0.1-29.2,0c-2.7,0-3.3-0.8-3.4-4.3
		c-0.1-7.3-0.1-14.5-0.1-21.8v-2c0,0,0,0,0,0c0-7.3,0-14.5,0-21.8c0-5.6,0.6-6.3,6.2-6.5c8.6-0.3,17.2-0.6,25.7,0.5
		c3.3,0.4,4.3,1.9,4.1,5.9c-0.2,3.9-1.1,5.1-4.4,5.2c-5.4,0.1-10.9,0-16.3,0.1c-4.9,0.1-5.3,0.5-5.2,5.5c0,0.8,0.1,1.6,0.2,2.5
		c0,2.1,1.2,3,3.1,3c3.3,0,6.6,0,9.9,0.1c5.4,0.1,6,0.7,6,6c0,5.3-0.3,5.6-5.5,5.8c-3.1,0.1-6.3-0.1-9.4,0.1
		c-3.6,0.2-3.9,0.6-4.2,4.1c0,0.7-0.1,1.3-0.1,2c0.1,4.2,0.7,4.9,4.9,4.9c5.1,0.1,10.3,0,15.4,0C919,1098.2,921.2,1098,922.2,1100.2
		z"/>
	<path d="M971.9,1102.1c0,0.5,0.1,1,0.1,1.5c0,4.9-0.4,5.4-5.3,5.5c-1.7,0-3.3,0-4.9,0c-7.2-0.1-11.7-4.3-12.2-11.5
		c-0.2-3.5-0.1-6.9-0.1-10.4c0-3.3,0-6.6,0-9.9c0,0,0,0,0,0c0-6.6-0.1-13.2,0-19.8c0.1-4,2.3-5.5,6.1-4.8c2,0.4,3.3,1.5,3.5,3.6
		c0.1,1.3,0.2,2.6,0.2,3.9c0,9.9,0,19.8,0.1,29.8c0,1.2,0,2.3,0.1,3.5c0.3,4.1,0.7,4.5,4.7,4.7c1.5,0.1,3,0.2,4.4,0.2
		C970.9,1098.4,971.9,1099.8,971.9,1102.1z"/>
	<path d="M1040.9,1073.3c-0.2-6.3-2.4-12-7.3-16.2c-6.7-5.8-15.7-5.5-21.9,0.7c-4.1,4.1-6.5,9.1-6.5,15.1c0,5.1,0,10.2,0,15.4
		c0,0,0,0,0,0c0,5.6-0.1,11.2,0,16.9c0.1,3.5,0.9,4.1,4.6,4.2c3.6,0.1,4.8-0.8,5.1-3.9c0.2-2.6,0.1-5.3,0.1-7.9
		c0.1-10.9-1.3-10.4,10.6-10.2c4.7,0.1,5.2,0.5,5.3,5.1c0.1,4.1,0,8.3,0.1,12.4c0.1,3.5,1.4,4.4,5.1,4.4c3.5,0,4.8-1.2,4.9-4.6
		C1041.1,1094.1,1041.2,1083.7,1040.9,1073.3z M1025.7,1075.2c-0.8,0-1.6,0-2.5,0c-1.1,0-2.3,0-3.4,0c-4-0.2-5.2-1.9-3.8-5.6
		c1.1-3,3.4-4.8,6.5-5.3c2.3-0.4,6,2,7.2,4.3C1031.6,1072.6,1030.1,1075.1,1025.7,1075.2z"/>
	<path d="M1165.3,1056.5c0.1,4.4,0.1,8.9,0.1,13.4c0,1.9-0.8,3.5-1.9,5c-2.1,2.8-4,5.7-6.4,8.2c-3.5,3.8-4.7,8.1-4.3,13.2
		c0.2,3.1,0,6.3-0.2,9.4c-0.3,2.9-1.3,3.5-4.8,3.6c-3.7,0-4.5-0.5-4.9-3.4c-0.5-3.4-0.5-6.9-0.2-10.4c0.3-4.5-0.7-8.5-4-11.8
		c-0.9-1-1.6-2.2-2.5-3.1c-6.9-6.4-7.1-14.5-6.3-22.9c0.4-4.4,2.3-5.7,6.6-4.9c1.9,0.4,3,1.2,3,3.2c0,1.5,0.4,3,0.2,4.4
		c-1.2,7.6,2.4,13,8.2,17.9c3-2.4,5-5.5,7.1-8.4c1.1-1.5,1-3.5,1.1-5.3c0-2.8-0.1-5.6,0.1-8.4c0.2-2.8,1.8-3.8,4.7-3.7
		C1163.9,1052.7,1165.2,1053.7,1165.3,1056.5z"/>
	<path d="M1228.5,1072c-0.3-4-1.4-7.8-3.6-11.2c-6.9-10.3-20.8-10.5-27.9-0.4c-1.6,2.2-2.5,4.6-3.3,7.2c-1.3,4.6-0.6,9.2-0.8,13.8
		c0,2.8-0.1,5.6,0,8.4c0.2,4.2,1.2,8.1,3.6,11.6c6.8,10,19.2,10.7,27,1.5c3-3.5,4.7-7.6,4.9-12.2
		C1228.9,1084.5,1228.9,1078.3,1228.5,1072z M1217.3,1093.9c-1.5,2.6-3.8,4.1-6.9,4.1c-2.9,0-5.3-1.6-6.2-4.2
		c-2.7-8-2.5-16.2-0.4-24.3c0.9-3.5,4.7-5.4,7.7-5c3.4,0.4,6.4,3.4,6.9,7.4c0.3,3.1,0.1,6.3,0.1,9.4h0.1c0,2.5,0,4.9,0,7.4
		C1218.6,1090.5,1218.2,1092.3,1217.3,1093.9z"/>
	<path d="M1291.2,1081.6C1291.2,1081.6,1291.2,1081.6,1291.2,1081.6c0-3.3,0.2-6.6-0.1-9.9c-0.4-5.3-2.3-10-6.1-13.7
		c-6.7-6.7-16.1-6.8-23-0.3c-4.2,4-6.2,8.9-6.4,14.6c-0.2,6.1-0.2,12.2,0,18.4c0.2,5.5,2.5,10.3,6.4,14.1c6.4,6.3,16.4,6.2,22.7-0.1
		c3.9-3.9,6.1-8.6,6.5-14.1C1291.3,1087.6,1291.2,1084.6,1291.2,1081.6z M1281.2,1081.4v7.4c0,2-0.5,3.9-1.7,5.6
		c-1.7,2.5-4.1,3.8-7.2,3.5c-2.9-0.3-4.8-2-5.9-4.7c-0.7-1.7-1-3.5-1.1-5.3c-0.3-4.5-0.4-8.9,0-13.4c0.1-1,0.2-2,0.4-2.9
		c1-4.5,4.4-7.6,8.1-7.4c3.5,0.3,7,3.9,7.3,8.2C1281.3,1075.4,1281.1,1078.4,1281.2,1081.4L1281.2,1081.4z"/>
	<path d="M1355,1018.8h-54.6c-288.9,0-577.8,0-866.7,0c-9.1,0-9.6,0.5-9.6,9.5c0,33.3,0,66.5,0,99.8c0,1.7,0.2,3.3,0.2,4.9
		c0.1,2.6,1.3,4,4,4c2.8,0,5.6,0.2,8.4,0.2h457.4v0.1h456.9c1.8,0,3.6,0,5.4,0c7.7-0.2,8.2-0.6,8.2-8.2c0-33.6,0-67.2,0-100.7
		C1364.7,1019.4,1364,1018.8,1355,1018.8z M1337.5,1114.8c0,5.7-0.9,6.5-6.7,6.6c-1.2,0-2.3,0-3.5,0H463.9c-2.8,0-5.6,0-8.4-0.1
		c-3.5-0.2-3.8-0.6-4.2-4.1c-0.1-1.2-0.1-2.3-0.1-3.5v-71c0-0.3,0-0.7,0-1c0.1-6.2,0.4-6.5,6.4-6.5c14.4,0,28.8,0,43.2,0h394v0.2
		h435.2c7.2,0,7.6,0.2,7.6,7.4C1337.5,1066.8,1337.5,1090.8,1337.5,1114.8z"/>
	<path d="M775.1,1284.2c0.3,0.8,0.6,1.7,0.8,2.5C776.7,1285.6,775.3,1285.1,775.1,1284.2z M775.1,1284.2c0.3,0.8,0.6,1.7,0.8,2.5
		C776.7,1285.6,775.3,1285.1,775.1,1284.2z M775.1,1284.2c0.3,0.8,0.6,1.7,0.8,2.5C776.7,1285.6,775.3,1285.1,775.1,1284.2z
		 M775.1,1284.2c0.3,0.8,0.6,1.7,0.8,2.5C776.7,1285.6,775.3,1285.1,775.1,1284.2z M888.8,1204.5c-0.4-2.5-2.9-1.8-4.5-1.6
		c-5.3,0.6-10.5,1.4-15.7,2.2c-2.7,0.4-5.2,0.8-6.2-2.9c-0.5-1.9-2.3-3.4-4.7-2.6c-2.3,0.7-3.5,2.3-3.4,4.9c0,1.5,0.1,3,1.2,4.2
		c1.3,1.3,0.9,2.5,0.3,4c-2.1,5.1-6.4,8.3-10.3,11.9c-0.8,0.1-1.5,0.5-2.2,1c0.8-0.7,1.5-1.6,1.9-2.8c1-4.3,0.9-4.4-2.8-5.8
		c-3.7-1.4-7.5-0.9-11.3-0.4c-2.6,0.4-5.3,0.9-8.5,1.4c4.4-8,8.5-15.3,13.6-22.1c5.1-6.9,11.4-12.6,20-17c-6.9-0.6-7.8-0.3-11.7,2.6
		c-5.1,3.8-9.4,8.3-12.7,13.7c-5.4,8.5-10.8,17.1-16.2,25.5c-1.2,1.8-2.5,3.5-3.9,5.1c-0.7,0.7-1.7,1.8-3,0.4
		c7-13.4,12.7-27.6,22.8-39.3c2.5-2.9,3.7-6.5,4-10.4c-6.2-1.6-8.8,3.5-12.5,6.7c-5.1-11.8-14.2-16.5-26.3-15.7
		c-15.1,0.9-27,7.9-36.2,19.8c-2.2,2.9-4.2,6.3-4.2,9.9c0,6.8-3.3,11.9-7,16.9c-1.8,2.4-3.2,5-4.7,7.6c-3.1,5.5-5.2,11.4-6,17.7
		c-1.4,10.5,4,17.3,14.6,18.2c1.6,0.1,3.3,0,4.9,0.1c1.3,0.1,2.6-0.5,3.8,0.8c-0.8,4.6-1.2,9.4-0.8,14.2c0.5,7.4,4,13.1,10.3,17.1
		c3.6,2.3,7,2.2,10.7,0.3c7.2-3.8,12.1-9.6,15.4-16.9c3.5-7.7,6.8-15.4,10.2-23.1c0.7-1.6,1.2-3.5,2.9-4.9c8.4,5.3,16,2.8,23.1-3
		c1.9-1.6,3.8-3.2,5.7-4.7c1.2-1,2.1-2.4,3.8-2.8c0.2,3-2,5-3.2,7.4c-1.8,3.8-4,7.5-4.2,12c4.1,0.3,5.8-2.1,7.2-5.1
		c4.9-10.1,9.8-20.2,14.9-30.2c4-7.9,4.1-7.8,12.9-9c4.7-0.6,9.6-1,14.1-2.5C886.6,1207.1,889.3,1206.9,888.8,1204.5z M793.3,1174.5
		c2.8-0.4,5.6-0.2,8.4-0.1c7.1,0.2,11.7,4.1,14.4,10.3c2,4.4,1.1,8.7-2.2,11.9c-11.9,11.4-25.7,17.9-42.6,15.7
		c-1.1-0.1-2.3-0.5-3.3-1c-6-2.7-6.4-5.1-2-9.9c5.5-6,11.1-11.8,18.6-15.4c1.3-0.6,2.5-1.6,3.7-2.5c0.7-0.5,1.2-1.1,0.7-2.1
		c-0.5-0.8-1.2-1.1-2.1-0.9c-2.6,0.7-4.9,1.9-7.2,3.2c-6,3.6-10.7,8.8-15.6,13.7c-0.4-0.4-0.7-0.7-1.1-1.1
		C769,1183.3,779.3,1176.3,793.3,1174.5z M760.2,1252.1c-4.7,0.4-9.3,0.2-13.3-2.5c-1.7-1.2-2.5-3-2.8-5c-0.2-2-0.2-4,0.2-5.9
		c2-10.5,7-19.4,14.2-27.5c6.2,7.1,14,8.3,22.7,7.5c9.8-0.9,18.5-4.5,27.5-8.7c-2.6,5.3-5.3,10.6-7.9,15.8c-0.7,1.5-1.8,2.3-3.4,2.6
		c-1.9,0.3-3.9,0.6-5.8,1.1c-10.3,2.4-18.4,8.1-23.9,17.1C765.8,1249.4,763.8,1251.8,760.2,1252.1z M793.9,1236.1
		c-6.7,6.2-14.2,10.9-23.2,13.2c4.8-8,11.9-12.6,21.1-14.3C792.5,1235.2,793.5,1235,793.9,1236.1z M806.6,1242.1
		c-3.9,9.8-7.9,19.6-12.7,29c-2.6,5.2-6.3,9.7-10.8,13.4c-2,1.7-4.2,3.1-7.1,2.2c-3.4,0.2-5.5-1.9-7.2-4.5c-5-7.5-4.5-15.6-2.3-23.8
		c0.4-1.3,1.3-2.2,2.7-2.7c8.5-3.1,16.5-7.2,24.1-13.4c-0.4,4-1.7,6.8-2.8,9.7c-3.7,9.6-8.7,18.5-13.9,27.3
		c-0.8,1.5-2.5,2.8-1.5,4.9c1.8,1.2,3.4,2.3,4-1.2c0.2-1.2,1.2-2.3,1.9-3.5c7.6-12.6,14-25.8,18.1-40c2-6.9,3.6-8.1,10-7.9
		C809,1235.4,807.9,1238.8,806.6,1242.1z M840.9,1227.4c0,0-0.1,0.1-0.2,0.1c-0.2,0.2-0.4,0.4-0.6,0.6c-4.2,4.1-8,8.5-12.9,11.8
		c-2.7,1.8-5.5,3-8.8,2.4c-4.1-0.8-5.1-3.4-2.7-6.7c1.8-2.5,4.2-4.1,7.3-4.6c5.2-0.9,10.4-1.7,15.5-3.1c0.2-0.1,0.3-0.1,0.5-0.2
		c0.4-0.1,0.8-0.3,1.2-0.5c1-0.4,1.9-0.8,2.7-1.3C842.2,1226.4,841.6,1227,840.9,1227.4z M775.1,1284.2c0.3,0.8,0.6,1.7,0.8,2.5
		C776.7,1285.6,775.3,1285.1,775.1,1284.2z M775.1,1284.2c0.3,0.8,0.6,1.7,0.8,2.5C776.7,1285.6,775.3,1285.1,775.1,1284.2z
		 M775.1,1284.2c0.3,0.8,0.6,1.7,0.8,2.5C776.7,1285.6,775.3,1285.1,775.1,1284.2z M775.1,1284.2c0.3,0.8,0.6,1.7,0.8,2.5
		C776.7,1285.6,775.3,1285.1,775.1,1284.2z M775.1,1284.2c0.3,0.8,0.6,1.7,0.8,2.5C776.7,1285.6,775.3,1285.1,775.1,1284.2z"/>
	<path d="M1020.4,1209.6c-0.1-0.7-0.6-1.2-1.3-1.2c-0.7,0-1.3,0-2,0.1c-12.5,0.8-25.1,1.6-37.6,2.4c-2.2,0.1-4.4,0-7.4,0
		c2.5-2.7,4.5-4.8,6.5-7c4.9-5.3,8.4-11.4,10.2-18.5c0.4-1.5,0.6-2.9,0.3-4.4c-0.8-3.8-0.9-4-4.5-3c-5.3,1.3-8.9,4.9-11.9,9.2
		c-5,7.2-9.9,14.4-14.6,21.9c-2.4,3.8-5.4,5.9-9.9,6.3c-3.1,0.3-6.3,0.4-9.2,1.6c-1,0.4-1.8,0.7-1.5,2c0.3,1.3,0.8,2,2.4,1.8
		c2.6-0.4,5.3-0.6,7.9-0.9c2.7-0.6,2.7-0.6,3.2,1.2c-3.3,2.5-6.2,6-11.2,3.4c-1.2-0.7-2.5,0.4-3.7,0.9c-3.8,1.5-7.6,3.1-11.6,4.6
		c-1.1-2.2-1-4.4-1.1-6.5c-0.5-9.9-0.7-19.8-1.5-29.7c-0.4-5.5,0-10.5,3.2-15.1c0.5-0.7,1.4-1.6,0.3-2.6c-1.2-1.1-2-0.4-3,0.4
		c-0.3,0.3-0.8,0.3-1.6,0.6c-1.8-7.4-0.2-15.6-4.9-22.7c-1.4,2.5-1.4,4.6-1.1,6.7c0.7,4.7,1.2,9.5,2,14.3c0.7,4.8,0.1,9-3,13
		c-5.3,7-10.3,14.2-15.3,21.4c-4.3,6.2-8.7,12.5-12.9,18.8c-2.6,4-6.1,6-10.9,5.4c-1.1-0.1-2.4-0.3-3.5,0c-1.6,0.4-4.2-0.9-4.3,2
		c-0.1,2.9,2.6,1.9,4.1,2c2.4,0.2,4.7,0.2,7.7,0.4c-3.7,6.2-7,11.8-10.3,17.2c-1.3,2.2-2.3,4.4-2.6,6.9c-0.1,0.9-0.7,1.9,0.6,2.6
		c1.5,0.7,2.1-0.5,2.7-1.4c0.7-1.1,1.3-2.3,2-3.4c3.1-5.5,6.3-10.8,9.2-16.4c2.2-4.3,5.4-6.3,10.2-6.6c8.6-0.5,17.2-1.3,25.7-1.9
		c3.5-0.2,3.5-0.2,3.7,3.3c0.6,12.7,1.2,25.5,1.9,38.2c0.1,1.5-1,4.1,2.1,3.9c3.1-0.2,1.7-2.8,1.7-4.2c-0.5-12.4-1.1-24.8-1.6-37.2
		c-0.2-5.5-0.1-5.5,5.5-6.4c0.3,0,0.6,0.1,1.3,0.2c0,2.2-0.1,4.5,0,6.8c0.1,1.4,1,2.5,2.4,2.8c1.2,0.3,2.2-0.5,3-1.4
		c1.6-1.8,2.5-3.9,3.3-6.1c1.4-3.7,4-5.9,7.9-6.5c0.6,1.1,0.2,2-0.1,2.9c-0.8,3-1.7,6-2.4,9.1c-1.9,8.8,1.7,17.4,9.2,22.4
		c2.9,1.9,6.1,2.9,9.9,2.3c-0.9-2.8-3-3.5-4.9-4.4c-7.7-3.6-10.9-9.7-10.6-18c0.2-4,1.7-7.7,2.9-11.5c2.5-8,8.1-12.6,16.1-14.5
		c4-1,8.1-1.6,12.2-1.9c12.2-1.1,24.4-2.1,36.6-3.1c1-0.1,2-0.2,2.9-0.5C1020.4,1211.3,1020.6,1210.5,1020.4,1209.6z M916.4,1229.9
		c-8.9,0.7-17.7,1.4-27.5,2.3c9.4-14,18.2-27.1,27.7-41.2c0.4,6.7,0.8,12.2,1.1,17.7c0.3,5.9,0.6,11.9,0.9,17.8
		C918.7,1228.2,918.8,1229.7,916.4,1229.9z M961.3,1211.8c5.3-12.4,15.2-25,22.6-28.7C983.3,1192.5,969.6,1209.9,961.3,1211.8z"/>
	<path d="M845.6,1224.5c-1,1.6-2.3,2.9-3.9,3.7c-0.5-0.1-1-0.1-1.5-0.2c-0.4-0.1-0.8-0.2-1.2-0.4c-0.2-0.2-0.5-0.4-0.7-0.7
		c2.5-1.1,5.1-2,6.9-4.2C845.3,1223.3,845.5,1223.9,845.6,1224.5z"/>
	<path d="M947.5,1219.9c0.9-0.7,2-1,3-0.8c1.7,0.4,1.4,1.2,0.1,2C950,1219.7,948.5,1220.6,947.5,1219.9z"/>
	<path d="M544.3,1064.2c1,5.3-1.3,9.9-4.9,14.4c-9.2,12-7.7,7.4-7.9,22.3c0,1.2,0,2.3-0.1,3.5c-0.4,4.1-1.2,4.9-5.2,4.8
		c-3.7,0-4.8-0.9-5-4.5c-0.2-3.8-0.3-7.6,0-11.4c0.2-3.2-0.8-5.8-2.8-8.1c-2.4-2.9-4.7-6-7-9c-1.7-2.1-2.8-4.5-3-7.2
		c-0.2-4-0.4-7.9,0.1-11.9c0.4-3.6,1.7-4.6,5.1-4.4c3.3,0.1,4.1,0.9,4.3,4.6c0.1,1.5,0.2,3,0,4.4c-0.9,6.5,2.6,11,6.5,15.4
		c1.3,1.5,2.4,1.4,3.6-0.1c3.8-4.4,7.6-8.9,6.4-15.4c-0.3-1.4,0-3,0.1-4.4c0.3-3.5,1.3-4.4,4.5-4.5c3.5-0.1,4.6,0.9,5,4.6
		c0.1,0.5,0.1,1,0.1,1.5C544.3,1060.3,544.3,1062,544.3,1064.2z"/>
	<path d="M609.4,1103.4c0.1,5-0.4,5.6-5.6,5.6c-8.3,0-16.5,0.1-24.8,0.1c-5.2,0-5.5-0.2-5.5-5.7c-0.1-7.4,0-14.9,0-22.3c0,0,0,0,0,0
		c0-7.6,0-15.2,0-22.8c0.1-4.8,0.7-5.4,5.6-5.4c8.4,0,16.9-0.1,25.3,0c4.1,0,5,1.2,5,5.5c0,4.6-0.7,5.7-4.7,5.8
		c-5.3,0.1-10.6,0-15.9,0.1c-1.8,0-4.1-0.5-4.8,1.6c-0.9,2.6-1,5.5,0.2,8.2c0.6,1.3,1.9,1.1,3.1,1.2c3.3,0.1,6.6,0,9.9,0.1
		c4.5,0.1,5.5,1.1,5.6,5.6c0,1-0.3,2-0.3,3c-0.1,2.2-1.3,3.3-3.5,3.2c-3.3,0-6.6,0-9.9,0.1c-1.9,0.1-4.3-0.4-5.1,2
		c-0.9,2.5-0.8,5.2,0.2,7.8c0.5,1.3,1.9,1.1,3,1.2c4.3,0.1,8.6,0.1,12.9,0.1c1.5,0,3,0,4.5,0.1
		C608.7,1098.7,609.3,1099.3,609.4,1103.4z"/>
	<path d="M671.6,1089.9c0.3,3.7,0,7.3-1,10.8c-1.7,5.8-5.9,8.7-10.8,8.5c-4.6-0.1-9.2-0.1-13.9,0c-4.8,0-7.6-2.7-9.4-6.8
		c-1.1-2.5-0.4-3.9,2.4-4.1c3.1-0.2,6.3,0,9.4,0v-0.1c2.8,0,5.6,0.1,8.4,0c4-0.2,4.8-1,4.9-5.2c0.1-4.8-0.7-5.7-5.6-5.9
		c-1.7,0-3.3,0-4.9,0c-1.3,0-2.6,0-4-0.2c-6.8-0.8-10.7-4.9-11.1-11.7c-0.2-3.8-0.2-7.6,0-11.4c0.5-6.5,4.8-10.5,11.3-10.7
		c4.6-0.1,9.2,0,13.9,0c4.6,0,7.3,2.7,8.9,6.6c1.2,2.9,0.5,4.1-2.5,4.3c-3.5,0.2-6.9,0.1-10.4,0.2c-2,0-4-0.2-5.9,0
		c-1.8,0.2-4.2-0.7-5.2,1.7c-1.1,2.7-1,5.5,0.2,8.2c0.5,1,1.6,1.1,2.6,1.1c2.3,0,4.6,0,6.9,0
		C665.9,1075.4,670.7,1079.9,671.6,1089.9z"/>
	<path d="M734.5,1056.9c-0.1,5.6,0,11.2,0,16.8h0c0,5.3,0.1,10.6,0,15.9c-0.1,5-1.9,9.3-5,13.2c-7,8.8-19,8.8-25.9-0.1
		c-2.8-3.6-4.7-7.6-4.8-12.2c-0.1-10.9-0.1-21.8,0-32.7c0-4.1,1.6-5.5,5.4-5.2c3.2,0.3,4.3,1.4,4.3,5.4c0.1,9.1,0.1,18.2,0,27.3
		c0,2.5,0.1,5,1,7.3c1.3,3.6,4.1,5.6,7.4,5.4c3.3-0.2,6.1-2.5,7-6c0.4-1.7,0.5-3.6,0.5-5.4c0.1-8.4,0-16.9,0-25.3c0-1.2,0-2.3,0-3.5
		c0.3-4.1,2.1-5.6,6.1-5C733,1053.1,734.5,1054,734.5,1056.9z"/>
	<path d="M858.6,1056.5c0,1.2,0.1,2.3,0,3.5c-0.3,3.5-0.7,3.9-4.2,4.2c-1.2,0.1-2.3,0-3.5,0c-4.4,0.1-4.5,0.2-4.7,4.4
		c-0.1,2.8-0.1,5.6-0.1,8.4c0,8.8,0,17.5,0,26.3c0,4.7-1,5.8-4.7,5.9c-4.2,0.1-5.3-0.8-5.4-5.1c-0.1-6,0-11.9,0-17.9
		c0-5.5,0-10.9,0-16.4c0-5.4-0.4-5.7-5.5-5.8c-0.8,0-1.7,0-2.5,0c-4-0.1-5.1-1.3-5.2-5.5c-0.1-4.2,1.1-5.8,4.9-5.9
		c8.9-0.1,17.9,0,26.8,0C857.1,1052.8,858.5,1053.9,858.6,1056.5z"/>
	<path d="M922.2,1100.2c1.1,2.5,1,5.2-0.2,7.7c-0.5,1.1-1.6,1.1-2.5,1.1c-9.7,0-19.5,0.1-29.2,0c-2.7,0-3.3-0.8-3.4-4.3
		c-0.1-7.3-0.1-14.5-0.1-21.8v-2c0,0,0,0,0,0c0-7.3,0-14.5,0-21.8c0-5.6,0.6-6.3,6.2-6.5c8.6-0.3,17.2-0.6,25.7,0.5
		c3.3,0.4,4.3,1.9,4.1,5.9c-0.2,3.9-1.1,5.1-4.4,5.2c-5.4,0.1-10.9,0-16.3,0.1c-4.9,0.1-5.3,0.5-5.2,5.5c0,0.8,0.1,1.6,0.2,2.5
		c0,2.1,1.2,3,3.1,3c3.3,0,6.6,0,9.9,0.1c5.4,0.1,6,0.7,6,6c0,5.3-0.3,5.6-5.5,5.8c-3.1,0.1-6.3-0.1-9.4,0.1
		c-3.6,0.2-3.9,0.6-4.2,4.1c0,0.7-0.1,1.3-0.1,2c0.1,4.2,0.7,4.9,4.9,4.9c5.1,0.1,10.3,0,15.4,0C919,1098.2,921.2,1098,922.2,1100.2
		z"/>
	<path d="M971.9,1102.1c0,0.5,0.1,1,0.1,1.5c0,4.9-0.4,5.4-5.3,5.5c-1.7,0-3.3,0-4.9,0c-7.2-0.1-11.7-4.3-12.2-11.5
		c-0.2-3.5-0.1-6.9-0.1-10.4c0-3.3,0-6.6,0-9.9c0,0,0,0,0,0c0-6.6-0.1-13.2,0-19.8c0.1-4,2.3-5.5,6.1-4.8c2,0.4,3.3,1.5,3.5,3.6
		c0.1,1.3,0.2,2.6,0.2,3.9c0,9.9,0,19.8,0.1,29.8c0,1.2,0,2.3,0.1,3.5c0.3,4.1,0.7,4.5,4.7,4.7c1.5,0.1,3,0.2,4.4,0.2
		C970.9,1098.4,971.9,1099.8,971.9,1102.1z"/>
	<path d="M1040.9,1073.3c-0.2-6.3-2.4-12-7.3-16.2c-6.7-5.8-15.7-5.5-21.9,0.7c-4.1,4.1-6.5,9.1-6.5,15.1c0,5.1,0,10.2,0,15.4
		c0,0,0,0,0,0c0,5.6-0.1,11.2,0,16.9c0.1,3.5,0.9,4.1,4.6,4.2c3.6,0.1,4.8-0.8,5.1-3.9c0.2-2.6,0.1-5.3,0.1-7.9
		c0.1-10.9-1.3-10.4,10.6-10.2c4.7,0.1,5.2,0.5,5.3,5.1c0.1,4.1,0,8.3,0.1,12.4c0.1,3.5,1.4,4.4,5.1,4.4c3.5,0,4.8-1.2,4.9-4.6
		C1041.1,1094.1,1041.2,1083.7,1040.9,1073.3z M1025.7,1075.2c-0.8,0-1.6,0-2.5,0c-1.1,0-2.3,0-3.4,0c-4-0.2-5.2-1.9-3.8-5.6
		c1.1-3,3.4-4.8,6.5-5.3c2.3-0.4,6,2,7.2,4.3C1031.6,1072.6,1030.1,1075.1,1025.7,1075.2z"/>
	<path d="M1165.3,1056.5c0.1,4.4,0.1,8.9,0.1,13.4c0,1.9-0.8,3.5-1.9,5c-2.1,2.8-4,5.7-6.4,8.2c-3.5,3.8-4.7,8.1-4.3,13.2
		c0.2,3.1,0,6.3-0.2,9.4c-0.3,2.9-1.3,3.5-4.8,3.6c-3.7,0-4.5-0.5-4.9-3.4c-0.5-3.4-0.5-6.9-0.2-10.4c0.3-4.5-0.7-8.5-4-11.8
		c-0.9-1-1.6-2.2-2.5-3.1c-6.9-6.4-7.1-14.5-6.3-22.9c0.4-4.4,2.3-5.7,6.6-4.9c1.9,0.4,3,1.2,3,3.2c0,1.5,0.4,3,0.2,4.4
		c-1.2,7.6,2.4,13,8.2,17.9c3-2.4,5-5.5,7.1-8.4c1.1-1.5,1-3.5,1.1-5.3c0-2.8-0.1-5.6,0.1-8.4c0.2-2.8,1.8-3.8,4.7-3.7
		C1163.9,1052.7,1165.2,1053.7,1165.3,1056.5z"/>
	<path d="M1228.5,1072c-0.3-4-1.4-7.8-3.6-11.2c-6.9-10.3-20.8-10.5-27.9-0.4c-1.6,2.2-2.5,4.6-3.3,7.2c-1.3,4.6-0.6,9.2-0.8,13.8
		c0,2.8-0.1,5.6,0,8.4c0.2,4.2,1.2,8.1,3.6,11.6c6.8,10,19.2,10.7,27,1.5c3-3.5,4.7-7.6,4.9-12.2
		C1228.9,1084.5,1228.9,1078.3,1228.5,1072z M1217.3,1093.9c-1.5,2.6-3.8,4.1-6.9,4.1c-2.9,0-5.3-1.6-6.2-4.2
		c-2.7-8-2.5-16.2-0.4-24.3c0.9-3.5,4.7-5.4,7.7-5c3.4,0.4,6.4,3.4,6.9,7.4c0.3,3.1,0.1,6.3,0.1,9.4h0.1c0,2.5,0,4.9,0,7.4
		C1218.6,1090.5,1218.2,1092.3,1217.3,1093.9z"/>
	<path d="M1291.2,1081.6C1291.2,1081.6,1291.2,1081.6,1291.2,1081.6c0-3.3,0.2-6.6-0.1-9.9c-0.4-5.3-2.3-10-6.1-13.7
		c-6.7-6.7-16.1-6.8-23-0.3c-4.2,4-6.2,8.9-6.4,14.6c-0.2,6.1-0.2,12.2,0,18.4c0.2,5.5,2.5,10.3,6.4,14.1c6.4,6.3,16.4,6.2,22.7-0.1
		c3.9-3.9,6.1-8.6,6.5-14.1C1291.3,1087.6,1291.2,1084.6,1291.2,1081.6z M1281.2,1081.4v7.4c0,2-0.5,3.9-1.7,5.6
		c-1.7,2.5-4.1,3.8-7.2,3.5c-2.9-0.3-4.8-2-5.9-4.7c-0.7-1.7-1-3.5-1.1-5.3c-0.3-4.5-0.4-8.9,0-13.4c0.1-1,0.2-2,0.4-2.9
		c1-4.5,4.4-7.6,8.1-7.4c3.5,0.3,7,3.9,7.3,8.2C1281.3,1075.4,1281.1,1078.4,1281.2,1081.4L1281.2,1081.4z"/>
	<path d="M764.1,1197.3c-1,0.2-1.4-0.1-1.1-1.1C763.4,1196.6,763.7,1196.9,764.1,1197.3z"/>
	<path d="M775.9,1286.7c-0.3-0.8-0.6-1.7-0.8-2.5C775.3,1285.1,776.7,1285.6,775.9,1286.7z"/>
	<path d="M775.9,1286.7c-0.3-0.8-0.6-1.7-0.8-2.5C775.3,1285.1,776.7,1285.6,775.9,1286.7z"/>
	<path d="M840.9,1227.4c-0.2-0.1-0.4-0.2-0.6-0.2c-0.6-0.1-1.3-0.1-1.9-0.3c-5.5,1-11,2.2-16.5,2.9c-4.8,0.6-7.1,3.8-8.8,7.7
		c-1,2.4-0.2,4.1,2.3,5.1c4.9,2,9.5,1.2,13.4-2.2c4.5-3.9,8.9-7.8,12.9-12.2C841.4,1227.9,841.2,1227.6,840.9,1227.4z M827.3,1239.9
		c-2.7,1.8-5.5,3-8.8,2.4c-4.1-0.8-5.1-3.4-2.7-6.7c1.8-2.5,4.2-4.1,7.3-4.6c5.2-0.9,10.4-1.7,15.5-3.1c0.2-0.1,0.3-0.1,0.5-0.2
		c0.4,0.2,0.7,0.4,1.2,0.4C836,1232.2,832.1,1236.6,827.3,1239.9z"/>
	<path d="M793.9,1236.1c-0.4-1.1-1.4-0.8-2.2-1.2C792.9,1234.4,794,1234.1,793.9,1236.1z"/>
	<path d="M795.4,1234.5c0.2,0.8-0.7,1.3-1.6,1.5c-0.4-1.1-1.4-0.8-2.2-1.2c0.6-0.3,1.1-0.7,1.7-0.8
		C794.1,1234,795.2,1233.5,795.4,1234.5z"/>
	<path d="M764.1,1197.3c-0.4,0.8-0.8,2.1-1.8,1.3c-0.8-0.6-0.1-1.7,0.7-2.4C763.4,1196.6,763.7,1196.9,764.1,1197.3z"/>
	<path d="M843.4,1235c0.2-0.2,0.3-0.4,0.5-0.6c0.3,0.7-0.1,0.6-0.6,0.5C843.3,1234.8,843.4,1235,843.4,1235z"/>
	<path d="M603.9,1109c-8.3,0-16.5,0.1-24.8,0.1c-5.2,0-5.5-0.2-5.5-5.7c-0.1-7.4,0-14.9,0-22.3c0,0,0,0,0,0c0-7.6,0-15.2,0-22.8
		c0.1-4.8,0.7-5.4,5.6-5.4c8.4,0,16.9-0.1,25.3,0c4.1,0,5,1.2,5,5.5c0,4.6-0.7,5.7-4.7,5.8c-5.3,0.1-10.6,0-15.9,0.1
		c-1.8,0-4.1-0.5-4.8,1.6c-0.9,2.6-1,5.5,0.2,8.2c0.6,1.3,1.9,1.1,3.1,1.2c3.3,0.1,6.6,0,9.9,0.1c4.5,0.1,5.5,1.1,5.6,5.6
		c0,1-0.3,2-0.3,3c-0.1,2.2-1.3,3.3-3.5,3.2c-3.3,0-6.6,0-9.9,0.1c-1.9,0.1-4.3-0.4-5.1,2c-0.9,2.5-0.8,5.2,0.2,7.8
		c0.5,1.3,1.9,1.1,3,1.2c4.3,0.1,8.6,0.1,12.9,0.1c1.5,0,3,0,4.5,0.1c4.2,0.3,4.8,0.9,4.9,5C609.6,1108.4,609.1,1109,603.9,1109z"/>
	<path d="M1040.9,1073.3c-0.2-6.3-2.4-12-7.3-16.2c-6.7-5.8-15.7-5.5-21.9,0.7c-4.1,4.1-6.5,9.1-6.5,15.1c0,5.1,0,10.2,0,15.4
		c0,0,0,0,0,0c0,5.6-0.1,11.2,0,16.9c0.1,3.5,0.9,4.1,4.6,4.2c3.6,0.1,4.8-0.8,5.1-3.9c0.2-2.6,0.1-5.3,0.1-7.9
		c0.1-10.9-1.3-10.4,10.6-10.2c4.7,0.1,5.2,0.5,5.3,5.1c0.1,4.1,0,8.3,0.1,12.4c0.1,3.5,1.4,4.4,5.1,4.4c3.5,0,4.8-1.2,4.9-4.6
		C1041.1,1094.1,1041.2,1083.7,1040.9,1073.3z M1025.7,1075.2c-0.8,0-1.6,0-2.5,0c-1.1,0-2.3,0-3.4,0c-4-0.2-5.2-1.9-3.8-5.6
		c1.1-3,3.4-4.8,6.5-5.3c2.3-0.4,6,2,7.2,4.3C1031.6,1072.6,1030.1,1075.1,1025.7,1075.2z"/>
	<path d="M921.9,1107.9c-0.5,1.1-1.6,1.1-2.5,1.1c-9.7,0-19.5,0.1-29.2,0c-2.7,0-3.3-0.8-3.4-4.3c-0.1-7.3-0.1-14.5-0.1-21.8v-2
		c0,0,0,0,0,0c0-7.3,0-14.5,0-21.8c0-5.6,0.6-6.3,6.2-6.5c8.6-0.3,17.2-0.6,25.7,0.5c3.3,0.4,4.3,1.9,4.1,5.9
		c-0.2,3.9-1.1,5.1-4.4,5.2c-5.4,0.1-10.9,0-16.3,0.1c-4.9,0.1-5.3,0.5-5.2,5.5c0,0.8,0.1,1.6,0.2,2.5c0,2.1,1.2,3,3.1,3
		c3.3,0,6.6,0,9.9,0.1c5.4,0.1,6,0.7,6,6c0,5.3-0.3,5.6-5.5,5.8c-3.1,0.1-6.3-0.1-9.4,0.1c-3.6,0.2-3.9,0.6-4.2,4.1
		c0,0.7-0.1,1.3-0.1,2c0.1,4.2,0.7,4.9,4.9,4.9c5.1,0.1,10.3,0,15.4,0c2,0,4.2-0.2,5.1,2C923.3,1102.8,923.1,1105.4,921.9,1107.9z"
		/>
	<path d="M670.6,1100.7c-1.7,5.8-5.9,8.7-10.8,8.5c-4.6-0.1-9.2-0.1-13.9,0c-4.8,0-7.6-2.7-9.4-6.8c-1.1-2.5-0.4-3.9,2.4-4.1
		c3.1-0.2,6.3,0,9.4,0v-0.1c2.8,0,5.6,0.1,8.4,0c4-0.2,4.8-1,4.9-5.2c0.1-4.8-0.7-5.7-5.6-5.9c-1.7,0-3.3,0-4.9,0
		c-1.3,0-2.6,0-4-0.2c-6.8-0.8-10.7-4.9-11.1-11.7c-0.2-3.8-0.2-7.6,0-11.4c0.5-6.5,4.8-10.5,11.3-10.7c4.6-0.1,9.2,0,13.9,0
		c4.6,0,7.3,2.7,8.9,6.6c1.2,2.9,0.5,4.1-2.5,4.3c-3.5,0.2-6.9,0.1-10.4,0.2c-2,0-4-0.2-5.9,0c-1.8,0.2-4.2-0.7-5.2,1.7
		c-1.1,2.7-1,5.5,0.2,8.2c0.5,1,1.6,1.1,2.6,1.1c2.3,0,4.6,0,6.9,0c10.1,0.2,14.8,4.6,15.8,14.6
		C671.9,1093.5,671.6,1097.1,670.6,1100.7z"/>
	<path d="M1228.5,1072c-0.3-4-1.4-7.8-3.6-11.2c-6.9-10.3-20.8-10.5-27.9-0.4c-1.6,2.2-2.5,4.6-3.3,7.2c-1.3,4.6-0.6,9.2-0.8,13.8
		c0,2.8-0.1,5.6,0,8.4c0.2,4.2,1.2,8.1,3.6,11.6c6.8,10,19.2,10.7,27,1.5c3-3.5,4.7-7.6,4.9-12.2
		C1228.9,1084.5,1228.9,1078.3,1228.5,1072z M1217.3,1093.9c-1.5,2.6-3.8,4.1-6.9,4.1c-2.9,0-5.3-1.6-6.2-4.2
		c-2.7-8-2.5-16.2-0.4-24.3c0.9-3.5,4.7-5.4,7.7-5c3.4,0.4,6.4,3.4,6.9,7.4c0.3,3.1,0.1,6.3,0.1,9.4h0.1c0,2.5,0,4.9,0,7.4
		C1218.6,1090.5,1218.2,1092.3,1217.3,1093.9z"/>
	<path d="M1291.2,1081.6C1291.2,1081.6,1291.2,1081.6,1291.2,1081.6c0-3.3,0.2-6.6-0.1-9.9c-0.4-5.3-2.3-10-6.1-13.7
		c-6.7-6.7-16.1-6.8-23-0.3c-4.2,4-6.2,8.9-6.4,14.6c-0.2,6.1-0.2,12.2,0,18.4c0.2,5.5,2.5,10.3,6.4,14.1c6.4,6.3,16.4,6.2,22.7-0.1
		c3.9-3.9,6.1-8.6,6.5-14.1C1291.3,1087.6,1291.2,1084.6,1291.2,1081.6z M1281.2,1081.4v7.4c0,2-0.5,3.9-1.7,5.6
		c-1.7,2.5-4.1,3.8-7.2,3.5c-2.9-0.3-4.8-2-5.9-4.7c-0.7-1.7-1-3.5-1.1-5.3c-0.3-4.5-0.4-8.9,0-13.4c0.1-1,0.2-2,0.4-2.9
		c1-4.5,4.4-7.6,8.1-7.4c3.5,0.3,7,3.9,7.3,8.2C1281.3,1075.4,1281.1,1078.4,1281.2,1081.4L1281.2,1081.4z"/>
	<path d="M734.5,1073.7c0,5.3,0.1,10.6,0,15.9c-0.1,5-1.9,9.3-5,13.2c-7,8.8-19,8.8-25.9-0.1c-2.8-3.6-4.7-7.6-4.8-12.2
		c-0.1-10.9-0.1-21.8,0-32.7c0-4.1,1.6-5.5,5.4-5.2c3.2,0.3,4.3,1.4,4.3,5.4c0.1,9.1,0.1,18.2,0,27.3c0,2.5,0.1,5,1,7.3
		c1.3,3.6,4.1,5.6,7.4,5.4c3.3-0.2,6.1-2.5,7-6c0.4-1.7,0.5-3.6,0.5-5.4c0.1-8.4,0-16.9,0-25.3c0-1.2,0-2.3,0-3.5
		c0.3-4.1,2.1-5.6,6.1-5c2.4,0.4,3.9,1.3,3.8,4.1C734.4,1062.5,734.5,1068.1,734.5,1073.7L734.5,1073.7z"/>
	<path d="M539.4,1078.6c-9.2,12-7.7,7.4-7.9,22.3c0,1.2,0,2.3-0.1,3.5c-0.4,4.1-1.2,4.9-5.2,4.8c-3.7,0-4.8-0.9-5-4.5
		c-0.2-3.8-0.3-7.6,0-11.4c0.2-3.2-0.8-5.8-2.8-8.1c-2.4-2.9-4.7-6-7-9c-1.7-2.1-2.8-4.5-3-7.2c-0.2-4-0.4-7.9,0.1-11.9
		c0.4-3.6,1.7-4.6,5.1-4.4c3.3,0.1,4.1,0.9,4.3,4.6c0.1,1.5,0.2,3,0,4.4c-0.9,6.5,2.6,11,6.5,15.4c1.3,1.5,2.4,1.4,3.6-0.1
		c3.8-4.4,7.6-8.9,6.4-15.4c-0.3-1.4,0-3,0.1-4.4c0.3-3.5,1.3-4.4,4.5-4.5c3.5-0.1,4.6,0.9,5,4.6c0.1,0.5,0.1,1,0.1,1.5
		c0,1.7,0,3.3,0,5.5C545.3,1069.5,542.9,1074.1,539.4,1078.6z"/>
	<path d="M1165.4,1069.9c0,1.9-0.8,3.5-1.9,5c-2.1,2.8-4,5.7-6.4,8.2c-3.5,3.8-4.7,8.1-4.3,13.2c0.2,3.1,0,6.3-0.2,9.4
		c-0.3,2.9-1.3,3.5-4.8,3.6c-3.7,0-4.5-0.5-4.9-3.4c-0.5-3.4-0.5-6.9-0.2-10.4c0.3-4.5-0.7-8.5-4-11.8c-0.9-1-1.6-2.2-2.5-3.1
		c-6.9-6.4-7.1-14.5-6.3-22.9c0.4-4.4,2.3-5.7,6.6-4.9c1.9,0.4,3,1.2,3,3.2c0,1.5,0.4,3,0.2,4.4c-1.2,7.6,2.4,13,8.2,17.9
		c3-2.4,5-5.5,7.1-8.4c1.1-1.5,1-3.5,1.1-5.3c0-2.8-0.1-5.6,0.1-8.4c0.2-2.8,1.8-3.8,4.7-3.7c3.1,0.1,4.4,1.1,4.6,3.9
		C1165.5,1061,1165.4,1065.4,1165.4,1069.9z"/>
	<path d="M858.6,1060c-0.3,3.5-0.7,3.9-4.2,4.2c-1.2,0.1-2.3,0-3.5,0c-4.4,0.1-4.5,0.2-4.7,4.4c-0.1,2.8-0.1,5.6-0.1,8.4
		c0,8.8,0,17.5,0,26.3c0,4.7-1,5.8-4.7,5.9c-4.2,0.1-5.3-0.8-5.4-5.1c-0.1-6,0-11.9,0-17.9c0-5.5,0-10.9,0-16.4
		c0-5.4-0.4-5.7-5.5-5.8c-0.8,0-1.7,0-2.5,0c-4-0.1-5.1-1.3-5.2-5.5c-0.1-4.2,1.1-5.8,4.9-5.9c8.9-0.1,17.9,0,26.8,0
		c2.6,0,4,1.1,4.1,3.7C858.6,1057.7,858.7,1058.8,858.6,1060z"/>
	<path d="M972,1103.6c0,4.9-0.4,5.4-5.3,5.5c-1.7,0-3.3,0-4.9,0c-7.2-0.1-11.7-4.3-12.2-11.5c-0.2-3.5-0.1-6.9-0.1-10.4
		c0-3.3,0-6.6,0-9.9c0,0,0,0,0,0c0-6.6-0.1-13.2,0-19.8c0.1-4,2.3-5.5,6.1-4.8c2,0.4,3.3,1.5,3.5,3.6c0.1,1.3,0.2,2.6,0.2,3.9
		c0,9.9,0,19.8,0.1,29.8c0,1.2,0,2.3,0.1,3.5c0.3,4.1,0.7,4.5,4.7,4.7c1.5,0.1,3,0.2,4.4,0.2c2.5,0,3.5,1.4,3.5,3.7
		C971.9,1102.6,971.9,1103.1,972,1103.6z"/>
</g>
</svg>
