<?xml version="1.0" encoding="UTF-8"?>
<svg id="Layer_1" data-name="Layer 1" xmlns="http://www.w3.org/2000/svg" viewBox="0 0 1741.59 1389.89">
  <defs>
    <style>
      .cls-1 {
        fill: #262262;
      }

      .cls-1, .cls-2, .cls-3, .cls-4 {
        stroke-width: 0px;
      }

      .cls-2 {
        fill: #2b3990;
      }

      .cls-3 {
        fill: #2e3192;
      }

      .cls-4 {
        fill: #fff;
      }
    </style>
  </defs>
  <path class="cls-1" d="m1128.89,611.29c-3,80.09-3.52,152.47-15.74,223.93-14.65,85.66-58.67,155.47-119.78,215.28-60.15,58.88-128.89,106.04-203.12,145.41-6.58,3.49-12.22,5.77-19.85,1.43-97.29-55.34-188.62-117.98-258.01-207.95-45.64-59.16-68.16-126.85-73.59-200.59-6.86-93.1-10.27-186.35-10.46-279.72-.02-11.5,2.18-17.03,14.96-15.43,60.52,7.62,113.41-16.38,166.45-40.29,51.7-23.3,106.35-36.87,161.92-47.23,10.63-1.98,20.5.73,30.36,2.82,66.9,14.23,131.98,34.22,193.36,64.8,36.19,18.03,74.56,20.66,113.9,19.67,23.69-.6,19.45-1.21,19.55,19.57.16,35.39.04,70.78.04,98.28Zm-20.7,9.51c0-28.72-.35-57.45.17-86.16.2-11.2-1.95-16.62-15.11-15.59-35.5,2.79-69.53-4.56-101.48-19.86-47.28-22.64-95.96-41.41-146.65-54.6-27.97-7.28-55.57-17.71-85.7-11.32-65.45,13.87-128.65,34.27-188.96,63.27-32.43,15.59-66.12,25.47-102.34,22.85-15.37-1.11-18.55,4.65-18.35,19.04,1.18,82.08,6.24,163.9,12.86,245.71,6.35,78.52,32.7,148.39,83.81,208.75,63.28,74.71,143.62,127.67,225.81,178.39,5.76,3.56,10.43,2.84,15.63-.26,73.75-43.85,145.42-90.22,204.25-154.08,53.85-58.44,91.62-124.43,101.76-204.3,8.09-63.67,8.78-127.86,14.27-191.83Z"/>
  <path class="cls-2" d="m1085.13,531.25c-32.22.29-62.99-6.92-92.19-20.68-53.43-25.19-108.59-45.68-165.88-60.21-21.26-5.38-42.16-11.1-64.96-6.46-68.68,13.99-134.16,37.07-197.58,66.45-28.72,13.3-58.63,21.84-90.53,20.47-11.75-.51-14.23,3.14-13.71,14.8,3.16,71.72,8.9,143.32,11.68,215.02,4.13,106.85,46.35,194.84,123.12,267.7,47.47,45.03,102.1,80.33,155.52,117.51,20.03,13.94,33.53,15.48,54.84,1.96,64.71-41.05,128.17-83.23,179.95-140.6,51.24-56.77,87.81-120.56,97.13-198.18,6.79-56.63,7.79-113.53,14.79-170.33,0-31.26-.28-62.52.18-93.78.13-9.32-1.51-13.77-12.36-13.67Zm-239.2,429.63c-11.16,7.82-23.78,13.54-39.92,22.56,10.03-20.81,17.72-37.54,22.82-57.8-34.36,33.76-77.1,38.03-119.56,42.55-25.64,2.73-25.43,2.06-31.35-23.09-4.67-19.79-2.76-39.77-2.87-59.71-.09-17.28-.02-34.56-.02-51.84-1.74-1.39-3.48-2.77-5.23-4.15-3.29,4.92-6.11,10.27-9.99,14.68-6.69,7.61-10.9,3.99-11.41-4.19-1.61-26.12-4.66-53.24,2.97-77.96,6.14-19.89,21.62-36.84,36.17-52.67,6.57-7.14,4.22-9.2-4.84-9.49,16.29-14.96,29.55-30.83,48.02-40.46,5.96-3.11,3.83-7.65,2.27-11.86-6.07-16.46-14.63-31.86-25.59-45.28-8.49-10.4-5.02-12.74,5.44-15.23,61.97-14.74,100.66-14.6,165.52,1.49-11.12,20.14-25.04,36.92-31.44,57.69,42.9,8.5,63,39.88,76.91,76.95,4.1,10.95,5.84,22.79,8.58,34.25.7,2.91,1.9,6.64-2.2,7.67-3.71.94-5.05-2.61-6.18-5.41-4.98-12.34-9.88-24.72-14.79-37.08-4.4-11.05-10.37-21.2-18.11-30.19-5.46-6.35-11.57-12.08-21.14-8.74-5.89,2.04-7.71-.84-6.9-5.95,1.51-9.5-4.47-10.6-11.65-11.99-35.23-6.79-69.39-8.29-98.76,17.54-3.62,3.18-7.25,2.75-8.33-1.57-3.49-13.95-9.73-7.19-16.04-2.7-3.75,2.66-7.93,4.76-11.56,7.57-4.5,3.46-10.65,7.16.02,11.07,7.08,2.6,6.27,6.01-.09,8.79-32.8,14.35-47.14,41.81-52.24,75.13-1.6,10.48-.25,21.4-.25,32.08.67,0,1.85.37,2.53-.06,6.17-3.86,10.54-14.68,18.61-10.14,6.39,3.59,5.39,13.78,5.22,21.38-.6,27.16-3.58,54.44-1.97,81.45,3.53,59.44-1.33,52.47,54.13,46.53,34.68-3.72,58.13-22.56,71.21-55.21,18.15-45.29,27.05-90.4,2.26-136.25-.24-.45-.5-.89-.76-1.34-14.31-25.12-28.83-27.44-48.53-6.93-5.91-34.17-23.02-3.32-38.88-7.67,23.05-18.21,30.25-47.22,55.45-61.1,22.48-12.39,44.85-7.8,61.95,12,2.56,2.97,5.75,4.13,9.27,4.92,30.16,6.79,44.46,29.75,54.52,55.64,11.05,28.47,16.02,58.31,12.73,89.01-.4,3.65,4.13,13.82-7.71,8.24-2.84-1.34-2.12,2.62-2.13,4.25-.35,48.2-30.32,77.51-66.16,102.62Zm-92.49-176.73c4.41-14.48,13.37-21.42,27.26-22.77,10.19-1,17.56,2.25,22.08,14.05q-26.78-1.86-49.34,8.72Z"/>
  <path class="cls-3" d="m762.35,606.3c8.61-2.83,20.25,2.14,24.83-10.84,1.3-3.67,5.39-.02,7.34,1.72,10.19,9.08,19.77,17.82,34.11,5.76,3.72-3.13,11.97-3.19,15.94.92,4.56,4.72-1.65,8.99-3.84,13.22-3.53,6.8-7.85,13.26-10.66,20.33-3.12,7.84-9.08,7.32-15.19,6.57-9.07-1.12-2.7-8-4.25-11.88-2.23-5.57,8.59-14.96-2.48-16.18-8.63-.96-9.05,9.44-9.42,16.55-.33,6.39.19,12.17-9.06,12.71-8.55.5-12.49-2.98-13.21-10.94-1-11.14-15.61-15.38-14.11-27.93Z"/>
  <path class="cls-3" d="m871.63,776.26c-16.33-14.23-29.83-28.6-38.81-47.39-9.13-19.1-21.42-23.11-41.66-17.07-4.79,1.43-9.58,2.85-15.39,4.57,15.54-19.18,44.89-22.09,61.69-7.05,23.59,21.12,34.36,41.73,34.17,66.93Z"/>
  <path class="cls-3" d="m766.79,641.65c.95,3.64-.48,5.76-4.29,6.24-4.33.54-8.85,2.73-11.77-3.14-4.5-9.03-9.59-17.77-14.17-26.77-1.83-3.61-8.3-7.44-2.97-11.39,4.76-3.53,12.22-4.23,16.65,1.21,8.04,9.87,13.04,21.55,16.55,33.84Z"/>
  <path class="cls-3" d="m897.6,844.97c5.04,15.21,2.74,29.94-3.53,44.41,1.18-14.8,2.35-29.61,3.53-44.41Z"/>
  <g>
    <path class="cls-4" d="m556.51,577.05c-4.53,2.08-9.05,4.26-13.55,6.55-2.4-3.81-2.93-8.09-1.45-12.82,1.47-4.72,4.86-8.89,10.11-12.3,2.15,3.3,4.29,6.61,6.44,9.91-2.94,2.4-3.44,5.31-1.54,8.66Zm40.01,21.3c-9.38,5.52-18.56,11.5-27.53,17.94-2.27-3.16-4.54-6.31-6.8-9.47,9.25-6.65,18.74-12.83,28.42-18.53,1.92-1.13,3.71-1.56,5.35-1.29,1.64.27,2.9,1.2,3.78,2.78.89,1.58,1.03,3.13.44,4.65-.59,1.52-1.81,2.81-3.67,3.91Zm-19.3-5.31c-5.64,3.61-11.2,7.38-16.68,11.32,2.25-7.05,4.18-12.58,5.56-16.6,1.38-4.02,2.44-7.39,3.12-10.13.68-2.74.99-4.75.88-6.04-.11-1.29-.51-2.51-1.22-3.66-.81-1.31-1.88-2.13-3.22-2.45-1.34-.32-2.78-.05-4.31.79-2.11-3.32-4.23-6.65-6.34-9.97,5.6-3.56,11-4.96,16.03-4.28,5.04.68,8.64,3.11,10.9,7.11.85,1.51,1.5,2.92,1.95,4.21.45,1.3.69,2.74.73,4.33.03,1.59-.07,3.09-.3,4.51-.23,1.42-.73,3.27-1.47,5.57-.74,2.3-1.52,4.52-2.35,6.68-.83,2.16-1.94,5.03-3.29,8.63Z"/>
    <path class="cls-4" d="m619.3,573.75c1.73,3.63,3.46,7.26,5.19,10.89-4.87,2.33-9.41,3.18-13.74,2.51-4.33-.67-7.76-2.75-10.25-6.36,3.67-3.2,7.41-6.34,11.21-9.41.67,1.36,1.74,2.26,3.18,2.73,1.45.47,2.91.34,4.41-.37Zm.89-37.56c-10.62,4.53-21.1,9.53-31.39,15.01-1.82-3.43-3.65-6.86-5.48-10.29,10.59-5.64,21.36-10.79,32.29-15.45,2.33-.99,4.37-1.26,6.09-.83,1.72.44,2.91,1.49,3.58,3.15.66,1.63.53,3.2-.36,4.71-.89,1.51-2.47,2.73-4.73,3.69Zm7.55,46.92c-1.69-3.65-3.39-7.29-5.08-10.94,1.61-.75,2.66-1.83,3.14-3.27.48-1.44.34-3.02-.43-4.75-.95-2.13-2.34-3.43-4.19-3.91-1.85-.47-4.33,0-7.41,1.47-5.14,2.45-10.23,5.02-15.28,7.7-2.76-5.19-5.52-10.38-8.28-15.56,4.76-2.53,9.56-4.97,14.39-7.3.86,1.79,1.73,3.59,2.59,5.38,1.25-.6,2.5-1.2,3.75-1.78,7.24-3.39,13.27-4.18,17.89-2.58,4.63,1.6,7.96,5.14,10.09,10.49,2.07,5.19,2.03,10.02.06,14.52-1.98,4.51-5.7,7.94-11.25,10.52Z"/>
    <path class="cls-4" d="m687.68,541.95c-.43.11-.85.21-1.28.32-1.47.37-2.87.18-4.21-.57-1.35-.75-2.25-1.97-2.71-3.67-.46-1.7-.3-3.2.49-4.5.78-1.3,1.95-2.15,3.49-2.54.23-.06.45-.11.68-.17,1.9-.48,3.35-1.47,4.34-3,.99-1.53,1.21-3.52.64-5.97-.53-2.3-1.66-3.97-3.41-5-1.75-1.03-4.28-1.15-7.55-.31-7.13,1.83-14.22,3.85-21.27,6.07-1.17-3.71-2.34-7.41-3.51-11.12,7.49-2.36,15.03-4.51,22.61-6.44,7.99-2.03,14.52-1.75,19.39.62,4.88,2.37,7.84,6.73,9.02,12.95,1.14,6.02.16,11.01-2.79,15.02-2.96,4.02-7.57,6.72-13.93,8.3Zm-3.75,19.53c-4.52,1.23-9.03,2.56-13.51,3.97-4.21-13.32-8.41-26.65-12.62-39.97,5.01-1.58,10.04-3.06,15.09-4.44,3.68,13.48,7.36,26.96,11.04,40.44Z"/>
    <path class="cls-4" d="m740.88,527.48c-.7.07-1.4.14-2.09.21-2.28.24-4.09-.08-5.46-.99-1.37-.9-2.17-2.23-2.39-4.01-.22-1.74.24-3.22,1.39-4.42,1.15-1.2,2.91-1.94,5.25-2.18.39-.04.78-.08,1.17-.12,3.9-.39,5.72-2.18,5.45-5.45-.29-3.42-2.91-4.94-7.86-4.43-8.6.9-17.17,2.08-25.7,3.53-.65-3.83-1.31-7.66-1.96-11.49,9.45-1.61,18.95-2.89,28.48-3.84,6.77-.67,12.21.38,16.18,3,3.98,2.62,6.04,6.69,6.29,12.13.26,5.49-1.3,9.71-4.56,12.71-3.26,3.01-7.96,4.73-14.18,5.34Zm-8.87,24.36c-4.62.6-9.23,1.29-13.83,2.08-2.35-13.77-4.7-27.55-7.04-41.32,5.14-.87,10.29-1.65,15.45-2.32,1.81,13.85,3.62,27.71,5.43,41.56Zm31.03-2.68c-5.09.22-10.18.55-15.26.98-3.99-6.59-8.17-13.11-12.54-19.56,5.12-.59,10.25-1.07,15.39-1.44,4.34,6.6,8.48,13.28,12.41,20.03Z"/>
    <path class="cls-4" d="m789.3,537.93c-.12,4.02-.23,8.04-.35,12.06-2.91-.09-5.51-.52-7.83-1.32-2.31-.8-4.25-1.87-5.83-3.22-1.57-1.35-2.89-2.98-3.95-4.9-1.06-1.92-1.86-3.95-2.38-6.12-.52-2.17-.82-4.52-.89-7.07-.12-4.44-.24-8.88-.36-13.32-.07-2.54.11-4.91.55-7.1.44-2.19,1.2-4.27,2.3-6.23,1.1-1.96,2.53-3.63,4.29-5.02,1.76-1.38,3.99-2.47,6.68-3.23,2.69-.77,5.74-1.11,9.13-1.01-.12,4.02-.23,8.04-.35,12.06-2.36-.07-4.09.8-5.17,2.58-1.09,1.78-1.65,4.79-1.7,9.01-.05,3.66-.09,7.31-.14,10.97-.05,4.22.41,7.24,1.36,9.06.95,1.82,2.49,2.75,4.65,2.81Zm3.16,12.18c.16-4.02.31-8.04.47-12.05,2.15.08,3.76-.74,4.85-2.48,1.09-1.75,1.76-4.72,2-8.94.2-3.65.41-7.3.61-10.95.24-4.22-.13-7.25-1.1-9.11-.98-1.85-2.65-2.84-5.01-2.93.16-4.02.31-8.04.47-12.05,3.42.13,6.46.69,9.09,1.63,2.63.95,4.77,2.18,6.42,3.68,1.65,1.5,2.96,3.27,3.94,5.3.98,2.03,1.6,4.15,1.87,6.37.27,2.22.28,4.59.04,7.12-.42,4.42-.85,8.84-1.27,13.26-.24,2.53-.69,4.86-1.34,6.99-.65,2.13-1.58,4.11-2.79,5.95-1.21,1.84-2.64,3.38-4.28,4.62-1.65,1.25-3.65,2.18-6.02,2.82-2.36.64-5,.9-7.94.78Z"/>
    <path class="cls-4" d="m853.59,556.74c-4.43-.95-8.88-1.81-13.33-2.58,2.82-16.14,5.64-32.28,8.46-48.42,3.66,8.91,7.01,17.87,10.04,26.85-1.72,8.05-3.44,16.1-5.17,24.15Zm16.66-11.84c-1.43-.36-2.55-.91-3.38-1.65-.83-.74-1.45-1.85-1.89-3.31-4.19-13.89-9.12-27.74-14.8-41.49,5.6.98,11.18,2.07,16.75,3.28,4.42,11.92,8.3,23.9,11.63,35.89.27,1.11.23,2.33-.14,3.67-.45,1.65-1.46,2.77-3.01,3.39-1.56.62-3.27.69-5.17.21Zm38.62-31.72c-9.43,7.55-18.44,15.41-27.02,23.53-1.31-4.89-2.7-9.78-4.19-14.66,4.64-4.76,9.41-9.45,14.32-14.05,5.66,1.6,11.29,3.33,16.89,5.18Zm-17.67,53.75c-4.33-1.43-8.68-2.78-13.05-4.04,2.32-8.01,4.63-16.03,6.95-24.04,6.96-6.55,14.19-12.91,21.7-19.09-5.2,15.72-10.4,31.44-15.6,47.17Z"/>
    <path class="cls-4" d="m924.79,554.79c2.65,1.1,5.29,2.23,7.92,3.39-.7,3.93-1.42,7.84-2.17,11.75-4.28-1.93-8.58-3.77-12.91-5.52-2.36,3.18-4.69,6.37-6.99,9.58-4.5-1.78-9.03-3.47-13.59-5.07,8.2-11.94,16.8-23.67,25.8-35.17,4.68,1.81,9.33,3.7,13.95,5.69-4.08,5.07-8.08,10.18-12.01,15.34Zm30.89-22.91c-2.88,19.5-6.5,38.77-10.84,57.79-4.31-2.26-8.66-4.42-13.04-6.49,3.09-15.1,5.74-30.35,7.96-45.72-3.42-1.49-6.85-2.93-10.3-4.32-2.34-.94-3.95-2.13-4.85-3.59-.9-1.46-1.03-3.03-.4-4.7.64-1.67,1.79-2.75,3.49-3.23,1.69-.48,3.74-.25,6.11.71,7.36,2.97,14.65,6.15,21.87,9.56Z"/>
    <path class="cls-4" d="m960.93,598.62c-4.56-2.7-9.17-5.28-13.82-7.76,8.6-5.85,17.49-11.44,26.67-16.73.27,5.5.44,10.97.5,16.42-4.52,2.62-8.97,5.31-13.34,8.07Zm20.88,15.15c-1.3-.9-2.24-1.87-2.82-2.93-.58-1.06-.84-2.36-.78-3.92.55-21.41-.55-43.28-3.36-65.38,5.69,3.05,11.33,6.25,16.91,9.59,1.69,19.91,2.01,39.58,1.01,58.84-.13,1.28-.57,2.44-1.33,3.49-1.03,1.43-2.46,2.13-4.27,2.13-1.81,0-3.59-.61-5.35-1.83Zm40.94-42.17c-8.69,3.53-17.19,7.3-25.49,11.31,0-5.31-.1-10.64-.3-15.99,3.57-1.94,7.19-3.83,10.84-5.69,5.04,3.34,10.03,6.8,14.95,10.38Z"/>
  </g>
  <g>
    <path class="cls-4" d="m539.73,802.43l-10.05-2c.2-3.75,1.59-6.88,4.16-9.39,2.57-2.52,5.9-3.77,9.99-3.77v9.85c-2.53.34-3.89,2.11-4.1,5.31Zm16.22,32.8h-24.88v-9.72h24.88c1.65,0,2.95.43,3.91,1.3.96.87,1.44,2.06,1.44,3.57s-.48,2.7-1.44,3.55-2.26,1.29-3.91,1.29Zm-10.19-12.19h-14.62c4.29-3.68,7.62-6.6,10-8.75,2.38-2.16,4.28-4.05,5.7-5.67s2.34-2.92,2.74-3.88c.41-.96.61-2,.61-3.13,0-1.29-.33-2.33-.98-3.15-.66-.81-1.57-1.26-2.74-1.35v-9.85c4.33,0,7.83,1.3,10.49,3.91s4,5.83,4,9.67c0,1.44-.08,2.73-.25,3.86-.17,1.13-.52,2.27-1.05,3.44s-1.12,2.21-1.76,3.13c-.64.93-1.61,2.05-2.89,3.39-1.29,1.33-2.59,2.58-3.91,3.76-1.32,1.17-3.1,2.72-5.33,4.64Z"/>
    <path class="cls-4" d="m579.85,826.03v10.05c-4.18,0-7.61-1.08-10.29-3.25-2.69-2.17-4.2-5.07-4.54-8.7l10.53-2.64c0,1.26.41,2.33,1.22,3.22.81.88,1.84,1.32,3.08,1.32Zm11.65-28.23h-23.83v-9.72h23.83c1.69,0,3.02.44,3.98,1.32.96.88,1.44,2.07,1.44,3.55s-.48,2.64-1.44,3.52c-.96.88-2.29,1.32-3.98,1.32Zm-8.87,38.29v-10.05c1.33,0,2.38-.46,3.15-1.39.77-.92,1.15-2.18,1.15-3.76,0-1.94-.54-3.41-1.62-4.4-1.08-.99-2.86-1.49-5.31-1.49h-12.32v-14.69h11.1v4.98h2.91c5.6,0,9.7,1.35,12.31,4.06,2.61,2.71,3.91,6.47,3.91,11.27s-1.36,8.39-4.08,11.22c-2.72,2.83-6.45,4.25-11.19,4.25Z"/>
  </g>
  <g>
    <path class="cls-4" d="m980.79,803.28l-10.05-2c.2-3.75,1.59-6.88,4.16-9.39,2.57-2.52,5.9-3.77,9.99-3.77v9.85c-2.53.34-3.89,2.11-4.1,5.31Zm16.22,32.8h-24.88v-9.72h24.88c1.65,0,2.95.43,3.91,1.3.96.87,1.44,2.06,1.44,3.57s-.48,2.7-1.44,3.55-2.26,1.29-3.91,1.29Zm-10.19-12.19h-14.62c4.29-3.68,7.62-6.6,10-8.75,2.38-2.16,4.28-4.05,5.7-5.67s2.34-2.92,2.74-3.88c.41-.96.61-2,.61-3.13,0-1.29-.33-2.33-.98-3.15-.66-.81-1.57-1.26-2.74-1.35v-9.85c4.33,0,7.83,1.3,10.49,3.91s4,5.83,4,9.67c0,1.44-.08,2.73-.25,3.86-.17,1.13-.52,2.27-1.05,3.44s-1.12,2.21-1.76,3.13c-.64.93-1.61,2.05-2.89,3.39-1.29,1.33-2.59,2.58-3.91,3.76-1.32,1.17-3.1,2.72-5.33,4.64Z"/>
    <path class="cls-4" d="m1020.9,826.88v10.05c-4.18,0-7.61-1.08-10.29-3.25-2.69-2.17-4.2-5.07-4.54-8.7l10.53-2.64c0,1.26.41,2.33,1.22,3.22.81.88,1.84,1.32,3.08,1.32Zm11.65-28.23h-23.83v-9.72h23.83c1.69,0,3.02.44,3.98,1.32.96.88,1.44,2.07,1.44,3.55s-.48,2.64-1.44,3.52c-.96.88-2.29,1.32-3.98,1.32Zm-8.87,38.29v-10.05c1.33,0,2.38-.46,3.15-1.39.77-.92,1.15-2.18,1.15-3.76,0-1.94-.54-3.41-1.62-4.4-1.08-.99-2.86-1.49-5.31-1.49h-12.32v-14.69h11.1v4.98h2.91c5.6,0,9.7,1.35,12.31,4.06,2.61,2.71,3.91,6.47,3.91,11.27s-1.36,8.39-4.08,11.22c-2.72,2.83-6.45,4.25-11.19,4.25Z"/>
  </g>
  <g>
    <path class="cls-4" d="m778.28,1046.51h-24.95v-9.72h24.95c1.69,0,3.01.44,3.94,1.32s1.41,2.07,1.41,3.55-.47,2.67-1.41,3.54c-.94.87-2.25,1.3-3.94,1.3Zm-13.95,37.44h-11v-34.94h11v34.94Zm16.52-18.59h-13.88v-9.72h13.88v9.72Z"/>
    <path class="cls-4" d="m792.7,1083.95h-11.38v-11.1h11.38v11.1Z"/>
    <path class="cls-4" d="m816.87,1074.75v10.05c-2.89,0-5.47-.5-7.75-1.49-2.28-.99-4.12-2.36-5.54-4.1-1.41-1.74-2.48-3.73-3.22-5.98-.73-2.25-1.1-4.68-1.1-7.29v-11.1c0-2.62.37-5.05,1.1-7.29.73-2.25,1.8-4.24,3.22-5.98,1.41-1.74,3.25-3.1,5.54-4.1,2.28-.99,4.86-1.49,7.75-1.49v10.05c-1.92,0-3.45.78-4.59,2.35-1.14,1.57-1.71,4.05-1.71,7.43v9.14c0,3.39.57,5.86,1.71,7.43,1.14,1.57,2.67,2.35,4.59,2.35Zm16.52-30.54l-7.79,5.42c-1.13-2.39-3.11-3.59-5.96-3.59v-10.05c3.59,0,6.56.71,8.92,2.12,2.36,1.41,3.97,3.45,4.82,6.11Zm-13.74,40.59v-10.05c1.62,0,2.93-.28,3.91-.83.98-.55,1.74-1.42,2.29-2.59l7.62,6.33c-2.64,4.76-7.25,7.14-13.81,7.14Z"/>
  </g>
</svg>