<?xml version="1.0" encoding="utf-8"?>
<!-- Generator: Adobe Illustrator 27.9.0, SVG Export Plug-In . SVG Version: 6.00 Build 0)  -->
<svg version="1.1" id="Layer_1" xmlns="http://www.w3.org/2000/svg" xmlns:xlink="http://www.w3.org/1999/xlink" x="0px" y="0px"
	 viewBox="0 0 1741.6 1389.9" style="enable-background:new 0 0 1741.6 1389.9;" xml:space="preserve">
<style type="text/css">
	.st0{fill:url(#SVGID_1_);}
	.st1{fill:url(#SVGID_00000101796119591905935660000013961759950430797240_);}
	.st2{fill:url(#SVGID_00000153684180657641707330000007448461465526765747_);}
	.st3{fill:url(#SVGID_00000033332176132116325650000010088475924305645705_);}
	.st4{fill:url(#SVGID_00000064336094328861784300000017218769348082632855_);}
	.st5{fill:url(#SVGID_00000017490981331408881140000004393023342411946140_);}
	.st6{fill:url(#SVGID_00000112595270075905508060000013961904235214855570_);}
	.st7{fill:url(#SVGID_00000099663963687202539160000014824524636628725896_);}
	.st8{fill:url(#SVGID_00000168825473770655126660000010850949105510102424_);}
	.st9{fill:url(#SVGID_00000001645234770539215870000004288831389427906195_);}
	.st10{fill:url(#SVGID_00000087406108409293724910000014086451181311881360_);}
	.st11{fill:url(#SVGID_00000013884789746410578790000014147042365010352256_);}
	.st12{fill:#FFFFFF;}
	.st13{font-family:'Montserrat-Bold';}
	.st14{font-size:30.04px;}
</style>
<g>
	
		<linearGradient id="SVGID_1_" gradientUnits="userSpaceOnUse" x1="911.5587" y1="165.571" x2="800.2493" y2="856.617" gradientTransform="matrix(1 0 0 -1 0 1390)">
		<stop  offset="0" style="stop-color:#C08F2F"/>
		<stop  offset="1" style="stop-color:#F2DE9A"/>
	</linearGradient>
	<path class="st0" d="M836.7,1236.5C414,1060.9,547.5,596.7,547.5,596.7c116.7-56.5,289.2-63.5,289.2-63.5s172.5,7,289.2,63.5
		C1125.9,596.7,1259.4,1060.9,836.7,1236.5z"/>
	
		<linearGradient id="SVGID_00000021104603007186466930000013113917842016828299_" gradientUnits="userSpaceOnUse" x1="632.5043" y1="855.0834" x2="1228.2743" y2="100.8035" gradientTransform="matrix(1 0 0 -1 0 1390)">
		<stop  offset="0" style="stop-color:#D40005"/>
		<stop  offset="1" style="stop-color:#00204D"/>
	</linearGradient>
	<path style="fill:url(#SVGID_00000021104603007186466930000013113917842016828299_);" d="M836.7,1222.6
		c-399.6-168.6-273.4-614.4-273.4-614.4c110.3-54.3,273.3-61,273.3-61s163.1,6.7,273.3,61C1110,608.2,1236.3,1053.9,836.7,1222.6
		L836.7,1222.6z"/>
	<g>
		
			<linearGradient id="SVGID_00000170240140004358403370000003466825973175038892_" gradientUnits="userSpaceOnUse" x1="839.1658" y1="192.4101" x2="834.3458" y2="809.23" gradientTransform="matrix(1 0 0 -1 0 1390)">
			<stop  offset="0" style="stop-color:#00457F"/>
			<stop  offset="1" style="stop-color:#FF6A6E"/>
		</linearGradient>
		<path style="fill:url(#SVGID_00000170240140004358403370000003466825973175038892_);" d="M864.6,549.1c-17.4-1.5-27.9-2-27.9-2
			s-10.5,0.4-27.9,2v660.7c9,4.4,18.3,8.7,27.9,12.7c9.6-4.1,18.9-8.3,27.9-12.7V549.1L864.6,549.1z"/>
		
			<linearGradient id="SVGID_00000127734949954699780180000004571247624385137323_" gradientUnits="userSpaceOnUse" x1="950.8577" y1="193.28" x2="946.0377" y2="810.0999" gradientTransform="matrix(1 0 0 -1 0 1390)">
			<stop  offset="0" style="stop-color:#00457F"/>
			<stop  offset="1" style="stop-color:#FF6A6E"/>
		</linearGradient>
		<path style="fill:url(#SVGID_00000127734949954699780180000004571247624385137323_);" d="M920.4,1178.7c20.5-13.2,39-27.2,55.8-42
			V565.3c-19.7-4-38.6-7.2-55.8-9.7V1178.7z"/>
		
			<linearGradient id="SVGID_00000012464114495348734530000016651289810174097556_" gradientUnits="userSpaceOnUse" x1="1062.7686" y1="194.1601" x2="1057.9484" y2="810.97" gradientTransform="matrix(1 0 0 -1 0 1390)">
			<stop  offset="0" style="stop-color:#00457F"/>
			<stop  offset="1" style="stop-color:#FF6A6E"/>
		</linearGradient>
		<path style="fill:url(#SVGID_00000012464114495348734530000016651289810174097556_);" d="M1087.9,598.2
			c-17.9-7.5-36.8-13.8-55.8-19.3v498.4c23.7-30.5,41.9-62.7,55.8-95.3V598.2L1087.9,598.2z"/>
		
			<linearGradient id="SVGID_00000150064133867039526050000015876029681648669583_" gradientUnits="userSpaceOnUse" x1="727.7775" y1="191.54" x2="722.9675" y2="808.3599" gradientTransform="matrix(1 0 0 -1 0 1390)">
			<stop  offset="0" style="stop-color:#00457F"/>
			<stop  offset="1" style="stop-color:#FF6A6E"/>
		</linearGradient>
		<path style="fill:url(#SVGID_00000150064133867039526050000015876029681648669583_);" d="M752.9,555.6
			c-17.2,2.5-36.2,5.6-55.8,9.7v571.4c16.8,14.8,35.3,28.8,55.8,42V555.6L752.9,555.6z"/>
		
			<linearGradient id="SVGID_00000079452891436880951280000007522338709964616597_" gradientUnits="userSpaceOnUse" x1="616.6635" y1="190.6701" x2="611.8436" y2="807.49" gradientTransform="matrix(1 0 0 -1 0 1390)">
			<stop  offset="0" style="stop-color:#00457F"/>
			<stop  offset="1" style="stop-color:#FF6A6E"/>
		</linearGradient>
		<path style="fill:url(#SVGID_00000079452891436880951280000007522338709964616597_);" d="M641.3,578.9
			c-19,5.5-37.9,11.8-55.8,19.3V982c13.9,32.6,32.2,64.8,55.8,95.3V578.9L641.3,578.9z"/>
	</g>
</g>
<g>
	
		<linearGradient id="SVGID_00000106836022485638760680000009398846392106166690_" gradientUnits="userSpaceOnUse" x1="850.6722" y1="309.1498" x2="829.6722" y2="939.2498" gradientTransform="matrix(1 0 0 -1 0 1390)">
		<stop  offset="0" style="stop-color:#B68000"/>
		<stop  offset="1" style="stop-color:#F8C74A"/>
	</linearGradient>
	<path style="fill:url(#SVGID_00000106836022485638760680000009398846392106166690_);" d="M688.8,512.7c0.2-0.2,23.1-23.5,65.9-45.2
		c0.6-0.3,1.3-0.3,1.8,0l10.4-20.4c-40.5,13.2-75.9,37.7-102.6,69.7l23.9-2.5C688.1,513.8,688.3,513.2,688.8,512.7L688.8,512.7z
		 M834.7,479.5c-38.8-8.2-69.1-9.8-77.1-10.1c0,0.7-0.4,1.4-1.1,1.8c-42.1,21.3-64.5,44.2-64.8,44.4c-0.4,0.4-0.9,0.6-1.5,0.6
		c-0.3,0-0.6,0-0.9-0.2c-9,19.4-16,64-17.5,73.9c0.1,0,0.2,0,0.2,0l72.8,21.2c0.5,0.1,0.8,0.4,1.1,0.8l89-61.2
		c-0.2-0.3-0.4-0.7-0.4-1.2v-69.7C834.6,479.8,834.6,479.7,834.7,479.5L834.7,479.5z M917.6,467.5c0.4,0.2,43.3,22.8,68.5,45.1
		c0.5,0.5,0.7,1.1,0.7,1.8l22.1,2.2c-26.6-31.9-62-56.2-102.3-69.4l9.3,20.3C916.4,467.2,917,467.2,917.6,467.5L917.6,467.5z
		 M650.3,750.7c-18-46.4-20.6-80.5-20.7-80.9c0-0.5,0.1-1,0.4-1.4l-17.8-14.3c-0.1,2.1-0.1,4.2-0.1,6.3c0,42.6,11.9,82.5,32.5,116.4
		l6.9-25C651.1,751.8,650.6,751.3,650.3,750.7L650.3,750.7z M838.4,550.8l88.4,61.1c0.2-0.4,0.6-0.7,1.1-0.8l72.8-20.5
		c0.2,0,0.3-0.1,0.5-0.1c-0.8-21.8-13.1-64.8-15.9-74.4c-0.2,0.1-0.4,0.1-0.6,0.1c-0.5,0-1-0.2-1.4-0.5
		c-24.8-22-67.2-44.3-67.6-44.5c-0.7-0.4-1.1-1.1-1.1-1.9c-21.9-0.5-66.1,8.2-76,10.2c0,0.1,0,0.3,0,0.4v69.7
		C838.7,550,838.6,550.5,838.4,550.8L838.4,550.8z M1061,654.8l-17.1,13.7c0.4,0.5,0.5,1,0.4,1.7c-0.5,2.5-12,62.1-23.3,80.9
		c-0.3,0.5-0.7,0.8-1.2,0.9l8.3,25.5c20.8-34,32.8-74.1,32.8-116.9C1061.1,658.6,1061,656.7,1061,654.8L1061,654.8z M892.6,721.9
		c-0.2-0.4-0.4-0.8-0.4-1.2H780.6c0,0.4-0.1,0.8-0.4,1.2l-49.2,67.2c-0.2,0.2-0.3,0.4-0.5,0.5c13,19.5,52,55.9,60.2,63.5
		c0.4-0.4,0.9-0.7,1.6-0.7c0.7,0,73.9,3.7,87.1,0.1c0.9-0.2,1.8,0.1,2.3,0.9c12.2-8.5,51.4-53.2,59.1-62.1c-0.1-0.1-0.2-0.2-0.4-0.4
		L892.6,721.9L892.6,721.9z M777.9,718.8L745,615c-0.2,0.1-0.4,0.1-0.6,0.1c-0.2,0-0.4,0-0.6-0.1L671,593.9
		c-0.3-0.1-0.6-0.2-0.8-0.5c-14.4,16.2-33.8,64.3-37.7,74.4c0.7,0.3,1.3,0.9,1.3,1.7c0,0.3,2.7,33.9,20.4,79.7
		c0.3,0.7,0.1,1.4-0.3,2c22.5,17.2,64.2,32.7,73.6,36c0-0.2,0.2-0.4,0.3-0.5l49.2-67.2C777.2,719.1,777.5,718.9,777.9,718.8
		L777.9,718.8z M1017.6,748.9c10.9-18.1,22.7-79,22.8-79.6c0.1-0.7,0.7-1.3,1.4-1.6c-7.6-22.7-33.6-64.4-39.3-73.4
		c-0.2,0.1-0.4,0.2-0.5,0.2L929,615.1c-0.2,0-0.4,0.1-0.5,0.1c-0.2,0-0.4,0-0.6-0.1l-33,103.7c0.4,0.1,0.8,0.4,1.1,0.8l47.9,69.1
		c0.1,0.2,0.2,0.3,0.2,0.5c21.8-7.6,64.4-32.7,73.5-38.1C1017.2,750.4,1017.2,749.6,1017.6,748.9L1017.6,748.9z M880.5,856.5
		c-4.8,1.3-16.4,1.7-29.7,1.7c-25.3,0-56.7-1.6-58.7-1.7c-0.7,0-1.2-0.4-1.6-0.8l-24.3,18c22.1,7.3,45.8,11.3,70.4,11.3
		s48.3-4,70.4-11.3l-25.4-18C881.4,856,881,856.3,880.5,856.5L880.5,856.5z"/>
	
		<linearGradient id="SVGID_00000112595666387522848330000000937519524732872617_" gradientUnits="userSpaceOnUse" x1="865.4222" y1="331.8394" x2="812.2223" y2="1059.9495" gradientTransform="matrix(1 0 0 -1 0 1390)">
		<stop  offset="0" style="stop-color:#B68000"/>
		<stop  offset="1" style="stop-color:#F8C74A"/>
	</linearGradient>
	<path style="fill:url(#SVGID_00000112595666387522848330000000937519524732872617_);" d="M633.8,669.5c0-0.8-0.6-1.5-1.3-1.7
		c-0.5,1.2-0.7,1.9-0.7,1.9l-1.6-1.3c-0.3,0.4-0.5,0.9-0.4,1.4c0,0.3,2.7,34.5,20.7,80.9c0.2,0.6,0.8,1.1,1.4,1.2l0.5-2
		c0.5,0.4,1.1,0.8,1.6,1.2c0.4-0.5,0.6-1.3,0.3-2C636.5,703.4,633.8,669.9,633.8,669.5L633.8,669.5z M689.3,516
		c0.3,0.2,0.6,0.2,0.9,0.2c0.5,0,1.1-0.2,1.5-0.6c0.2-0.2,22.7-23.1,64.8-44.4c0.7-0.4,1.1-1,1.1-1.8c-1.3-0.1-2-0.1-2-0.1l0.9-1.8
		c-0.5-0.3-1.2-0.3-1.8,0c-42.7,21.7-65.7,45-65.9,45.2c-0.4,0.5-0.6,1.1-0.5,1.6l2-0.2C689.9,514.7,689.6,515.3,689.3,516
		L689.3,516z M836.7,549.6l1.7,1.2c0.2-0.3,0.4-0.7,0.4-1.2v-69.7c0-0.1,0-0.3,0-0.4c-1.3,0.3-2,0.4-2,0.4c-0.7-0.1-1.4-0.3-2-0.4
		c0,0.1,0,0.3,0,0.4v69.7c0,0.4,0.1,0.8,0.4,1.2L836.7,549.6L836.7,549.6z M744.3,615.1c0.2,0,0.4,0,0.6-0.1l-0.6-1.9l1.7-1.2
		c-0.2-0.4-0.6-0.7-1.1-0.8l-72.8-21.2c-0.1,0-0.2,0-0.2,0c-0.2,1.3-0.3,2-0.3,2c-0.5,0.5-0.9,1-1.4,1.5c0.2,0.2,0.5,0.4,0.8,0.5
		l72.8,21.2C744,615.1,744.1,615.1,744.3,615.1L744.3,615.1z M915.7,471.2c0.4,0.2,42.8,22.5,67.6,44.5c0.4,0.3,0.9,0.5,1.4,0.5
		c0.2,0,0.4,0,0.6-0.1c-0.4-1.3-0.6-1.9-0.6-1.9l2,0.2c0.1-0.6-0.1-1.3-0.7-1.8c-25.2-22.3-68-44.9-68.5-45.1
		c-0.6-0.3-1.3-0.3-1.8,0l0.8,1.8c-0.7,0-1.3,0-2,0C914.6,470.1,915,470.8,915.7,471.2L915.7,471.2z M1044,668.4l-1.6,1.3
		c-0.2-0.6-0.4-1.3-0.6-2c-0.7,0.2-1.2,0.8-1.4,1.6c-0.1,0.6-11.9,61.5-22.8,79.6c-0.4,0.7-0.4,1.5,0,2.1c1.1-0.7,1.7-1,1.7-1
		l0.6,1.9c0.5-0.1,0.9-0.4,1.2-0.9c11.2-18.8,22.8-78.4,23.3-80.9C1044.5,669.5,1044.3,668.9,1044,668.4L1044,668.4z M1001.2,590.5
		c-0.2,0-0.3,0-0.5,0.1l-72.8,20.5c-0.5,0.1-0.9,0.4-1.1,0.8l1.7,1.2l-0.6,1.9c0.2,0.1,0.4,0.1,0.6,0.1c0.2,0,0.4,0,0.5-0.1
		l72.8-20.5c0.2,0,0.4-0.1,0.5-0.2c-0.7-1.2-1.1-1.8-1.1-1.8C1001.3,591.9,1001.3,591.2,1001.2,590.5L1001.2,590.5z M896,719.5
		c-0.3-0.4-0.7-0.7-1.1-0.8l-0.6,1.9h-2c0,0.4,0.1,0.8,0.4,1.2l47.9,69c0.1,0.1,0.2,0.3,0.4,0.4c0.9-1,1.3-1.5,1.3-1.5
		c0.6-0.2,1.3-0.4,1.9-0.7c0-0.2-0.1-0.4-0.2-0.5L896,719.5L896,719.5z M879.4,852.5c-13.2,3.6-86.4,0-87.1-0.1
		c-0.7,0-1.3,0.2-1.6,0.7c1,0.9,1.5,1.4,1.5,1.4l-1.6,1.2c0.3,0.5,0.9,0.8,1.6,0.8c2,0.1,33.4,1.7,58.7,1.7
		c13.3,0,24.9-0.4,29.7-1.7c0.5-0.1,0.9-0.4,1.2-0.8l-1.7-1.2c0.5-0.2,1.1-0.6,1.8-1.1C881.3,852.6,880.4,852.3,879.4,852.5
		L879.4,852.5z M777.9,718.8c-0.4,0.1-0.8,0.4-1,0.7l-49.2,67.2c-0.1,0.2-0.2,0.3-0.3,0.5c1.2,0.5,1.9,0.7,1.9,0.7
		c0.4,0.5,0.7,1.1,1.1,1.7c0.2-0.1,0.4-0.3,0.5-0.5l49.2-67.2c0.3-0.4,0.4-0.8,0.4-1.2h-2L777.9,718.8L777.9,718.8z"/>
	
		<linearGradient id="SVGID_00000171713694316060799210000010743296274924683143_" gradientUnits="userSpaceOnUse" x1="850.8962" y1="309.1596" x2="829.8862" y2="939.2595" gradientTransform="matrix(1 0 0 -1 0 1390)">
		<stop  offset="0" style="stop-color:#C08F2F"/>
		<stop  offset="1" style="stop-color:#B68000"/>
	</linearGradient>
	<path style="fill:url(#SVGID_00000171713694316060799210000010743296274924683143_);" d="M834.7,479.5c0.2-0.9,1-1.6,2-1.6
		s1.8,0.7,2,1.6c9.9-2,54.1-10.7,76-10.2c0.7,0,1.4,0,2,0l-0.8-1.8l-9.3-20.3c-22-7.2-45.5-11.1-69.9-11.1s-47.9,3.9-69.9,11.1
		l-10.4,20.4l-0.9,1.8c0,0,0.7,0,2,0.1C765.6,469.7,795.8,471.4,834.7,479.5L834.7,479.5z M777.9,718.8l0.6,1.9h115.7l0.6-1.9
		l33-103.7l0.6-1.9l-1.7-1.2l-88.4-61.1l-1.7-1.2l-1.7,1.2l-89,61.2l-1.7,1.2l0.6,1.9L777.9,718.8L777.9,718.8z M836.7,477.9
		c-1,0-1.8,0.7-2,1.6c0.7,0.1,1.3,0.3,2,0.4c0,0,0.7-0.1,2-0.4C838.5,478.6,837.7,477.9,836.7,477.9z M1008.8,516.6l-22.1-2.2
		l-2-0.2c0,0,0.2,0.7,0.6,1.9c2.8,9.6,15.2,52.6,15.9,74.4c0,0.7,0,1.4,0,2c0,0,0.4,0.6,1.1,1.8c5.7,9,31.8,50.7,39.3,73.4
		c0.2,0.7,0.4,1.3,0.6,2l1.6-1.3l17.1-13.7C1059.7,602.2,1040.3,554.2,1008.8,516.6L1008.8,516.6z M671.6,591.9c0,0,0.1-0.7,0.3-2
		c1.5-10,8.5-54.5,17.5-73.9c0.3-0.6,0.6-1.3,0.9-1.8l-2,0.2l-23.9,2.5h0c-31.2,37.4-50.4,85.1-51.8,137.3l17.8,14.3l1.6,1.3
		c0,0,0.2-0.7,0.7-1.9c4-10.1,23.3-58.2,37.7-74.4C670.6,592.9,671.1,592.4,671.6,591.9L671.6,591.9z M1019.3,750c0,0-0.6,0.4-1.7,1
		c-9.1,5.4-51.7,30.5-73.5,38.1c-0.7,0.2-1.3,0.5-1.9,0.7c0,0-0.5,0.5-1.3,1.5c-7.7,8.9-46.9,53.6-59.1,62.1
		c-0.7,0.5-1.3,0.8-1.8,1.1l1.7,1.2l25.4,18c50.9-16.8,93.7-51.3,121.2-96.2l-8.3-25.5L1019.3,750L1019.3,750z M730.5,789.6
		c-0.4-0.6-0.8-1.2-1.1-1.7c0,0-0.7-0.2-1.9-0.7c-9.4-3.3-51.1-18.8-73.6-36c-0.5-0.4-1.1-0.8-1.6-1.2l-0.5,2l-6.9,25
		c27.5,45.2,70.4,79.8,121.4,96.7l24.3-18l1.6-1.2c0,0-0.5-0.5-1.5-1.4C782.6,845.5,743.5,809.1,730.5,789.6L730.5,789.6z"/>
</g>
<g>
	
		<linearGradient id="SVGID_00000016791071386340354750000002534899611040968110_" gradientUnits="userSpaceOnUse" x1="835.1647" y1="593.1899" x2="838.5546" y2="400.1699" gradientTransform="matrix(1 0 0 -1 0 1390)">
		<stop  offset="0" style="stop-color:#C08F2F"/>
		<stop  offset="1" style="stop-color:#B68000"/>
	</linearGradient>
	<path style="fill:url(#SVGID_00000016791071386340354750000002534899611040968110_);" d="M1163.7,1020.9
		c12.9-43.3,20-89.8,20-138.4s-6.9-93.6-19.4-136.3c-86.9,35.6-200,57.1-324,57.1c-126.3,0-242.1-22.3-330.8-59.2
		c-12.9,43.3-20,89.8-20,138.4s6.9,93.6,19.4,136.3c86.9-35.6,200-57.1,324-57.1C959.3,961.8,1075.1,984.1,1163.7,1020.9
		L1163.7,1020.9z"/>
	
		<linearGradient id="SVGID_00000047746513679945194660000014050333348776764312_" gradientUnits="userSpaceOnUse" x1="835.7639" y1="584.53" x2="838.3739" y2="362.5799" gradientTransform="matrix(1 0 0 -1 0 1390)">
		<stop  offset="0" style="stop-color:#ECC670"/>
		<stop  offset="1" style="stop-color:#CFA246"/>
	</linearGradient>
	<path style="fill:url(#SVGID_00000047746513679945194660000014050333348776764312_);" d="M1169.4,1032.9l-9.1-3.8
		c-90.8-37.7-207-58.5-327.3-58.5c-117.9,0-231.8,20-320.6,56.4l-9.1,3.7l-2.8-9.5c-13.1-44.7-19.8-91.4-19.8-138.8
		s6.9-95.6,20.4-140.9l2.8-9.4l9.1,3.8c90.8,37.7,207,58.5,327.3,58.5c117.9,0,231.8-20,320.6-56.4l9.1-3.7l2.8,9.5
		c13.1,44.7,19.8,91.4,19.8,138.8s-6.9,95.6-20.4,140.9L1169.4,1032.9L1169.4,1032.9z M833,952.9c118.6,0,233.5,19.9,324.9,56.1
		c11.2-40.8,16.9-83.3,16.9-126.4c0-42.4-5.5-84.2-16.4-124.4c-89.5,34.9-202,54.1-318.1,54.1s-233.5-19.9-324.9-56.1
		c-11.2,40.8-17,83.3-17,126.4s5.5,84.2,16.4,124.4C604.4,972,716.8,952.9,833,952.9L833,952.9z"/>
</g>
<text transform="matrix(1 0 0 1 788.58 1056.96)" class="st12 st13 st14">SINCE</text>
<path class="st12" d="M783.3,1097.8c2.1-1.9,3.7-3.7,4.7-5.2c1.1-1.6,1.8-3.1,2.2-4.5c0.4-1.4,0.6-2.8,0.6-4.2
	c0-2.8-0.7-5.1-2.2-7.1s-3.4-3.5-6-4.6c-2.5-1.1-5.5-1.7-8.9-1.7c-4.3,0-8,0.8-11.1,2.5c-3.1,1.7-5.4,3.9-7,6.6l9.2,5.1
	c0.9-1.4,2-2.4,3.3-3.1s2.8-1.1,4.4-1.1c1.9,0,3.3,0.4,4.2,1.2c0.9,0.8,1.4,1.9,1.4,3.2c0,0.6-0.1,1.3-0.3,1.9s-0.5,1.4-1.1,2.3
	c-0.5,0.9-1.4,1.8-2.6,2.9l-16.3,15.3v7.8H792v-9.8h-16.9L783.3,1097.8L783.3,1097.8z M863.7,1097.8c2.1-1.9,3.7-3.7,4.7-5.2
	c1.1-1.6,1.8-3.1,2.2-4.5c0.4-1.4,0.6-2.8,0.6-4.2c0-2.8-0.7-5.1-2.2-7.1s-3.4-3.5-6-4.6c-2.5-1.1-5.5-1.7-8.9-1.7
	c-4.3,0-8,0.8-11.1,2.5c-3.1,1.7-5.4,3.9-7,6.6l9.2,5.1c0.9-1.4,2-2.4,3.3-3.1s2.8-1.1,4.4-1.1c1.9,0,3.3,0.4,4.2,1.2
	c0.9,0.8,1.4,1.9,1.4,3.2c0,0.6-0.1,1.3-0.3,1.9s-0.5,1.4-1.1,2.3c-0.5,0.9-1.4,1.8-2.6,2.9l-16.3,15.3v7.8h34.1v-9.8h-16.9
	L863.7,1097.8L863.7,1097.8z M910.8,1097.1v-7.5h-11.7v7.5h-8.9l17.9-25.7h-12.9l-19.6,27.4v8h23.1v8.4h12.1v-8.4h6.5v-9.8H910.8
	L910.8,1097.1z M824.9,1073.2c-2.9-1.8-6.2-2.7-10-2.7s-7.1,0.9-10,2.7c-2.9,1.8-5.2,4.4-6.8,7.8s-2.5,7.5-2.5,12.3
	s0.8,8.9,2.5,12.3c1.7,3.4,4,6,6.8,7.8s6.2,2.7,10,2.7s7-0.9,10-2.7s5.2-4.4,6.8-7.8c1.7-3.4,2.5-7.5,2.5-12.3s-0.8-8.9-2.5-12.3
	C830.1,1077.6,827.8,1075,824.9,1073.2z M820.9,1100.7c-0.6,1.9-1.4,3.2-2.4,4c-1,0.8-2.2,1.2-3.5,1.2s-2.5-0.4-3.5-1.2
	s-1.8-2.2-2.4-4c-0.6-1.9-0.9-4.3-0.9-7.3s0.3-5.6,0.9-7.4c0.6-1.8,1.4-3.2,2.4-4s2.2-1.2,3.5-1.2s2.5,0.4,3.5,1.2s1.8,2.2,2.4,4
	c0.6,1.8,0.9,4.3,0.9,7.4S821.5,1098.8,820.9,1100.7z"/>
<path class="st12" d="M726.7,912.3c-1.2-1.2-2.6-2-4.2-2.7s-3.4-0.9-5.3-0.9s-3.7,0.3-5.3,1s-3,1.5-4.2,2.7c-1.2,1.2-2.1,2.5-2.8,4
	c-0.7,1.5-1,3.2-1,5s0.3,3.5,1,5s1.6,2.9,2.8,4c1.2,1.2,2.6,2,4.2,2.7s3.4,1,5.3,1s3.7-0.3,5.3-0.9s3-1.5,4.2-2.7
	c1.2-1.2,2.1-2.5,2.8-4s1-3.2,1-5.1s-0.3-3.5-1-5.1S727.9,913.4,726.7,912.3L726.7,912.3z M726.2,925.2c-0.5,1.2-1.2,2.2-2,3
	c-0.9,0.9-1.9,1.5-3.1,2s-2.5,0.7-3.9,0.7s-2.7-0.2-3.8-0.7c-1.2-0.5-2.2-1.1-3.1-2c-0.9-0.9-1.6-1.9-2-3c-0.5-1.2-0.7-2.4-0.7-3.8
	s0.2-2.6,0.7-3.8s1.2-2.2,2-3s1.9-1.5,3.1-2c1.2-0.5,2.5-0.7,3.8-0.7s2.7,0.2,3.9,0.7c1.2,0.5,2.2,1.2,3.1,2s1.5,1.9,2,3
	s0.7,2.4,0.7,3.8S726.7,924,726.2,925.2z M739.4,912h8.5v21.8h3.5V912h8.5v-3.1h-20.6L739.4,912L739.4,912z M639.4,933.8h3.5v-10.1
	h12.5v-3.1H643V912h14v-3.1h-17.5V933.8z M1027.9,923.5c-0.6-1-1.5-1.7-2.6-2.2c-0.4-0.2-0.8-0.3-1.2-0.4c0,0,0,0,0.1,0
	c1-0.5,1.8-1.2,2.4-2.1s0.9-2.1,0.9-3.4c0-2-0.8-3.6-2.3-4.7c-1.5-1.2-3.7-1.7-6.6-1.7h-11.2v24.9h11.9c3.2,0,5.5-0.6,7.1-1.8
	s2.4-2.8,2.4-5C1028.9,925.7,1028.5,924.5,1027.9,923.5L1027.9,923.5z M1011,911.8h7.3c1.8,0,3.2,0.3,4.2,1c1,0.7,1.5,1.7,1.5,3
	s-0.5,2.3-1.5,3c-1,0.7-2.4,1-4.2,1h-7.3V911.8L1011,911.8z M1023.7,929.9c-1,0.7-2.5,1-4.5,1h-8.2v-8.3h8.2c2,0,3.5,0.3,4.5,1
	c1,0.7,1.6,1.7,1.6,3.2S1024.7,929.3,1023.7,929.9L1023.7,929.9z M689.8,912.2c-1.2-1.2-2.6-2-4.2-2.7s-3.4-0.9-5.3-0.9
	s-3.7,0.3-5.3,1s-3,1.5-4.2,2.7c-1.2,1.2-2.1,2.5-2.8,4c-0.7,1.5-1,3.2-1,5s0.3,3.5,1,5s1.6,2.9,2.8,4c1.2,1.2,2.6,2,4.2,2.7
	s3.4,1,5.3,1s3.7-0.3,5.3-0.9s3-1.5,4.2-2.7c1.2-1.2,2.1-2.5,2.8-4s1-3.2,1-5.1s-0.3-3.5-1-5.1S691,913.4,689.8,912.2L689.8,912.2z
	 M689.2,925.2c-0.5,1.2-1.2,2.2-2,3c-0.9,0.9-1.9,1.5-3.1,2s-2.5,0.7-3.9,0.7s-2.7-0.2-3.8-0.7c-1.2-0.5-2.2-1.1-3.1-2
	c-0.9-0.9-1.6-1.9-2-3c-0.5-1.2-0.7-2.4-0.7-3.8s0.2-2.6,0.7-3.8s1.2-2.2,2-3s1.9-1.5,3.1-2c1.2-0.5,2.5-0.7,3.8-0.7
	s2.7,0.2,3.9,0.7c1.2,0.5,2.2,1.2,3.1,2s1.5,1.9,2,3s0.7,2.4,0.7,3.8S689.7,924,689.2,925.2z M841.7,908.9h-3.5v24.9h17v-3.1h-13.5
	L841.7,908.9L841.7,908.9z M869.9,908.9h-3.5v24.9h17v-3.1h-13.5L869.9,908.9L869.9,908.9z M947.6,908.9H944v24.9h17v-3.1h-13.5
	L947.6,908.9L947.6,908.9z M915.5,914.5c0.9-0.8,1.9-1.5,3.1-2s2.5-0.7,3.9-0.7s2.6,0.2,3.8,0.7s2.2,1.2,3.2,2.2l2.3-2.2
	c-1.1-1.3-2.5-2.2-4.1-2.9c-1.6-0.7-3.4-1-5.3-1s-3.6,0.3-5.2,0.9s-3,1.5-4.2,2.7c-1.2,1.2-2.1,2.5-2.8,4c-0.7,1.5-1,3.2-1,5.1
	s0.3,3.5,1,5.1c0.7,1.5,1.6,2.9,2.8,4s2.6,2,4.2,2.7s3.3,0.9,5.2,0.9s3.7-0.3,5.3-1c1.6-0.7,3-1.6,4.1-2.9l-2.3-2.2
	c-1,1-2,1.8-3.2,2.3s-2.5,0.7-3.8,0.7s-2.7-0.2-3.9-0.7s-2.2-1.1-3.1-2s-1.6-1.9-2-3c-0.5-1.2-0.7-2.5-0.7-3.8s0.2-2.7,0.7-3.8
	S914.7,915.4,915.5,914.5L915.5,914.5z M788.8,921.3c-0.4-0.2-0.8-0.3-1.2-0.4c0,0,0,0,0,0c1-0.5,1.8-1.2,2.4-2.1s0.9-2.1,0.9-3.4
	c0-2-0.8-3.6-2.3-4.7s-3.7-1.7-6.6-1.7H771v24.9h11.9c3.2,0,5.5-0.6,7.1-1.8s2.4-2.8,2.4-5c0-1.4-0.3-2.6-1-3.6
	S789.9,921.8,788.8,921.3L788.8,921.3z M774.6,911.8h7.3c1.8,0,3.2,0.3,4.2,1c1,0.7,1.5,1.7,1.5,3s-0.5,2.3-1.5,3
	c-1,0.7-2.4,1-4.2,1h-7.3V911.8L774.6,911.8z M787.2,929.9c-1,0.7-2.5,1-4.5,1h-8.2v-8.3h8.2c2,0,3.5,0.3,4.5,1
	c1,0.7,1.6,1.7,1.6,3.2S788.3,929.3,787.2,929.9L787.2,929.9z M812.5,908.9l-11.3,24.9h3.7l2.7-6.2h13.2l2.7,6.2h3.7L816,908.9
	H812.5L812.5,908.9z M808.9,924.7l5.4-12.2l5.4,12.2H808.9L808.9,924.7z M989.6,922.9c0,2.8-0.6,4.8-1.8,6.1s-3,1.9-5.2,1.9
	s-4-0.6-5.2-1.9s-1.8-3.3-1.8-6.1v-14H972v14.1c0,3.6,0.9,6.3,2.8,8.2s4.4,2.8,7.7,2.8s5.9-0.9,7.7-2.8s2.8-4.6,2.8-8.2v-14.1h-3.5
	L989.6,922.9L989.6,922.9z"/>
<g>
	<path class="st12" d="M597.8,897.4h-15.1v-58.2l15.1,28.9V897.4z M612.5,879.2c-1.6,0-2.9-0.3-3.9-0.9c-1-0.6-2-1.7-2.8-3.3
		l-23-44.6h16.4l19.8,38c0.6,1.2,0.9,2.6,0.9,4.2c0,2-0.7,3.6-2.1,4.8C616.4,878.7,614.6,879.2,612.5,879.2z M641,830.4l-18.9,36
		l-8-15.5l10-20.5H641z M641.1,897.4H626v-29.6l15.1-29.2V897.4z"/>
	<path class="st12" d="M670.2,870h8.9l2.9,13.8h-15l-3.2,13.6h-16l12.6-49.6h14.9L670.2,870z M689,830.4l16.2,67h-15.9l-12-53.2
		h-10.9c-2.5,0-4.4-0.6-5.7-1.9c-1.3-1.2-2-2.9-2-5s0.7-3.8,2-5c1.3-1.2,3.2-1.9,5.7-1.9H689z"/>
	<path class="st12" d="M740.3,869.9h-2.2c-2.4,0-4.3-0.6-5.6-1.9c-1.3-1.2-2-2.9-2-5c0-2.1,0.7-3.8,2-5c1.3-1.2,3.2-1.9,5.6-1.9h1.2
		c4,0,6-1.9,6-5.8c0-4.1-2.5-6.1-7.4-6.1h-25.8v-13.8h27.7c6.6,0,11.7,1.7,15.4,5.1c3.7,3.4,5.6,8.3,5.6,14.7
		c0,6.5-1.8,11.4-5.4,14.7C751.9,868.3,746.9,869.9,740.3,869.9z M727.7,897.4h-15.6v-49.6h15.6V897.4z M762.6,897.4h-17.1
		L734,872.9h16.3L762.6,897.4z"/>
	<path class="st12" d="M785.6,897.4H770v-67h15.6V897.4z"/>
	<path class="st12" d="M814.7,870h8.9l2.9,13.8h-15l-3.2,13.6h-16l12.6-49.6h14.9L814.7,870z M833.5,830.4l16.2,67h-15.9l-12-53.2
		h-10.9c-2.5,0-4.4-0.6-5.7-1.9c-1.3-1.2-2-2.9-2-5s0.7-3.8,2-5c1.3-1.2,3.2-1.9,5.7-1.9H833.5z"/>
	<path class="st12" d="M892.9,897.4h-15.6v-67h15.6V897.4z M927.6,897.4h-17.4l-13-25.8c-0.7-1.5-1.1-3.2-1.1-4.9
		c0-2.2,0.8-3.8,2.3-5c1.6-1.1,3.4-1.7,5.6-1.7c1.6,0,2.9,0.4,4,1.1c1.1,0.8,2.1,1.9,2.9,3.6L927.6,897.4z M912.2,857.9h-16
		l14.2-27.5H927L912.2,857.9z"/>
	<path class="st12" d="M949.2,854.3h8.4c2.4,0,4.3,0.6,5.7,1.9c1.3,1.2,2,2.9,2,5c0,2.1-0.7,3.8-2,5c-1.3,1.3-3.2,1.9-5.7,1.9h-8.4
		v29.2h-15.6v-67h15.6V854.3z M967.4,897.4v-67h15.7v67H967.4z"/>
	<path class="st12" d="M1012.2,870h8.9l2.9,13.8h-15l-3.2,13.6h-16l12.6-49.6h14.9L1012.2,870z M1030.9,830.4l16.2,67h-15.9
		l-12-53.2h-10.9c-2.5,0-4.4-0.6-5.7-1.9c-1.3-1.2-2-2.9-2-5s0.7-3.8,2-5c1.3-1.2,3.2-1.9,5.7-1.9H1030.9z"/>
	<path class="st12" d="M1068.7,897.4h-14.7v-58.2l14.7,28.6V897.4z M1071.3,830.4l29,57.7c0.7,1.6,1.1,3,1.1,4.2
		c0,2.2-0.7,3.8-2.2,5c-1.5,1.1-3.3,1.7-5.5,1.7c-2.9,0-5.1-1.5-6.6-4.4l-32.6-64.1H1071.3z M1087.6,830.4h14.6v52.8l-14.6-29.4
		V830.4z"/>
</g>
</svg>
