<?xml version="1.0" encoding="UTF-8"?>
<svg id="Layer_1" data-name="Layer 1" xmlns="http://www.w3.org/2000/svg" viewBox="0 0 1741.59 1389.89">
  <defs>
    <style>
      .cls-1 {
        fill: #6d1f1f;
      }

      .cls-1, .cls-2, .cls-3 {
        stroke-width: 0px;
      }

      .cls-2 {
        fill: #fff;
      }

      .cls-3 {
        fill: #f7941d;
      }
    </style>
  </defs>
  <path class="cls-1" d="m1174.71,737.36c-13.88,3.52-27.91,6.63-42.04,8.96-17.18,2.83-34.07,8.53-53.58,7.33,18.31-28.91,30.96-58.53,44.29-87.85,3.38-7.44,2.5-11.1-4.07-14.65-10.35-5.59-20.38-11.83-30.96-16.94-48.05-23.22-99.37-28.54-151.71-28.04,14.95,6.61,29.85,12.95,45.19,17.97,20.61,6.74,37.38,22.88,60.14,24.28,1.99.12,3.31,2.47,2.8,4.7-.59,2.57-3.05,2.12-4.97,2.47-11.37,2.08-21.41-2.68-30.88-7.4-34.48-17.18-69.8-31.89-110.46-40.02,26.15-8.76,49.13-18.17,74.98-11.02,8.27,2.29,17.25,2.07,25.93,2.88,39.88,3.71,77.81,12.74,109.7,39.07,4.23,3.49,9.56,6.09,14.8,7.79,7.14,2.3,11.99-2.98,15.08-8.06,3.09-5.11-3.51-6.28-6.1-8.76-8.86-8.51-17.74-17.07-27.24-24.83-5.75-4.71-5.85-8.08-1.32-13.76,50.77-63.69,66.59-138.12,66.79-217.46.03-10.12-2.51-12.56-12.24-9.97-20.81,5.54-42.03,9.93-63.5,10.97-89.87,4.32-177.84-8.04-264.35-31.92-5.56-1.54-10.98-2.88-16.55-.85-27.09,9.86-55.41,14.47-83.6,19.66-82.76,15.24-165.64,21.79-248.63,2.21-12.43-2.94-12.06,3.03-11.93,11.85,1.21,79.24,17.25,153.81,68.35,217.21,4.89,6.06,2.36,8.31-1.64,11.97-9.44,8.67-18.81,17.42-28.02,26.33-2.68,2.59-7.71,5.14-3.56,9.93,3.6,4.15,7.59,9.27,14.23,5.51,7.55-4.28,15.13-8.65,22.16-13.71,24.3-17.49,51.15-27.75,81.03-30.32,21.43-1.84,43-3.06,64.18-6.52,19.47-3.18,34.96,8.13,53,10.69-51.16,13.3-97.33,38.88-147.47,53.83,15.91-14.18,35.59-20.94,53.8-30.41,18.1-9.41,37.93-14.47,56.71-22.18-62.76-3.71-121.52,8.56-175.81,40.37-9.11,5.34-12.44,10.05-6.6,20.38,8.31,14.69,15.52,30.06,22.25,45.55,5.75,13.21,15.76,24.35,20.32,40.12-35.11-5.26-68.32-10.48-101.44-19.27-.39,2.9-1.08,4.92-.85,6.84,4.45,37.66,9.33,75.27,13.35,112.98,1.35,12.64,10.25,8.53,16.88,9.12,9.27.82,7.34-6.65,7.39-11.81.19-23.09.08-46.19.08-69.28,8.89,16.72,8.89,16.47,27.32,17.11,22.55.78,45.11,1.57,67.6,3.25,11.39.86,23,2.21,34.31,7.43-4.58,3.83-8.78,2.19-12.66,2.13-32.82-.52-65.65-.85-98.44-2.08-8.11-.31-10.67,1.6-10.72,9.6-.14,26.15-.49,52.32-1.52,78.45-.39,9.83,3.49,12.26,12.48,11.96,18.44-.64,36.92-.29,55.38-.7,14.78-.33,17.62-4.84,17.03-23.44-.46-14.26-10.37-6.98-16.76-7.91-3.06-.44-7.59,1.89-8.1-4.42,5.15-.55,10.31-.67,15.24-1.77,3.59-.8,9.59.07,9.35-5.65-.25-5.86-5.91-4.33-9.68-4.54-8.98-.5-18.28,1.41-26.87-3.14,13.5-3.73,27.32-4.32,40.24-8.02,8.86-2.54,11.16-.51,11.64,7.36,1.15,18.61-.24,37.01-7.19,54.42-8.87,22.25-9.55,22.57,10.06,37.55,62.97,48.11,130.63,88.45,203.09,120.65,6.38,2.84,12.19,3.76,19.09.88,79.19-33.02,150.48-78.97,217.64-131.84,7.41-5.83,8.4-10.91,4.54-19.45-8.58-19-10.48-39.44-9.95-60.1.1-3.79-.86-10.22,5.13-8.91,15.65,3.42,32.28,1.2,50.31,7.69-15.29,5.54-29.85-.99-43.67,8.63,11.43,4.93,22.56.64,32.87,7.97-6.73.44-11.65.47-16.48,1.17-4.91.72-12.34-2.43-12.44,6.97-.08,8.82,6.39,7.36,11.89,7.53,5.99.19,11.98.54,17.96.82v2.4c-6.05.28-12.14.27-18.14.94-4.21.48-11.29-3.64-10.98,5.7.24,7.2,5.52,7.72,10.86,7.81,21.02.35,42.05.45,63.07,1.01,6.76.18,8.95-2.52,8.82-9.02-.56-26.67-1.06-53.34-1.01-80.01.01-9.25-4.17-10.54-12.21-10.29-31.79.95-63.59,1.34-95.39,1.7-4.73.05-9.96,2.06-14.54-1.92,3.4-5.4,8.77-4.88,13.7-5.21,29.15-1.98,58.29-4.39,87.47-5.56,12.66-.51,24.56.37,25.17-18.73,2.77,25.47,2.82,49.49,2.74,73.51-.02,5.6.33,10.62,7.98,9.47,5.8-.88,13.94,3.58,15.27-7.38,4.6-37.63,9.39-75.25,14.3-112.85,1.16-8.94-2.64-8.91-9.71-7.11ZM510.33,423.79c5.69,38.76,14.06,76.52,33.33,111.18,7.31,13.14,16.82,24.41,26.86,35.43,2.29,2.52,8.79,4.88,4.5,9.47-4.23,4.54-8.55-.02-11.83-3-9.54-8.67-17.66-18.72-24.18-29.74-25.56-43.18-36.9-90.64-41.25-140.15-.68-7.81,2.14-9.52,9.56-8.92,103.19,8.41,204.45-4.92,304.8-27.81,6.28-1.43,12.02-.14,18.12,1.08,93.57,18.67,187.46,34.37,283.51,28.36,3.58-.22,7.18-.24,10.76-.55,20.82-1.82,21.13-1.8,18.9,18.62-5.35,48.85-16.27,95.95-44.5,137.44-6.11,8.98-13.59,16.68-21.56,23.95-3.29,3-7.8,4.77-10.91,1.01-3.26-3.93,1.71-6.04,4.03-8.36,42.43-42.44,55.13-96.84,61.39-153.66,2.01-18.23-12.46-4.58-16.67-8.42-95.01,9.09-186.05-9.55-277.21-26.58-12.34-2.31-23.82-1.83-36.23.6-91.53,17.97-183.3,34.69-277.31,25.64-12.33-1.18-16,1.54-14.11,14.41Zm119.76,136.95c126.19-48.88,252.57-49.93,378.95-.62-63.19-7.87-124.17-29.19-189.33-28.29-65,.89-126.2,21.6-189.62,28.91Zm94.74,4.76c-1.09-8.58,8.5-9.19,14.22-10.91,53.19-15.95,106.82-14.88,160.58-2.92,1.45.32,2.74,1.36,4.19,1.77,6.61,1.87,14.22,4.63,13.66,12.09-.55,7.4-8.4,9.25-15.28,10.21-27.88,3.87-55.82,6.95-83.16,6.64-27.1,1.25-52.9-2.68-78.7-6.64-6.94-1.06-14.65-3.38-15.51-10.24Zm136.23,464.83c-26.35,16.63-50.49,19.16-77.09.08-14.76-10.59-32.9-16.37-48.11-26.87-3.09-2.14-7.97-2.79-7.95-8.11,4.38-2.66,7.84.03,11.45,1.81,23.37,11.53,46.96,22.64,70,34.79,9.3,4.91,16.66,4.12,25.76-.51,26.23-13.35,52.98-25.67,79.53-38.4.86,1.34,1.73,2.67,2.59,4.01-17.68,12.77-37.8,21.61-56.18,33.2Zm-46.48-158.36c-1.31,1.22-3.16,1.83-5.54,1.83h-35.07v-13.65h35.07c2.38,0,4.23.62,5.54,1.85,1.32,1.24,1.98,2.91,1.98,5s-.66,3.75-1.98,4.97Zm14.73,38.85v15.61h-15.99v-15.61h15.99Zm-16.65-24.17v13.66h-19.51v-13.66h19.51Zm-23.22-9.33v49.11h-15.47v-49.11h15.47Zm67.4,32.86c1.6,2.21,3.75,3.31,6.44,3.31v14.13c-4.06,0-7.69-.7-10.89-2.09-3.21-1.4-5.8-3.32-7.78-5.76-1.98-2.44-3.49-5.24-4.52-8.4-1.03-3.16-1.55-6.57-1.55-10.25v-15.61c0-3.68.52-7.1,1.55-10.25,1.03-3.16,2.54-5.96,4.52-8.4,1.98-2.45,4.57-4.36,7.78-5.76,3.2-1.4,6.83-2.09,10.89-2.09v14.13c-2.69,0-4.84,1.1-6.44,3.3-1.6,2.21-2.41,5.69-2.41,10.45v12.85c0,4.75.81,8.24,2.41,10.44Zm15.84,2.14c1.38-.78,2.45-1.99,3.21-3.64l10.71,8.9c-3.71,6.69-10.18,10.04-19.41,10.04v-14.13c2.28,0,4.11-.39,5.49-1.17Zm-5.49-39.18v-14.13c5.04,0,9.22.99,12.53,2.97,3.32,1.98,5.58,4.85,6.79,8.59l-10.95,7.61c-1.59-3.36-4.38-5.04-8.37-5.04Zm152.9-105.58c-47.9,7.79-95.3,18.73-143.93,21.96-68.86,4.58-137.16.67-204.97-12.15-21.06-3.99-42.14-7.89-63.28-11.48-3.73-.63-6.88-1.04-8.92-4.66-16.78-29.86-36.55-58.13-47.37-91.15-3.35-10.2,1.09-13.35,9.83-13.55,3.74-.09,8.41,2.68,5.92,6.56-6.47,10.13.06,18.12,3.82,25.71,10.02,20.17,20.72,40.07,32.39,59.32,10.92,18.02,38.22,17.75,49.85.61,6.03-8.88,12.12-17.82,19.09-25.95,4.79-5.58,3.81-8.17-2.02-11.56-10.49-6.08-21.61-11.6-29.15-24.72,15.17,1.18,24.16,10.9,34.77,16.89,4.87,2.74,8.45,5.2,13.34.15,24.1-24.89,47.5-50.56,75.51-72.12-25.76,7.12-51.52,14.23-77.29,21.35-.46-1.64-.93-3.29-1.39-4.93,32.36-11.96,63.21-29.17,101.57-27.22-4.73,12.27-11.1,20.71-20.64,27.28-25.89,17.84-45.91,41.86-69.96,65.01,25.05,9.41,48.61,13.69,71.87,18.98,6.55,1.49,7.53-3.17,8.22-8.12,1.84-13.19,4.87-26.29,5.57-39.53,1.02-19.22,10.88-33.88,22.11-47.96,9.7-12.17,18.08-12.02,29.55-.72,19.42,19.12,25.21,43.86,29.16,69.5,4.44,28.79,4.59,28.67,32.58,22.09,14.46-3.41,28.48-8.11,42.54-12.87,9.18-3.1,7.14-6.11,2.18-11.16-20.51-20.89-42.39-40.18-65.76-57.84-7.96-6.01-16.07-12.08-21.99-23.02,41.88-4.1,76.3,11.82,110.98,26.69-.31,1.28-.62,2.55-.93,3.83-14.09-4.01-28.15-8.18-42.29-11.99-14.74-3.98-29.56-7.61-47.12-12.09,15.99,13.39,30.22,24.93,44.01,36.96,11.96,10.44,23.66,21.21,35.06,32.27,7.03,6.82,12.88,7.16,21.21,1.39,7.8-5.41,14.68-14.42,27.86-12.36-7.62,9.5-15.21,17.41-24.76,21.99-10.05,4.81-7.04,8.14-1.42,13.97,6.01,6.23,11.16,13.33,16.35,20.3,18.16,24.37,40.94,22.57,54.93-4.44,8.48-16.38,17.53-32.5,25.22-49.24,8.64-18.79,8.1-19.04-7.56-31.18,7.3,0,14.6.03,21.9,0,6.4-.04,7.68,2.49,5.68,8.62-10.9,33.37-26.93,64.21-46.64,93.04-5.69,8.33-16.85,6.11-25.68,7.55Z"/>
  <path class="cls-3" d="m795.39,309.8c10.87-22.07,3.57-37.03-15.7-49.58,18.66-.52,32.92-4,38.03-23.02,1.8-6.72,7.01-5.27,8.94.83,4.57,14.46,13.22,22.31,29.18,20.87,5.99-.54,8.22,5.06,3.52,7.1-22.14,9.6-14,25.73-10.39,41.2.18.79-.53,1.78-1.3,4.15-16.21-14.29-33.08-18-52.27-1.55Z"/>
  <path class="cls-3" d="m757.46,278.44c-22.09,12.58-15.16,29.44-9.25,47.99-7.36-4.32-11.82-6.6-15.92-9.42-9.21-6.31-17.06-4.04-24.95,2.71-3.04,2.6-11.52,6.04-8.31-1.92,7.08-17.53-1.67-27.41-14.67-38.83,22.64,3.51,30.64-9.98,36.08-28.97,10.46,13.26,12.48,33.74,37.02,28.43Z"/>
  <path class="cls-3" d="m959.73,279.7c-19.62,11.28-19.95,26.21-11.72,43.51q-34.55-8.14-48.08-.72c-3.78-5.1.6-9.75,1.55-13.97,1.86-8.3,2.07-14.91-6.33-19.67-3.02-1.71-6.74-4.52-6.12-8.15.81-4.79,5.75-3.18,8.98-3.13,16.46.25,16.74-15.2,25.2-26.67,5.73,17.56,13.97,31.12,36.52,28.8Z"/>
  <path class="cls-1" d="m991.21,762.42c-37.68,7.21-73.31,12.98-109.3,16.58-7.28.73-10.08-1.87-11.57-8.56-5.86-26.45-5.66-26.77,20.93-32.23,18.55-3.82,36.91-8.71,54.33-16.07,7.76-3.28,12.33-1.95,17.03,4.12,9.01,11.64,18.25,23.11,28.58,36.16Z"/>
  <path class="cls-1" d="m761.63,779.64c-33.64-4.41-63.76-6.68-93.42-12.82-8.85-1.83-9.22-4.46-4.02-10.48.33-.39.64-.8.92-1.23,22.1-33.91,22.05-33.7,60.32-23.37,13.79,3.72,27.8,7,41.92,8.94,8.21,1.13,10.42,4.58,9.55,11.82-.43,3.56-1.22,7.14-1.11,10.69.4,12.62-2.18,21.48-14.17,16.45Z"/>
  <path class="cls-1" d="m837.23,703.15c14.22,15.67,15.52,34.35,19.81,51.85.6,2.45.39,5.09.82,7.59,3.31,19.19,3.31,18.58-16.22,19.28-10.22.36-13.37-2.76-12.48-12.81,1.91-21.52-.14-43.52,8.07-65.91Z"/>
  <path class="cls-1" d="m806.87,704.6c5.81,25.07,5.97,47.58,8.1,69.85,1.09,11.34-7.9,6.51-12.85,7.23-12.43,1.82-19.8.08-15.58-16.34,5.04-19.63,5.54-40.51,20.33-60.74Z"/>
  <path class="cls-1" d="m1029.85,459.27c-7.4,14.99-14.3,29.69-21.89,44.02-2.99,5.64-7.09,13.87-14.84,9.3-6.4-3.77.09-10.16,2.22-14.57,5.32-11,11.61-21.53,17.66-32.17,3.59-6.33,8.44-10.01,16.85-6.58Z"/>
  <path class="cls-1" d="m767.39,565.11c38.41-12.14,73.66-16.87,111.11-1.55-41.22,11.51-77.69,12.29-111.11,1.55Z"/>
  <path class="cls-1" d="m681.67,484.61c-.94,4.03-1.66,8.56-3.11,12.84-1.35,3.97-3.99,7.12-8.74,7.35-4.94.24-7.27-2.83-8.65-7.02-3.98-12.12-6.37-24.49-6.26-37.31.05-5.46,1.32-10.7,6.92-12.3,6.47-1.84,10.31,3.05,13.35,7.85,5.41,8.56,3.92,18.71,6.49,28.59Z"/>
  <g>
    <path class="cls-2" d="m616.66,493.1c-.35,1.44-1.02,2.59-2.02,3.45-.99.85-2.42,1.47-4.27,1.87.81,3.74,1.61,7.49,2.42,11.23,7.42-1.59,12.09-5.3,14.05-11.23-3.37-1.79-6.76-3.56-10.17-5.31Zm-4.46-37.83c-3.13-1.01-6.85-1.06-11.14-.14.8,3.74,1.61,7.48,2.41,11.22,3.35-.72,5.99.13,7.87,2.53,2.64-2.65,5.3-5.29,7.98-7.93-1.61-2.79-3.98-4.68-7.13-5.69Zm-16.83,15.62c.95-2.05,2.55-3.33,4.83-3.82-.82-3.74-1.63-7.48-2.45-11.22-3.46.76-6.42,2-8.88,3.72-2.46,1.72-4.3,3.75-5.51,6.08-1.22,2.32-1.96,4.84-2.23,7.54-.26,2.7-.04,5.51.66,8.42.99,4.11,1.97,8.22,2.96,12.33.7,2.91,1.77,5.51,3.19,7.8,1.44,2.3,3.19,4.22,5.24,5.78,2.05,1.55,4.5,2.59,7.32,3.11,2.82.52,5.86.42,9.14-.3-.82-3.74-1.63-7.48-2.45-11.23-2.2.48-4.13,0-5.83-1.46-1.7-1.45-2.98-4.06-3.84-7.84-.77-3.39-1.54-6.79-2.3-10.18-.85-3.77-.81-6.69.15-8.74Z"/>
    <path class="cls-2" d="m651.89,446.46c2.9,17.72,5.81,35.43,8.71,53.15,4.19-.69,8.39-1.35,12.59-1.98-2.68-17.75-5.35-35.51-8.03-53.26-4.43.67-8.86,1.36-13.28,2.09Zm-.11,21.06c-.47-.3-1.01-.52-1.59-.67-.97-.23-2.1-.24-3.37-.02-2.31.4-4.63.81-6.94,1.22-1.13-6.32-2.27-12.63-3.4-18.95-4.4.79-8.8,1.61-13.19,2.45,3.4,17.63,6.79,35.26,10.19,52.89,4.17-.8,8.34-1.58,12.51-2.33-1.38-7.71-2.77-15.43-4.15-23.14,2.29-.41,4.58-.81,6.87-1.21,2-.34,3.47-1.11,4.4-2.3.14-.18.27-.36.38-.55.64-1.07.85-2.3.61-3.71-.27-1.65-1.05-2.88-2.33-3.69Z"/>
    <path class="cls-2" d="m704.53,439.19c1.2,10.66,2.39,21.31,3.59,31.97.45,4.05.2,6.99-.73,8.82-.94,1.83-2.44,2.87-4.52,3.11.45,3.78.9,7.55,1.35,11.33,3.38-.4,6.26-1.32,8.65-2.78,2.4-1.46,4.21-3.3,5.46-5.54,1.24-2.24,2.09-4.67,2.53-7.27.44-2.61.51-5.44.2-8.49-1.08-10.85-2.15-21.7-3.23-32.55-4.43.44-8.86.91-13.29,1.4Zm-10.02,42.34c-1.34-1.55-2.27-4.36-2.79-8.39-1.37-10.64-2.74-21.27-4.11-31.91-4.44.57-8.88,1.17-13.31,1.8,1.53,10.8,3.06,21.59,4.59,32.39.34,2.43.86,4.65,1.55,6.68.69,2.02,1.64,3.91,2.85,5.67,1.21,1.76,2.63,3.21,4.25,4.35,1.62,1.14,3.57,1.96,5.87,2.46,2.3.5,4.84.57,7.63.23-.46-3.78-.92-7.55-1.38-11.33-2.1.26-3.8-.4-5.14-1.95Z"/>
    <path class="cls-2" d="m734.64,449.79c1.13,13.41,2.25,26.82,3.38,40.23,4.21-.35,8.43-.68,12.64-.98-.96-13.42-1.91-26.85-2.87-40.27-4.39.31-8.77.65-13.16,1.02Zm24.33-13.73c-1.23-.96-2.86-1.37-4.91-1.24-10.42.67-20.84,1.49-31.24,2.48.35,3.68.69,7.36,1.04,11.04,10.29-.97,20.6-1.79,30.91-2.45,2.03-.13,3.58-.73,4.68-1.81,1.1-1.09,1.59-2.46,1.49-4.1-.09-1.64-.74-2.95-1.97-3.91Z"/>
    <path class="cls-2" d="m805.84,446.65c-.43-2.07-1.14-4.01-2.14-5.85-.99-1.82-2.23-3.37-3.72-4.65-1.49-1.27-3.35-2.25-5.59-2.94-2.24-.69-4.77-.99-7.6-.9.13,3.82.25,7.65.38,11.47,1.99-.07,3.46.75,4.41,2.44.96,1.69,1.49,4.55,1.6,8.57.09,3.48.19,6.96.28,10.44.11,4.02-.25,6.9-1.09,8.63-.83,1.74-2.2,2.63-4.12,2.7.13,3.83.25,7.66.38,11.48,2.68-.09,5.05-.53,7.14-1.33,2.09-.8,3.81-1.86,5.18-3.2,1.37-1.33,2.51-2.92,3.4-4.77.9-1.87,1.54-3.83,1.89-5.91.37-2.09.53-4.34.5-6.76-.06-4.23-.12-8.45-.18-12.68-.03-2.43-.26-4.67-.7-6.74Zm-26.22-.02c.82-1.74,2.23-2.66,4.21-2.73-.14-3.82-.28-7.65-.41-11.47-2.8.1-5.28.57-7.47,1.42-2.19.85-3.99,1.95-5.39,3.32-1.42,1.38-2.54,3.01-3.4,4.9-.86,1.9-1.44,3.88-1.75,5.98-.31,2.1-.39,4.35-.26,6.77.23,4.22.46,8.44.69,12.66.13,2.42.46,4.65.98,6.71.52,2.04,1.29,3.97,2.31,5.77,1.01,1.79,2.24,3.3,3.72,4.53,1.47,1.24,3.27,2.18,5.41,2.84,2.14.66,4.52.93,7.16.84-.14-3.83-.28-7.66-.41-11.48-1.91.07-3.34-.73-4.28-2.41-.94-1.67-1.49-4.52-1.65-8.54-.14-3.48-.29-6.95-.43-10.43-.17-4.02.15-6.9.98-8.66Z"/>
    <path class="cls-2" d="m846.37,434.22c-2.81-1.51-6.51-2.31-11.08-2.37-.05,3.75-.1,7.5-.15,11.25,4.39.06,7.03,1.76,7.9,5.05,3.22-2.21,6.46-4.41,9.73-6.59-1.45-3.38-3.57-5.82-6.39-7.34Zm4.45,30.47c-.61-1.86-1.69-3.49-3.22-4.87-1.54-1.38-3.35-2.54-5.43-3.49-2.09-.94-4.8-1.91-8.14-2.89-2.66-.77-4.45-1.53-5.36-2.25-.92-.73-1.39-1.84-1.38-3.34,0-1.46.45-2.61,1.3-3.41.86-.8,1.96-1.27,3.28-1.38.04-3.75.08-7.5.12-11.25-2.63-.03-5.04.3-7.22.97-2.18.68-4.09,1.68-5.71,3-1.62,1.31-2.88,3.04-3.76,5.15-.89,2.12-1.31,4.54-1.29,7.24.03,4.26,1.32,7.65,3.83,10.19,2.53,2.55,6.94,4.67,13.25,6.46,3.1.88,5.16,1.82,6.17,2.79,1.02.97,1.51,2.22,1.49,3.74-.06,3.15-1.73,4.8-5.01,4.99-.05,3.75-.09,7.5-.14,11.25,5.71.07,10.08-1.22,13.15-3.93,3.07-2.7,4.71-6.78,4.87-12.24.08-2.63-.18-4.88-.8-6.74Zm-25.55,10.34c-1.75-.84-3.05-2.19-3.89-4.07-3.1,2.27-6.19,4.55-9.25,6.84,2.84,6.48,8.94,9.67,18.34,9.75.04-3.75.07-7.5.11-11.25-1.78-.02-3.55-.45-5.31-1.28Z"/>
    <path class="cls-2" d="m895.37,465.44c-.58,7.92-1.16,15.84-1.74,23.76,4.08.3,8.17.62,12.25.97,1.35-15.71,2.7-31.41,4.04-47.12-4.94,7.43-9.79,14.89-14.55,22.39Zm.6-30.08c-3.23,5.27-6.41,10.56-9.54,15.86,1.97,4.28,3.92,8.57,5.83,12.87,5.9-9.25,11.95-18.45,18.14-27.59-4.81-.41-9.62-.79-14.43-1.14Zm-6.33,30.21c-4.78-10.54-9.73-21.05-14.85-31.52-4.68-.24-9.36-.45-14.04-.63,6.1,12.2,11.98,24.45,17.63,36.75.6,1.3,1.3,2.23,2.13,2.78.82.55,1.88.86,3.17.94,1.7.11,3.18-.27,4.42-1.15,1.24-.87,1.91-2.12,2.02-3.73.09-1.32-.07-2.46-.48-3.45Zm-29.33-25.09c-.59,15.59-1.18,31.17-1.77,46.76,4.09.15,8.19.33,12.28.54.39-7.83.79-15.65,1.18-23.48-3.8-7.96-7.7-15.9-11.69-23.82Z"/>
    <path class="cls-2" d="m920.23,437.39c-1.7,17.87-3.4,35.74-5.11,53.62,4.21.4,8.42.83,12.62,1.28,1.93-17.85,3.86-35.7,5.79-53.55-4.43-.48-8.87-.93-13.31-1.35Z"/>
    <path class="cls-2" d="m969.69,488.04c-.93-1.15-2.37-1.88-4.33-2.17-9.02-1.31-18.05-2.5-27.1-3.56-.43,3.67-.86,7.35-1.3,11.02,8.94,1.05,17.88,2.23,26.8,3.52,1.93.28,3.5.02,4.72-.81,1.22-.82,1.96-2.07,2.22-3.75.25-1.68-.09-3.1-1.02-4.26Zm-26.43-48.2c-1.56,13.22-3.11,26.44-4.67,39.67,4.26.5,8.52,1.03,12.77,1.59,1.72-13.2,3.45-26.4,5.17-39.6-4.42-.58-8.85-1.13-13.28-1.65Z"/>
    <path class="cls-2" d="m993.01,490.29c-.63,3.65-1.27,7.29-1.9,10.94,6.19,1.08,12.37,2.21,18.55,3.41.7-3.63,1.41-7.26,2.11-10.9-6.24-1.21-12.49-2.36-18.75-3.45Zm3.72-21.37c-.63,3.65-1.27,7.29-1.9,10.94,5.59.97,11.18,1.99,16.76,3.06.7-3.63,1.39-7.27,2.09-10.9-5.64-1.08-11.29-2.11-16.94-3.09Zm-14.96-9.69c-2.07,13.14-4.14,26.28-6.21,39.41,4.18.66,8.37,1.35,12.54,2.06,2.24-13.11,4.48-26.22,6.72-39.33-4.35-.74-8.7-1.46-13.05-2.14Zm36.57-6.25c-.93-1.2-2.41-1.99-4.45-2.37-9.96-1.87-19.95-3.59-29.95-5.17-.58,3.65-1.15,7.3-1.73,10.95,9.9,1.56,19.78,3.27,29.64,5.12,2.01.38,3.66.19,4.96-.56,1.3-.77,2.11-1.98,2.43-3.65.32-1.67.03-3.1-.9-4.31Z"/>
    <path class="cls-2" d="m1058.41,461.23c-2.46-2.05-5.95-3.6-10.45-4.59-.81,3.66-1.63,7.32-2.44,10.98,4.31.96,6.57,3.16,6.77,6.56,3.62-1.51,7.26-2.99,10.91-4.46-.74-3.6-2.34-6.43-4.8-8.49Zm-1.83,30.74c-.22-1.94-.94-3.76-2.18-5.43-1.25-1.67-2.79-3.18-4.65-4.53-1.87-1.35-4.34-2.86-7.43-4.49-2.45-1.3-4.06-2.4-4.82-3.3-.76-.9-.99-2.08-.68-3.55.31-1.43.97-2.46,1.98-3.07,1.01-.61,2.18-.84,3.51-.68.8-3.66,1.6-7.33,2.4-10.99-.98-.21-1.93-.37-2.87-.48-1.53-.16-3.01-.18-4.43-.05-2.29.22-4.36.81-6.23,1.76-1.86.95-3.44,2.39-4.74,4.28-1.3,1.9-2.22,4.17-2.75,6.82-.65,3.27-.44,6.17.63,8.72.29.71.65,1.39,1.08,2.05,1.96,3.01,5.88,5.99,11.71,9.04,2.88,1.5,4.71,2.84,5.52,4,.8,1.15,1.03,2.48.69,3.96-.7,3.07-2.68,4.34-5.95,3.86-.81,3.66-1.62,7.32-2.43,10.98,5.61,1.24,10.18.88,13.75-1.15,3.58-2.01,6.02-5.67,7.29-10.98.61-2.56.82-4.81.59-6.76Zm-27.26,4.89c-1.56-1.18-2.57-2.77-3.02-4.78-3.51,1.58-7.01,3.19-10.49,4.81,1.48,6.92,6.82,11.29,16.08,13.3.8-3.66,1.6-7.33,2.39-10.99-1.76-.38-3.41-1.17-4.97-2.34Z"/>
  </g>
</svg>