<?xml version="1.0" encoding="UTF-8"?>
<svg id="Layer_1" data-name="Layer 1" xmlns="http://www.w3.org/2000/svg" xmlns:xlink="http://www.w3.org/1999/xlink" viewBox="0 0 1741.59 1389.89">
  <defs>
    <style>
      .cls-1 {
        fill: url(#linear-gradient);
      }

      .cls-1, .cls-2, .cls-3, .cls-4, .cls-5, .cls-6, .cls-7, .cls-8, .cls-9, .cls-10, .cls-11, .cls-12, .cls-13, .cls-14, .cls-15, .cls-16, .cls-17, .cls-18, .cls-19 {
        stroke-width: 0px;
      }

      .cls-2 {
        fill: url(#radial-gradient);
      }

      .cls-3 {
        fill: url(#linear-gradient-11);
      }

      .cls-4 {
        fill: url(#linear-gradient-12);
      }

      .cls-5 {
        fill: url(#linear-gradient-13);
      }

      .cls-6 {
        fill: url(#linear-gradient-10);
      }

      .cls-7 {
        fill: url(#linear-gradient-14);
      }

      .cls-8 {
        fill: url(#radial-gradient-2);
      }

      .cls-9 {
        fill: url(#radial-gradient-3);
      }

      .cls-10 {
        fill: url(#linear-gradient-4);
      }

      .cls-11 {
        fill: url(#linear-gradient-2);
      }

      .cls-12 {
        fill: url(#linear-gradient-3);
      }

      .cls-13 {
        fill: url(#linear-gradient-8);
      }

      .cls-14 {
        fill: url(#linear-gradient-9);
      }

      .cls-15 {
        fill: url(#linear-gradient-7);
      }

      .cls-16 {
        fill: url(#linear-gradient-5);
      }

      .cls-17 {
        fill: url(#linear-gradient-6);
      }

      .cls-18 {
        fill: #1c2e38;
      }

      .cls-19 {
        fill: #fff;
      }
    </style>
    <linearGradient id="linear-gradient" x1="864.67" y1="-2270.52" x2="747.46" y2="-2998.19" gradientTransform="translate(0 -1901.49) scale(1 -1)" gradientUnits="userSpaceOnUse">
      <stop offset="0" stop-color="#c08f2f"/>
      <stop offset="1" stop-color="#f2de9a"/>
    </linearGradient>
    <linearGradient id="linear-gradient-2" x1="570.83" y1="-2996.57" x2="1198.17" y2="-2202.32" gradientTransform="translate(0 -1901.49) scale(1 -1)" gradientUnits="userSpaceOnUse">
      <stop offset="0" stop-color="#00457f"/>
      <stop offset="1" stop-color="#00204d"/>
    </linearGradient>
    <linearGradient id="linear-gradient-3" x1="788.44" y1="-2298.79" x2="783.36" y2="-2948.29" xlink:href="#linear-gradient-2"/>
    <linearGradient id="linear-gradient-4" x1="906.05" y1="-2299.71" x2="900.98" y2="-2949.21" xlink:href="#linear-gradient-2"/>
    <linearGradient id="linear-gradient-5" x1="1023.89" y1="-2300.63" x2="1018.81" y2="-2950.13" xlink:href="#linear-gradient-2"/>
    <linearGradient id="linear-gradient-6" x1="671.16" y1="-2297.87" x2="666.08" y2="-2947.38" xlink:href="#linear-gradient-2"/>
    <linearGradient id="linear-gradient-7" x1="554.14" y1="-2296.96" x2="549.07" y2="-2946.46" xlink:href="#linear-gradient-2"/>
    <radialGradient id="radial-gradient" cx="851.03" cy="544.01" fx="851.03" fy="544.01" r="181.46" gradientTransform="translate(-40.67 -32.88) scale(.97)" gradientUnits="userSpaceOnUse">
      <stop offset="0" stop-color="#bdd3dd"/>
      <stop offset=".41" stop-color="#bad0da"/>
      <stop offset=".7" stop-color="#b0c7d4"/>
      <stop offset=".96" stop-color="#a0b9c9"/>
      <stop offset="1" stop-color="#9eb7c7"/>
    </radialGradient>
    <radialGradient id="radial-gradient-2" cx="851.27" cy="543.3" fx="851.27" fy="543.3" r="189.59" gradientTransform="translate(-40.67 -32.88) scale(.97)" gradientUnits="userSpaceOnUse">
      <stop offset="0" stop-color="#2d3848"/>
      <stop offset=".26" stop-color="#2a3544"/>
      <stop offset=".48" stop-color="#232c39"/>
      <stop offset=".7" stop-color="#181e27"/>
      <stop offset=".91" stop-color="#080a0d"/>
      <stop offset="1" stop-color="#000"/>
    </radialGradient>
    <radialGradient id="radial-gradient-3" cx="850.88" cy="543.3" fx="850.88" fy="543.3" r="189.29" gradientTransform="translate(-40.67 -32.88) scale(.97)" gradientUnits="userSpaceOnUse">
      <stop offset="0" stop-color="#f7fafb"/>
      <stop offset=".32" stop-color="#f4f8f9"/>
      <stop offset=".55" stop-color="#eaf1f4"/>
      <stop offset=".76" stop-color="#dae7ec"/>
      <stop offset=".95" stop-color="#c4d8e0"/>
      <stop offset="1" stop-color="#bdd3dd"/>
    </radialGradient>
    <linearGradient id="linear-gradient-8" x1="772.77" y1="1026.8" x2="790.38" y2="973.97" gradientUnits="userSpaceOnUse">
      <stop offset="0" stop-color="#b68000"/>
      <stop offset="1" stop-color="#f8c74a"/>
    </linearGradient>
    <linearGradient id="linear-gradient-9" x1="677.6" y1="1020.08" x2="691.51" y2="978.36" xlink:href="#linear-gradient-8"/>
    <linearGradient id="linear-gradient-10" x1="873.84" y1="1020.08" x2="887.75" y2="978.36" xlink:href="#linear-gradient-8"/>
    <linearGradient id="linear-gradient-11" x1="601.1" y1="1011.64" x2="610.36" y2="983.86" xlink:href="#linear-gradient-8"/>
    <linearGradient id="linear-gradient-12" x1="956.93" y1="1011.64" x2="966.19" y2="983.86" xlink:href="#linear-gradient-8"/>
    <linearGradient id="linear-gradient-13" x1="784.24" y1="733.23" x2="787.8" y2="936.48" gradientUnits="userSpaceOnUse">
      <stop offset="0" stop-color="#c08f2f"/>
      <stop offset="1" stop-color="#b68000"/>
    </linearGradient>
    <linearGradient id="linear-gradient-14" x1="784.87" y1="742.35" x2="787.62" y2="976.06" gradientUnits="userSpaceOnUse">
      <stop offset="0" stop-color="#ecc670"/>
      <stop offset="1" stop-color="#cfa246"/>
    </linearGradient>
  </defs>
  <g>
    <path class="cls-1" d="m785.82,356.33c-445.12,184.88-304.51,673.65-304.51,673.65,122.83,59.51,304.51,66.87,304.51,66.87,0,0,181.68-7.35,304.51-66.87,0,0,140.62-488.78-304.51-673.65Z"/>
    <path class="cls-11" d="m785.82,371.01c-420.76,177.55-287.84,646.95-287.84,646.95,116.1,57.16,287.84,64.22,287.84,64.22,0,0,171.73-7.06,287.84-64.22,0,0,132.92-469.4-287.84-646.95Z"/>
    <g>
      <path class="cls-12" d="m815.21,1080.11c-18.34,1.61-29.39,2.06-29.39,2.06,0,0-11.05-.46-29.39-2.06V384.41c9.51-4.61,19.24-9.11,29.39-13.4,10.15,4.28,19.88,8.78,29.39,13.4v695.71Z"/>
      <path class="cls-10" d="m873.99,417.21c21.56,13.87,41.09,28.69,58.78,44.25v601.68c-20.72,4.25-40.64,7.58-58.78,10.18V417.21Z"/>
      <path class="cls-16" d="m1050.33,1028.49c-18.9,7.85-38.77,14.58-58.78,20.33v-524.84c24.91,32.14,44.12,66.03,58.78,100.38v404.13Z"/>
      <path class="cls-17" d="m697.65,1073.32c-18.15-2.6-38.06-5.93-58.78-10.18V461.46c17.69-15.56,37.22-30.37,58.78-44.25v656.1Z"/>
      <path class="cls-15" d="m580.09,1048.81c-20.01-5.75-39.88-12.48-58.78-20.33v-404.13c14.66-34.35,33.87-68.23,58.78-100.38v524.84Z"/>
    </g>
  </g>
  <g>
    <path class="cls-18" d="m785.82,493.11l1,.69c-.23.32-.6.52-1,.52s-.79-.21-1-.53l1-.68Z"/>
    <path class="cls-18" d="m785.82,450.84c.58,0,1.06.42,1.18.97-.76.16-1.18.24-1.18.24-.4-.08-.81-.18-1.19-.24.11-.55.6-.97,1.19-.97Z"/>
    <path class="cls-2" d="m666.21,563.81c-.03-.48-.35-.85-.77-1.02-.29.73-.44,1.11-.44,1.11l-.94-.74c-.18.23-.27.52-.26.82.02.19,1.6,20.31,12.18,47.66.15.35.45.63.81.73l.32-1.16c.31.24.63.5.95.73.26-.32.34-.76.18-1.16-10.44-27-12.02-46.78-12.03-46.97Zm32.74-90.52c.16.1.35.13.53.13.31,0,.63-.11.85-.35.15-.15,13.39-13.6,38.2-26.18.4-.21.65-.6.66-1.03-.79-.05-1.21-.05-1.21-.05l.53-1.05c-.32-.19-.73-.19-1.08-.02-25.2,12.78-38.7,26.5-38.83,26.63-.26.27-.37.63-.32.97l1.19-.13c-.18.34-.35.71-.53,1.08Zm86.86,19.82l1,.69c.13-.19.21-.44.21-.69v-41.07c0-.08-.02-.16-.03-.24-.76.16-1.18.24-1.18.24-.4-.08-.81-.18-1.19-.24,0,.08-.02.16-.02.24v41.07c0,.26.08.48.21.68l1-.68Zm-54.42,38.63c.13,0,.26-.02.37-.06l-.37-1.15.98-.68c-.15-.23-.37-.4-.65-.48l-42.92-12.48s-.1-.03-.15-.02c-.11.77-.18,1.19-.18,1.19-.27.27-.55.56-.81.87.13.14.29.24.47.29l42.91,12.47c.11.03.23.05.34.05Zm101.02-84.86c.26.13,25.26,13.28,39.87,26.24.24.19.52.29.81.29.11,0,.23-.02.34-.06-.21-.74-.34-1.15-.34-1.15l1.19.13c.05-.37-.08-.76-.39-1.03-14.84-13.15-40.12-26.44-40.36-26.57-.35-.18-.74-.18-1.06-.02l.5,1.08c-.39-.02-.79-.03-1.21-.03-.02.45.23.89.65,1.11Zm75.59,116.27l-.95.76c-.11-.37-.24-.76-.37-1.16-.4.15-.73.48-.81.92-.06.37-7,36.23-13.42,46.92-.24.4-.23.89.02,1.24.66-.4,1.02-.61,1.02-.61l.37,1.15c.27-.08.52-.26.68-.53,6.63-11.07,13.42-46.21,13.71-47.7.06-.37-.03-.71-.24-.98Zm-25.18-45.94c-.1,0-.19.02-.29.05l-42.92,12.1c-.29.08-.52.26-.66.48l1,.69-.37,1.15c.11.05.24.06.37.06.1,0,.21-.02.32-.05l42.91-12.11c.11-.03.23-.08.32-.13-.42-.68-.65-1.03-.65-1.03,0-.39,0-.79-.03-1.21Zm-62.05,76.07c-.16-.23-.39-.39-.63-.45l-.37,1.15h-1.21c0,.24.08.48.23.69l28.23,40.7c.06.08.13.16.21.23.52-.58.79-.9.79-.9.37-.11.74-.24,1.15-.39-.03-.11-.08-.21-.15-.31l-28.24-40.71Zm-9.74,78.38c-7.79,2.13-50.91-.02-51.34-.05-.4-.03-.74.13-.95.39.58.53.89.82.89.82l-.97.71c.19.29.53.48.92.5,1.16.06,19.68.98,34.6.98,7.84,0,14.68-.26,17.48-1.02.27-.08.52-.24.68-.47l-1-.71c.29-.15.65-.35,1.05-.63-.29-.45-.82-.68-1.35-.53Zm-59.84-78.83c-.24.08-.45.23-.6.44l-28.97,39.6c-.06.1-.13.19-.16.31.73.27,1.13.4,1.13.4.21.32.42.66.66,1.02.13-.06.23-.18.32-.29l28.97-39.62c.16-.21.23-.47.23-.71h-1.21l-.37-1.15Z"/>
    <path class="cls-8" d="m688.49,518.07s.06-.42.18-1.19c.87-5.89,5-32.15,10.29-43.58.18-.37.35-.74.53-1.08l-1.19.13-14.11,1.48h-.02c-18.39,22.05-29.73,50.18-30.57,80.94l10.47,8.4.94.74s.15-.39.44-1.11c2.34-5.95,13.74-34.33,22.24-43.86.26-.31.53-.6.81-.87Zm96.14-66.26c.11-.55.6-.97,1.19-.97s1.06.42,1.18.97c5.82-1.18,31.89-6.31,44.78-6.03.42,0,.82.02,1.21.03l-.5-1.08-5.48-11.98c-12.95-4.26-26.81-6.55-41.18-6.55s-28.23,2.29-41.18,6.55l-6.11,12.02-.53,1.05s.42,0,1.21.05c4.69.16,22.53,1.13,45.42,5.95Zm-33.44,141.03l.37,1.15h68.21l.37-1.15,19.44-61.15.37-1.15-1-.69-52.13-36.04c-.23.32-.6.52-1,.52s-.79-.21-1-.53l-52.44,36.07-.98.68.37,1.15,19.42,61.15Zm-27.94,41.76c-.24-.35-.45-.69-.66-1.02,0,0-.4-.13-1.13-.4-5.52-1.97-30.13-11.11-43.39-21.23-.32-.23-.65-.48-.95-.73l-.32,1.16-4.08,14.74c16.18,26.61,41.49,47.07,71.59,56.99l14.36-10.58.97-.71s-.31-.29-.89-.82c-4.81-4.44-27.82-25.92-35.49-37.41Zm170.24-23.37s-.35.21-1.02.61c-5.34,3.19-30.45,18-43.31,22.47-.4.15-.77.27-1.15.39,0,0-.27.32-.79.9-4.55,5.23-27.63,31.58-34.84,36.6-.4.27-.76.48-1.05.63l1,.71,14.99,10.58c30-9.89,55.23-30.23,71.42-56.7l-4.89-15.05-.37-1.15Zm-6.18-137.58l-13.02-1.31-1.19-.13s.13.4.34,1.15c1.66,5.66,8.94,31.02,9.39,43.86.03.42.03.82.03,1.21,0,0,.23.35.65,1.03,3.37,5.31,18.73,29.91,23.18,43.29.13.4.26.79.37,1.16l.95-.76,10.05-8.05c-.77-30.97-12.19-59.3-30.74-81.46Z"/>
    <path class="cls-9" d="m698.62,471.37c.13-.13,13.63-13.86,38.83-26.63.35-.18.76-.18,1.08.02l6.11-12.02c-23.87,7.79-44.75,22.21-60.46,41.08l14.11-1.48c-.05-.34.06-.69.32-.97Zm86.01-19.57c-22.89-4.82-40.73-5.79-45.42-5.95-.02.44-.26.82-.66,1.03-24.81,12.58-38.05,26.03-38.2,26.18-.23.24-.55.35-.85.35-.18,0-.37-.03-.53-.13-5.29,11.44-9.42,37.7-10.29,43.58.05-.02.1,0,.15.02l42.92,12.48c.27.08.5.26.65.48l52.44-36.07c-.13-.19-.21-.42-.21-.68v-41.07c0-.08.02-.16.02-.24Zm48.92-7.07c.24.13,25.52,13.42,40.36,26.57.31.27.44.66.39,1.03l13.02,1.31c-15.69-18.78-36.52-33.13-60.31-40.91l5.48,11.98c.32-.16.71-.16,1.06.02Zm-157.56,166.92c-10.58-27.36-12.16-47.47-12.18-47.66-.02-.31.08-.6.26-.82l-10.47-8.4c-.05,1.24-.06,2.48-.06,3.73,0,25.13,7,48.63,19.18,68.63l4.08-14.74c-.35-.1-.66-.37-.81-.73Zm110.83-117.85l52.13,36.04c.15-.23.37-.4.66-.48l42.92-12.1c.1-.03.19-.05.29-.05-.45-12.84-7.73-38.2-9.39-43.86-.11.05-.23.06-.34.06-.29,0-.56-.1-.81-.29-14.61-12.97-39.62-26.11-39.87-26.24-.42-.23-.66-.66-.65-1.11-12.89-.27-38.95,4.86-44.78,6.03.02.08.03.16.03.24v41.07c0,.26-.08.5-.21.69Zm131.24,61.29l-10.05,8.05c.21.27.31.61.24.98-.29,1.48-7.08,36.63-13.71,47.7-.16.27-.4.45-.68.53l4.89,15.05c12.28-20.07,19.36-43.66,19.36-68.93,0-1.13-.02-2.26-.05-3.39Zm-99.27,39.57c-.15-.21-.23-.45-.23-.69h-65.8c0,.24-.06.5-.23.71l-28.97,39.62c-.1.11-.19.23-.32.29,7.66,11.48,30.68,32.97,35.49,37.41.21-.26.55-.42.95-.39.44.03,43.55,2.18,51.34.05.53-.15,1.06.08,1.35.53,7.21-5.02,30.29-31.37,34.84-36.6-.08-.06-.15-.15-.21-.23l-28.23-40.7Zm-67.6-1.84l-19.42-61.15c-.11.05-.24.06-.37.06-.11,0-.23-.02-.34-.05l-42.91-12.47c-.18-.05-.34-.15-.47-.29-8.5,9.53-19.9,37.91-22.24,43.86.42.16.74.53.77,1.02.02.19,1.6,19.97,12.03,46.97.16.4.08.84-.18,1.16,13.26,10.11,37.87,19.26,43.39,21.23.03-.11.1-.21.16-.31l28.97-39.6c.15-.21.35-.35.6-.44Zm141.27,17.76c6.42-10.69,13.36-46.55,13.42-46.92.08-.44.4-.77.81-.92-4.45-13.39-19.81-37.99-23.18-43.29-.1.05-.21.1-.32.13l-42.91,12.11c-.11.03-.23.05-.32.05-.13,0-.26-.02-.37-.06l-19.44,61.15c.24.06.47.23.63.45l28.24,40.71c.06.1.11.19.15.31,12.86-4.47,37.97-19.28,43.31-22.47-.24-.35-.26-.84-.02-1.24Zm-80.8,63.41c-2.81.76-9.65,1.02-17.48,1.02-14.92,0-33.44-.92-34.6-.98-.39-.02-.73-.21-.92-.5l-14.36,10.58c13.05,4.32,27.02,6.66,41.52,6.66s28.45-2.34,41.5-6.66l-14.99-10.58c-.16.23-.4.39-.68.47Z"/>
  </g>
  <polygon class="cls-13" points="785.82 962.23 796.42 983.7 820.11 987.14 802.96 1003.85 807.01 1027.44 785.82 1016.3 764.63 1027.44 768.68 1003.85 751.53 987.14 775.23 983.7 785.82 962.23"/>
  <polygon class="cls-14" points="687.91 969.08 696.28 986.04 714.99 988.75 701.45 1001.96 704.65 1020.59 687.91 1011.79 671.17 1020.59 674.36 1001.96 660.82 988.75 679.54 986.04 687.91 969.08"/>
  <polygon class="cls-6" points="884.15 969.08 892.52 986.04 911.24 988.75 897.7 1001.96 900.89 1020.59 884.15 1011.79 867.41 1020.59 870.61 1001.96 857.07 988.75 875.78 986.04 884.15 969.08"/>
  <polygon class="cls-3" points="607.96 977.69 613.53 988.98 625.99 990.79 616.98 999.57 619.1 1011.98 607.96 1006.12 596.82 1011.98 598.95 999.57 589.93 990.79 602.39 988.98 607.96 977.69"/>
  <polygon class="cls-4" points="963.79 977.69 969.37 988.98 981.82 990.79 972.81 999.57 974.94 1011.98 963.79 1006.12 952.65 1011.98 954.78 999.57 945.76 990.79 958.22 988.98 963.79 977.69"/>
  <g>
    <path class="cls-5" d="m1130.22,969.2c13.61-45.56,21.08-94.59,21.09-145.71,0-50.31-7.26-98.59-20.47-143.54-91.49,37.48-210.59,60.12-341.13,60.12-133.05,0-254.92-23.51-348.28-62.28-13.61,45.56-21.09,94.59-21.09,145.71s7.26,98.59,20.47,143.54c91.49-37.48,210.59-60.12,341.13-60.12s254.92,23.51,348.28,62.28Z"/>
    <path class="cls-7" d="m1136.21,981.82l-9.58-3.98c-95.6-39.7-218.02-61.56-344.69-61.56-124.17,0-244.06,21.1-337.59,59.42l-9.6,3.93-2.92-9.95c-13.83-47.09-20.85-96.27-20.85-146.18,0-50.76,7.23-100.68,21.48-148.38l2.97-9.94,9.58,3.98c95.6,39.7,218.01,61.57,344.69,61.57,124.16,0,244.05-21.1,337.59-59.42l9.6-3.93,2.92,9.95c13.83,47.09,20.85,96.27,20.85,146.18s-7.23,100.68-21.48,148.38l-2.97,9.94Zm-354.27-84.25c124.85,0,245.85,20.93,342.16,59.06,11.85-42.95,17.85-87.68,17.85-133.13s-5.81-88.64-17.29-131c-94.23,36.75-212.67,56.93-334.96,56.93s-245.85-20.93-342.16-59.06c-11.85,42.95-17.85,87.68-17.85,133.13s5.81,88.64,17.29,131c94.22-36.75,212.66-56.93,334.96-56.93Z"/>
  </g>
  <path class="cls-19" d="m537.74,794.07c1.48-1.54,3.27-2.72,5.37-3.54,2.09-.81,4.39-1.22,6.9-1.22,2.85,0,5.47.61,7.86,1.83,2.39,1.22,4.57,3,6.55,5.33l11-9.95c-2.97-3.78-6.68-6.65-11.13-8.6-4.45-1.95-9.5-2.92-15.15-2.92-4.83,0-9.28.77-13.36,2.31-4.07,1.54-7.62,3.72-10.65,6.55-3.03,2.82-5.38,6.18-7.07,10.08-1.69,3.9-2.53,8.18-2.53,12.83s.84,8.93,2.53,12.83c1.69,3.9,4.04,7.26,7.07,10.08,3.03,2.82,6.58,5.01,10.65,6.55,4.07,1.54,8.53,2.31,13.36,2.31,5.64,0,10.69-.99,15.15-2.97s8.16-4.86,11.13-8.64l-11-9.95c-1.98,2.39-4.16,4.19-6.55,5.41-2.39,1.22-5.01,1.83-7.86,1.83-2.5,0-4.8-.41-6.9-1.22-2.09-.81-3.88-1.99-5.37-3.54-1.48-1.54-2.65-3.39-3.49-5.54-.84-2.15-1.27-4.54-1.27-7.16s.42-5,1.27-7.16c.84-2.15,2.01-4,3.49-5.54Zm71.45-17.85h-17.28v61.11h46.35v-13.71h-29.07v-47.4Zm64.33,0l-26.97,61.11h17.63l4.8-11.96h25.84l4.8,11.96h17.98l-27.06-61.11h-17.02Zm.54,36.49l7.84-19.54,7.84,19.54h-15.68Zm373.86-5.19c-1.92-2.88-4.47-5.11-7.64-6.68-3.17-1.57-6.68-2.36-10.52-2.36-2.91,0-5.5.36-7.77,1.09-2.27.73-4.23,1.82-5.89,3.27-.03.03-.06.06-.09.08.39-4.24,1.75-7.57,4.1-9.95,2.82-2.85,6.59-4.28,11.3-4.28,1.98,0,3.91.22,5.8.66,1.89.44,3.71,1.27,5.46,2.49l6.2-12.4c-2.21-1.45-4.89-2.56-8.03-3.32-3.14-.75-6.43-1.13-9.86-1.13-6.4,0-12.05,1.31-16.94,3.93-4.89,2.62-8.7,6.42-11.43,11.39-2.74,4.98-4.1,10.99-4.1,18.03,0,6.63,1.18,12.18,3.54,16.63,2.36,4.45,5.66,7.83,9.91,10.13,4.25,2.3,9.22,3.45,14.93,3.45,4.42,0,8.45-.84,12.09-2.53,3.64-1.69,6.52-4.1,8.64-7.25,2.12-3.14,3.19-6.84,3.19-11.09,0-3.9-.96-7.29-2.88-10.17Zm-14.97,15.15c-.67,1.16-1.63,2.05-2.88,2.66-1.25.61-2.69.92-4.32.92-1.75,0-3.26-.33-4.54-1-1.28-.67-2.27-1.58-2.97-2.75-.7-1.16-1.05-2.47-1.05-3.93,0-1.57.36-2.92,1.09-4.06.73-1.13,1.72-2.04,2.97-2.71,1.25-.67,2.72-1,4.41-1,2.5,0,4.51.7,6.02,2.09,1.51,1.4,2.27,3.29,2.27,5.67,0,1.57-.33,2.94-1,4.1Zm-58.71-21.61c-3.67-1.72-8.53-2.58-14.58-2.58h-4.08l.74-8.82h24.64v-13.44h-38.93l-3.06,35.7h16.59c3.08,0,5.5.26,7.25.79,1.75.52,2.95,1.25,3.62,2.18.67.93,1,2.01,1,3.23,0,2.1-.9,3.7-2.71,4.8-1.8,1.11-4.19,1.66-7.16,1.66s-5.75-.44-8.69-1.31c-2.94-.87-5.63-2.09-8.08-3.67l-6.37,12.92c3.14,1.98,6.82,3.48,11.04,4.5,4.22,1.02,8.48,1.53,12.79,1.53,6.11,0,11.12-.99,15.01-2.97,3.9-1.98,6.79-4.55,8.69-7.73,1.89-3.17,2.84-6.53,2.84-10.08s-.84-6.87-2.53-9.78c-1.69-2.91-4.37-5.22-8.03-6.94Zm-110.08-24.83h-18.94l-23.66,25.39v-25.39h-17.02v61.11h17.02v-15.31l6.42-6.88,17.5,22.18h20.08l-26.22-34.03,24.82-27.07Zm-81.23,34.57c2.18-3.32,3.27-7.33,3.27-12.05s-1.09-8.6-3.27-12c-2.18-3.4-5.31-6.01-9.38-7.81-4.07-1.8-8.9-2.71-14.49-2.71h-27.85v61.11h17.28v-16.24h9.35l11.08,16.24h18.51l-13.19-19.22c3.73-1.76,6.64-4.19,8.7-7.31Zm-16.8-5.41c-1.8,1.57-4.51,2.36-8.12,2.36h-9.51v-17.9h9.51c3.61,0,6.31.8,8.12,2.4,1.8,1.6,2.71,3.77,2.71,6.5s-.9,5.06-2.71,6.63Zm144.82,7.59c2.91-2.68,5.11-5.11,6.59-7.29,1.48-2.18,2.49-4.26,3.01-6.24.52-1.98.79-3.93.79-5.85,0-3.84-1-7.13-3.01-9.86-2.01-2.73-4.79-4.87-8.34-6.42-3.55-1.54-7.68-2.31-12.4-2.31-5.99,0-11.14,1.17-15.45,3.49-4.31,2.33-7.57,5.41-9.78,9.25l12.83,7.07c1.22-1.92,2.78-3.38,4.67-4.37,1.89-.99,3.94-1.48,6.15-1.48,2.62,0,4.58.55,5.89,1.66,1.31,1.11,1.96,2.62,1.96,4.54,0,.87-.13,1.78-.39,2.71-.26.93-.77,1.99-1.53,3.19-.76,1.19-1.98,2.55-3.67,4.06l-22.78,21.3v10.91h47.58v-13.71h-23.62l11.48-10.65Z"/>
  <path class="cls-19" d="m987.13,870.64c-.67-1.01-1.58-1.78-2.73-2.3-.38-.18-.79-.31-1.21-.43.02,0,.04-.01.05-.02,1.07-.52,1.93-1.27,2.56-2.25.64-.97.95-2.17.95-3.59,0-2.1-.81-3.75-2.43-4.96-1.62-1.21-3.94-1.81-6.96-1.81h-11.75v26.19h12.5c3.32,0,5.82-.62,7.5-1.85,1.68-1.23,2.53-2.97,2.53-5.22,0-1.5-.34-2.75-1.01-3.76Zm-17.78-12.33h7.67c1.9,0,3.37.35,4.42,1.05,1.05.7,1.57,1.75,1.57,3.14s-.52,2.45-1.57,3.14-2.52,1.05-4.42,1.05h-7.67v-8.38Zm13.36,19.08c-1.1.7-2.68,1.05-4.75,1.05h-8.61v-8.72h8.61c2.07,0,3.65.35,4.75,1.05s1.65,1.81,1.65,3.33-.55,2.59-1.65,3.29Zm-312.69-18.62c-1.25-1.21-2.72-2.14-4.42-2.81-1.7-.66-3.54-.99-5.54-.99s-3.88.34-5.58,1.01c-1.7.67-3.17,1.62-4.42,2.83-1.25,1.21-2.22,2.63-2.92,4.25-.7,1.62-1.05,3.39-1.05,5.31s.35,3.69,1.05,5.31c.7,1.62,1.67,3.04,2.92,4.25,1.25,1.21,2.73,2.15,4.43,2.83s3.56,1.01,5.56,1.01,3.84-.33,5.54-.99c1.7-.66,3.17-1.6,4.42-2.81,1.25-1.21,2.21-2.62,2.9-4.25.69-1.62,1.03-3.41,1.03-5.35s-.34-3.7-1.03-5.33c-.69-1.63-1.65-3.06-2.9-4.27Zm-.58,13.6c-.51,1.22-1.22,2.29-2.13,3.2-.91.91-1.98,1.62-3.22,2.11-1.24.5-2.59.75-4.06.75s-2.79-.25-4.02-.75c-1.24-.5-2.31-1.2-3.24-2.11s-1.64-1.98-2.15-3.2c-.51-1.22-.77-2.56-.77-4s.26-2.77.77-3.99c.51-1.21,1.23-2.28,2.15-3.2s2-1.63,3.24-2.13c1.23-.5,2.58-.75,4.02-.75s2.83.25,4.06.75c1.23.5,2.31,1.21,3.22,2.13.91.92,1.62,1.99,2.13,3.2.51,1.21.77,2.54.77,3.99s-.26,2.78-.77,4Zm121.6-17.1h-3.74v26.19h17.92v-3.26h-14.18v-22.94Zm-212.96,26.19h3.74v-10.59h13.14v-3.22h-13.14v-9.13h14.74v-3.25h-18.49v26.19Zm105.3-22.94h8.98v22.94h3.71v-22.94h8.98v-3.25h-21.67v3.25Zm219.17-3.25h-3.74v26.19h17.92v-3.26h-14.18v-22.94Zm-271.45,3.5c-1.25-1.21-2.72-2.14-4.42-2.81-1.7-.66-3.54-.99-5.54-.99s-3.88.34-5.58,1.01c-1.7.67-3.17,1.62-4.42,2.83-1.25,1.21-2.22,2.63-2.92,4.25-.7,1.62-1.05,3.39-1.05,5.31s.35,3.69,1.05,5.31c.7,1.62,1.67,3.04,2.92,4.25,1.25,1.21,2.73,2.15,4.43,2.83s3.56,1.01,5.56,1.01,3.84-.33,5.54-.99c1.7-.66,3.17-1.6,4.42-2.81,1.25-1.21,2.21-2.62,2.9-4.25.69-1.62,1.03-3.41,1.03-5.35s-.34-3.7-1.03-5.33c-.69-1.63-1.65-3.06-2.9-4.27Zm-.58,13.6c-.51,1.22-1.22,2.29-2.13,3.2-.91.91-1.98,1.62-3.22,2.11-1.24.5-2.59.75-4.06.75s-2.79-.25-4.02-.75c-1.24-.5-2.31-1.2-3.24-2.11s-1.64-1.98-2.15-3.2c-.51-1.22-.77-2.56-.77-4s.26-2.77.77-3.99c.51-1.21,1.23-2.28,2.15-3.2s2-1.63,3.24-2.13c1.23-.5,2.58-.75,4.02-.75s2.83.25,4.06.75c1.23.5,2.31,1.21,3.22,2.13.91.92,1.62,1.99,2.13,3.2.51,1.21.77,2.54.77,3.99s-.26,2.78-.77,4Zm129.79-17.1l-11.86,26.19h3.85l2.88-6.55h13.93l2.88,6.55h3.93l-11.9-26.19h-3.7Zm-3.81,16.65l5.65-12.85,5.65,12.85h-11.3Zm190.32-1.91c0,2.92-.64,5.05-1.93,6.4-1.29,1.35-3.11,2.02-5.48,2.02s-4.16-.67-5.44-2.02c-1.29-1.35-1.93-3.48-1.93-6.4v-14.74h-3.74v14.89c0,3.79.98,6.67,2.96,8.64,1.97,1.97,4.68,2.96,8.12,2.96s6.18-.99,8.14-2.96c1.96-1.97,2.94-4.85,2.94-8.64v-14.89h-3.63v14.74Zm-126.07-14.74h-3.74v26.19h17.92v-3.26h-14.18v-22.94Zm-85.36,13.06c-.38-.18-.79-.31-1.21-.43.02,0,.04-.01.05-.02,1.07-.52,1.93-1.27,2.56-2.25.64-.97.95-2.17.95-3.59,0-2.1-.81-3.75-2.43-4.96-1.62-1.21-3.94-1.81-6.96-1.81h-11.75v26.19h12.5c3.32,0,5.82-.62,7.5-1.85,1.68-1.23,2.53-2.97,2.53-5.22,0-1.5-.34-2.75-1.01-3.76-.67-1.01-1.58-1.78-2.73-2.3Zm-15.04-10.03h7.67c1.9,0,3.37.35,4.42,1.05,1.05.7,1.57,1.75,1.57,3.14s-.52,2.45-1.57,3.14-2.52,1.05-4.42,1.05h-7.67v-8.38Zm13.36,19.08c-1.1.7-2.68,1.05-4.75,1.05h-8.61v-8.72h8.61c2.07,0,3.65.35,4.75,1.05s1.65,1.81,1.65,3.33-.55,2.59-1.65,3.29Zm135.09-16.24c.92-.9,2.01-1.6,3.27-2.1s2.62-.75,4.1-.75,2.76.26,4,.77c1.25.51,2.37,1.29,3.37,2.34l2.43-2.36c-1.2-1.35-2.65-2.36-4.36-3.05-1.71-.69-3.57-1.03-5.59-1.03s-3.84.33-5.52.99c-1.68.66-3.15,1.6-4.4,2.81-1.25,1.21-2.22,2.63-2.92,4.25s-1.05,3.41-1.05,5.35.35,3.73,1.05,5.35c.7,1.62,1.67,3.04,2.9,4.25,1.24,1.21,2.69,2.15,4.38,2.81,1.68.66,3.52.99,5.52.99s3.92-.35,5.63-1.05c1.71-.7,3.16-1.72,4.36-3.07l-2.43-2.36c-1,1.07-2.12,1.87-3.37,2.38-1.25.51-2.58.77-4,.77s-2.84-.25-4.1-.75-2.35-1.2-3.27-2.1-1.64-1.96-2.15-3.2c-.51-1.24-.77-2.58-.77-4.02s.26-2.79.77-4.02c.51-1.24,1.23-2.3,2.15-3.2Z"/>
</svg>