<?xml version="1.0" encoding="utf-8"?>
<!-- Generator: Adobe Illustrator 28.0.0, SVG Export Plug-In . SVG Version: 6.00 Build 0)  -->
<svg version="1.1" id="Layer_1" xmlns="http://www.w3.org/2000/svg" xmlns:xlink="http://www.w3.org/1999/xlink" x="0px" y="0px"
	 viewBox="0 0 1741.6 1389.9" style="enable-background:new 0 0 1741.6 1389.9;" xml:space="preserve">
<style type="text/css">
	.st0{fill:#006838;}
	.st1{enable-background:new    ;}
	.st2{fill:#FFFFFF;}
</style>
<g>
	<path d="M871,274.9c101.5,0,203.1,0.2,304.6-0.3c11.6-0.1,14.6,3,14.6,14.5c-0.5,164.6,0.4,329.2-0.9,493.9
		c-0.7,92.7-32.8,172.5-107,231.9c-65.2,52.2-131,103.7-196.1,156.1c-10.1,8.2-17.2,6.9-26.5-0.3c-59.3-45.6-118.2-91.8-176.5-138.7
		c-35.4-28.4-68.6-58.7-91.6-98.5c-25.7-44.6-37.5-93.3-38.3-144.2c-2.7-166.7-1.7-333.3-1.6-500c0-11.4,3.2-14.5,14.7-14.5
		c101.5,0.5,203.1,0.3,304.6,0.3V274.9L871,274.9z M872.6,308.4L872.6,308.4c-88.7,0.1-177.5,0.2-266.2-0.1
		c-11,0-15.8,1.7-15.8,14.9c0.7,157.4,0.7,314.9,0.9,472.3c0,20,1.3,39.9,5.7,59.5c13.8,61.9,49.6,109.2,98.2,148.1
		c54,43.2,108.3,86.1,161.9,129.8c11.4,9.3,19.2,9.9,30.8,0.4c53.5-43.9,107.2-87.5,161.5-130.2c67.7-53.2,102.2-121.2,101.6-208.4
		c-1.2-158.5-0.2-316.9,0.4-475.4c0-11-4.7-11-12.8-11C1050.1,308.4,961.4,308.4,872.6,308.4L872.6,308.4z"/>
	<path class="st0" d="M1137.4,335.7c0-12.2-4-14.2-14.9-14.2c-83.6,0.4-167.2,0.2-250.8,0.2v-0.1c-84.1,0-168.2,0.1-252.3-0.1
		c-9.1,0-15,0.1-15,12.5c0.7,156.4,0.1,312.8,1.3,469.3c0.6,71,30.2,129.9,83.5,176.5c56.8,49.5,116.9,94.9,175.5,142.2
		c7.7,6.2,11.4,2.7,16.6-1.6c55.8-45.1,112-89.8,167.5-135.2c59.3-48.5,88.5-111.5,88.4-188C1137.4,643.4,1137.1,489.5,1137.4,335.7
		L1137.4,335.7z M891.2,1057.8c-14.1-10.9-27-12.1-40.8,0.3c6.6-17.6,5.5-31.6-10.8-42.6c14.4,1.2,23.2-3.1,26.1-16.9
		c0.5-2.2,1.9-5,5-5.1c3-0.1,4.7,2.3,5,4.8c2,15.6,12,18.5,27.3,16C889,1026.2,882.6,1039.3,891.2,1057.8z M1073.1,740.7
		c-4.1,7.1-8,14.2-15.1,21.4c-4.5-23.9-23.3-34.1-40.3-46c-3.8-2.6-7-4.5-12.4-1.4c-16,9.1-32.3,17.6-48.9,25.7
		c-8.5,4.1-8.5,6.8-0.8,12c20.4,13.8,41.6,26.2,63.9,36.7c4.5,2.1,9.7,3.4,13,8.7c-22.4,19.9-49,15.5-74.5,11.9
		c-28.4-4-54.2-15.1-75.8-34.6c-4.3-3.9-8-5.4-13.7-3.3c-8.1,3.1-16.4,5.4-24.7,8c18.5,25.8,70.5,58.4,133.7,56.5
		c-26.2,13.1-50.4,7.3-74.4,0.2c-24.4-7.2-48-18.4-65-36.6c-16.6-17.7-30.6-12.1-48.9-3.4c35.2,34.8,74.6,57.8,122.8,64.8
		c-25.8,5.8-63.1-2.3-92.7-19.9c-13.7-8.2-27.1-17-37.7-29c-8.6-9.7-17.3-12.6-29.4-7.7c-5.6,2.3-11.8,2.8-19.7,4.5
		c16,19.6,34.9,33.8,54.9,47c-34-11.3-62.3-30.8-89.7-61.2c23.2,2.4,41.9-1.5,60.3-6.3c77.8-20.6,155.3-42.1,227.4-79.1
		c1.8-0.9,3.7-1.9,5.6-2.4c9.8-2.4,16-15.9,26.9-12.1c19.3,6.8,37.4,16.7,53,30.3C1076,729.9,1076.4,734.9,1073.1,740.7
		L1073.1,740.7z M886.3,674.2c-9.9,29.2-26.8,36.9-51.4,30.1c-16.1,1.5-29.4,2.1-42.5,4.3c-12.4,2.1-20.2-0.3-23.2-13.9
		c-3.7-16.4-9-32.5-12.9-48.8c-4.2-17.5,4.7-31.9,13-46c4.4-7.5,10-14.2,15.3-21.1c7.4-9.4,16-14.5,29.1-11.4
		c12.9,3.1,26.3,4.7,39.5,5.2c13,0.5,20.1,7,26.2,17.4C903.2,630.6,901.4,629.8,886.3,674.2z M909.1,627.3
		c5.2-17.1,7.5-17.8,23.3-10.8c10.8,4.7,21.4,9.8,32.4,13.9c24.6,9.1,30.2,29.8,33,52.4c1.1,7-3.4,10.6-8.6,13.1
		c-19.9,9.4-39.5,19.4-60,27.5c-15.1,6-25.4-7.6-37.2-13.5c-9.5-4.7-1.7-13.1-0.3-19.1C896.7,669.5,902.7,648.3,909.1,627.3
		L909.1,627.3z M1089.2,701.1c-4.1,7.9-7.4-0.5-10.6-1.8c-13.2-5.6-20.1-16.2-23.7-29.9c-5.5-20.8-13.3-40.9-17-63.9
		c-5.2,4-8.8,6.8-12.4,9.6c-18.6,14.1-37.5,25.2-59.5,5.9c-1.5-1.3-3.6-2.2-5.6-2.5c-40-7.1-41.6-39.4-45.9-69.8
		c-0.9-6.5,2.7-11.7,6.3-16.8c7.2-10,15.4-19.6,20.6-30.5c5.4-11.2,11.7-11.6,22-8.1c15.8,5.5,32.1,9.7,48.2,14.5
		c-21.6-20-62.5-26.3-88.5-14.3c-16.7,7.7-32.9,16.7-50.5,22.5c-12.4,4.1-23.3,3.9-35.2-2.7c-16.2-8.9-29.9-21.9-47.3-28.6
		c-3.5-1.4-7.7-5-11.3-1c-3.1,3.5,1.2,6.4,2.4,9.5c9.8,24.7,0.5,57.8-16.7,76.8c-15.5,17-32,21.7-53.1,16.2
		c-5.4-1.4-11.1-2-16.7-2.7c-4.1-0.5-9.2-1.1-10.4,3.8c-1,4.2,4.1,5.5,7,7.2c18.6,10.3,34.6,23.4,49,39.1c5.7,6.2,8.7,12,9.3,20
		c0.7,9.7,0.3,19.8,2.9,29c8.8,31.4-9.7,54.9-22,80.2c-3,6.1-7.3,3.5-11.7,1.8c-20.7-8.2-43.7-12.4-54.5-36.2
		c-14.3-31.5-23.4-64-14.6-98.3c2.7-10.6,2.1-21.1,4.5-31.2C673.6,515.6,729,467,809.4,448.2c90.7-21.2,170.3,1.8,234.8,71.3
		c9.8,10.6,9.7,23.6,10.5,35.9c2,34.8,2.4,69.6,11.6,103.6c3.3,12.2,7.8,22.5,19.6,27.3C1095.2,690.2,1091.7,696.3,1089.2,701.1
		L1089.2,701.1z M1092.4,679.8c1.2-34.3-3.5-67.6-12.5-100.5C1094.7,611.5,1097.2,645.3,1092.4,679.8z"/>
	<g class="st1">
		<path class="st2" d="M660.2,401.9v11.3c-2.8,0-5.2-0.4-7.4-1.2c-2.2-0.8-4-1.8-5.4-3.2c-1.4-1.3-2.6-3-3.5-4.8
			c-0.9-1.9-1.6-3.9-2-6c-0.4-2.1-0.6-4.3-0.6-6.8v-32.4h12.5v31.9c0,4,0.5,6.9,1.6,8.6C656.6,401.1,658.2,401.9,660.2,401.9z
			 M663.4,413.3v-11.3c2,0,3.6-0.8,4.7-2.5c1.1-1.7,1.6-4.6,1.6-8.6v-31.9h12.5v32.4c0,3-0.3,5.8-1,8.4s-1.7,4.8-3.2,6.9
			c-1.4,2.1-3.4,3.7-5.9,4.9S666.7,413.3,663.4,413.3z"/>
		<path class="st2" d="M713.2,390.4h-1.8c-1.9,0-3.4-0.5-4.4-1.5c-1-1-1.6-2.3-1.6-4c0-1.7,0.5-3,1.6-4c1-1,2.5-1.5,4.4-1.5h1
			c3.2,0,4.8-1.5,4.8-4.6c0-3.2-2-4.9-5.9-4.9h-20.5v-11h22.1c5.2,0,9.3,1.3,12.3,4c3,2.7,4.4,6.6,4.4,11.7c0,5.2-1.4,9.1-4.3,11.7
			C722.5,389.1,718.4,390.4,713.2,390.4z M703.2,412.3h-12.5v-39.6h12.5V412.3z M731,412.3h-13.6l-9.1-19.5h13L731,412.3z"/>
		<path class="st2" d="M773.1,377.4h-11.9c0-2.6-0.7-4.5-2-5.7s-3.4-1.8-6.1-1.8h-16.3v-11h18.2c5.9,0,10.4,1.5,13.5,4.6
			C771.6,366.6,773.1,371.2,773.1,377.4z M749.3,412.3h-12.5v-39.6h12.5V412.3z M775.8,395.7c0,5.2-1.5,9.3-4.4,12.2
			c-2.9,2.9-6.9,4.4-12.1,4.4h-7v-11h5.4c3.7,0,5.6-1.8,5.6-5.3c0-1.6-0.4-2.8-1.3-3.6c-0.9-0.8-2-1.2-3.5-1.2h-1.3
			c-1.9,0-3.4-0.5-4.4-1.5c-1-1-1.6-2.3-1.6-4c0-1.7,0.5-3,1.6-4c1-1,2.5-1.5,4.4-1.5h2.1c5.1,0,9.2,1.4,12.1,4.1
			C774.3,387,775.8,390.8,775.8,395.7z"/>
		<path class="st2" d="M796.6,390.5h7.1l2.3,11h-11.9l-2.5,10.8h-12.8l10-39.6h11.8L796.6,390.5z M811.6,358.9l12.9,53.4h-12.7
			l-9.6-42.4h-8.7c-2,0-3.5-0.5-4.5-1.5c-1.1-1-1.6-2.3-1.6-4s0.5-3,1.6-4c1.1-1,2.6-1.5,4.5-1.5H811.6z"/>
		<path class="st2" d="M841.7,412.3H830v-46.4l11.7,22.8V412.3z M843.7,358.9l23.2,46c0.6,1.3,0.9,2.4,0.9,3.3c0,1.7-0.6,3.1-1.8,4
			c-1.2,0.9-2.6,1.4-4.4,1.4c-2.3,0-4.1-1.2-5.3-3.5l-26-51.1H843.7z M856.8,358.9h11.6V401l-11.6-23.5V358.9z"/>
		<path class="st2" d="M916,412.3h-1.9c-1.3,0-2.5-0.5-3.4-1.6c-1-1.1-1.4-2.5-1.4-4.1c0-1.7,0.5-3,1.4-4.1c0.9-1.1,2-1.6,3.2-1.6
			h1.1c0.8,0,1.5-0.1,2.1-0.2c0.6-0.2,1.2-0.5,1.9-1.1c0.6-0.6,1.2-1.4,1.6-2.4c0.4-1,0.7-2.4,1-4.3c0.3-1.8,0.4-4,0.4-6.5
			c0-3.3-0.2-6-0.7-8.1c-0.5-2.1-1.2-3.8-2.2-5c-1-1.2-2.2-2-3.5-2.5c-1.3-0.5-3-0.7-5-0.7h-15.8v-11H911c3,0,5.6,0.2,7.9,0.7
			s4.5,1.3,6.5,2.6s3.7,2.9,4.9,4.9c1.3,2,2.3,4.7,3,7.9c0.7,3.2,1.1,6.9,1.1,11.2c0,4-0.3,7.5-0.8,10.4s-1.3,5.5-2.3,7.4
			c-1,2-2.3,3.6-3.8,4.8s-3.3,2.1-5.1,2.6C920.5,412,918.4,412.3,916,412.3z M907.1,412.3h-12.5v-39.6h12.5V412.3z"/>
		<path class="st2" d="M970,369.9h-28.2v-11H970c1.9,0,3.4,0.5,4.5,1.5c1.1,1,1.6,2.3,1.6,4s-0.5,3-1.6,4
			C973.4,369.4,971.9,369.9,970,369.9z M954.2,412.3h-12.5v-39.6h12.5V412.3z M973.5,390.8h-16.3v-11h16.3V390.8z M975.6,412.3
			h-18.5v-11h18.5V412.3z"/>
		<path class="st2" d="M1002.3,401.9v11.4c-3.3,0-6.2-0.6-8.8-1.7s-4.7-2.7-6.3-4.6c-1.6-2-2.8-4.2-3.6-6.8
			c-0.8-2.5-1.2-5.3-1.2-8.3v-12.6c0-3,0.4-5.7,1.2-8.3c0.8-2.5,2-4.8,3.6-6.8c1.6-2,3.7-3.5,6.3-4.6s5.5-1.7,8.8-1.7v11.4
			c-2.2,0-3.9,0.9-5.2,2.7c-1.3,1.8-1.9,4.6-1.9,8.4v10.3c0,3.8,0.6,6.6,1.9,8.4C998.4,401,1000.1,401.9,1002.3,401.9z M1021,367.3
			l-8.8,6.1c-1.3-2.7-3.5-4.1-6.7-4.1V358c4.1,0,7.4,0.8,10.1,2.4C1018.2,362,1020,364.3,1021,367.3z M1005.4,413.3v-11.4
			c1.8,0,3.3-0.3,4.4-0.9c1.1-0.6,2-1.6,2.6-2.9l8.6,7.2C1018.1,410.6,1012.9,413.3,1005.4,413.3z"/>
		<path class="st2" d="M1040.4,390.5h7.1l2.3,11h-11.9l-2.5,10.8h-12.8l10-39.6h11.8L1040.4,390.5z M1055.4,358.9l12.9,53.4h-12.7
			l-9.6-42.4h-8.7c-2,0-3.5-0.5-4.5-1.5c-1.1-1-1.6-2.3-1.6-4s0.5-3,1.6-4c1.1-1,2.6-1.5,4.5-1.5H1055.4z"/>
		<path class="st2" d="M1080,358.9l12.7,24c0.5,0.9,0.8,2,0.8,3.1c0,1.8-0.7,3.2-2,4.2s-2.9,1.5-4.6,1.5c-2.6,0-4.5-1.1-5.7-3.4
			l-15.7-29.4H1080z M1093.3,412.3h-12.5v-18.6h12.5V412.3z M1094.2,358.9h13l-11.5,22.5l-6.5-11.8L1094.2,358.9z"/>
	</g>
	<g>
		<path class="st2" d="M872.3,919.5h-28.2v-11h28.2c1.9,0,3.4,0.5,4.5,1.5s1.6,2.3,1.6,4s-0.5,3-1.6,4S874.2,919.5,872.3,919.5z
			 M856.5,961.9H844v-39.6h12.5V961.9z M875.2,940.9h-15.7v-11h15.7V940.9z"/>
		<path class="st2" d="M902.7,951.5v11.4c-3.3,0-6.2-0.6-8.8-1.7c-2.6-1.1-4.7-2.7-6.3-4.6c-1.6-2-2.8-4.2-3.6-6.8
			c-0.8-2.5-1.2-5.3-1.2-8.3V929c0-3,0.4-5.7,1.2-8.3c0.8-2.5,2-4.8,3.6-6.8s3.7-3.5,6.3-4.6s5.5-1.7,8.8-1.7V919
			c-2.2,0-3.9,0.9-5.2,2.7s-1.9,4.6-1.9,8.4v10.3c0,3.8,0.6,6.6,1.9,8.4C898.8,950.6,900.5,951.5,902.7,951.5z M921.4,916.9
			l-8.8,6.1c-1.3-2.7-3.5-4.1-6.7-4.1v-11.4c4.1,0,7.4,0.8,10.1,2.4C918.6,911.6,920.4,913.9,921.4,916.9z M905.8,962.9v-11.4
			c1.8,0,3.3-0.3,4.4-0.9c1.1-0.6,2-1.6,2.6-2.9l8.6,7.2C918.5,960.2,913.3,962.9,905.8,962.9z"/>
	</g>
</g>
</svg>
