<?xml version="1.0" encoding="utf-8"?>
<!-- Generator: Adobe Illustrator 28.0.0, SVG Export Plug-In . SVG Version: 6.00 Build 0)  -->
<svg version="1.1" id="Layer_1" xmlns="http://www.w3.org/2000/svg" xmlns:xlink="http://www.w3.org/1999/xlink" x="0px" y="0px"
	 viewBox="0 0 1741.6 1389.9" style="enable-background:new 0 0 1741.6 1389.9;" xml:space="preserve">
<style type="text/css">
	.st0{fill:#3C2415;}
	.st1{fill:#FFFFFF;}
</style>
<path d="M1258.6,659c-0.6,198.6-151.7,377.6-366.6,383.2c-210.6,5.4-375.1-165.6-385.3-363.7C496.1,475.1,654.8,295,876,290.2
	C1081.6,285.7,1257.3,445.9,1258.6,659z M1240.6,658c0.4-209.1-176.8-352.4-361.9-350.3C678.6,310,521.2,468.2,525,667.8
	c3.8,199,166.2,361.4,367,356.7C1076.4,1020.3,1239.4,873.1,1240.6,658z"/>
<path class="st0" d="M1208.8,733.2c-29.8,4.2-56.6-4.5-81.2-21.3c-7.2-4.9-9.2-10.8-8.9-19.4c0.7-20.5,0.5-41-0.1-61.5
	c-0.8-26.4,7.4-39.5,31.9-50.3c21.7-9.6,43.9-8.1,67.8-3.4c-24.6-123.1-159.2-265.3-351.1-257.4c-163.4,6.7-294.9,129.4-318.7,258.3
	c30.4-9.2,58.7-6.5,84.5,13.1c10.2,7.8,15.7,16.6,13.8,30.1c-2.6,18.3-2.5,36.8-1.5,55.3c1.9,32.9,1,34.3-29.3,47.3
	c-9.5,4.1-19.4,6.3-29.3,8.8c-14.1,3.5-28.2-0.9-42.5,0.3c1.8,6.8,3.5,12.7,5,18.7c38.9,152.7,193,285.8,383.3,257.7
	c140.4-20.8,253-125,286.2-264.2C1221,735.3,1221.1,731.4,1208.8,733.2z M887.5,870.6c-116.5,1.2-221.1-101.4-221.2-215.8
	c-0.1-114.7,96-205.1,218.5-205.5c119.3-0.4,216.8,92,218.7,205C1105.5,777.2,995.6,869.5,887.5,870.6L887.5,870.6z"/>
<path class="st0" d="M693.2,655.7c23.3-17.4,18.5-44.9,25.8-68.1c5.6-17.8,15-33,31-42.5c12.5-7.5,17.9-18.1,21.2-31.6
	c6.1-25.2,14.6-34,40.4-44.1c-21.5,11.1-29.7,31.2-37.9,51.9c-3.5,8.9-1.1,11.4,6.4,14.1c15.9,5.8,31.6,12,47.2,18.5
	c7.7,3.2,14-0.1,20.6-2.7c18.1-7.1,36-14.7,54.4-21.1c6.7-2.3,9.9-5.1,11.3-12.1c3-14.6,9.3-28.1,15.9-41.5
	c2.8-5.6,5.8-7.4,11.8-6.4c26.2,4.4,50.5,13.8,72,29.1c13.3,9.5,14.1,26.7,20.3,40.5c1.3,2.8-0.4,4.9-2.4,6.6
	c-1.5,1.3-3.2,2.6-5,3.6c-28,15.1-37.3,37.5-28.4,68.3c1.8,6.2,2.8,11.3,8.3,15.2c14.2,10.2,27.7,21.7,38.2,35.5
	c10.4,13.7,20.6,14.5,33.6,5.3c2.8-1.9,6-3.2,9.8-5.2c-0.5,2.2-0.5,3.4-1,3.9c-7.1,6.9-31.5,44.7-34.7,54
	c-3.8,11.4-9.1,22.3-19,29.3c-17.7,12.6-27.7,29.5-31.9,50.4c-3,15-13.1,22.1-27,27.9c-51.6,21.4-103.2,23.8-155.9,5
	c-25.5-9.1-46.3-23.5-60.6-47c-5.4-9-7.2-16.7-0.7-25.4c0.9-1.2,1.2-3.1,2.2-4c29.7-26.1,13.3-55.5,6.2-84.2
	c-1.4-5.5-5.3-8.4-9.9-11c-7.6-4.3-15.1-8.7-22.3-13.6C712.7,639.9,712.8,639.8,693.2,655.7L693.2,655.7z M930.2,710.7
	c0.6-24.1-8.5-40.3-27.4-48.7c-4.2-1.9-8.2-4.1-12.5-5.9c-17.7-7.8-35.5-21.7-53.3-21.8c-18.7-0.1-34.1,18.7-51.5,28.2
	c-1.8,1-3.4,2.3-5.2,3.2c-8.1,3.6-8.8,9-6.8,17.4c11.6,49.1,11.3,49.1,56.3,70.1c0.9,0.4,2,0.7,2.8,1.3c21.2,16.5,41.3,12,64.7,1.6
	C921.1,745.5,937.8,735,930.2,710.7L930.2,710.7z M838.7,595.8c-7,22.6,6.1,35.9,30.4,42.1c4.4,1.1,8.3,3.9,12.5,5.8
	c17.6,7.6,34.8,24.1,52.7,21c17.8-3.1,33.3-18.9,49.8-29.2c0.4-0.3,0.8-0.6,1.3-0.8c5.7-3,7-7.5,6.9-13.9
	c-0.5-28.5-9.3-48.5-36.9-64.8c-30.5-18.1-55.9-21.8-87.6-6.7C838.9,562.8,837.9,560.8,838.7,595.8L838.7,595.8z M896.2,827.3
	c28.9-1,57-6,84.8-13.8c14.5-4.1,18.1-16.4,20.6-28.1c2.4-11.6-10.9-9.4-16.7-13.9c-3.6-2.8-8.8-3.3-12.4-6
	c-26.4-19.4-51.8-18.1-80.2-1.8c-24.2,13.8-25.6,11.5-23,39.5C871.4,826.6,872.6,827.6,896.2,827.3L896.2,827.3z"/>
<path d="M685.2,879.3c1.3-8.2,6.9-12.3,10.8-17.3c1.7-2.2,3.9-5.5,7.4-3.5c3.8,2.2,3.3,6.2,1.6,9.4
	C700.9,875.7,694.6,879.4,685.2,879.3L685.2,879.3z"/>
<g>
	<path class="st1" d="M646.1,813.5c-6.7-10-13-20.5-18.7-31.7c3-1.5,6.1-3.1,9.1-4.6c5.5,10.8,11.5,20.9,18,30.5c1.3,2,2,3.7,2,5.3
		c0,1.6-0.6,2.9-1.9,3.8s-2.7,1.1-4.2,0.5S647.5,815.6,646.1,813.5L646.1,813.5z M601.3,816.2c-3.1-5.3-6.1-10.8-8.9-16.4
		c10.9-5.6,21.8-11.1,32.8-16.7c2.5,5,5.2,9.8,7.9,14.5C622.4,803.8,611.8,810,601.3,816.2z M632,828c-4.1-5.8-8-11.9-11.7-18.2
		c2.9-1.8,5.8-3.5,8.8-5.3c3.6,6,7.4,11.9,11.3,17.5C637.5,824.1,634.8,826.1,632,828L632,828z"/>
	<path class="st1" d="M645.7,861.6c-2.6,2.3-5.3,4.7-7.9,7c-2.4-2.8-4.3-5.5-5.6-8.2c-1.3-2.7-2.1-5.2-2.4-7.5
		c-0.3-2.3-0.1-4.4,0.5-6.5c0.6-2,1.5-3.8,2.7-5.4c1.2-1.6,2.7-3.1,4.5-4.4c3.1-2.3,6.2-4.7,9.3-7c1.8-1.3,3.6-2.4,5.4-3.2
		c1.8-0.8,3.8-1.2,5.8-1.4s4,0.1,6,0.6s4,1.6,6.1,3.1c2.1,1.5,4.2,3.4,6.2,5.7c-2.6,2.3-5.3,4.7-7.9,7c-1.5-1.7-3.2-2.5-5.1-2.3
		c-1.9,0.2-4.2,1.5-7.1,3.9c-2.5,2.1-4.9,4.2-7.3,6.2c-2.8,2.4-4.5,4.5-4.9,6.5C643.4,857.8,644.1,859.7,645.7,861.6L645.7,861.6z
		 M640.8,872c2.6-2.4,5.2-4.8,7.8-7.2c1.7,1.9,3.5,2.7,5.5,2.5c1.9-0.2,4.2-1.7,6.9-4.2c2.3-2.2,4.6-4.4,7-6.7
		c2.7-2.6,4.2-4.8,4.7-6.6c0.4-1.9-0.1-3.6-1.7-5.3c2.6-2.4,5.2-4.8,7.8-7.2c2.1,2.3,3.7,4.6,4.9,6.8c1.2,2.2,2,4.3,2.3,6.3
		s0.3,4-0.1,6c-0.4,2-1.1,3.8-2,5.6c-1,1.7-2.2,3.4-3.7,5c-2.7,2.8-5.3,5.7-8,8.5c-1.5,1.6-3.1,3-4.8,4c-1.7,1-3.5,1.8-5.6,2.1
		c-2.1,0.4-4.2,0.3-6.3-0.1c-2.2-0.5-4.5-1.5-7-3.1C645.8,876.9,643.2,874.7,640.8,872L640.8,872z"/>
	<path class="st1" d="M691.5,904.1c-2.1,2.8-4.2,5.7-6.4,8.5c-2.8-2.1-5.1-4.4-6.9-6.7s-3-4.5-3.6-6.7c-0.7-2.1-0.9-4.2-0.7-6.3
		s0.8-4,1.6-5.8s2-3.5,3.5-5.2c2.6-2.9,5.2-5.9,7.7-8.8c1.5-1.7,3-3.1,4.7-4.2s3.4-2,5.3-2.6c1.9-0.6,3.9-0.8,5.9-0.7
		c2,0.1,4.1,0.7,6.4,1.6c2.3,1,4.6,2.3,7,4.1c-2.1,2.8-4.2,5.7-6.4,8.5c-1.8-1.3-3.5-1.7-5.3-1.1c-1.8,0.6-3.8,2.4-6.1,5.3
		c-2,2.5-4,5-6,7.6c-2.3,2.9-3.5,5.3-3.6,7.3S689.5,902.6,691.5,904.1L691.5,904.1z M688.5,915.1c2.1-2.8,4.2-5.7,6.3-8.5
		c2,1.4,3.9,1.8,5.7,1.2c1.8-0.7,3.8-2.5,5.9-5.5c1.8-2.6,3.7-5.3,5.5-7.9c2.1-3,3.2-5.5,3.3-7.4c0.1-1.9-0.8-3.5-2.5-4.8
		c2.1-2.8,4.2-5.7,6.3-8.5c2.4,1.8,4.4,3.6,6,5.5c1.5,1.9,2.7,3.8,3.3,5.6c0.7,1.9,1,3.8,1,5.8c0,2-0.3,3.9-1,5.8
		c-0.6,1.9-1.5,3.8-2.7,5.7c-2.1,3.3-4.1,6.6-6.2,9.9c-1.2,1.9-2.5,3.5-3.9,4.9c-1.4,1.4-3.1,2.5-5,3.2c-1.9,0.8-4,1.2-6.2,1.2
		c-2.2,0-4.6-0.5-7.3-1.5S691.4,917.2,688.5,915.1L688.5,915.1z"/>
	<path class="st1" d="M764.8,912.7c-10.4-4.5-20.5-9.7-30.3-15.6c1.8-2.9,3.5-5.9,5.2-8.8c9.5,5.6,19.2,10.6,29.2,15
		c2,0.9,3.3,2,4.1,3.3s0.8,2.7,0.3,4.1c-0.6,1.4-1.6,2.3-3.2,2.7S766.9,913.6,764.8,912.7z M740.7,945.1c-5-2.3-9.9-4.8-14.8-7.5
		c5.9-10.9,11.8-21.8,17.8-32.7c4.3,2.3,8.7,4.5,13.1,6.6C751.4,922.7,746,933.9,740.7,945.1L740.7,945.1z"/>
	<path class="st1" d="M814.2,936.3c-4.6-1-9.1-2.2-13.6-3.5c0.7-2.3,0.4-4.2-0.8-5.7c-1.2-1.5-3.2-2.7-6.3-3.6
		c-6-1.9-11.9-4-17.7-6.2c1.3-3.2,2.5-6.3,3.8-9.5c6.3,2.5,12.7,4.7,19.2,6.7c6.3,1.9,10.7,4.5,13.4,8.2
		C814.7,926.2,815.5,930.7,814.2,936.3L814.2,936.3z M776.7,959.5c-5.2-1.7-10.3-3.6-15.4-5.6c4.5-11.4,9-22.8,13.5-34.2
		c4.5,1.8,9.1,3.4,13.7,4.9C784.5,936.3,780.6,947.9,776.7,959.5L776.7,959.5z M813.5,953.6c-1,4.7-3.7,8.1-8,9.8
		c-4.3,1.8-9.8,1.8-16.3,0c-3-0.8-5.9-1.7-8.8-2.7c1-3.2,2.1-6.5,3.2-9.7c2.2,0.7,4.4,1.4,6.6,2c4.5,1.3,7.2,0.3,8.1-2.8
		c0.4-1.5,0.2-2.7-0.6-3.7s-2.1-1.7-3.9-2.2c-0.5-0.2-1-0.3-1.5-0.4c-2.3-0.7-3.9-1.7-4.8-2.9s-1.2-2.6-0.7-4.1s1.5-2.5,3-3
		c1.5-0.5,3.3-0.4,5.5,0.2c0.8,0.2,1.6,0.5,2.4,0.7c5.9,1.7,10.2,4,13,7.3C813.4,945.4,814.4,949.2,813.5,953.6L813.5,953.6z"/>
	<path class="st1" d="M839.8,953.3c2.9,0.4,5.8,0.7,8.6,1c0.6,3.5,1.2,7,1.9,10.4c-5-0.5-10-1.1-15-1.8c-1.5,3.2-3.1,6.3-4.7,9.5
		c-5.5-0.8-11-1.8-16.5-2.9c6.8-11.1,13.1-22.4,19-33.9c4.5,0.7,9.1,1.4,13.6,1.9C844.5,942.8,842.2,948,839.8,953.3L839.8,953.3z
		 M860.2,925.9c3.5,16.8,8,33.6,13.2,50.3c-5.5-0.1-11.1-0.4-16.6-0.8c-3.2-13.4-5.9-26.8-8.1-40.3c-3.3-0.4-6.6-0.8-9.9-1.3
		c-2.2-0.3-3.9-1-4.9-2.2c-1-1.1-1.4-2.4-1.2-4s1.1-2.7,2.4-3.4c1.3-0.7,3-0.9,5.2-0.6C846.9,924.7,853.5,925.4,860.2,925.9
		L860.2,925.9z"/>
	<path class="st1" d="M896.3,963c-5.2,0.3-10.4,0.4-15.6,0.4c0-12.3,0-24.5,0-36.8c4.6,0,9.2-0.1,13.8-0.3
		C895,938.5,895.6,950.7,896.3,963L896.3,963z M915.3,974.3c-11.5,1.2-23.1,1.8-34.6,1.9c0-3.4,0-6.8,0-10.2
		c11.2,0,22.4-0.6,33.5-1.8c2.4-0.3,4.3,0,5.8,0.7c1.5,0.8,2.3,1.9,2.5,3.5s-0.3,2.9-1.6,4C919.7,973.4,917.8,974.1,915.3,974.3
		L915.3,974.3z"/>
	<path class="st1" d="M943.9,956.9c-5.1,1-10.3,2-15.4,2.8c-1.9-12.1-3.8-24.2-5.7-36.4c4.5-0.7,9.1-1.5,13.6-2.4
		C938.8,932.9,941.4,944.9,943.9,956.9L943.9,956.9z M964.5,965.3c-11.2,3-22.6,5.3-34,7.1c-0.5-3.4-1.1-6.7-1.6-10.1
		c11.1-1.7,22.1-4,33-6.9c2.4-0.6,4.3-0.7,5.9-0.2s2.6,1.5,3,3c0.5,1.5,0.1,2.9-0.9,4.2S966.9,964.7,964.5,965.3L964.5,965.3z"/>
	<path class="st1" d="M1018.5,935c1.6,3.2,3.1,6.3,4.7,9.5c-3.9,1.9-7.7,3-11.2,3.5c-3.5,0.4-6.6,0.2-9.3-0.8
		c-2.6-0.9-4.9-2.3-6.7-4.1s-3.3-4-4.3-6.6c-1.4-3.6-2.8-7.3-4.3-10.9c-1-2.6-1.5-5.1-1.5-7.7c0-2.5,0.5-5,1.5-7.4
		c1-2.4,2.6-4.6,4.8-6.7c2.2-2.1,5-4,8.3-5.6c1.6,3.2,3.1,6.3,4.7,9.5c-2.3,1.1-3.7,2.7-4.4,4.8c-0.7,2.1-0.3,4.8,1.2,8.1
		c1.3,2.9,2.7,5.8,4,8.8c1.5,3.2,3.3,5.3,5.5,6.1C1013.6,936.4,1016,936.2,1018.5,935L1018.5,935z M1023.5,895.8
		c-2,3.4-4,6.7-6.2,10c-2.5-1.5-5.4-1.4-8.8,0.3c-1.6-3.2-3.2-6.3-4.8-9.5c4.1-2,7.7-3.2,11.1-3.3S1021,894,1023.5,895.8
		L1023.5,895.8z M1026.9,942.6c-1.6-3.2-3.2-6.3-4.8-9.5c2.1-1.1,3.7-2.2,4.7-3.4s1.5-2.5,1.6-4c4.3,0.2,8.6,0.3,13,0.3
		C1040.7,932.5,1035.8,938.2,1026.9,942.6L1026.9,942.6z"/>
	<path class="st1" d="M1057.5,908.5c-4.4,3.1-8.9,6-13.4,8.8c-6.5-10.4-13-20.9-19.4-31.3c4-2.5,8-5.1,11.8-7.8
		C1043.5,888.4,1050.5,898.4,1057.5,908.5L1057.5,908.5z M1080.2,907.8c-9.4,7.4-19.2,14.2-29.3,20.5c-1.8-2.9-3.6-5.8-5.4-8.7
		c9.8-6,19.2-12.6,28.4-19.8c2-1.6,3.8-2.4,5.5-2.6c1.7-0.2,3,0.3,4,1.5c1,1.2,1.2,2.6,0.7,4.2S1082.2,906.2,1080.2,907.8
		L1080.2,907.8z"/>
	<path class="st1" d="M1103.2,874.2c2.5,2.5,5,4.9,7.5,7.4c-2.7,2.7-5.4,4.9-8.1,6.4c-2.7,1.5-5.1,2.5-7.4,2.9
		c-2.3,0.4-4.5,0.3-6.5-0.2c-2.1-0.5-4-1.3-5.6-2.5c-1.6-1.1-3.2-2.6-4.7-4.3c-6.6-7.6-13.1-15.3-19.7-22.9
		c3.6-3.2,7.2-6.4,10.7-9.8c6.8,7.2,13.7,14.3,20.5,21.5c2.6,2.7,5,4.2,7.1,4.3C1099.3,877.1,1101.3,876.1,1103.2,874.2
		L1103.2,874.2z M1113.8,878.4c-2.5-2.4-5.1-4.9-7.6-7.3c1.9-2,2.8-4.1,2.6-6.3c-0.2-2.2-1.6-4.5-4.4-7c-7.3-6.7-14.6-13.3-21.9-20
		c3.3-3.7,6.5-7.4,9.7-11.3c7.8,6.4,15.6,12.7,23.3,19.1c2.2,1.8,3.9,3.8,5.1,6c1.2,2.2,2,4.7,2.2,7.5c0.2,2.8-0.4,5.9-1.9,9.2
		C1119.3,871.6,1117,875.1,1113.8,878.4L1113.8,878.4z"/>
	<path class="st1" d="M1137.7,788.2c-2.5,4.8-5.1,9.4-7.8,14c-2.1-1.2-4-1.4-5.9-0.5s-3.7,2.8-5.6,5.8c-3.8,5.9-7.7,11.5-11.8,17
		c-2.7-2.1-5.4-4.1-8.2-6.2c4.4-5.9,8.6-12,12.7-18.4c3.9-6.2,7.9-10.4,12.3-12.5C1127.8,785.4,1132.6,785.5,1137.7,788.2
		L1137.7,788.2z M1148.4,833.6c-3.3,5-6.8,9.9-10.4,14.7c-9.8-7.4-19.6-14.8-29.3-22.2c3.2-4.2,6.2-8.6,9.2-13
		C1128.1,819.9,1138.3,826.8,1148.4,833.6z M1154.4,792.7c4.3,2.2,6.8,5.8,7.1,10.9c0.4,5.1-1.3,11-5.3,17.6c-1.8,3-3.6,5.9-5.5,8.8
		c-2.8-1.9-5.7-3.7-8.6-5.6c1.4-2.2,2.8-4.3,4.1-6.5c2.8-4.5,2.7-7.7-0.1-9.3c-1.3-0.8-2.6-0.8-3.8-0.2c-1.2,0.7-2.4,1.9-3.4,3.6
		c-0.3,0.5-0.6,1-0.9,1.5c-1.4,2.3-2.9,3.7-4.4,4.4c-1.5,0.7-3,0.6-4.3-0.2c-1.3-0.9-2-2.1-2-3.8s0.7-3.6,2-5.8
		c0.5-0.8,1-1.6,1.4-2.4c3.6-5.9,7.3-10,11.4-12.4C1146.3,791,1150.4,790.7,1154.4,792.7L1154.4,792.7z"/>
</g>
<g>
	<path class="st0" d="M557,644.3l-10.9-2.2c0.2-4.1,1.7-7.5,4.5-10.2s6.4-4.1,10.8-4.1v10.7C558.7,638.9,557.2,640.8,557,644.3z
		 M574.5,679.8h-27v-10.5h27c1.8,0,3.2,0.5,4.2,1.4s1.6,2.2,1.6,3.9s-0.5,2.9-1.6,3.8S576.3,679.8,574.5,679.8L574.5,679.8z
		 M563.5,666.6h-15.8c4.6-4,8.3-7.2,10.8-9.5c2.6-2.3,4.6-4.4,6.2-6.1c1.5-1.8,2.5-3.2,3-4.2s0.7-2.2,0.7-3.4c0-1.4-0.4-2.5-1.1-3.4
		c-0.7-0.9-1.7-1.4-3-1.5v-10.7c4.7,0,8.5,1.4,11.4,4.2c2.9,2.8,4.3,6.3,4.3,10.5c0,1.6-0.1,3-0.3,4.2s-0.6,2.5-1.1,3.7
		c-0.6,1.3-1.2,2.4-1.9,3.4c-0.7,1-1.7,2.2-3.1,3.7s-2.8,2.8-4.2,4.1C567.8,662.9,565.9,664.5,563.5,666.6L563.5,666.6z"/>
	<path class="st0" d="M602.7,669.8v10.9c-2.5,0-4.8-0.4-6.7-1.2s-3.5-1.9-4.8-3.3c-1.2-1.4-2.3-3-3.1-5c-0.8-2-1.4-4-1.7-6.2
		c-0.3-2.1-0.5-4.5-0.5-7v-7.5c0-2.5,0.2-4.9,0.5-7c0.3-2.1,0.9-4.2,1.7-6.2c0.8-2,1.8-3.6,3.1-5c1.2-1.4,2.8-2.5,4.8-3.3
		c1.9-0.8,4.2-1.2,6.7-1.2v10.9c-0.9,0-1.6,0.3-2.2,0.9s-1,1.5-1.4,2.7s-0.5,2.5-0.7,4c-0.1,1.5-0.2,3.2-0.2,5.3v5.4
		c0,2,0.1,3.8,0.2,5.3s0.4,2.8,0.7,4s0.8,2.1,1.4,2.7C601.1,669.6,601.8,669.9,602.7,669.8L602.7,669.8z M605.7,680.7v-10.9
		c0.9,0,1.6-0.3,2.2-0.9c0.6-0.6,1-1.5,1.4-2.7c0.3-1.2,0.6-2.5,0.7-4c0.1-1.5,0.2-3.3,0.2-5.3v-5.4c0-2-0.1-3.8-0.2-5.3
		s-0.4-2.8-0.7-4s-0.8-2.1-1.4-2.7s-1.3-0.9-2.2-0.9v-10.9c2.5,0,4.7,0.4,6.7,1.2c1.9,0.8,3.5,1.9,4.8,3.2c1.2,1.4,2.2,3,3,5
		s1.4,4,1.7,6.2s0.5,4.5,0.5,7v7.5c0,2.5-0.2,4.9-0.5,7c-0.3,2.2-0.9,4.2-1.7,6.2c-0.8,2-1.8,3.6-3,5s-2.8,2.5-4.8,3.3
		C610.4,680.3,608.2,680.7,605.7,680.7z"/>
</g>
<g>
	<path class="st0" d="M1157,645.2l-10.9-2.2c0.2-4.1,1.7-7.5,4.5-10.2s6.4-4.1,10.8-4.1v10.7C1158.7,639.8,1157.2,641.7,1157,645.2z
		 M1174.5,680.7h-26.9v-10.5h26.9c1.8,0,3.2,0.5,4.2,1.4s1.6,2.2,1.6,3.9s-0.5,2.9-1.6,3.8S1176.3,680.7,1174.5,680.7L1174.5,680.7z
		 M1163.5,667.5h-15.8c4.6-4,8.3-7.2,10.8-9.5c2.6-2.3,4.6-4.4,6.2-6.1s2.5-3.2,3-4.2c0.4-1,0.7-2.2,0.7-3.4c0-1.4-0.3-2.5-1.1-3.4
		c-0.7-0.9-1.7-1.4-3-1.5v-10.7c4.7,0,8.5,1.4,11.4,4.2s4.3,6.3,4.3,10.5c0,1.6-0.1,3-0.3,4.2s-0.6,2.5-1.1,3.7
		c-0.6,1.3-1.2,2.4-1.9,3.4c-0.7,1-1.7,2.2-3.1,3.7s-2.8,2.8-4.2,4.1C1167.8,663.8,1165.9,665.5,1163.5,667.5L1163.5,667.5z"/>
	<path class="st0" d="M1200.4,670.8v10.9c-4.5,0-8.2-1.2-11.2-3.5c-2.9-2.3-4.6-5.5-4.9-9.4l11.4-2.9c0,1.4,0.4,2.5,1.3,3.5
		C1197.9,670.3,1199.1,670.8,1200.4,670.8L1200.4,670.8z M1213,640.2h-25.8v-10.5h25.8c1.8,0,3.3,0.5,4.3,1.4s1.6,2.2,1.6,3.8
		s-0.5,2.9-1.6,3.8S1214.9,640.2,1213,640.2L1213,640.2z M1203.4,681.7v-10.9c1.4,0,2.6-0.5,3.4-1.5c0.8-1,1.2-2.4,1.2-4.1
		c0-2.1-0.6-3.7-1.8-4.8s-3.1-1.6-5.8-1.6h-13.3v-15.9h12v5.4h3.2c6.1,0,10.5,1.5,13.3,4.4c2.8,2.9,4.2,7,4.2,12.2
		s-1.5,9.1-4.4,12.2C1212.6,680.1,1208.6,681.7,1203.4,681.7z"/>
</g>
<g>
	<g>
		<path class="st1" d="M632.4,557c-3.6-1.5-7.2-3-10.9-4.5c-2.6-1.1-4.7-2.6-6.4-4.8c-1.7-2.1-2.9-4.7-3.5-7.8
			c-0.7-3.1-0.6-6.7,0.2-10.8c0.8-4.1,2.4-8.5,4.8-13c3.1,1.7,6.2,3.4,9.4,5.1c-1.5,2.7-1.9,5.4-1.3,8c0.6,2.6,2.5,4.6,5.7,6.2
			c2.9,1.4,5.8,2.9,8.7,4.3c3.2,1.6,5.9,1.9,8.3,1c2.3-0.9,4.1-2.5,5.4-5c3.1,1.7,6.2,3.4,9.4,5.1c-2,3.7-4.2,6.9-6.6,9.6
			c-2.4,2.6-4.9,4.6-7.5,5.9c-2.6,1.3-5.2,2-7.8,2.1C637.5,558.5,634.9,558,632.4,557z M652.4,500.6c2.9,2,5.9,4.1,8.8,6.1
			c4.7,3.2,7.2,7.4,7.8,12.5c0.6,5.1-1.1,10.9-5,17.8c-3.1-1.7-6.2-3.5-9.3-5.2c1.2-2.2,1.8-4.2,1.7-6.2c-0.1-1.9-1-3.4-2.7-4.5
			c-0.5-0.3-0.9-0.6-1.4-0.8c-1.7,2.8-3.3,5.7-4.9,8.6c-3.1-1.7-6.2-3.4-9.2-5.2C642.7,515.7,647.4,508,652.4,500.6z M639.7,494.7
			c-0.9,4.9-1.7,9.8-2.3,14.8c-3.3,0.2-6.4,2.7-9,7.5c-3.1-1.7-6.2-3.5-9.3-5.2C625.4,500.2,632.6,494.8,639.7,494.7z"/>
		<path class="st1" d="M666.1,475.8c2-2.4,4-4.7,6-7c1.8-2,3.5-3.2,5.2-3.6c1.7-0.4,3.1-0.1,4.2,1c1.1,1.1,1.5,2.5,1.2,4.2
			c-0.3,1.7-1.3,3.5-3,5.4c-2,2.2-3.9,4.5-5.8,6.7c5.6,4.7,11.1,9.4,16.7,14.1c-3.3,3.9-6.5,8-9.6,12.2c-13.4-10-26.7-20-40.1-30
			c3.7-5,7.5-9.9,11.4-14.6C657,468,661.6,471.9,666.1,475.8z M702.5,483.3c-12-11.7-23.9-23.3-35.9-35c4.2-4.4,8.5-8.6,12.9-12.6
			c11.2,12.3,22.5,24.7,33.7,37C709.7,476.1,706.1,479.7,702.5,483.3z"/>
		<path class="st1" d="M732.1,445.1c2.1,2.9,4.1,5.8,6.2,8.7c-2.5,1.8-4.9,3.1-7.3,4.1c-2.4,0.9-4.6,1.4-6.6,1.5
			c-2.1,0.1-4-0.2-6-0.8c-1.9-0.6-3.7-1.5-5.3-2.7c-1.6-1.2-3.2-2.6-4.6-4.3c-2.5-3-5.1-6-7.6-9c-1.5-1.7-2.6-3.5-3.4-5.3
			c-0.8-1.8-1.3-3.8-1.4-5.9c-0.1-2.1,0.2-4.3,0.9-6.4c0.8-2.2,2.1-4.4,4-6.7c1.9-2.3,4.4-4.6,7.4-6.7c2.1,2.9,4.1,5.8,6.2,8.7
			c-2.1,1.5-3.1,3.2-3.1,5.2c0,2,1.2,4.4,3.4,7.4c1.9,2.6,3.9,5.2,5.8,7.8c2.2,3,4.3,4.8,6,5.5C728.4,446.8,730.2,446.4,732.1,445.1
			z M741.3,451.7c-2-2.9-4-5.9-6-8.8c1.9-1.3,2.8-2.9,2.8-4.8c0-1.9-1-4.4-3-7.6c-1.8-2.7-3.5-5.4-5.3-8.1c-2-3.1-4-5.1-5.8-5.8
			c-1.8-0.7-3.8-0.3-5.9,1.1c-2-2.9-4-5.9-6-8.8c3.1-2.1,6-3.6,8.9-4.6c2.8-1,5.4-1.4,7.6-1.4c2.3,0.1,4.4,0.5,6.3,1.4
			c1.9,0.9,3.6,2,5,3.4c1.4,1.4,2.7,3.1,3.8,5.1c1.9,3.4,3.9,6.8,5.8,10.2c1.1,2,1.9,3.9,2.5,5.8c0.6,1.9,0.8,3.9,0.7,5.9
			c-0.1,2-0.5,4-1.3,5.8c-0.8,1.9-2,3.7-3.7,5.6C746,448.2,743.9,450,741.3,451.7z"/>
		<path class="st1" d="M760.2,429.7c2.2-3.6,4.5-7.1,6.9-10.6c1.7,1.1,3.6,1.6,5.8,1.4c2.2-0.2,4.3-0.7,6.2-1.5
			c1.4,3.2,2.8,6.4,4.2,9.6C773.5,432.9,766,433.5,760.2,429.7z M774.2,398c4.2-0.8,7.6-1.2,10.3-1.3c2.7-0.1,5.2,0.1,7.4,0.7
			c2.2,0.5,4,1.5,5.3,2.9c1.3,1.4,2.3,3.2,3.1,5.5c1.6,4.8,1.1,9-1.3,12.5c-2.4,3.6-6.5,6.4-12.5,8.9c-1.4-3.2-2.7-6.4-4.1-9.6
			c3.5-1.7,4.7-3.8,3.6-6.5c-0.5-1.3-1.5-2.2-3-2.5c-1.5-0.4-4.1-0.2-7.9,0.5c-7.6,1.5-13.3,2.1-17.2,1.4c-3.8-0.7-6.7-2.8-8.6-6.3
			c-1.2-2.2-1.7-4.5-1.6-6.7c0.1-2.3,0.8-4.4,2.2-6.4c1.3-2,3.1-3.9,5.4-5.7c2.3-1.8,5-3.3,8.2-4.7c1.4,3.2,2.8,6.4,4.2,9.6
			c-1.5,0.8-2.6,1.7-3.3,2.8c-0.7,1.1-0.7,2.3-0.2,3.6c0.6,1.3,1.5,2,2.9,2.1C768.6,398.9,770.9,398.7,774.2,398z M791.9,379.4
			c-3.2,3.3-6.3,6.6-9.2,9.9c-2.2-2.4-5.9-2.7-11.1-0.6c-1.3-3.2-2.7-6.4-4-9.6c5.5-2.2,10.3-3.3,14.2-3.3
			C785.7,375.8,789,377,791.9,379.4z"/>
		<path class="st1" d="M834.5,371.5c-12.8,2.2-25.4,5.2-37.8,9c-1-3.3-2.1-6.6-3.1-9.8c12.8-4,25.9-7.1,39.1-9.3
			c2.6-0.4,4.7-0.3,6.3,0.4c1.6,0.7,2.5,1.9,2.8,3.4c0.2,1.5-0.3,2.8-1.6,4C839,370.3,837.1,371,834.5,371.5z M833.8,412
			c-4.7,0.9-9.4,2-14,3.2c-3.2-12.1-6.4-24.1-9.7-36.2c5.3-1.4,10.7-2.6,16-3.7C828.7,387.5,831.3,399.7,833.8,412z"/>
		<path class="st1" d="M882.5,356.9c3.6,10.5,6.7,21,9.6,31.6c1.6-4.4,3.2-8.7,4.9-13c2.1,5.9,4,11.8,5.8,17.7
			c-2.1,4.6-4.1,9.2-6,13.9c-4.8-0.2-9.7-0.3-14.5-0.2c-5.1-16.6-11.1-33-18.1-49.2C870.3,357.2,876.4,356.9,882.5,356.9z
			 M907,357.6c2.4,0.2,4.3,0.7,5.5,1.7c1.3,0.9,2.2,2.4,2.7,4.5c4.1,15.3,7.3,30.7,9.7,46c-4.8-0.7-9.6-1.3-14.4-1.8
			c-3.4-14.2-7.5-28.3-12.5-42.3c-0.3-0.8-0.4-1.7-0.4-2.7c0.1-1.7,0.9-3.1,2.6-4.1C901.9,357.8,904.2,357.4,907,357.6z
			 M923.7,378.4c2.8-6.1,5.8-12.1,8.9-18.1c5.8,0.9,11.5,1.9,17.2,3.1c-7.8,12.7-15,25.7-21.5,38.9
			C927,394.4,925.5,386.4,923.7,378.4z"/>
		<path class="st1" d="M959.3,417.4c-4.6-1.3-9.2-2.6-13.9-3.7c3.9-16.2,7.8-32.4,11.7-48.6c5.6,1.3,11.1,2.8,16.6,4.4
			C968.9,385.4,964.1,401.4,959.3,417.4z"/>
		<path class="st1" d="M982.1,425.2c-4.2-1.7-8.4-3.2-12.7-4.7c4.7-13.7,9.5-27.4,14.2-41.1c2.7,8.4,4.9,16.8,6.8,25.2
			C987.6,411.5,984.8,418.4,982.1,425.2z M1003.5,379.9c4.4,17.3,7.1,34.6,8.4,51.6c0,1.4-0.2,2.5-0.6,3.2c-0.8,1.4-2,2.2-3.6,2.3
			c-1.6,0.1-3.3-0.3-5.1-1.2c-2.4-1.2-3.7-3.1-4-5.7c-2.2-18.8-6.3-37.8-12.3-56.7C992.1,375.4,997.8,377.6,1003.5,379.9z
			 M1020.1,387.3c4.9,2.3,9.7,4.8,14.4,7.4c-6.4,11.5-12.8,23-19.2,34.5c-0.6-8.7-1.5-17.4-2.9-26.2
			C1015,397.7,1017.5,392.5,1020.1,387.3z"/>
		<path class="st1" d="M1030.9,451.2c-3.8-2.6-7.6-5.1-11.5-7.5c7.6-12.4,15.2-24.7,22.7-37.1c0.8,8.8,1.3,17.6,1.4,26.3
			C1039.3,439.1,1035.1,445.2,1030.9,451.2z M1061.7,411.6c0.6,18-0.3,35.7-2.6,52.8c-0.3,1.4-0.7,2.4-1.3,3.1
			c-1.1,1.2-2.4,1.7-4.1,1.4c-1.6-0.3-3.2-1.1-4.8-2.4c-2.1-1.8-3-3.9-2.8-6.5c1.8-19,1.8-38.6-0.2-58.6
			C1051.3,404.6,1056.5,408,1061.7,411.6z M1076.5,422.7c4.3,3.4,8.5,7,12.7,10.7c-8.8,9.8-17.5,19.7-26.3,29.5
			c1.3-8.7,2.2-17.6,2.7-26.5C1069.2,431.8,1072.8,427.2,1076.5,422.7z"/>
		<path class="st1" d="M1118.1,479.7c-8.3-10.8-17.2-20.7-26.6-29.9c2.4-2.5,4.8-4.9,7.2-7.4c9.7,9.5,18.9,19.9,27.5,31
			c1.7,2.3,2.7,4.3,2.9,6.2c0.2,1.8-0.4,3.2-1.6,4.2c-1.3,0.9-2.7,1-4.4,0.4C1121.4,483.4,1119.8,481.9,1118.1,479.7z M1074.3,489.3
			c-3.4-3.8-6.9-7.4-10.5-10.9c8.6-8.9,17.2-17.8,25.8-26.6c4.1,4,8.1,8.2,12,12.5C1092.6,472.6,1083.4,480.9,1074.3,489.3z
			 M1105.5,495.6c-4.4-5.9-9-11.6-13.7-17c2.6-2.3,5.1-4.6,7.7-6.9c4.9,5.6,9.7,11.5,14.2,17.6
			C1111,491.4,1108.3,493.5,1105.5,495.6z M1091,509.9c-4.5-6.3-9.3-12.2-14.3-17.9c2.6-2.3,5.1-4.6,7.7-6.9
			c5.2,5.9,10.2,12.1,14.9,18.6C1096.6,505.8,1093.8,507.9,1091,509.9z"/>
		<path class="st1" d="M1129.4,533.2c-0.4-0.7-0.8-1.5-1.2-2.2c-1.3-2.4-1.9-4.4-1.8-6.2c0.1-1.8,0.8-3,2.2-3.8
			c1.3-0.8,2.8-0.8,4.3,0.1c1.6,0.9,3,2.5,4.3,5c0.2,0.4,0.4,0.8,0.7,1.2c2.2,4.2,4.5,5.7,7.1,4.4c2.7-1.3,2.8-4.8,0-10
			c-4.9-9.2-10.1-17.9-15.7-26.3c2.8-1.9,5.7-3.9,8.5-5.8c6.2,9.3,12,19.1,17.4,29.4c3.8,7.3,5.4,13.8,5.1,19.2
			c-0.4,5.3-2.9,8.9-7.3,10.8c-4.5,1.9-8.7,1.3-12.6-1.5C1136.4,544.5,1132.8,539.8,1129.4,533.2z M1105,531.3
			c-2.7-4.6-5.5-9.1-8.5-13.5c10.2-7,20.4-13.9,30.6-20.9c3.4,5,6.6,10.2,9.7,15.5C1126.2,518.7,1115.6,525,1105,531.3z
			 M1121.3,564.3c-2.4-5.7-4.9-11.3-7.6-16.7c3.7-6.3,7.1-12.9,10.4-19.6c2.9,5.3,5.7,10.8,8.4,16.4
			C1129,551.2,1125.3,557.9,1121.3,564.3z"/>
	</g>
</g>
</svg>
