<?xml version="1.0" encoding="UTF-8"?>
<svg id="Layer_1" data-name="Layer 1" xmlns="http://www.w3.org/2000/svg" xmlns:xlink="http://www.w3.org/1999/xlink" viewBox="0 0 1741.59 1389.89">
  <defs>
    <style>
      .cls-1 {
        fill: url(#linear-gradient);
      }

      .cls-1, .cls-2, .cls-3, .cls-4, .cls-5, .cls-6, .cls-7, .cls-8, .cls-9, .cls-10, .cls-11, .cls-12, .cls-13 {
        stroke-width: 0px;
      }

      .cls-2 {
        fill: url(#linear-gradient-11);
      }

      .cls-3 {
        fill: url(#linear-gradient-12);
      }

      .cls-4 {
        fill: url(#linear-gradient-10);
      }

      .cls-5 {
        fill: url(#linear-gradient-4);
      }

      .cls-6 {
        fill: url(#linear-gradient-2);
      }

      .cls-7 {
        fill: url(#linear-gradient-3);
      }

      .cls-8 {
        fill: url(#linear-gradient-8);
      }

      .cls-9 {
        fill: url(#linear-gradient-9);
      }

      .cls-10 {
        fill: url(#linear-gradient-7);
      }

      .cls-11 {
        fill: url(#linear-gradient-5);
      }

      .cls-12 {
        fill: url(#linear-gradient-6);
      }

      .cls-14 {
        font-family: MontserratRoman-ExtraBold, Montserrat;
        font-size: 30.04px;
        font-variation-settings: 'wght' 800;
        font-weight: 700;
      }

      .cls-14, .cls-13 {
        fill: #fff;
      }
    </style>
    <linearGradient id="linear-gradient" x1="911.56" y1="1224.43" x2="800.25" y2="533.38" gradientUnits="userSpaceOnUse">
      <stop offset="0" stop-color="#c08f2f"/>
      <stop offset="1" stop-color="#f2de9a"/>
    </linearGradient>
    <linearGradient id="linear-gradient-2" x1="632.5" y1="534.92" x2="1228.27" y2="1289.2" gradientUnits="userSpaceOnUse">
      <stop offset="0" stop-color="#d40005"/>
      <stop offset="1" stop-color="#00204d"/>
    </linearGradient>
    <linearGradient id="linear-gradient-3" x1="839.16" y1="1197.59" x2="834.34" y2="580.77" gradientUnits="userSpaceOnUse">
      <stop offset="0" stop-color="#00457f"/>
      <stop offset="1" stop-color="#ff6a6e"/>
    </linearGradient>
    <linearGradient id="linear-gradient-4" x1="950.86" y1="1196.72" x2="946.04" y2="579.9" xlink:href="#linear-gradient-3"/>
    <linearGradient id="linear-gradient-5" x1="1062.76" y1="1195.84" x2="1057.94" y2="579.03" xlink:href="#linear-gradient-3"/>
    <linearGradient id="linear-gradient-6" x1="727.78" y1="1198.46" x2="722.97" y2="581.64" xlink:href="#linear-gradient-3"/>
    <linearGradient id="linear-gradient-7" x1="616.66" y1="1199.33" x2="611.84" y2="582.51" xlink:href="#linear-gradient-3"/>
    <linearGradient id="linear-gradient-8" x1="850.68" y1="1080.85" x2="829.68" y2="450.75" gradientUnits="userSpaceOnUse">
      <stop offset="0" stop-color="#b68000"/>
      <stop offset="1" stop-color="#f8c74a"/>
    </linearGradient>
    <linearGradient id="linear-gradient-9" x1="865.43" y1="1058.16" x2="812.23" y2="330.05" xlink:href="#linear-gradient-8"/>
    <linearGradient id="linear-gradient-10" x1="850.91" y1="1080.84" x2="829.9" y2="450.74" gradientUnits="userSpaceOnUse">
      <stop offset="0" stop-color="#c08f2f"/>
      <stop offset="1" stop-color="#b68000"/>
    </linearGradient>
    <linearGradient id="linear-gradient-11" x1="835.17" y1="796.81" x2="838.56" y2="989.83" xlink:href="#linear-gradient-10"/>
    <linearGradient id="linear-gradient-12" x1="835.77" y1="805.47" x2="838.38" y2="1027.42" gradientUnits="userSpaceOnUse">
      <stop offset="0" stop-color="#ecc670"/>
      <stop offset="1" stop-color="#cfa246"/>
    </linearGradient>
  </defs>
  <g>
    <path class="cls-1" d="m836.68,1236.49c-422.72-175.57-289.18-639.75-289.18-639.75,116.65-56.52,289.18-63.5,289.18-63.5,0,0,172.54,6.98,289.18,63.5,0,0,133.54,464.18-289.18,639.75Z"/>
    <path class="cls-6" d="m836.68,1222.55c-399.58-168.61-273.35-614.39-273.35-614.39,110.26-54.28,273.35-60.99,273.35-60.99,0,0,163.09,6.71,273.35,60.99,0,0,126.23,445.78-273.35,614.39Z"/>
    <g>
      <path class="cls-7" d="m864.59,549.14c-17.42-1.52-27.91-1.96-27.91-1.96,0,0-10.49.44-27.91,1.96v660.69c9.03,4.38,18.27,8.65,27.91,12.72,9.64-4.07,18.88-8.34,27.91-12.72v-660.69Z"/>
      <path class="cls-5" d="m920.41,1178.68c20.47-13.18,39.03-27.24,55.82-42.02v-571.4c-19.68-4.04-38.59-7.2-55.82-9.66v623.08Z"/>
      <path class="cls-11" d="m1087.88,598.17c-17.95-7.45-36.82-13.84-55.82-19.3v498.42c23.65-30.53,41.9-62.7,55.82-95.33v-383.79Z"/>
      <path class="cls-12" d="m752.94,555.6c-17.23,2.47-36.15,5.63-55.82,9.66v571.4c16.8,14.78,35.35,28.84,55.82,42.02v-623.08Z"/>
      <path class="cls-10" d="m641.3,578.87c-19.01,5.46-37.87,11.85-55.82,19.3v383.79c13.92,32.62,32.17,64.8,55.82,95.33v-498.43Z"/>
    </g>
  </g>
  <g>
    <path class="cls-8" d="m688.75,512.71c.22-.22,23.12-23.51,65.86-45.18.6-.3,1.29-.3,1.83.03l10.37-20.39c-40.5,13.22-75.91,37.68-102.56,69.7l23.94-2.52c-.08-.57.11-1.18.55-1.64Zm145.9-33.19c-38.83-8.18-69.09-9.82-77.06-10.1-.03.74-.44,1.4-1.12,1.75-42.09,21.34-64.55,44.16-64.8,44.41-.38.41-.93.6-1.45.6-.3,0-.63-.05-.9-.22-8.98,19.4-15.98,63.95-17.46,73.94.08-.03.16,0,.25.03l72.81,21.18c.47.14.85.44,1.09.82l88.96-61.19c-.22-.33-.36-.71-.36-1.15v-69.67c0-.14.03-.27.03-.41Zm82.99-11.99c.41.22,43.29,22.77,68.46,45.07.52.47.74,1.12.66,1.75l22.08,2.22c-26.63-31.85-61.95-56.21-102.31-69.39l9.3,20.33c.55-.27,1.2-.27,1.81.03Zm-267.29,283.16c-17.95-46.41-20.63-80.53-20.66-80.86-.03-.52.14-1.01.44-1.4l-17.76-14.26c-.08,2.11-.11,4.21-.11,6.32,0,42.63,11.88,82.5,32.54,116.43l6.92-25.01c-.6-.16-1.12-.63-1.37-1.23Zm188.02-199.92l88.44,61.13c.25-.38.63-.68,1.12-.82l72.82-20.52c.16-.05.33-.08.49-.08-.77-21.78-13.11-64.8-15.93-74.4-.19.08-.38.11-.57.11-.49,0-.96-.16-1.37-.49-24.79-22-67.21-44.3-67.64-44.52-.71-.38-1.12-1.12-1.09-1.89-21.86-.47-66.08,8.24-75.96,10.23.03.14.05.27.05.41v69.67c0,.44-.14.85-.36,1.18Zm222.63,103.98l-17.05,13.65c.36.47.52,1.04.41,1.67-.49,2.52-12.01,62.14-23.26,80.91-.27.47-.68.77-1.15.9l8.29,25.53c20.82-34.04,32.84-74.07,32.84-116.93,0-1.92-.03-3.83-.08-5.75Zm-168.4,67.12c-.25-.36-.38-.77-.38-1.18h-111.62c0,.41-.11.85-.38,1.2l-49.15,67.21c-.16.19-.33.38-.55.49,13,19.48,52.05,55.93,60.2,63.46.36-.44.93-.71,1.61-.66.74.05,73.88,3.69,87.1.08.9-.25,1.81.14,2.3.9,12.23-8.51,51.39-53.22,59.11-62.09-.14-.11-.25-.25-.36-.38l-47.89-69.04Zm-114.68-3.12l-32.95-103.74c-.19.08-.41.11-.63.11-.19,0-.38-.03-.57-.08l-72.79-21.15c-.3-.08-.57-.25-.79-.49-14.42,16.17-33.77,64.3-37.73,74.4.71.27,1.26.9,1.31,1.72.03.33,2.71,33.88,20.41,79.68.27.68.14,1.42-.3,1.97,22.49,17.16,64.25,32.67,73.61,36.01.05-.19.16-.36.27-.52l49.15-67.18c.25-.36.6-.6,1.01-.74Zm239.65,30.13c10.89-18.14,22.66-78.97,22.77-79.6.14-.74.68-1.31,1.37-1.56-7.55-22.71-33.6-64.44-39.32-73.44-.16.08-.36.16-.55.22l-72.79,20.55c-.19.05-.38.08-.55.08-.22,0-.44-.03-.63-.11l-32.97,103.74c.41.11.79.38,1.07.77l47.91,69.07c.11.16.19.33.25.52,21.81-7.58,64.41-32.7,73.47-38.12-.41-.6-.44-1.42-.03-2.11Zm-137.07,107.57c-4.76,1.29-16.36,1.72-29.66,1.72-25.31,0-56.72-1.56-58.7-1.67-.66-.03-1.23-.36-1.56-.85l-24.35,17.95c22.14,7.33,45.83,11.3,70.43,11.3s48.27-3.97,70.41-11.3l-25.42-17.95c-.27.38-.68.66-1.15.79Z"/>
    <path class="cls-9" d="m633.77,669.54c-.05-.82-.6-1.45-1.31-1.72-.49,1.23-.74,1.89-.74,1.89l-1.59-1.26c-.3.38-.47.88-.44,1.4.03.33,2.71,34.45,20.66,80.86.25.6.77,1.07,1.37,1.23l.55-1.97c.52.41,1.07.85,1.61,1.23.44-.55.57-1.29.3-1.97-17.7-45.81-20.39-79.36-20.41-79.68Zm55.55-153.57c.27.16.6.22.9.22.52,0,1.07-.19,1.45-.6.25-.25,22.71-23.07,64.8-44.41.68-.36,1.09-1.01,1.12-1.75-1.34-.08-2.05-.08-2.05-.08l.9-1.78c-.55-.33-1.23-.33-1.83-.03-42.74,21.67-65.65,44.96-65.86,45.18-.44.47-.63,1.07-.55,1.64l2.03-.22c-.3.57-.6,1.2-.9,1.83Zm147.35,33.63l1.7,1.18c.22-.33.36-.74.36-1.18v-69.67c0-.14-.03-.27-.05-.41-1.29.27-2,.41-2,.41-.68-.14-1.37-.3-2.03-.41,0,.14-.03.27-.03.41v69.67c0,.44.14.82.36,1.15l1.7-1.15Zm-92.33,65.54c.22,0,.44-.03.63-.11l-.63-1.94,1.67-1.15c-.25-.38-.63-.68-1.09-.82l-72.81-21.18c-.08-.03-.16-.05-.25-.03-.19,1.31-.3,2.03-.3,2.03-.47.47-.93.96-1.37,1.48.22.25.49.41.79.49l72.79,21.15c.19.05.38.08.57.08Zm171.38-143.96c.44.22,42.85,22.52,67.64,44.52.41.33.88.49,1.37.49.19,0,.38-.03.57-.11-.36-1.26-.57-1.94-.57-1.94l2.02.22c.08-.63-.14-1.29-.66-1.75-25.17-22.3-68.05-44.85-68.46-45.07-.6-.3-1.26-.3-1.81-.03l.85,1.83c-.66-.03-1.34-.05-2.05-.05-.03.77.38,1.51,1.09,1.89Zm128.23,197.24l-1.61,1.29c-.19-.63-.41-1.29-.63-1.97-.68.25-1.23.82-1.37,1.56-.11.63-11.88,61.46-22.77,79.6-.41.68-.38,1.51.03,2.11,1.12-.68,1.72-1.04,1.72-1.04l.63,1.94c.47-.14.88-.44,1.15-.9,11.25-18.77,22.77-78.4,23.26-80.91.11-.63-.05-1.2-.41-1.67Zm-42.71-77.93c-.16,0-.33.03-.49.08l-72.82,20.52c-.49.14-.88.44-1.12.82l1.7,1.18-.63,1.94c.19.08.41.11.63.11.16,0,.36-.03.55-.08l72.79-20.55c.19-.05.38-.14.55-.22-.71-1.15-1.09-1.75-1.09-1.75,0-.66,0-1.34-.05-2.05Zm-105.27,129.05c-.27-.38-.66-.66-1.07-.77l-.63,1.94h-2.05c0,.41.14.82.38,1.18l47.89,69.04c.11.14.22.27.36.38.88-.99,1.34-1.53,1.34-1.53.63-.19,1.26-.41,1.94-.66-.05-.19-.14-.36-.25-.52l-47.91-69.07Zm-16.53,132.96c-13.22,3.61-86.36-.03-87.1-.08-.68-.05-1.26.22-1.61.66.99.9,1.51,1.4,1.51,1.4l-1.64,1.2c.33.49.9.82,1.56.85,1.97.11,33.38,1.67,58.7,1.67,13.3,0,24.9-.44,29.66-1.72.47-.14.88-.41,1.15-.79l-1.7-1.2c.49-.25,1.09-.6,1.78-1.07-.49-.77-1.4-1.15-2.3-.9Zm-101.52-133.73c-.41.14-.77.38-1.01.74l-49.15,67.18c-.11.16-.22.33-.27.52,1.23.47,1.92.68,1.92.68.36.55.71,1.12,1.12,1.72.22-.11.38-.3.55-.49l49.15-67.21c.27-.36.38-.79.38-1.2h-2.05l-.63-1.94Z"/>
    <path class="cls-4" d="m834.65,479.52c.19-.93,1.01-1.64,2.03-1.64s1.81.71,2,1.64c9.88-2,54.1-10.7,75.96-10.23.71,0,1.4.03,2.05.05l-.85-1.83-9.3-20.33c-21.97-7.22-45.48-11.11-69.86-11.11s-47.89,3.89-69.86,11.11l-10.37,20.39-.9,1.78s.71,0,2.05.08c7.96.27,38.23,1.92,77.06,10.1Zm-56.73,239.24l.63,1.94h115.72l.63-1.94,32.97-103.74.63-1.94-1.7-1.18-88.44-61.13-1.7-1.18-1.7,1.15-88.96,61.18-1.67,1.15.63,1.94,32.95,103.74Zm58.75-240.88c-1.01,0-1.83.71-2.03,1.64.66.11,1.34.27,2.03.41,0,0,.71-.14,2-.41-.19-.93-1.01-1.64-2-1.64Zm172.17,38.69l-22.08-2.22-2.02-.22s.22.68.57,1.94c2.82,9.6,15.16,52.62,15.93,74.4.05.71.05,1.4.05,2.05,0,0,.38.6,1.09,1.75,5.72,9,31.77,50.73,39.32,73.44.22.68.44,1.34.63,1.97l1.61-1.29,17.05-13.65c-1.31-52.54-20.69-100.59-52.15-138.19Zm-337.29,75.36s.11-.71.3-2.03c1.48-9.99,8.48-54.54,17.46-73.94.3-.63.6-1.26.9-1.83l-2.03.22-23.94,2.52h-.03c-31.19,37.41-50.43,85.13-51.85,137.31l17.76,14.26,1.59,1.26s.25-.66.74-1.89c3.97-10.1,23.31-58.23,37.73-74.4.44-.52.9-1.01,1.37-1.48Zm347.76,158.03s-.6.36-1.72,1.04c-9.06,5.42-51.66,30.54-73.47,38.12-.68.25-1.31.47-1.94.66,0,0-.47.55-1.34,1.53-7.72,8.87-46.87,53.58-59.11,62.09-.68.47-1.29.82-1.78,1.07l1.7,1.2,25.42,17.95c50.9-16.77,93.69-51.28,121.17-96.18l-8.29-25.53-.63-1.94Zm-288.8,39.65c-.41-.6-.77-1.18-1.12-1.72,0,0-.68-.22-1.92-.68-9.36-3.34-51.11-18.85-73.61-36.01-.55-.38-1.09-.82-1.61-1.23l-.55,1.97-6.92,25.01c27.45,45.15,70.38,79.85,121.44,96.68l24.35-17.95,1.64-1.2s-.52-.49-1.5-1.4c-8.15-7.53-47.2-43.97-60.2-63.46Z"/>
  </g>
  <g>
    <path class="cls-2" d="m1163.74,1020.9c12.93-43.27,20.02-89.83,20.02-138.37s-6.9-93.63-19.44-136.32c-86.89,35.59-199.99,57.09-323.97,57.09-126.35,0-242.09-22.33-330.75-59.15-12.93,43.27-20.02,89.83-20.02,138.37s6.9,93.63,19.44,136.32c86.89-35.59,199.99-57.09,323.97-57.09,126.35,0,242.09,22.33,330.75,59.15Z"/>
    <path class="cls-3" d="m1169.43,1032.88l-9.1-3.78c-90.79-37.7-207.04-58.46-327.34-58.46-117.92,0-231.77,20.04-320.6,56.43l-9.12,3.73-2.78-9.45c-13.14-44.72-19.8-91.43-19.8-138.82s6.86-95.62,20.4-140.91l2.82-9.44,9.1,3.78c90.79,37.7,207.04,58.47,327.34,58.47,117.91,0,231.77-20.04,320.6-56.43l9.12-3.73,2.78,9.45c13.14,44.72,19.8,91.43,19.8,138.82s-6.86,95.62-20.4,140.91l-2.82,9.44Zm-336.44-80.01c118.57,0,233.47,19.88,324.94,56.09,11.25-40.79,16.95-83.27,16.95-126.43,0-42.38-5.52-84.18-16.42-124.4-89.49,34.9-201.97,54.07-318.1,54.07s-233.48-19.88-324.94-56.09c-11.25,40.79-16.95,83.27-16.95,126.43s5.52,84.18,16.42,124.4c89.48-34.9,201.96-54.06,318.1-54.06Z"/>
  </g>
  <text class="cls-14" transform="translate(788.58 1056.96)"><tspan x="0" y="0">SINCE</tspan></text>
  <path class="cls-13" d="m783.35,1097.75c2.09-1.92,3.66-3.66,4.72-5.22,1.06-1.56,1.78-3.05,2.16-4.47.38-1.42.56-2.81.56-4.19,0-2.75-.72-5.11-2.16-7.07-1.44-1.96-3.43-3.49-5.97-4.6-2.54-1.1-5.5-1.66-8.88-1.66-4.29,0-7.99.83-11.07,2.5-3.09,1.67-5.42,3.88-7.01,6.63l9.2,5.07c.88-1.38,1.99-2.42,3.35-3.13,1.36-.71,2.82-1.06,4.41-1.06,1.88,0,3.28.4,4.22,1.19.94.79,1.41,1.88,1.41,3.25,0,.62-.09,1.27-.28,1.94s-.55,1.43-1.09,2.28c-.54.86-1.42,1.83-2.63,2.91l-16.33,15.26v7.82h34.09v-9.82h-16.92l8.23-7.63Zm80.38,0c2.09-1.92,3.66-3.66,4.72-5.22,1.06-1.56,1.78-3.05,2.16-4.47.38-1.42.56-2.81.56-4.19,0-2.75-.72-5.11-2.16-7.07-1.44-1.96-3.43-3.49-5.97-4.6-2.54-1.1-5.5-1.66-8.88-1.66-4.29,0-7.99.83-11.07,2.5-3.09,1.67-5.42,3.88-7.01,6.63l9.2,5.07c.88-1.38,1.99-2.42,3.35-3.13,1.36-.71,2.82-1.06,4.41-1.06,1.88,0,3.28.4,4.22,1.19.94.79,1.41,1.88,1.41,3.25,0,.62-.09,1.27-.28,1.94s-.55,1.43-1.09,2.28c-.54.86-1.42,1.83-2.63,2.91l-16.33,15.26v7.82h34.09v-9.82h-16.92l8.23-7.63Zm47.04-.69v-7.51h-11.7v7.51h-8.91l17.92-25.65h-12.89l-19.64,27.4v8.01h23.14v8.38h12.07v-8.38h6.5v-9.76h-6.5Zm-85.88-23.86c-2.92-1.77-6.23-2.66-9.95-2.66s-7.08.89-9.98,2.66c-2.9,1.77-5.18,4.37-6.85,7.79-1.67,3.42-2.5,7.53-2.5,12.32s.83,8.9,2.5,12.32c1.67,3.42,3.95,6.02,6.85,7.79s6.22,2.66,9.98,2.66,7.03-.89,9.95-2.66,5.2-4.37,6.85-7.79c1.65-3.42,2.47-7.53,2.47-12.32s-.82-8.9-2.47-12.32c-1.65-3.42-3.93-6.01-6.85-7.79Zm-4,27.46c-.58,1.86-1.39,3.2-2.41,4.03-1.02.83-2.2,1.25-3.53,1.25s-2.51-.42-3.53-1.25c-1.02-.83-1.84-2.18-2.44-4.03-.61-1.86-.91-4.31-.91-7.35s.3-5.55.91-7.38c.6-1.83,1.42-3.17,2.44-4,1.02-.83,2.2-1.25,3.53-1.25s2.51.42,3.53,1.25c1.02.83,1.82,2.17,2.41,4,.58,1.83.88,4.29.88,7.38s-.29,5.49-.88,7.35Z"/>
  <path class="cls-13" d="m782.45,861.83c-1.96-1.24-4.1-2.24-6.42-2.98-2.32-.75-4.66-1.37-7.01-1.87-2.35-.5-4.49-.98-6.42-1.45-1.93-.47-3.51-1.08-4.73-1.82-1.22-.75-1.82-1.78-1.82-3.11,0-.88.3-1.71.91-2.49.61-.77,1.6-1.41,2.98-1.91,1.38-.5,3.21-.75,5.47-.75,2.54,0,5.17.36,7.88,1.08,2.71.72,5.44,1.85,8.21,3.4l4.97-12.1c-2.82-1.71-6.07-3-9.74-3.86-3.68-.86-7.42-1.29-11.23-1.29-5.69,0-10.45.86-14.26,2.57-3.81,1.71-6.66,3.98-8.54,6.8-1.88,2.82-2.82,5.94-2.82,9.37,0,3.1.59,5.67,1.78,7.71,1.19,2.05,2.75,3.7,4.68,4.97,1.93,1.27,4.09,2.29,6.47,3.07,2.38.77,4.71,1.4,7.01,1.87,2.29.47,4.42.97,6.38,1.49,1.96.53,3.55,1.16,4.77,1.91,1.21.75,1.82,1.76,1.82,3.03,0,.99-.32,1.85-.95,2.57-.64.72-1.63,1.27-2.98,1.66-1.35.39-3.19.58-5.51.58-3.37,0-6.76-.54-10.16-1.62s-6.4-2.45-8.99-4.1l-5.39,12.19c2.71,1.82,6.26,3.33,10.65,4.52,4.39,1.19,8.99,1.78,13.8,1.78,5.75,0,10.53-.86,14.34-2.57,3.81-1.71,6.67-3.99,8.58-6.84,1.91-2.85,2.86-5.95,2.86-9.33,0-3.04-.61-5.57-1.82-7.58-1.22-2.02-2.81-3.65-4.77-4.89Zm-94.3-27.98l-25.62,58.03h16.75l4.56-11.36h24.54l4.56,11.36h17.08l-25.7-58.03h-16.17Zm.51,34.65l7.45-18.56,7.45,18.56h-14.89Zm-55.47-12.85h-22.3v-21.8h-16.42v58.03h16.42v-22.63h22.3v22.63h16.41v-58.03h-16.41v21.8Zm343.64,1.28l-13.7-23.08h-17.41l22.22,37v21.03h16.41v-20.67l22.22-37.36h-15.92l-13.82,23.08Zm-153.39-23.08l-25.62,58.03h16.75l4.56-11.36h24.54l4.56,11.36h17.08l-25.7-58.03h-16.17Zm.51,34.65l7.45-18.55,7.45,18.55h-14.89Zm229.87-34.65h-16.17l-25.62,58.03h16.75l4.56-11.36h24.54l4.56,11.36h17.08l-25.7-58.03Zm-15.65,34.65l7.45-18.56,7.45,18.56h-14.89Zm-121.21-12.85h-22.3v-21.8h-16.42v58.03h16.42v-22.63h22.3v22.63h16.41v-58.03h-16.41v21.8Z"/>
  <path class="cls-13" d="m726.74,912.26c-1.18-1.15-2.58-2.04-4.19-2.67-1.61-.63-3.36-.94-5.26-.94s-3.68.32-5.29.96c-1.61.64-3.01,1.53-4.19,2.68-1.18,1.15-2.11,2.49-2.77,4.03-.66,1.54-.99,3.22-.99,5.05s.33,3.51.99,5.05c.66,1.54,1.59,2.88,2.77,4.03,1.19,1.15,2.59,2.04,4.21,2.68,1.62.64,3.38.96,5.28.96s3.65-.31,5.26-.94c1.61-.63,3.01-1.52,4.19-2.67,1.18-1.15,2.1-2.49,2.75-4.03s.98-3.23.98-5.08-.33-3.51-.98-5.06-1.57-2.9-2.75-4.05Zm-.55,12.92c-.49,1.16-1.16,2.17-2.03,3.04-.87.87-1.88,1.54-3.06,2.01s-2.46.71-3.86.71-2.65-.24-3.82-.71c-1.17-.47-2.2-1.14-3.07-2.01-.88-.86-1.56-1.88-2.04-3.04-.49-1.16-.73-2.43-.73-3.8s.24-2.63.73-3.78c.49-1.15,1.17-2.16,2.04-3.04s1.9-1.55,3.07-2.03c1.17-.47,2.45-.71,3.82-.71s2.68.24,3.86.71c1.17.47,2.19,1.15,3.06,2.03.87.88,1.54,1.89,2.03,3.04s.73,2.41.73,3.78-.24,2.64-.73,3.8Zm13.24-13.15h8.53v21.78h3.52v-21.78h8.53v-3.09h-20.58v3.09Zm-100,21.78h3.55v-10.06h12.47v-3.06h-12.47v-8.67h14v-3.09h-17.55v24.88Zm388.46-10.29c-.64-.96-1.5-1.69-2.59-2.19-.36-.17-.75-.29-1.15-.4.02,0,.04-.01.05-.02,1.02-.5,1.83-1.21,2.43-2.13s.91-2.06.91-3.41c0-1.99-.77-3.56-2.31-4.71-1.54-1.15-3.74-1.72-6.61-1.72h-11.16v24.88h11.87c3.15,0,5.53-.59,7.13-1.76s2.4-2.83,2.4-4.96c0-1.42-.32-2.61-.96-3.57Zm-16.88-11.71h7.29c1.8,0,3.2.33,4.19,1,.99.66,1.49,1.66,1.49,2.99s-.5,2.32-1.49,2.99c-1,.66-2.39,1-4.19,1h-7.29v-7.96Zm12.69,18.12c-1.04.66-2.55,1-4.51,1h-8.17v-8.28h8.17c1.97,0,3.47.33,4.51,1,1.04.66,1.56,1.72,1.56,3.16s-.52,2.46-1.56,3.13Zm-333.91-17.68c-1.18-1.15-2.58-2.04-4.19-2.67-1.61-.63-3.36-.94-5.26-.94s-3.68.32-5.29.96c-1.61.64-3.01,1.53-4.19,2.68-1.18,1.15-2.11,2.49-2.77,4.03-.66,1.54-.99,3.22-.99,5.05s.33,3.51.99,5.05c.66,1.54,1.59,2.88,2.77,4.03,1.19,1.15,2.59,2.04,4.21,2.68,1.62.64,3.38.96,5.28.96s3.65-.31,5.26-.94c1.61-.63,3.01-1.52,4.19-2.67,1.18-1.15,2.1-2.49,2.75-4.03s.98-3.23.98-5.08-.33-3.51-.98-5.06-1.57-2.9-2.75-4.05Zm-.55,12.92c-.49,1.16-1.16,2.17-2.03,3.04-.87.87-1.88,1.54-3.06,2.01s-2.46.71-3.86.71-2.65-.24-3.82-.71c-1.17-.47-2.2-1.14-3.07-2.01-.88-.86-1.56-1.88-2.04-3.04-.49-1.16-.73-2.43-.73-3.8s.24-2.63.73-3.78c.49-1.15,1.17-2.16,2.04-3.04s1.9-1.55,3.07-2.03c1.17-.47,2.45-.71,3.82-.71s2.68.24,3.86.71c1.17.47,2.19,1.15,3.06,2.03.87.88,1.54,1.89,2.03,3.04s.73,2.41.73,3.78-.24,2.64-.73,3.8Zm152.44-16.24h-3.55v24.88h17.02v-3.09h-13.47v-21.78Zm28.22,0h-3.55v24.88h17.02v-3.09h-13.47v-21.78Zm77.68,0h-3.55v24.88h17.02v-3.09h-13.47v-21.78Zm-32.05,5.58c.88-.85,1.91-1.52,3.11-1.99,1.2-.47,2.49-.71,3.89-.71s2.62.24,3.8.73c1.18.49,2.25,1.23,3.2,2.22l2.31-2.24c-1.14-1.28-2.52-2.24-4.14-2.9-1.62-.65-3.39-.98-5.31-.98s-3.64.31-5.24.94c-1.6.63-2.99,1.52-4.18,2.67-1.18,1.15-2.11,2.49-2.77,4.03-.66,1.54-.99,3.23-.99,5.08s.33,3.54.99,5.08c.66,1.54,1.58,2.88,2.75,4.03,1.17,1.15,2.56,2.04,4.16,2.67s3.35.94,5.24.94,3.72-.33,5.35-1c1.62-.66,3-1.63,4.14-2.91l-2.31-2.24c-.95,1.02-2.01,1.77-3.2,2.26-1.19.49-2.45.73-3.8.73s-2.7-.24-3.89-.71-2.23-1.14-3.11-1.99c-.88-.85-1.56-1.87-2.04-3.04-.49-1.17-.73-2.45-.73-3.82s.24-2.65.73-3.82c.49-1.17,1.17-2.19,2.04-3.04Zm-126.69,6.82c-.36-.17-.75-.29-1.15-.4.02,0,.04-.01.05-.02,1.02-.5,1.83-1.21,2.43-2.13.6-.92.91-2.06.91-3.41,0-1.99-.77-3.56-2.31-4.71-1.54-1.15-3.74-1.72-6.61-1.72h-11.16v24.88h11.87c3.15,0,5.53-.59,7.12-1.76s2.4-2.83,2.4-4.96c0-1.42-.32-2.61-.96-3.57-.64-.96-1.51-1.69-2.59-2.19Zm-14.29-9.52h7.29c1.8,0,3.2.33,4.19,1,1,.66,1.49,1.66,1.49,2.99s-.5,2.32-1.49,2.99c-.99.66-2.39,1-4.19,1h-7.29v-7.96Zm12.69,18.12c-1.04.66-2.55,1-4.51,1h-8.17v-8.28h8.17c1.97,0,3.47.33,4.51,1,1.04.66,1.56,1.72,1.56,3.16s-.52,2.46-1.56,3.13Zm25.27-21l-11.27,24.88h3.66l2.73-6.22h13.23l2.73,6.22h3.73l-11.3-24.88h-3.52Zm-3.62,15.81l5.36-12.21,5.36,12.21h-10.73Zm180.74-1.81c0,2.77-.61,4.8-1.83,6.08s-2.96,1.92-5.21,1.92-3.95-.64-5.17-1.92-1.83-3.3-1.83-6.08v-14h-3.55v14.14c0,3.6.94,6.34,2.81,8.21,1.87,1.87,4.44,2.81,7.71,2.81s5.87-.94,7.73-2.81c1.86-1.87,2.79-4.61,2.79-8.21v-14.14h-3.45v14Z"/>
</svg>