<?xml version="1.0" encoding="UTF-8"?>
<svg id="Layer_1" data-name="Layer 1" xmlns="http://www.w3.org/2000/svg" viewBox="0 0 1741.59 1389.89">
  <defs>
    <style>
      .cls-1 {
        fill: #603913;
      }

      .cls-1, .cls-2 {
        stroke-width: 0px;
      }

      .cls-2 {
        fill: #873903;
      }
    </style>
  </defs>
  <path class="cls-1" d="m1139.78,491.75h-.51c0-52.32,0-104.63-.01-156.95,0-24.24-.02-24.07-24.26-25.88-75.12-5.6-150.08-12.86-224.97-20.99-26.4-2.87-52.83-10.14-79.44-6.77-97.11,12.28-194.56,20.66-292.12,28.13-24.86,1.9-21.29-2.41-21.41,22.24-.45,97.46.65,194.92-.57,292.36-1.36,108.38,39.97,199.55,109.62,279.45,10.39,11.91,14.34,23.05,14.22,38.06-.4,47.71-.05,47.96,47.27,53.25,8.07.91,12.48,3.96,16.83,10.63,32.81,50.32,77.46,88.37,127.01,121.27,4.72,3.14,8.58,4.35,13.83.72,28.67-19.79,59.25-37.3,83.39-62.73,11.13-11.73,22.51-18.47,38.57-17.41,11.93.78,16.55-5.45,15.6-16.94-1.43-17.32,5.56-29.56,19.95-40.05,19.23-14.02,33.21-32.12,28.22-58.7-1.55-8.26,2.59-13.93,8.73-19.77,79.16-75.21,118.36-168.03,119.93-276.82.69-47.69.12-95.4.12-143.1Zm-43.83-143c8.91,3.51,3.25,14.92,3.34,23.94-19.26-9.92-37.28-19.19-55.29-28.47,17.53-2.25,35.61-1.89,51.95,4.53Zm-536.34-3.99c5.62-.34,11.21-1.14,16.83-1.62,5.06-.43,10.14-.71,15.21-1.06.24.85.49,1.71.74,2.56-17.24,9.63-34.47,19.26-51.75,28.91-6.21-24.51-4.29-27.36,18.97-28.79Zm59.81,306.11c.02,66.13,0,132.25,0,198.38-47.96-58.95-74.99-125.8-79.18-200.99-1.74-31.2-.36-62.57-.93-93.84-.15-8.18,2.57-13.15,9.5-17.44,18.4-11.36,37.79-20.46,57.66-28.89,10.89-4.62,13.09-2,13,8.91-.37,44.62-.07,89.25-.05,133.87Zm204.95,434.68c-6.68,4.1-10.61-.73-14.83-3.97-21.93-16.88-41.55-36.16-60.76-59.1,11.88,2.92,20.72,7.32,28.33,14.15,5.32,4.77,10.4,9.82,15.62,14.71,26.89,25.15,27.04,25.32,56.2,2.24,4.8-3.79,8.89-3.99,17.03-1.81-13.28,14.29-26.83,24.7-41.59,33.78Zm18.29-37.78c-18.49,21.8-28.26,19.79-46.68-9.21,15.85,2.77,30.34,9.12,46.68,9.21Zm-27.08-38.01l3.72-11.48c1.86.61,3.44.77,4.77.51,1.32-.27,2.51-.97,3.56-2.11l6.35,10.04c-4.77,4.45-10.91,5.47-18.4,3.04Zm19.81-37.93c-.4-3.15-2.22-5.25-5.47-6.3l3.72-11.47c4.1,1.33,7.23,3.24,9.4,5.72,2.17,2.48,3.25,5.4,3.24,8.75l-10.89,3.3Zm-8.63-7.33c-2.19-.71-4.23-.38-6.11.99-1.88,1.37-3.44,3.99-4.7,7.85l-3.38,10.43c-1.25,3.86-1.52,6.89-.8,9.11.72,2.21,2.18,3.67,4.36,4.38l-3.72,11.47c-3.29-1.07-6.06-2.59-8.29-4.57-2.23-1.98-3.83-4.22-4.8-6.72-.97-2.51-1.45-5.17-1.46-8.01,0-2.83.48-5.74,1.45-8.73l4.11-12.67c.97-2.98,2.28-5.62,3.95-7.91,1.67-2.29,3.63-4.17,5.88-5.63,2.25-1.46,4.86-2.34,7.83-2.62,2.97-.29,6.1.09,9.4,1.16l-3.72,11.47Zm-22.87-12.92c-.55,1.7-1.53,2.87-2.92,3.52-1.39.64-3.05.65-4.98.02l-28.46-9.23,3.59-11.08,28.47,9.23c1.93.63,3.27,1.61,4.01,2.97.74,1.35.84,2.87.29,4.57Zm-8.35,14.93l-3.59,11.08-15.84-5.14,3.6-11.08,15.83,5.14Zm-16.39-13.69l-12.93,39.86-12.55-4.07,12.93-39.86,12.55,4.07Zm193.51-220.93c-.6,13.17-3.97,26.21-6.11,39.6-7.34,1.63-5.43-9.18-13.69-6.89-5.54,16.89-8.04,36.46-14.81,54.86-9.57,26.02-24.41,48.36-43.17,68.38-3.75,4.02-7.73,9.45-13.99,3.68-7.7-7.08-13.54-4.05-19.57,2.48-8.58,9.3-21.18,14.41-28.59,27.09,39.36,9.17,78.64,9.23,117.8,10.05-110.08,22.54-204.92-28.97-303.44-62.44,22.61,2.29,44.09,9.37,65.58,16.23,31.21,9.96,62.34,20.21,93.36,30.76,8.84,3.01,13.42,3.13,12.4-8.46-4.57-52.24-17.04-102.45-37.14-152.44-15.96,19-28.95,38.75-48.84,55.1-5.9-33.36-11.87-65.48-11.43-98.78,12.76,16.07,16.71,35.81,23.3,56.1,14.45-15.65,28.2-30.54,42.57-46.1,27.73,51.88,39.8,106.89,46.17,165.86,10.27-8.59,20.02-15.68,28.41-24.12,5.67-5.71,7.97-5.98,11.79,1.39,5,9.67,10.67,8.9,16.9.11,21.38-30.14,35.97-63.07,42.56-99.53,2.82-15.62-1.42-30.54-3.74-45.67-.66-4.35-3.12-8.58.09-13.83,11.83,11.67,16.53,27.74,28.94,44.12-.04-28.8,2.44-53.23-2.33-80.51-6.64,10.61-5.98,19.32-6.74,27.78-.21,2.37-.71,5.71-2.29,6.75-3.35,2.2-5.14-1.73-7.48-3.4-6.41-4.57-6.88-10.88-5.45-17.82,2.06-10.01,4.3-20,6.09-30.06,3.79-21.18-6.6-32.11-28.46-29.83-5.04.52-10.05,1.94-14.9,3.48-4.08,1.3-8.39,2.61-11.71-.34-21.82-19.35-51.63-27.18-70.77-50.92-9.97-12.36-26.62-7.49-42.46-7.92,21.57-27.4,71.14-22.03,96.23-.37,5.91,5.1,11.1,12.76,18.6,1.09,3.28-5.12,8.21-2.53,11.21,1.83,5.2,7.58,10.57,15.1,15.1,23.08,6.88,12.1,15.63,22.4,27.5,32.62,0-4.74.19-7.74-.05-10.7-.4-5.04.59-9.69,5.81-11.18,5.77-1.65,5.8,4.39,8.01,7.38,27.54,37.18,20.61,79.84,18.74,121.49Zm-116.28-220.86c22.35,1.29,41.17,6.52,56.03,25.74,13.06,16.89,23.21,36.34,40.25,50.1,2.14,1.74,3.29,4.21.91,6.54-5.27,5.15-12.06,8.68-18.87,9.67-7.5,1.09-7.42-7.23-9.22-12.07-7.8-21.12-24.95-36.01-36.45-54.71-5.17-8.4-9.29,2.65-10.82,6.03-4.19,9.23-7.5,8.44-15.34,3.15-33.87-22.82-67.5-13.85-99.85,3.87-13.81,7.56-25.96,18.09-39.11,26.9-6.8,4.55-6.16,8.72-.31,12.95,9.87,7.15,19.94,14,31.55,22.12-14.72,10.01-25.8,3.45-36.88-3.47-10.35-6.47-19.22-15.23-31.57-19.44,50.48-40.59,99.72-81.41,169.68-77.38Zm-149.24-34.41c74.91-23.78,150.01-22.37,225.44.06-75.04-4.18-150.24-2.94-225.44-.06Zm209.21,242.98c5.43,11.44,4.13,17.67-5.75,33.26-15.41-23.24-14.15-20.57-33.29-3.94-4.31-1.81-2.27-6.13-3.29-9.14-2.98-8.83-5.31-17.98-14.95-4.54-2.15,3-4.69,5.73-8.82,2.48-3.83-3.02-6.76-6.43-5.28-11.74,2.11-7.55,33.74-26.38,45.26-26.64,14.02-.32,20.91,9.27,26.12,20.26Zm-1.11-73.28c7.91-.21,13.89,2.64,11.97,11.4-2.13,9.74-.85,25.44-12.26,25.89-8.35.33-17.54-12.63-18.09-23.69-.53-10.92,9.24-13.06,18.38-13.6Zm-36.65,21.1c-4.8,6.48-10.89,10.59-18.38,13.06-13.55,4.48-26.82,9.61-38.54,18.47-5.64-22.28-20.21-27.21-42.1-14.62-4.82,2.77-9.01,6.61-13.71,10.12,3.68-33.26,17.53-45.93,49.63-44.42,13,.61,24.56,1.47,34.99-9.77,8.68-9.33,15.64,1.58,21.53,6.88,5.6,5.04,14.06,10.17,6.58,20.28Zm-42.3-49.55c-.55,7.38-6.93,8.18-12.61,8.56-24.73,1.66-48.65,6.16-70.87,18.69,10.22-19.56,20.74-38.36,46.09-40.75-7.09-4.31-14.09-3.23-20.88-2.21-6.91,1.04-13.28.3-13.79-7.68-.46-7.09,6.42-8.3,11.93-9.35,8.6-1.63,16.06.66,22.53,6.82,7.63,7.28,15.3,14.2,27.02,14.9,5.5.33,11.09,4.13,10.58,11.02Zm242.3,124.51c-14.62,38.84-32.88,75.71-61.48,111.45,0-69.73-.02-135.24.01-200.75.02-45.6.28-91.19-.01-136.79-.06-8.93,1.23-11.81,10.92-8.27,22.28,8.14,42.6,19.96,63.16,31.41,3.91,2.18,6,5.24,5.93,9.89-.9,64.86,5.06,130.4-18.53,193.06Zm24.35-243.04c-52.09-24.77-104.03-41.84-157.89-52.02-72.03-13.62-144.67-13.77-217.38-5.22-64.12,7.54-125.39,24.97-183.39,53.47-7.38,3.63-10.73,4.3-10.38-5.97.75-22.54.82-45.12.57-67.67-.11-9.13,2.62-15.16,11.02-19.79,146.67-80.95,298.65-102.22,458.35-42.16,31.28,11.76,60.74,26.91,89.78,43.2,5.79,3.25,9.62,6.17,9.49,13.75-.45,26.62-.17,53.26-.17,82.41Z"/>
  <g>
    <path class="cls-2" d="m660.57,376.79c4.51,18.79,9.02,37.58,13.53,56.37,4.45-1.07,8.91-2.09,13.38-3.06-4.1-18.88-8.2-37.77-12.3-56.65-4.88,1.06-9.75,2.17-14.61,3.34Z"/>
    <path class="cls-2" d="m687.42,378.68c3.3,16.46,6.6,32.91,9.9,49.37,4.34-.87,8.69-1.7,13.05-2.47-1.48-8.3-2.97-16.6-4.45-24.91-6-7.41-12.17-14.74-18.5-21.99Zm37.68,19.11c-7.55-9.97-15.39-19.82-23.52-29.53-5.17.91-10.33,1.88-15.48,2.92,9.74,11.18,19.09,22.55,28.06,34.11.93,1.22,1.91,2.02,2.92,2.41,1.01.38,2.21.46,3.6.24,1.85-.29,3.32-1.03,4.44-2.24,1.11-1.2,1.55-2.67,1.3-4.4-.21-1.39-.64-2.56-1.31-3.51Zm-.09-33.25c-2.31,6.29-4.54,12.6-6.69,18.91,3.13,4.03,6.22,8.09,9.25,12.16,4.21-11.09,8.7-22.14,13.47-33.15-5.35.63-10.7,1.32-16.04,2.07Zm6.21,31.79c1.17,8.46,2.34,16.93,3.52,25.39,4.38-.61,8.76-1.17,13.14-1.68-1.97-16.85-3.95-33.7-5.92-50.54-3.76,8.92-7.34,17.87-10.74,26.84Z"/>
    <path class="cls-2" d="m768.81,373.95c.85-1.92,2.37-2.96,4.55-3.12-.29-4.11-.58-8.22-.87-12.33-3.11.22-5.87.84-8.28,1.85-2.41,1-4.36,2.29-5.87,3.84-1.51,1.54-2.69,3.36-3.55,5.43-.86,2.08-1.4,4.26-1.64,6.52-.25,2.27-.22,4.7.04,7.29.46,4.53.93,9.05,1.39,13.58.27,2.6.73,4.98,1.41,7.16.67,2.17,1.6,4.2,2.78,6.07,1.18,1.87,2.59,3.45,4.24,4.7,1.64,1.25,3.63,2.18,5.96,2.8,2.33.61,4.91.81,7.75.61-.29-4.11-.58-8.22-.87-12.33-2.07.15-3.64-.65-4.73-2.42-1.08-1.77-1.8-4.81-2.15-9.12-.3-3.73-.6-7.47-.9-11.2-.35-4.32-.1-7.43.74-9.35Zm29-.84c-.53-2.21-1.36-4.29-2.5-6.24-1.15-1.94-2.56-3.57-4.26-4.9-1.68-1.33-3.79-2.34-6.31-3.01-2.51-.68-5.34-.92-8.49-.71.27,4.11.54,8.22.8,12.33,2.19-.14,3.84.68,4.95,2.47,1.11,1.79,1.77,4.84,2.01,9.16.21,3.74.42,7.48.63,11.22.24,4.31-.07,7.43-.91,9.33-.85,1.89-2.31,2.9-4.38,3.04.27,4.11.54,8.22.8,12.33,2.88-.19,5.41-.73,7.63-1.65,2.22-.93,4.06-2.12,5.5-3.58,1.45-1.47,2.63-3.21,3.57-5.23.93-2.02,1.57-4.15,1.93-6.39.35-2.25.48-4.68.4-7.29-.15-4.55-.31-9.09-.46-13.64-.09-2.61-.39-5.02-.91-7.23Z"/>
    <path class="cls-2" d="m807.83,357.92c.37,19.32.75,38.64,1.12,57.96,4.55-.09,9.09-.13,13.64-.12.05-19.32.09-38.65.14-57.97-4.96-.01-9.93.03-14.89.13Z"/>
    <path class="cls-2" d="m873.86,361.53c-1.01-1.22-2.66-1.92-4.95-2.08-12.19-.85-24.4-1.37-36.61-1.57-.06,3.98-.13,7.96-.19,11.94,12,.2,23.99.71,35.97,1.55,2.25.16,3.95-.28,5.12-1.31,1.16-1.03,1.82-2.42,1.95-4.13.14-1.71-.3-3.18-1.29-4.39Zm-20.86,12.03c-7.31,7.44-14.39,15.01-21.22,22.68-.11,6.53-.21,13.06-.32,19.6,12.18-14.12,25.18-27.88,38.97-41.22-5.8-.43-11.61-.78-17.42-1.05Zm-6.27,30.09c-3.66,4.06-7.26,8.15-10.79,12.27,11.35.27,22.68.84,34.01,1.72.33-4.19.65-8.38.98-12.57-8.06-.63-16.13-1.1-24.2-1.42Z"/>
    <path class="cls-2" d="m907.31,389.44c-3.72-9.23-7.64-18.44-11.75-27.61-5.76-.63-11.54-1.18-17.31-1.66,5.36,11.11,10.43,22.28,15.21,33.5,1.15,2.64,3.14,4.13,6.03,4.47,1.96.24,3.75-.09,5.39-.99,1.65-.89,2.6-2.29,2.86-4.22.17-1.26.02-2.43-.43-3.5Zm-14.85,10.07c-.74,6.69-1.48,13.37-2.22,20.06,4.53.5,9.05,1.05,13.56,1.65.88-6.67,1.77-13.34,2.65-20.01-4.66-.62-9.33-1.18-14-1.7Zm20.01-35.62c-2.47,3.55-4.91,7.11-7.31,10.68,2.01,4.57,3.97,9.15,5.88,13.74,5.48-7.46,11.11-14.85,16.9-22.17-5.15-.81-10.3-1.56-15.46-2.25Z"/>
    <path class="cls-2" d="m917.52,409.37c-.68,4.5-1.36,9-2.05,13.5,4.66.71,9.32,1.47,13.97,2.28.78-4.48,1.57-8.96,2.35-13.45-4.75-.83-9.51-1.61-14.28-2.33Z"/>
    <path class="cls-2" d="m979.35,377.96c-1.01-1.38-2.65-2.34-4.9-2.85-11.42-2.61-22.89-4.93-34.4-6.95-.69,3.92-1.38,7.84-2.07,11.76,11.31,1.99,22.58,4.26,33.81,6.83,2.21.51,4.06.39,5.57-.39,1.5-.76,2.47-2.01,2.89-3.74.41-1.72.12-3.27-.9-4.66Zm-30.25,6.63c-2.75,14.22-5.51,28.44-8.26,42.66,4.49.87,8.97,1.79,13.44,2.75,3.06-14.16,6.13-28.31,9.19-42.47-4.78-1.03-9.57-2.02-14.36-2.94Z"/>
  </g>
</svg>