<?xml version="1.0" encoding="UTF-8"?>
<svg id="Layer_1" data-name="Layer 1" xmlns="http://www.w3.org/2000/svg" xmlns:xlink="http://www.w3.org/1999/xlink" viewBox="0 0 1741.59 1389.89">
  <defs>
    <style>
      .cls-1 {
        fill: url(#linear-gradient);
      }

      .cls-1, .cls-2, .cls-3, .cls-4, .cls-5, .cls-6, .cls-7, .cls-8, .cls-9, .cls-10, .cls-11, .cls-12, .cls-13, .cls-14, .cls-15, .cls-16, .cls-17, .cls-18, .cls-19, .cls-20, .cls-21 {
        stroke-width: 0px;
      }

      .cls-2 {
        fill: url(#linear-gradient-11);
      }

      .cls-3 {
        fill: url(#linear-gradient-12);
      }

      .cls-4 {
        fill: url(#linear-gradient-13);
      }

      .cls-5 {
        fill: url(#linear-gradient-10);
      }

      .cls-6 {
        fill: url(#linear-gradient-17);
      }

      .cls-7 {
        fill: url(#linear-gradient-16);
      }

      .cls-8 {
        fill: url(#linear-gradient-19);
      }

      .cls-9 {
        fill: url(#linear-gradient-15);
      }

      .cls-10 {
        fill: url(#linear-gradient-18);
      }

      .cls-11 {
        fill: url(#linear-gradient-14);
      }

      .cls-12 {
        fill: url(#linear-gradient-20);
      }

      .cls-22 {
        font-family: MontserratRoman-SemiBold, Montserrat;
        font-size: 45.14px;
        font-variation-settings: 'wght' 600;
        font-weight: 600;
      }

      .cls-22, .cls-23, .cls-21 {
        fill: #fff;
      }

      .cls-13 {
        fill: url(#linear-gradient-4);
      }

      .cls-14 {
        fill: url(#linear-gradient-2);
      }

      .cls-15 {
        fill: url(#linear-gradient-3);
      }

      .cls-16 {
        fill: url(#linear-gradient-8);
      }

      .cls-17 {
        fill: url(#linear-gradient-9);
      }

      .cls-18 {
        fill: url(#linear-gradient-7);
      }

      .cls-19 {
        fill: url(#linear-gradient-5);
      }

      .cls-20 {
        fill: url(#linear-gradient-6);
      }

      .cls-23 {
        font-family: MontserratRoman-ExtraBold, Montserrat;
        font-size: 23.77px;
        font-variation-settings: 'wght' 800;
        font-weight: 700;
      }
    </style>
    <linearGradient id="linear-gradient" x1="894.14" y1="1105.92" x2="776.46" y2="375.34" gradientUnits="userSpaceOnUse">
      <stop offset="0" stop-color="#c08f2f"/>
      <stop offset="1" stop-color="#f2de9a"/>
    </linearGradient>
    <linearGradient id="linear-gradient-2" x1="599.12" y1="376.97" x2="1228.97" y2="1174.39" gradientUnits="userSpaceOnUse">
      <stop offset="0" stop-color="#2a0700"/>
      <stop offset="1" stop-color="#ff9c00"/>
    </linearGradient>
    <linearGradient id="linear-gradient-3" x1="826.05" y1="1004.93" x2="809.43" y2="506.4" gradientUnits="userSpaceOnUse">
      <stop offset="0" stop-color="#b68000"/>
      <stop offset="1" stop-color="#f8c74a"/>
    </linearGradient>
    <linearGradient id="linear-gradient-4" x1="837.73" y1="986.98" x2="795.63" y2="410.91" xlink:href="#linear-gradient-3"/>
    <linearGradient id="linear-gradient-5" x1="826.23" y1="1004.93" x2="809.61" y2="506.4" gradientUnits="userSpaceOnUse">
      <stop offset="0" stop-color="#c08f2f"/>
      <stop offset="1" stop-color="#b68000"/>
    </linearGradient>
    <linearGradient id="linear-gradient-6" x1="1080.56" y1="955.93" x2="1180.07" y2="990.89" gradientUnits="userSpaceOnUse">
      <stop offset="0" stop-color="#c08f2f"/>
      <stop offset=".86" stop-color="#f2de9a"/>
    </linearGradient>
    <linearGradient id="linear-gradient-7" x1="599.2" y1="970.12" x2="443.22" y2="976.85" xlink:href="#linear-gradient"/>
    <linearGradient id="linear-gradient-8" x1="8663.29" y1="-2809.4" x2="8663.29" y2="-2988.06" gradientTransform="translate(10743.07 -2361.91) rotate(-180) scale(1.12)" xlink:href="#linear-gradient-5"/>
    <linearGradient id="linear-gradient-9" x1="9128.57" y1="-2809.4" x2="9128.57" y2="-2988.06" gradientTransform="translate(10743.07 -2361.91) rotate(-180) scale(1.12)" xlink:href="#linear-gradient-5"/>
    <linearGradient id="linear-gradient-10" x1="8893.49" y1="-3005.57" x2="8893.49" y2="-2786.05" gradientTransform="translate(10743.07 -2361.91) rotate(-180) scale(1.12)" xlink:href="#linear-gradient"/>
    <linearGradient id="linear-gradient-11" x1="580.37" y1="686.51" x2="594.64" y2="643.7" xlink:href="#linear-gradient-3"/>
    <linearGradient id="linear-gradient-12" x1="600.54" y1="603" x2="611.51" y2="570.09" xlink:href="#linear-gradient-3"/>
    <linearGradient id="linear-gradient-13" x1="600.54" y1="767.28" x2="611.51" y2="734.37" xlink:href="#linear-gradient-3"/>
    <linearGradient id="linear-gradient-14" x1="640.1" y1="543.35" x2="646.97" y2="522.72" xlink:href="#linear-gradient-3"/>
    <linearGradient id="linear-gradient-15" x1="640.1" y1="829.4" x2="646.97" y2="808.77" xlink:href="#linear-gradient-3"/>
    <linearGradient id="linear-gradient-16" x1="9001.06" y1="686.51" x2="9015.33" y2="643.7" gradientTransform="translate(10050.65) rotate(-180) scale(1 -1)" xlink:href="#linear-gradient-3"/>
    <linearGradient id="linear-gradient-17" x1="9021.23" y1="603" x2="9032.2" y2="570.09" gradientTransform="translate(10050.65) rotate(-180) scale(1 -1)" xlink:href="#linear-gradient-3"/>
    <linearGradient id="linear-gradient-18" x1="9021.23" y1="767.28" x2="9032.2" y2="734.37" gradientTransform="translate(10050.65) rotate(-180) scale(1 -1)" xlink:href="#linear-gradient-3"/>
    <linearGradient id="linear-gradient-19" x1="9060.79" y1="543.35" x2="9067.67" y2="522.72" gradientTransform="translate(10050.65) rotate(-180) scale(1 -1)" xlink:href="#linear-gradient-3"/>
    <linearGradient id="linear-gradient-20" x1="9060.79" y1="829.4" x2="9067.67" y2="808.77" gradientTransform="translate(10050.65) rotate(-180) scale(1 -1)" xlink:href="#linear-gradient-3"/>
  </defs>
  <path class="cls-1" d="m814.98,1118.67c-446.9-185.61-305.73-676.35-305.73-676.35,123.32-59.75,305.73-67.14,305.73-67.14,0,0,182.41,7.38,305.72,67.14,0,0,141.18,490.73-305.73,676.35Z"/>
  <path class="cls-14" d="m814.98,1103.93c-422.44-178.26-288.99-649.53-288.99-649.53,116.57-57.38,288.99-64.47,288.99-64.47,0,0,172.42,7.09,288.99,64.48,0,0,133.45,471.28-288.99,649.53Z"/>
  <g>
    <path class="cls-15" d="m697.93,555.43c.17-.17,18.29-18.6,52.11-35.74.48-.24,1.02-.24,1.45.02l8.21-16.13c-32.04,10.46-60.06,29.81-81.14,55.14l18.94-1.99c-.07-.45.09-.93.43-1.3Zm115.44-26.26c-30.72-6.47-54.67-7.77-60.97-7.99-.02.58-.35,1.1-.89,1.39-33.3,16.89-51.07,34.94-51.27,35.14-.3.32-.74.48-1.15.48-.24,0-.5-.04-.71-.17-7.1,15.35-12.64,50.6-13.81,58.5.06-.02.13,0,.19.02l57.61,16.76c.37.11.67.35.87.65l70.38-48.41c-.17-.26-.28-.56-.28-.91v-55.12c0-.11.02-.22.02-.32Zm65.66-9.48c.32.17,34.25,18.01,54.17,35.66.41.37.58.89.52,1.39l17.47,1.75c-21.07-25.2-49.02-44.47-80.95-54.9l7.36,16.09c.43-.22.95-.22,1.43.02Zm-211.48,224.03c-14.2-36.72-16.32-63.72-16.35-63.98-.02-.41.11-.8.35-1.1l-14.05-11.28c-.07,1.67-.09,3.33-.09,5,0,33.73,9.4,65.28,25.74,92.12l5.48-19.79c-.48-.13-.89-.5-1.08-.97Zm148.76-158.18l69.97,48.37c.19-.3.5-.54.89-.65l57.61-16.24c.13-.04.26-.06.39-.06-.61-17.23-10.37-51.27-12.6-58.87-.15.07-.3.09-.45.09-.39,0-.76-.13-1.08-.39-19.61-17.41-53.17-35.05-53.52-35.22-.56-.3-.89-.89-.87-1.49-17.3-.37-52.28,6.52-60.1,8.1.02.11.04.22.04.32v55.12c0,.35-.11.67-.28.93Zm176.14,82.27l-13.49,10.8c.28.37.41.82.32,1.32-.39,1.99-9.5,49.17-18.4,64.02-.22.37-.54.61-.91.71l6.56,20.2c16.48-26.93,25.98-58.61,25.98-92.51,0-1.52-.02-3.03-.07-4.55Zm-133.23,53.11c-.19-.28-.3-.61-.3-.93h-88.31c0,.32-.09.67-.3.95l-38.88,53.17c-.13.15-.26.3-.43.39,10.28,15.41,41.18,44.25,47.63,50.21.28-.35.74-.56,1.28-.52.58.04,58.46,2.92,68.91.07.71-.19,1.43.11,1.82.71,9.68-6.73,40.66-42.11,46.76-49.12-.11-.09-.19-.2-.28-.3l-37.89-54.62Zm-90.74-2.47l-26.07-82.08c-.15.07-.32.09-.5.09-.15,0-.3-.02-.45-.07l-57.59-16.74c-.24-.07-.45-.2-.63-.39-11.41,12.79-26.72,50.88-29.86,58.87.56.22,1,.71,1.04,1.36.02.26,2.14,26.8,16.15,63.05.22.54.11,1.13-.24,1.56,17.8,13.57,50.83,25.85,58.24,28.49.04-.15.13-.28.22-.41l38.88-53.15c.2-.28.48-.48.8-.58Zm189.61,23.84c8.62-14.35,17.93-62.48,18.01-62.98.11-.58.54-1.04,1.08-1.23-5.98-17.97-26.59-50.99-31.11-58.11-.13.07-.28.13-.43.17l-57.59,16.26c-.15.04-.3.07-.43.07-.17,0-.35-.02-.5-.09l-26.09,82.08c.32.09.63.3.84.61l37.91,54.65c.09.13.15.26.19.41,17.26-6,50.96-25.87,58.13-30.16-.32-.48-.35-1.13-.02-1.67Zm-108.45,85.11c-3.77,1.02-12.95,1.36-23.47,1.36-20.03,0-44.88-1.23-46.44-1.32-.52-.02-.97-.28-1.23-.67l-19.27,14.2c17.51,5.8,36.26,8.94,55.73,8.94,19.46,0,38.19-3.14,55.71-8.94l-20.11-14.2c-.22.3-.54.52-.91.63Z"/>
    <path class="cls-13" d="m654.44,679.51c-.04-.65-.48-1.15-1.04-1.36-.39.97-.58,1.49-.58,1.49l-1.26-1c-.24.3-.37.69-.35,1.1.02.26,2.14,27.26,16.35,63.98.2.48.61.84,1.08.97l.43-1.56c.41.32.84.67,1.28.97.35-.43.45-1.02.24-1.56-14.01-36.24-16.13-62.79-16.15-63.05Zm43.95-121.5c.22.13.48.17.71.17.41,0,.84-.15,1.15-.48.19-.19,17.97-18.25,51.27-35.14.54-.28.87-.8.89-1.39-1.06-.07-1.62-.07-1.62-.07l.71-1.41c-.43-.26-.97-.26-1.45-.02-33.82,17.15-51.94,35.57-52.11,35.74-.35.37-.5.84-.43,1.3l1.6-.17c-.24.45-.48.95-.71,1.45Zm116.59,26.61l1.34.93c.17-.26.28-.58.28-.93v-55.12c0-.11-.02-.22-.04-.32-1.02.22-1.58.32-1.58.32-.54-.11-1.08-.24-1.6-.32,0,.11-.02.22-.02.32v55.12c0,.35.11.65.28.91l1.34-.91Zm-73.05,51.85c.17,0,.35-.02.5-.09l-.5-1.54,1.32-.91c-.19-.3-.5-.54-.87-.65l-57.61-16.76c-.07-.02-.13-.04-.19-.02-.15,1.04-.24,1.6-.24,1.6-.37.37-.74.76-1.08,1.17.17.19.39.32.63.39l57.59,16.74c.15.04.3.07.45.07Zm135.59-113.9c.35.17,33.9,17.82,53.52,35.22.32.26.69.39,1.08.39.15,0,.3-.02.45-.09-.28-1-.45-1.54-.45-1.54l1.6.17c.07-.5-.11-1.02-.52-1.39-19.92-17.64-53.84-35.48-54.17-35.66-.48-.24-1-.24-1.43-.02l.67,1.45c-.52-.02-1.06-.04-1.62-.04-.02.61.3,1.19.87,1.49Zm101.45,156.05l-1.28,1.02c-.15-.5-.32-1.02-.5-1.56-.54.2-.97.65-1.08,1.23-.09.5-9.4,48.63-18.01,62.98-.32.54-.3,1.19.02,1.67.89-.54,1.36-.82,1.36-.82l.5,1.54c.37-.11.69-.35.91-.71,8.9-14.85,18.01-62.03,18.4-64.02.09-.5-.04-.95-.32-1.32Zm-33.8-61.66c-.13,0-.26.02-.39.06l-57.61,16.24c-.39.11-.69.35-.89.65l1.34.93-.5,1.54c.15.07.32.09.5.09.13,0,.28-.02.43-.07l57.59-16.26c.15-.04.3-.11.43-.17-.56-.91-.87-1.39-.87-1.39,0-.52,0-1.06-.04-1.62Zm-83.29,102.1c-.22-.3-.52-.52-.84-.61l-.5,1.54h-1.62c0,.32.11.65.3.93l37.89,54.62c.09.11.17.22.28.3.69-.78,1.06-1.21,1.06-1.21.5-.15,1-.32,1.54-.52-.04-.15-.11-.28-.19-.41l-37.91-54.65Zm-13.08,105.2c-10.46,2.86-68.33-.02-68.91-.07-.54-.04-1,.17-1.28.52.78.71,1.19,1.1,1.19,1.1l-1.3.95c.26.39.71.65,1.23.67,1.56.09,26.41,1.32,46.44,1.32,10.52,0,19.7-.35,23.47-1.36.37-.11.69-.32.91-.63l-1.34-.95c.39-.19.87-.48,1.41-.84-.39-.61-1.1-.91-1.82-.71Zm-80.32-105.8c-.32.11-.61.3-.8.58l-38.88,53.15c-.09.13-.17.26-.22.41.97.37,1.52.54,1.52.54.28.43.56.89.89,1.36.17-.09.3-.24.43-.39l38.88-53.17c.22-.28.3-.63.3-.95h-1.62l-.5-1.54Z"/>
    <path class="cls-19" d="m813.37,529.17c.15-.74.8-1.3,1.6-1.3s1.43.56,1.58,1.3c7.82-1.58,42.8-8.47,60.1-8.1.56,0,1.1.02,1.62.04l-.67-1.45-7.36-16.09c-17.38-5.72-35.98-8.79-55.27-8.79s-37.89,3.07-55.27,8.79l-8.21,16.13-.71,1.41s.56,0,1.62.07c6.3.22,30.25,1.52,60.97,7.99Zm-44.88,189.29l.5,1.54h91.56s.5-1.54.5-1.54l26.09-82.08.5-1.54-1.34-.93-69.97-48.37-1.34-.93-1.34.91-70.38,48.41-1.32.91.5,1.54,26.07,82.08Zm46.48-190.59c-.8,0-1.45.56-1.6,1.3.52.09,1.06.22,1.6.32,0,0,.56-.11,1.58-.32-.15-.74-.8-1.3-1.58-1.3Zm136.22,30.61l-17.47-1.75-1.6-.17s.17.54.45,1.54c2.23,7.6,11.99,41.63,12.6,58.87.04.56.04,1.1.04,1.62,0,0,.3.48.87,1.39,4.52,7.12,25.14,40.14,31.11,58.11.17.54.35,1.06.5,1.56l1.28-1.02,13.49-10.8c-1.04-41.57-16.37-79.59-41.26-109.33Zm-266.86,59.62s.09-.56.24-1.6c1.17-7.9,6.71-43.15,13.81-58.5.24-.5.48-1,.71-1.45l-1.6.17-18.94,1.99h-.02c-24.68,29.6-39.9,67.35-41.03,108.64l14.05,11.28,1.26,1s.19-.52.58-1.49c3.14-7.99,18.45-46.07,29.86-58.87.35-.41.71-.8,1.08-1.17Zm275.15,125.03s-.48.28-1.36.82c-7.17,4.29-40.88,24.16-58.13,30.16-.54.19-1.04.37-1.54.52,0,0-.37.43-1.06,1.21-6.11,7.01-37.09,42.39-46.76,49.12-.54.37-1.02.65-1.41.84l1.34.95,20.11,14.2c40.27-13.27,74.13-40.57,95.87-76.1l-6.56-20.2-.5-1.54Zm-228.49,31.37c-.32-.48-.61-.93-.89-1.36,0,0-.54-.17-1.52-.54-7.4-2.64-40.44-14.92-58.24-28.49-.43-.3-.87-.65-1.28-.97l-.43,1.56-5.48,19.79c21.71,35.72,55.68,63.17,96.08,76.49l19.27-14.2,1.3-.95s-.41-.39-1.19-1.1c-6.45-5.95-37.35-34.79-47.63-50.21Z"/>
  </g>
  <g>
    <g>
      <path class="cls-20" d="m1020.31,948.73c48.83,34.14,88.61,80.35,114.98,134.35l14.15-102.3,88.92,11.03c-27.9-47.6-63.69-89.98-105.51-125.44l-112.53,82.36Z"/>
      <path class="cls-18" d="m491.52,983.38l12.44,98.98c24.49-49.86,60.44-93.03,104.37-126.17l-101.84-90.19c-41.81,35.37-77.62,77.64-105.55,125.12l90.58-7.74Z"/>
    </g>
    <polygon class="cls-16" points="1111.38 959.26 1132.83 866.37 1020.31 948.73 1111.38 959.26"/>
    <polygon class="cls-17" points="528.05 958.68 506.5 866 608.34 956.19 528.05 958.68"/>
    <path class="cls-5" d="m819.44,833.79c-114.62,0-217.99,47.98-291.39,124.89l101.06,89.5c48.6-49,115.92-79.35,190.33-79.35s142.23,30.59,190.87,79.92l101.07-89.5c-73.43-77.24-177.02-125.46-291.93-125.46Z"/>
  </g>
  <g>
    <g>
      <polygon class="cls-2" points="590.95 634.18 599.53 651.58 618.74 654.37 604.84 667.91 608.12 687.04 590.95 678.01 573.77 687.04 577.05 667.91 563.15 654.37 582.36 651.58 590.95 634.18"/>
      <polygon class="cls-3" points="608.67 562.77 615.27 576.14 630.03 578.29 619.35 588.7 621.87 603.4 608.67 596.46 595.46 603.4 597.98 588.7 587.3 578.29 602.06 576.14 608.67 562.77"/>
      <polygon class="cls-4" points="608.67 727.05 615.27 740.43 630.03 742.57 619.35 752.98 621.87 767.68 608.67 760.74 595.46 767.68 597.98 752.98 587.3 742.57 602.06 740.42 608.67 727.05"/>
      <polygon class="cls-11" points="645.19 518.14 649.33 526.52 658.58 527.87 651.89 534.39 653.47 543.61 645.19 539.26 636.92 543.61 638.5 534.39 631.8 527.87 641.06 526.52 645.19 518.14"/>
      <polygon class="cls-9" points="645.19 804.18 649.33 812.57 658.58 813.91 651.89 820.44 653.47 829.65 645.19 825.3 636.92 829.65 638.5 820.44 631.8 813.91 641.06 812.57 645.19 804.18"/>
    </g>
    <g>
      <polygon class="cls-7" points="1039.01 634.18 1030.42 651.58 1011.22 654.37 1025.11 667.91 1021.83 687.04 1039.01 678.01 1056.18 687.04 1052.9 667.91 1066.8 654.37 1047.6 651.58 1039.01 634.18"/>
      <polygon class="cls-6" points="1021.29 562.77 1014.69 576.14 999.92 578.29 1010.61 588.7 1008.08 603.4 1021.29 596.46 1034.49 603.4 1031.97 588.7 1042.65 578.29 1027.89 576.14 1021.29 562.77"/>
      <polygon class="cls-10" points="1021.29 727.05 1014.69 740.43 999.92 742.57 1010.61 752.98 1008.08 767.68 1021.29 760.74 1034.49 767.68 1031.97 752.98 1042.65 742.57 1027.89 740.42 1021.29 727.05"/>
      <polygon class="cls-8" points="984.76 518.14 980.62 526.52 971.37 527.87 978.07 534.39 976.48 543.61 984.76 539.26 993.04 543.61 991.46 534.39 998.15 527.87 988.9 526.52 984.76 518.14"/>
      <polygon class="cls-12" points="984.76 804.18 980.62 812.57 971.37 813.91 978.07 820.44 976.48 829.65 984.76 825.3 993.04 829.65 991.46 820.44 998.15 813.91 988.9 812.57 984.76 804.18"/>
    </g>
  </g>
  <text class="cls-22" transform="translate(583.65 529.85) rotate(-33.58)"><tspan x="0" y="0">J</tspan></text>
  <text class="cls-22" transform="translate(606.83 514.48) rotate(-29.78)"><tspan x="0" y="0">E</tspan></text>
  <text class="cls-22" transform="translate(636.61 497.6) rotate(-25.31)"><tspan x="0" y="0">Y</tspan></text>
  <text class="cls-22" transform="translate(667.41 483.46) rotate(-21.8)"><tspan x="0" y="0"> </tspan></text>
  <text class="cls-22" transform="translate(682.58 477.16) rotate(-17.93)"><tspan x="0" y="0">C</tspan></text>
  <text class="cls-22" transform="translate(717.41 465.94) rotate(-11.98)"><tspan x="0" y="0">O</tspan></text>
  <text class="cls-22" transform="translate(758.37 457.71) rotate(-6.33)"><tspan x="0" y="0">L</tspan></text>
  <text class="cls-22" transform="translate(789.12 454.47) rotate(-1.48)"><tspan x="0" y="0">L</tspan></text>
  <text class="cls-22" transform="translate(820 453.77) rotate(3.54)"><tspan x="0" y="0">E</tspan></text>
  <text class="cls-22" transform="translate(854.07 456.01) rotate(8.84)"><tspan x="0" y="0">C</tspan></text>
  <text class="cls-22" transform="translate(890.28 461.94) rotate(13.66)"><tspan x="0" y="0">T</tspan></text>
  <text class="cls-22" transform="translate(920.56 469.62) rotate(17.02)"><tspan x="0" y="0">I</tspan></text>
  <text class="cls-22" transform="translate(938.21 474.76) rotate(20.88)"><tspan x="0" y="0">O</tspan></text>
  <text class="cls-22" transform="translate(977.27 489.9) rotate(25.74)"><tspan x="0" y="0">N</tspan></text>
  <text class="cls-22" transform="translate(1013.68 507.76) rotate(29.74)"><tspan x="0" y="0">Z</tspan></text>
  <text class="cls-23" transform="translate(781.59 1009.08)"><tspan x="0" y="0">SINCE</tspan></text>
  <path class="cls-21" d="m812.62,1021.92c-2.31-1.4-4.93-2.1-7.87-2.1s-5.6.7-7.89,2.1c-2.29,1.4-4.1,3.46-5.42,6.16-1.32,2.71-1.98,5.96-1.98,9.75s.66,7.04,1.98,9.75c1.32,2.71,3.12,4.76,5.42,6.16,2.29,1.4,4.92,2.1,7.89,2.1s5.56-.7,7.87-2.1c2.31-1.4,4.12-3.46,5.42-6.16,1.3-2.7,1.95-5.96,1.95-9.75s-.65-7.04-1.95-9.75c-1.3-2.7-3.11-4.76-5.42-6.16Zm-3.17,21.73c-.46,1.47-1.1,2.53-1.91,3.19-.81.66-1.74.99-2.8.99s-1.99-.33-2.8-.99c-.81-.66-1.45-1.72-1.93-3.19-.48-1.47-.72-3.41-.72-5.81s.24-4.39.72-5.84c.48-1.45,1.12-2.51,1.93-3.17.81-.66,1.74-.99,2.8-.99s1.99.33,2.8.99,1.44,1.72,1.91,3.17c.46,1.45.69,3.4.69,5.84s-.23,4.35-.69,5.81Zm-29.69-2.3c1.65-1.52,2.9-2.9,3.74-4.13.84-1.24,1.41-2.42,1.71-3.54.3-1.12.45-2.23.45-3.32,0-2.18-.57-4.04-1.71-5.59-1.14-1.55-2.71-2.76-4.73-3.64-2.01-.87-4.36-1.31-7.03-1.31-3.4,0-6.32.66-8.76,1.98-2.44,1.32-4.29,3.07-5.54,5.25l7.27,4.01c.69-1.09,1.58-1.91,2.65-2.47,1.07-.56,2.23-.84,3.49-.84,1.49,0,2.6.31,3.34.94s1.11,1.48,1.11,2.57c0,.5-.07,1.01-.22,1.53-.15.53-.44,1.13-.87,1.81-.43.68-1.12,1.44-2.08,2.3l-12.92,12.08v6.19h26.97v-7.77h-13.39l6.51-6.04Zm63.59,0c1.65-1.52,2.89-2.9,3.74-4.13.84-1.24,1.41-2.42,1.71-3.54.3-1.12.45-2.23.45-3.32,0-2.18-.57-4.04-1.71-5.59-1.14-1.55-2.71-2.76-4.73-3.64-2.01-.87-4.35-1.31-7.03-1.31-3.4,0-6.32.66-8.76,1.98-2.44,1.32-4.29,3.07-5.54,5.25l7.28,4.01c.69-1.09,1.58-1.91,2.65-2.47,1.07-.56,2.23-.84,3.49-.84,1.48,0,2.6.31,3.34.94.74.63,1.11,1.48,1.11,2.57,0,.5-.07,1.01-.22,1.53-.15.53-.44,1.13-.87,1.81-.43.68-1.12,1.44-2.08,2.3l-12.92,12.08v6.19h26.97v-7.77h-13.39l6.51-6.04Zm35.48-2.82c-.96-1.65-2.47-2.96-4.55-3.93-2.08-.97-4.83-1.46-8.26-1.46h-2.31l.42-5h13.97v-7.62h-22.07l-1.73,20.24h9.4c1.75,0,3.12.15,4.11.45s1.67.71,2.05,1.24c.38.53.57,1.14.57,1.83,0,1.19-.51,2.1-1.53,2.72-1.02.63-2.38.94-4.06.94s-3.26-.25-4.92-.74-3.19-1.19-4.58-2.08l-3.61,7.33c1.78,1.12,3.87,1.97,6.26,2.55,2.39.58,4.81.87,7.25.87,3.46,0,6.3-.56,8.51-1.68,2.21-1.12,3.85-2.58,4.92-4.38,1.07-1.8,1.61-3.7,1.61-5.72s-.48-3.89-1.44-5.54Z"/>
  <path class="cls-21" d="m1012.37,934.24l-9.36,15.78-16.14-9.58,9.36-15.78-11.88-7.05-24.92,42,11.88,7.05,9.72-16.38,16.14,9.58-9.72,16.38,11.88,7.05,24.92-42-11.88-7.05Zm-346.06-26.3l1.11,53.37,12.77-5.96-.57-10.28,18.72-8.73,7.52,7.04,13.02-6.08-40.25-35.11-12.33,5.75Zm12.72,26.24l-.92-16.8,12.28,11.5-11.36,5.3Zm242.33-28.83c-.53-3.32-1.67-6.39-3.42-9.22-1.75-2.83-4.05-5.27-6.92-7.34s-6.18-3.61-9.96-4.62c-3.77-1.01-7.42-1.34-10.93-.98-3.51.36-6.74,1.34-9.67,2.94-2.93,1.6-5.46,3.7-7.58,6.31-2.12,2.61-3.65,5.67-4.59,9.17-.95,3.55-1.16,7-.64,10.34.52,3.34,1.66,6.44,3.4,9.29,1.74,2.85,4.05,5.31,6.94,7.38,2.89,2.07,6.2,3.61,9.92,4.61,3.77,1.01,7.42,1.34,10.93.98,3.51-.36,6.75-1.32,9.69-2.89,2.95-1.57,5.47-3.67,7.58-6.31,2.1-2.64,3.63-5.75,4.6-9.35.95-3.55,1.16-6.98.63-10.3Zm-14.12,6.76c-.55,2.07-1.38,3.83-2.46,5.3-1.09,1.47-2.37,2.64-3.83,3.52-1.46.88-3.06,1.43-4.77,1.65-1.72.21-3.48.08-5.27-.4-1.8-.48-3.39-1.24-4.77-2.29-1.38-1.04-2.5-2.32-3.35-3.82s-1.37-3.16-1.56-4.97c-.19-1.81,0-3.75.54-5.81.55-2.07,1.36-3.83,2.43-5.31,1.07-1.47,2.34-2.65,3.83-3.52,1.49-.88,3.09-1.42,4.81-1.64,1.72-.21,3.48-.08,5.27.4,1.8.48,3.39,1.24,4.77,2.29,1.38,1.04,2.49,2.31,3.31,3.81.83,1.5,1.35,3.15,1.56,4.97.21,1.81.04,3.75-.51,5.82Zm-263.21,20.25c-3.94-1.71-8.17-2.24-12.68-1.59-4.51.65-8.98,2.47-13.4,5.48l-19.1,12.98,27.45,40.39,19.1-12.98c4.42-3.01,7.77-6.49,10.03-10.44,2.26-3.95,3.32-8.09,3.17-12.4-.15-4.31-1.63-8.55-4.46-12.7-2.8-4.12-6.17-7.03-10.11-8.73Zm-.22,30.09c-1.11,2.05-2.84,3.87-5.18,5.46l-7.1,4.82-15.06-22.16,7.1-4.82c2.35-1.59,4.68-2.53,6.99-2.81,2.31-.28,4.51.07,6.58,1.05,2.07.98,3.91,2.65,5.5,4.99,1.54,2.27,2.4,4.57,2.58,6.89s-.29,4.51-1.4,6.56Zm318.25-25.08c-.26-1.96-.94-3.76-2.04-5.38-1.1-1.62-2.42-3.11-3.96-4.46-1.54-1.35-3.13-2.62-4.78-3.79-1.65-1.17-3.14-2.27-4.47-3.28-1.34-1.01-2.35-2.01-3.03-2.99-.69-.98-.81-1.99-.36-3.01.3-.68.81-1.22,1.54-1.61.73-.39,1.71-.55,2.94-.47,1.23.08,2.72.5,4.47,1.26,1.96.85,3.87,2.01,5.71,3.48,1.85,1.46,3.58,3.26,5.19,5.38l7.9-7.67c-1.6-2.27-3.67-4.35-6.22-6.25-2.55-1.9-5.29-3.48-8.24-4.76-4.39-1.91-8.35-2.85-11.87-2.81-3.52.04-6.48.83-8.87,2.38-2.4,1.54-4.17,3.64-5.32,6.28-1.04,2.39-1.45,4.57-1.21,6.55.23,1.98.88,3.78,1.94,5.41,1.07,1.63,2.39,3.14,3.96,4.54,1.57,1.4,3.17,2.66,4.78,3.79,1.61,1.13,3.09,2.23,4.42,3.29,1.34,1.06,2.35,2.09,3.04,3.07.69.98.82,1.97.39,2.95-.33.77-.87,1.32-1.6,1.66-.73.34-1.69.43-2.86.28-1.18-.16-2.66-.62-4.45-1.4-2.6-1.13-5.03-2.69-7.29-4.66-2.26-1.97-4.12-4.04-5.56-6.19l-8.25,7.59c1.48,2.32,3.71,4.67,6.7,7.06,2.99,2.39,6.34,4.4,10.05,6.01,4.43,1.93,8.41,2.87,11.93,2.83,3.52-.04,6.49-.84,8.92-2.4,2.43-1.56,4.21-3.63,5.34-6.24,1.02-2.34,1.4-4.5,1.14-6.47Zm-131.68-53.19l16.72,1.74-2.17,20.82c-.49,4.67-2.74,6.8-6.77,6.38-1.53-.16-2.94-.74-4.24-1.74-1.3-1-2.51-2.4-3.63-4.2l-8.43,8.17c1.7,2.52,3.93,4.54,6.7,6.06,2.76,1.53,5.9,2.47,9.42,2.84,6.11.64,10.92-.44,14.44-3.23,3.52-2.79,5.6-7.33,6.26-13.62l3.21-30.74-30.39-3.17-1.11,10.69Zm-27.25-10.85l1.56,25.96-23.01-24.67-11.35.68,2.93,48.75,13.44-.81-1.56-25.98,23.08,24.68,11.35-.68-2.93-48.75-13.51.81Zm-62.89,8.12l6.58,25.16-27.37-19.72-11,2.88,12.36,47.25,13.03-3.41-6.59-25.18,27.44,19.72,11-2.88-12.36-47.25-13.09,3.42Z"/>
</svg>