<?xml version="1.0" encoding="UTF-8"?>
<svg id="Layer_1" data-name="Layer 1" xmlns="http://www.w3.org/2000/svg" viewBox="0 0 1741.59 1389.89">
  <defs>
    <style>
      .cls-1 {
        fill: #542f21;
      }

      .cls-1, .cls-2 {
        stroke-width: 0px;
      }

      .cls-2 {
        fill: #fff;
      }
    </style>
  </defs>
  <path class="cls-1" d="m821.9,521.65c68.21,0,136.42.17,204.63-.21,8.54-.05,12.84,1.77,14.94,10.64,4.11,17.45,16.42,30.54,26.46,44.65,36.1,50.71,68.78,103.05,85.97,163.76,56.15,198.3-62.2,407.58-261.72,461.88-21.9,5.96-43.63,11.74-61.09,27.3-4.18,3.72-7.66,4.03-11.83-.08-15.2-14.99-34.62-21.1-54.68-26.34-138.09-36.02-227.91-123.94-269.75-258.87-31.01-99.99-14.7-196.58,34.27-288.19,17.94-33.57,40.69-63.97,62.39-95.07,4.69-6.72,11.03-13.26,11.23-21.53.4-16.99,9.73-18.26,23.78-18.11,65.13.69,130.27.31,195.4.31,0-.04,0-.09,0-.13Zm.7,27.03s0-.06,0-.09c-57.43,0-114.85-.05-172.28.07-6.36.01-12.4-.81-17.2,6.68-14.07,21.98-29.33,43.21-44.26,64.64-41.15,59.05-69.81,123.34-74.88,195.67-8.19,116.68,32.7,213.94,121.87,290.01,116.96,99.77,286.07,92.59,394.73-16.18,104.46-104.56,132.93-252.45,74.91-388.6-21.93-51.45-55.59-95.42-88.36-140.03-6.4-8.71-12.64-12.59-23.78-12.47-56.91.62-113.83.29-170.75.29Z"/>
  <path class="cls-1" d="m1040.66,373.19c-38.35,23.54-73.97,45.62-109.83,67.32-21.57,13.05-21.91,12.88-35.45-7.75-23.33-35.56-44.19-72.6-65.17-109.57-1.88-3.32-1.49-9.3-6.59-9.35-4.91-.05-5.21,5.65-7.11,9.01-23.74,41.91-48.21,83.36-75.01,123.42-4.88,7.29-7.66,9.36-16.37,3.81-38.36-24.46-77.25-48.07-117.5-77.82,9.46,30.27,17.16,56.53,25.99,82.41,4.15,12.15,2.93,15.55-11.41,16.98-18.28,1.81-24.43-4.18-28.02-21.3-6.62-31.54-16.2-62.46-23.95-93.78-2.13-8.6-4.73-12.79-15.02-12.64-18.48.28-30.82-12.32-33.65-31.32-2.8-18.77,7-35.99,23.8-41.79,18.59-6.43,38.17-.05,47.14,15.42,3.94,6.79,7.81,15.06,5.78,21.87-4.65,15.66,4.8,21.36,15.12,28.5,33.71,23.31,67.12,47.07,100.41,70.99,6.27,4.51,9.66,6.55,15.31-1.71,22-32.15,42.62-65.14,62.64-98.53,3.52-5.87,3.87-9.99-.29-16.35-11.04-16.9-7.37-39.78,6.88-51.69,14.24-11.9,35.22-12.39,49.8-1.16,15.38,11.84,19.59,32.59,8.39,51-5,8.21-3.78,13.83.65,20.8,20.07,31.56,40.18,63.1,59.78,94.96,4.19,6.81,6.99,8.09,13.96,3.22,36.98-25.81,74.14-51.38,111.68-76.36,8.44-5.61,10.75-11.31,9.96-21.27-1.59-19.99,9.55-35.51,26.44-40.03,18.85-5.04,35.45,1.04,43.99,16.11,13.71,24.2-1.76,55.59-29.25,57.39-9.72.64-13.49,4.31-15.75,12.75-9.15,34.1-18.64,68.1-27.94,102.16-2.6,9.54-31.64,17.77-38.23,10.35-3.59-4.04.44-8.58,1.86-12.71,1.66-4.83,3.85-9.49,5.39-14.36,6.93-21.87,13.71-43.79,21.56-68.96Z"/>
  <path class="cls-1" d="m973.47,448.02c14.36,1.05,25.8-.95,36.49-9.47.02,9.32-5,16.87-4.22,25.72.85,9.72-7.73,5.82-12.2,5.84-62.03.27-124.07.19-186.11.2-51.27,0-102.54.03-153.81-.01-11.84-.01-18.94-12.23-13.18-22.3,2.34-4.08,5.2-1.79,7.71-.72,6.39,2.72,12.66,1.79,20.62.48-13.39-18.7-40.64-23.72-44.17-50.96,32.33,21.77,63.39,42.86,96.68,60.59,14.67,7.81,21.29,3.2,29.94-8.37,27.08-36.23,48.77-75.66,72.1-117.32,15.55,27.13,30.27,52.94,45.15,78.66,3.19,5.51-2.21,5.78-4.42,7.74-10.74,9.49-22.1,18.33-32.36,28.3-6.13,5.96-9.52,4.57-14.91-.79-9.07-9-19.15-16.97-28.73-25.46-2.47-2.19-5.2-4.09-8.03-1.62-3.47,3.02-2.19,6.8.76,9.29,12.91,10.87,26,21.55,39.11,32.17,5.05,4.09,8.65-.26,12.15-2.83,15.25-11.22,30.51-22.44,43.01-37.1,8.55,9.48,14.17,20.46,19.93,31.24,5.75,10.76,12.79,12.64,23.68,7.08,31.55-16.09,60.94-35.71,90.82-54.52,4.27-2.69,8.36-5.68,13.74-9.35-1.77,32.05-34.58,32.49-49.74,53.54Zm-150.47-88.22c-8.16,13.89-15.64,27.16-23.71,40.05-2.94,4.7-3.3,8.03.92,11.92,7.13,6.57,14.1,13.32,20.93,20.2,3.52,3.54,5.21,2.08,8.29-1.03q24.65-24.88,4.82-54.05c-3.68-5.41-7.21-10.93-11.26-17.08Z"/>
  <path class="cls-1" d="m822.07,480.72c69.2,0,138.41-.18,207.61.3,6.17.04,17.53-6.72,17.5,8.88-.02,12-1.9,17.81-16.69,17.74-139.46-.62-278.93-.54-418.4.14-14.4.07-13.52-7.05-14.49-16.8-1.33-13.3,7.61-9.05,13.76-9.06,70.24-.12,140.47-.08,210.71-.08,0-.38,0-.76,0-1.13Z"/>
  <path class="cls-1" d="m1102.64,789.17c-12.31-82.15-57.6-146.67-106.14-210.02-3.8-4.96-8.29-6.53-14.49-6.5-53.32.22-106.65.12-159.97.12v.64c-41.53,0-83.14,1.61-124.55-.53-31.25-1.62-55.16,4.94-68.52,35.85-3.57,8.26-10.98,14.78-15.98,22.52-36.16,56.04-65.5,114.48-69.77,182.97-7.85,126.05,39.26,225.37,144.95,294.4,48.11,31.43,102.48,47.19,160.93,39.81,87.17-10.99,154.43-55.1,202.51-127.78,46.5-70.31,63.64-147.3,51.03-231.48Zm-91.3-102.21c.23-21.95.65-43.89,1.05-65.84.01-.88.71-1.74,2.78-6.49,16.37,30.45,44.24,52.06,44,87.93h-47.76c-.18-4.17-.13-9.29-.07-15.6Zm-104.55-5.9c.01-10.73,0-21.46,0-32.19h.3c0-19.42.23-38.85-.13-58.26-.13-7.12,2.01-10.68,9.49-9.76.5.06,1.02.02,1.53,0q41.07-1.74,41.15,39.85c.07,27.29-.05,54.58.46,81.86h-52.38c-.44-5.44-.43-12.45-.42-21.5Zm-112.57,320.91c.13,12.6,5.12,21.59,18.73,24.05,6.42,1.17,14.01,1.88,11.81,11.93-1.96,8.92-8.32,12.65-16.63,13.05-19.83.95-40.48-16.85-42.23-37.11-1.01-11.67-.19-23.51-.19-35.27h-.12c0-5.63-.03-11.25.01-16.88.19-30.67,16.59-47.08,47.76-48.18,20.77-.74,41.08.01,57.67,15.01,3.38,3.06,6.62,6.36,9.44,9.92,2.8,3.53,2.93,7.55.02,11.31-4.07,5.28-7.34.93-10.24-1.26-11.54-8.76-23.73-15.96-38.36-18.19-23.12-3.51-36.28,6.84-37.34,30.19-.63,13.79-.48,27.62-.33,41.43Zm56.51-205.23c-.39,33.73-.93,67.47-.71,101.21.07,10.16-1.74,15.43-13.38,12.69-5.37-1.27-11.19-.81-16.81-.82-20.15-.05-20.14,0-20.12-19.55.02-18.4,0-36.81,0-55.21h.06c0-20.6.33-41.2-.15-61.79h50.78c.54,5.68.45,13.33.33,23.47Zm-38.95-216.26c38.08-.76,38.05-1.07,38.22,36.35.13,28.58.12,57.16.6,85.73h-50.62c-.35-4.96-.31-11.31-.26-19.41.06-10.75.01-21.5.01-32.25h.05c0-19.46.51-38.93-.22-58.36-.36-9.69,3.06-11.87,12.22-12.06Zm-116.45.34c.51.04,1.03.02,1.54-.02q43.34-2.83,43.71,40.12c.21,27.22.04,54.43.44,81.64h-53.22c-.38-5.61-.27-12.84-.14-22.14.15-10.75.02-21.5.02-32.25h-.4c0-19.45.35-38.91-.19-58.35-.19-6.68,1.63-9.51,8.24-9Zm-101.52,95.34c9.95-20.83,23.9-39.14,39.32-60.64,3.11,30.95,3.28,59.1,3.36,87.04h-48.64c-.32-8.73,2-18.11,5.96-26.4Zm42.75,119.09c-.2,82-.26,164.01-.5,246.01-.01,4.33,1.7,9.19-3.5,14.29-22.29-27.26-46.47-51.25-44.97-91.58,2.33-62.95.64-126.06.11-189.09,0-.56,0-1.1.02-1.61h48.26c.63,5.2.6,12.32.58,21.98Zm212.5,324.89q-.07,24.11-24.66,23.17c-5.08-.2-10.15-.94-15.23-.92-7.06.02-10.05-3.12-9.84-10.2.26-9.15-2.62-19.4.62-27.2,4.11-9.92,16.08-1.51,23.94-4.9.45-.2.99-.2,1.49-.28q23.76-3.43,23.68,20.33Zm5.29-31.83c-36.11,15.9-75.72,8.23-101.5-19.73-3.33-3.61-6.43-7.42-12.24-14.15,0,21.88-.09,40.07.04,58.25.07,9.21-.31,14.25-12.57,9.04-40.24-17.09-40.46-16.53-40.53-59.77-.14-95.37.02-190.74-.82-286.11-.01-.91,0-1.76.04-2.57h52.96c.87,5.46.9,13.12.95,23.8.19,46.15.05,92.3.8,138.44.23,13.41-6.16,24.65-8.97,37.03-11.03,48.54,16.6,95.41,64.64,108.15,17.88,4.74,34.8,3.3,48.39-10.84,14.25-14.83,15.06-33.07,11.12-51.79-2.54-12.03-12.61-16.36-23.05-20.29-5.66-2.13-15.15-3.33-11.86-12.55,2.97-8.33,9.5-14.77,19.98-13.5,24.02,2.9,42.5,22.07,44.26,45.78,3.1,41.93-4.46,58.83-31.64,70.81Zm82.71,26.69c-9.12,3.06-17.82,7.38-29.52,12.31.51-26.98-3.54-51.22,5.59-75.39,7.04-18.62,5.69-38.55-1.39-57.32-4.09-10.84-5.48-21.79-5.44-33.12.2-62.59.65-125.17.41-187.76v-.45h51.79c.97,5.74.94,13.93.91,25.56-.21,93.88-.77,187.76.09,281.62.16,18.31-5.54,28.86-22.44,34.55Zm122.25-320.94c-.21,55.38-1.62,110.79-.21,166.13.71,27.81-5.53,51.36-24.52,71.67-6.92,7.4-12.94,15.66-19.38,23.52-1.35-.37-2.71-.74-4.07-1.11,0-8.61.02-17.22,0-25.83-.27-84.1-.29-168.19-1.1-252.28-.01-1.02,0-1.98.05-2.89h48.58c.7,4.82.68,11.51.65,20.79Z"/>
  <g>
    <path class="cls-2" d="m642.01,759.33h-9.52v-40.78h9.52v40.78Zm21.11,0h-10.6l-7.93-15.72c-.43-.94-.64-1.93-.64-2.99,0-1.33.47-2.34,1.42-3.03.95-.69,2.07-1.04,3.38-1.04.96,0,1.77.23,2.43.69.66.46,1.25,1.19,1.76,2.18l10.19,19.91Zm-9.4-24.04h-9.72l8.64-16.75h10.13l-9.05,16.75Z"/>
    <path class="cls-2" d="m676.29,759.33h-9.52v-40.78h9.52v40.78Z"/>
    <path class="cls-2" d="m692.19,759.33h-8.93v-35.42l8.93,17.39v18.03Zm1.55-40.78l17.68,35.13c.45,1,.67,1.84.67,2.55,0,1.33-.45,2.34-1.36,3.03-.91.69-2.02,1.04-3.32,1.04-1.76,0-3.09-.9-4.01-2.69l-19.85-39.06h10.19Zm9.95,0h8.87v32.15l-8.87-17.92v-14.23Z"/>
    <path class="cls-2" d="m718.86,743.76v-9.6c0-2.26.32-4.37.95-6.31.63-1.94,1.56-3.66,2.78-5.17,1.22-1.5,2.81-2.68,4.77-3.54,1.96-.86,4.18-1.29,6.66-1.29v8.7c-1.56,0-2.85.69-3.86,2.06-1.02,1.38-1.52,3.51-1.52,6.4v7.9c0,2.89.51,5.02,1.52,6.4,1.01,1.38,2.3,2.06,3.86,2.06v8.69c-2.48,0-4.7-.43-6.66-1.29-1.96-.86-3.55-2.04-4.77-3.54-1.22-1.5-2.15-3.23-2.78-5.17-.63-1.94-.95-4.04-.95-6.31Zm31.56-7.38v8.75c0,4.63-1.15,8.27-3.45,10.93-2.3,2.66-5.8,4-10.48,4v-8.69c1.42,0,2.59-.42,3.5-1.27.91-.85,1.36-2.1,1.36-3.76v-1.32h-5.45v-8.64h14.52Zm-1.2-11.33l-7.08,4.83c-1.02-2.23-2.9-3.34-5.65-3.34v-8.7c6.38,0,10.63,2.4,12.74,7.2Z"/>
    <path class="cls-2" d="m765.79,759.33h-9.52v-40.78h9.52v40.78Zm21.11,0h-10.6l-7.93-15.72c-.43-.94-.64-1.93-.64-2.99,0-1.33.47-2.34,1.42-3.03.95-.69,2.07-1.04,3.38-1.04.96,0,1.77.23,2.43.69.66.46,1.25,1.19,1.76,2.18l10.19,19.91Zm-9.4-24.04h-9.72l8.64-16.75h10.13l-9.05,16.75Z"/>
    <path class="cls-2" d="m801.33,742.68h5.42l1.79,8.37h-9.1l-1.93,8.29h-9.75l7.67-30.21h9.05l-3.13,13.56Zm11.42-24.12l9.87,40.78h-9.69l-7.32-32.38h-6.65c-1.5,0-2.66-.38-3.47-1.13-.81-.75-1.21-1.77-1.21-3.06s.41-2.31,1.23-3.07c.82-.76,1.97-1.14,3.45-1.14h13.79Z"/>
    <path class="cls-2" d="m836.34,759.33h-9.52v-40.78h9.52v40.78Z"/>
    <path class="cls-2" d="m850.08,730.97l-8.7-1.73c.18-3.24,1.38-5.95,3.6-8.12,2.23-2.18,5.1-3.26,8.64-3.26v8.52c-2.19.29-3.37,1.83-3.54,4.6Zm14.02,28.37h-21.52v-8.4h21.52c1.42,0,2.55.38,3.38,1.13.83.75,1.24,1.78,1.24,3.09s-.42,2.33-1.24,3.07-1.96,1.11-3.38,1.11Zm-8.81-10.54h-12.65c3.71-3.18,6.59-5.7,8.65-7.57,2.06-1.86,3.7-3.5,4.93-4.9s2.02-2.52,2.37-3.35c.35-.83.53-1.73.53-2.71,0-1.11-.28-2.02-.85-2.72-.57-.7-1.36-1.09-2.37-1.17v-8.52c3.75,0,6.77,1.13,9.08,3.38,2.3,2.25,3.45,5.04,3.45,8.36,0,1.25-.07,2.36-.22,3.34-.15.98-.45,1.97-.91,2.97-.46,1.01-.97,1.91-1.52,2.71-.56.8-1.39,1.78-2.5,2.93-1.11,1.15-2.24,2.24-3.38,3.25-1.14,1.02-2.68,2.35-4.61,4.01Z"/>
    <path class="cls-2" d="m884.77,751.37v8.69c-3.61,0-6.58-.94-8.9-2.81-2.32-1.87-3.63-4.38-3.92-7.52l9.1-2.28c0,1.09.35,2.02,1.05,2.78.7.76,1.59,1.14,2.66,1.14Zm10.07-24.42h-20.61v-8.4h20.61c1.46,0,2.61.38,3.44,1.14.83.76,1.24,1.79,1.24,3.07s-.42,2.28-1.24,3.04c-.83.76-1.98,1.14-3.44,1.14Zm-7.67,33.11v-8.69c1.15,0,2.06-.4,2.72-1.2.66-.8,1-1.88,1-3.25,0-1.68-.47-2.95-1.41-3.81-.94-.86-2.47-1.29-4.6-1.29h-10.66v-12.71h9.6v4.3h2.52c4.84,0,8.39,1.17,10.64,3.51,2.25,2.34,3.38,5.59,3.38,9.75s-1.18,7.26-3.53,9.71c-2.35,2.45-5.58,3.67-9.68,3.67Z"/>
    <path class="cls-2" d="m918.06,751.17v8.9c-4.24,0-7.6-1.11-10.1-3.34-2.5-2.23-3.75-5.21-3.75-8.96v-2.84c0-2.3.38-4.48,1.13-6.53.75-2.05,1.81-4.17,3.18-6.35l8.52-13.5h11.27l-11.04,18.01c-2.07,3.38-3.1,6.26-3.1,8.64v.82c0,1.48.32,2.71.97,3.69s1.62,1.46,2.93,1.46Zm2.34,8.9v-8.9c1.17,0,2.08-.49,2.74-1.48.65-.99.98-2.21.98-3.67v-1.55c0-1.42-.51-2.59-1.54-3.5-1.02-.91-2.47-1.36-4.35-1.36l4.48-7.44c3.18,0,5.81,1.11,7.88,3.32,2.07,2.21,3.1,5.15,3.1,8.8v3.48c0,3.49-1.24,6.42-3.72,8.77-2.48,2.35-5.67,3.53-9.57,3.53Z"/>
    <path class="cls-2" d="m953.22,751.43v8.64c-2.11,0-3.99-.3-5.65-.89-1.66-.59-3.03-1.41-4.11-2.43-1.08-1.02-1.98-2.26-2.69-3.7-.71-1.44-1.21-2.96-1.51-4.55s-.44-3.31-.44-5.17v-24.77h9.54v24.36c0,3.08.42,5.28,1.26,6.57.84,1.3,2.04,1.95,3.6,1.95Zm2.4,8.64v-8.64c1.56,0,2.76-.65,3.6-1.95.84-1.3,1.26-3.49,1.26-6.57v-24.36h9.52v24.77c0,2.32-.26,4.45-.78,6.38-.52,1.93-1.32,3.69-2.42,5.28-1.09,1.59-2.59,2.83-4.49,3.73s-4.13,1.35-6.69,1.35Z"/>
    <path class="cls-2" d="m975.85,743.76v-9.6c0-2.26.32-4.37.95-6.31.63-1.94,1.56-3.66,2.78-5.17,1.22-1.5,2.81-2.68,4.77-3.54,1.96-.86,4.18-1.29,6.66-1.29v8.7c-1.56,0-2.85.69-3.86,2.06-1.02,1.38-1.52,3.51-1.52,6.4v7.9c0,2.89.51,5.02,1.52,6.4,1.01,1.38,2.3,2.06,3.86,2.06v8.69c-2.48,0-4.7-.43-6.66-1.29-1.96-.86-3.55-2.04-4.77-3.54-1.22-1.5-2.15-3.23-2.78-5.17-.63-1.94-.95-4.04-.95-6.31Zm31.56-7.38v8.75c0,4.63-1.15,8.27-3.45,10.93-2.3,2.66-5.8,4-10.48,4v-8.69c1.42,0,2.59-.42,3.5-1.27.91-.85,1.36-2.1,1.36-3.76v-1.32h-5.45v-8.64h14.52Zm-1.2-11.33l-7.08,4.83c-1.02-2.23-2.9-3.34-5.65-3.34v-8.7c6.38,0,10.63,2.4,12.74,7.2Z"/>
  </g>
</svg>