<?xml version="1.0" encoding="utf-8"?>
<!-- Generator: Adobe Illustrator 27.9.0, SVG Export Plug-In . SVG Version: 6.00 Build 0)  -->
<svg version="1.1" id="Layer_1" xmlns="http://www.w3.org/2000/svg" xmlns:xlink="http://www.w3.org/1999/xlink" x="0px" y="0px"
	 viewBox="0 0 1741.6 1389.9" style="enable-background:new 0 0 1741.6 1389.9;" xml:space="preserve">
<style type="text/css">
	.st0{fill:#262262;}
	.st1{fill:#2B3990;}
	.st2{fill:#2E3192;}
	.st3{fill:#FFFFFF;}
</style>
<path class="st0" d="M1128.9,611.3c-3,80.1-3.5,152.5-15.7,223.9c-14.7,85.7-58.7,155.5-119.8,215.3
	c-60.2,58.9-128.9,106-203.1,145.4c-6.6,3.5-12.2,5.8-19.8,1.4c-97.3-55.3-188.6-118-258-208c-45.6-59.2-68.2-126.8-73.6-200.6
	c-6.9-93.1-10.3-186.3-10.5-279.7c0-11.5,2.2-17,15-15.4c60.5,7.6,113.4-16.4,166.4-40.3c51.7-23.3,106.3-36.9,161.9-47.2
	c10.6-2,20.5,0.7,30.4,2.8c66.9,14.2,132,34.2,193.4,64.8c36.2,18,74.6,20.7,113.9,19.7c23.7-0.6,19.4-1.2,19.6,19.6
	C1129,548.4,1128.9,583.8,1128.9,611.3L1128.9,611.3z M1108.2,620.8c0-28.7-0.3-57.5,0.2-86.2c0.2-11.2-1.9-16.6-15.1-15.6
	c-35.5,2.8-69.5-4.6-101.5-19.9c-47.3-22.6-96-41.4-146.7-54.6c-28-7.3-55.6-17.7-85.7-11.3c-65.5,13.9-128.6,34.3-189,63.3
	c-32.4,15.6-66.1,25.5-102.3,22.8c-15.4-1.1-18.5,4.7-18.4,19c1.2,82.1,6.2,163.9,12.9,245.7c6.4,78.5,32.7,148.4,83.8,208.8
	c63.3,74.7,143.6,127.7,225.8,178.4c5.8,3.6,10.4,2.8,15.6-0.3c73.8-43.8,145.4-90.2,204.2-154.1c53.9-58.4,91.6-124.4,101.8-204.3
	C1102,749,1102.7,684.8,1108.2,620.8L1108.2,620.8z"/>
<path class="st1" d="M1085.1,531.2c-32.2,0.3-63-6.9-92.2-20.7c-53.4-25.2-108.6-45.7-165.9-60.2c-21.3-5.4-42.2-11.1-65-6.5
	c-68.7,14-134.2,37.1-197.6,66.5c-28.7,13.3-58.6,21.8-90.5,20.5c-11.8-0.5-14.2,3.1-13.7,14.8c3.2,71.7,8.9,143.3,11.7,215
	c4.1,106.8,46.3,194.8,123.1,267.7c47.5,45,102.1,80.3,155.5,117.5c20,13.9,33.5,15.5,54.8,2c64.7-41.1,128.2-83.2,180-140.6
	c51.2-56.8,87.8-120.6,97.1-198.2c6.8-56.6,7.8-113.5,14.8-170.3c0-31.3-0.3-62.5,0.2-93.8C1097.6,535.6,1096,531.2,1085.1,531.2
	L1085.1,531.2z M845.9,960.9c-11.2,7.8-23.8,13.5-39.9,22.6c10-20.8,17.7-37.5,22.8-57.8c-34.4,33.8-77.1,38-119.6,42.5
	c-25.6,2.7-25.4,2.1-31.3-23.1c-4.7-19.8-2.8-39.8-2.9-59.7c-0.1-17.3,0-34.6,0-51.8c-1.7-1.4-3.5-2.8-5.2-4.2
	c-3.3,4.9-6.1,10.3-10,14.7c-6.7,7.6-10.9,4-11.4-4.2c-1.6-26.1-4.7-53.2,3-78c6.1-19.9,21.6-36.8,36.2-52.7
	c6.6-7.1,4.2-9.2-4.8-9.5c16.3-15,29.5-30.8,48-40.5c6-3.1,3.8-7.7,2.3-11.9c-6.1-16.5-14.6-31.9-25.6-45.3
	c-8.5-10.4-5-12.7,5.4-15.2c62-14.7,100.7-14.6,165.5,1.5c-11.1,20.1-25,36.9-31.4,57.7c42.9,8.5,63,39.9,76.9,77
	c4.1,11,5.8,22.8,8.6,34.2c0.7,2.9,1.9,6.6-2.2,7.7c-3.7,0.9-5-2.6-6.2-5.4c-5-12.3-9.9-24.7-14.8-37.1c-4.4-11-10.4-21.2-18.1-30.2
	c-5.5-6.3-11.6-12.1-21.1-8.7c-5.9,2-7.7-0.8-6.9-6c1.5-9.5-4.5-10.6-11.7-12c-35.2-6.8-69.4-8.3-98.8,17.5
	c-3.6,3.2-7.2,2.8-8.3-1.6c-3.5-14-9.7-7.2-16-2.7c-3.8,2.7-7.9,4.8-11.6,7.6c-4.5,3.5-10.7,7.2,0,11.1c7.1,2.6,6.3,6-0.1,8.8
	c-32.8,14.3-47.1,41.8-52.2,75.1c-1.6,10.5-0.2,21.4-0.2,32.1c0.7,0,1.8,0.4,2.5-0.1c6.2-3.9,10.5-14.7,18.6-10.1
	c6.4,3.6,5.4,13.8,5.2,21.4c-0.6,27.2-3.6,54.4-2,81.5c3.5,59.4-1.3,52.5,54.1,46.5c34.7-3.7,58.1-22.6,71.2-55.2
	c18.2-45.3,27-90.4,2.3-136.2c-0.2-0.5-0.5-0.9-0.8-1.3c-14.3-25.1-28.8-27.4-48.5-6.9c-5.9-34.2-23-3.3-38.9-7.7
	c23-18.2,30.2-47.2,55.5-61.1c22.5-12.4,44.8-7.8,62,12c2.6,3,5.8,4.1,9.3,4.9c30.2,6.8,44.5,29.8,54.5,55.6
	c11,28.5,16,58.3,12.7,89c-0.4,3.7,4.1,13.8-7.7,8.2c-2.8-1.3-2.1,2.6-2.1,4.2C911.7,906.5,881.8,935.8,845.9,960.9L845.9,960.9z
	 M753.4,784.2c4.4-14.5,13.4-21.4,27.3-22.8c10.2-1,17.6,2.2,22.1,14C784.9,774.2,768.5,777.1,753.4,784.2L753.4,784.2z"/>
<path class="st2" d="M762.3,606.3c8.6-2.8,20.2,2.1,24.8-10.8c1.3-3.7,5.4,0,7.3,1.7c10.2,9.1,19.8,17.8,34.1,5.8
	c3.7-3.1,12-3.2,15.9,0.9c4.6,4.7-1.7,9-3.8,13.2c-3.5,6.8-7.8,13.3-10.7,20.3c-3.1,7.8-9.1,7.3-15.2,6.6c-9.1-1.1-2.7-8-4.2-11.9
	c-2.2-5.6,8.6-15-2.5-16.2c-8.6-1-9,9.4-9.4,16.5c-0.3,6.4,0.2,12.2-9.1,12.7c-8.5,0.5-12.5-3-13.2-10.9
	C775.5,623.1,760.9,618.9,762.3,606.3L762.3,606.3z"/>
<path class="st2" d="M871.6,776.3c-16.3-14.2-29.8-28.6-38.8-47.4c-9.1-19.1-21.4-23.1-41.7-17.1c-4.8,1.4-9.6,2.8-15.4,4.6
	c15.5-19.2,44.9-22.1,61.7-7C861.1,730.4,871.8,751,871.6,776.3L871.6,776.3z"/>
<path class="st2" d="M766.8,641.7c1,3.6-0.5,5.8-4.3,6.2c-4.3,0.5-8.8,2.7-11.8-3.1c-4.5-9-9.6-17.8-14.2-26.8
	c-1.8-3.6-8.3-7.4-3-11.4c4.8-3.5,12.2-4.2,16.7,1.2C758.3,617.7,763.3,629.3,766.8,641.7L766.8,641.7z"/>
<path class="st2" d="M897.6,845c5,15.2,2.7,29.9-3.5,44.4C895.2,874.6,896.4,859.8,897.6,845z"/>
<g>
	<path class="st3" d="M539.7,802.4l-10-2c0.2-3.8,1.6-6.9,4.2-9.4c2.6-2.5,5.9-3.8,10-3.8v9.8C541.3,797.5,539.9,799.2,539.7,802.4
		L539.7,802.4z M555.9,835.2h-24.9v-9.7h24.9c1.7,0,3,0.4,3.9,1.3c1,0.9,1.4,2.1,1.4,3.6s-0.5,2.7-1.4,3.5S557.6,835.2,555.9,835.2
		L555.9,835.2z M545.8,823h-14.6c4.3-3.7,7.6-6.6,10-8.8c2.4-2.2,4.3-4,5.7-5.7s2.3-2.9,2.7-3.9c0.4-1,0.6-2,0.6-3.1
		c0-1.3-0.3-2.3-1-3.2c-0.7-0.8-1.6-1.3-2.7-1.3v-9.8c4.3,0,7.8,1.3,10.5,3.9s4,5.8,4,9.7c0,1.4-0.1,2.7-0.2,3.9s-0.5,2.3-1,3.4
		s-1.1,2.2-1.8,3.1c-0.6,0.9-1.6,2-2.9,3.4c-1.3,1.3-2.6,2.6-3.9,3.8C549.8,819.6,548,821.1,545.8,823L545.8,823z"/>
	<path class="st3" d="M579.8,826v10c-4.2,0-7.6-1.1-10.3-3.2c-2.7-2.2-4.2-5.1-4.5-8.7l10.5-2.6c0,1.3,0.4,2.3,1.2,3.2
		C577.6,825.6,578.6,826,579.8,826L579.8,826z M591.5,797.8h-23.8v-9.7h23.8c1.7,0,3,0.4,4,1.3c1,0.9,1.4,2.1,1.4,3.5
		s-0.5,2.6-1.4,3.5S593.2,797.8,591.5,797.8L591.5,797.8z M582.6,836.1v-10c1.3,0,2.4-0.5,3.2-1.4c0.8-0.9,1.2-2.2,1.2-3.8
		c0-1.9-0.5-3.4-1.6-4.4c-1.1-1-2.9-1.5-5.3-1.5h-12.3v-14.7h11.1v5h2.9c5.6,0,9.7,1.3,12.3,4.1s3.9,6.5,3.9,11.3s-1.4,8.4-4.1,11.2
		C591.1,834.7,587.4,836.1,582.6,836.1L582.6,836.1z"/>
</g>
<g>
	<path class="st3" d="M980.8,803.3l-10-2c0.2-3.8,1.6-6.9,4.2-9.4c2.6-2.5,5.9-3.8,10-3.8v9.8C982.4,798.3,981,800.1,980.8,803.3
		L980.8,803.3z M997,836.1h-24.9v-9.7H997c1.7,0,3,0.4,3.9,1.3c1,0.9,1.4,2.1,1.4,3.6s-0.5,2.7-1.4,3.5S998.7,836.1,997,836.1
		L997,836.1z M986.8,823.9h-14.6c4.3-3.7,7.6-6.6,10-8.8c2.4-2.2,4.3-4,5.7-5.7s2.3-2.9,2.7-3.9c0.4-1,0.6-2,0.6-3.1
		c0-1.3-0.3-2.3-1-3.2c-0.7-0.8-1.6-1.3-2.7-1.3v-9.8c4.3,0,7.8,1.3,10.5,3.9s4,5.8,4,9.7c0,1.4-0.1,2.7-0.2,3.9s-0.5,2.3-1,3.4
		s-1.1,2.2-1.8,3.1c-0.6,0.9-1.6,2-2.9,3.4c-1.3,1.3-2.6,2.6-3.9,3.8C990.8,820.4,989.1,822,986.8,823.9L986.8,823.9z"/>
	<path class="st3" d="M1020.9,826.9v10c-4.2,0-7.6-1.1-10.3-3.2c-2.7-2.2-4.2-5.1-4.5-8.7l10.5-2.6c0,1.3,0.4,2.3,1.2,3.2
		C1018.6,826.4,1019.7,826.9,1020.9,826.9L1020.9,826.9z M1032.6,798.7h-23.8v-9.7h23.8c1.7,0,3,0.4,4,1.3s1.4,2.1,1.4,3.5
		s-0.5,2.6-1.4,3.5S1034.2,798.6,1032.6,798.7L1032.6,798.7z M1023.7,836.9v-10c1.3,0,2.4-0.5,3.2-1.4c0.8-0.9,1.2-2.2,1.2-3.8
		c0-1.9-0.5-3.4-1.6-4.4c-1.1-1-2.9-1.5-5.3-1.5h-12.3v-14.7h11.1v5h2.9c5.6,0,9.7,1.3,12.3,4.1s3.9,6.5,3.9,11.3s-1.4,8.4-4.1,11.2
		C1032.2,835.5,1028.4,836.9,1023.7,836.9L1023.7,836.9z"/>
</g>
<g>
	<path class="st3" d="M778.3,1046.5h-25v-9.7h25c1.7,0,3,0.4,3.9,1.3s1.4,2.1,1.4,3.6s-0.5,2.7-1.4,3.5S780,1046.5,778.3,1046.5
		L778.3,1046.5z M764.3,1083.9h-11V1049h11V1083.9z M780.9,1065.4H767v-9.7h13.9V1065.4z"/>
	<path class="st3" d="M792.7,1083.9h-11.4v-11.1h11.4V1083.9z"/>
	<path class="st3" d="M816.9,1074.8v10.1c-2.9,0-5.5-0.5-7.8-1.5s-4.1-2.4-5.5-4.1c-1.4-1.7-2.5-3.7-3.2-6c-0.7-2.2-1.1-4.7-1.1-7.3
		v-11.1c0-2.6,0.4-5.1,1.1-7.3c0.7-2.2,1.8-4.2,3.2-6c1.4-1.7,3.2-3.1,5.5-4.1c2.3-1,4.9-1.5,7.8-1.5v10.1c-1.9,0-3.5,0.8-4.6,2.3
		s-1.7,4.1-1.7,7.4v9.1c0,3.4,0.6,5.9,1.7,7.4C813.4,1074,814.9,1074.7,816.9,1074.8L816.9,1074.8z M833.4,1044.2l-7.8,5.4
		c-1.1-2.4-3.1-3.6-6-3.6V1036c3.6,0,6.6,0.7,8.9,2.1S832.5,1041.6,833.4,1044.2L833.4,1044.2z M819.7,1084.8v-10.1
		c1.6,0,2.9-0.3,3.9-0.8c1-0.6,1.7-1.4,2.3-2.6l7.6,6.3C830.8,1082.4,826.2,1084.8,819.7,1084.8L819.7,1084.8z"/>
</g>
<g>
	<g>
		<path class="st3" d="M636.7,608c-4.4,3.8-8.7,7.8-12.9,12c-13.7-13.7-27.3-27.3-41-41c12,1.6,23.7,3.9,34.9,6.9
			C624.1,593.3,630.4,600.6,636.7,608z M639.2,582.9c-1.5,1.2-3,1.9-4.4,2.2c-1.4,0.3-3,0.1-4.7-0.5c-16.8-5.6-34.6-9.7-53.2-12
			c5.8-5.8,11.9-11.4,18-16.6c15.6,3.3,30.6,7.8,44.7,13.4c1.3,0.5,2.4,1.5,3.3,2.8c1.1,1.7,1.3,3.5,0.6,5.5
			C642.6,579.6,641.2,581.3,639.2,582.9z M644.7,521.5c-2.1,14.8-3.2,29.5-3.2,44c-5.7-2.4-11.5-4.5-17.5-6.5
			c-0.4-8.2-0.4-16.4-0.2-24.8C630.7,529.6,637.6,525.4,644.7,521.5z M677.1,579.9c-4.9,2.7-9.8,5.7-14.6,8.8
			c-5.4-8.3-10.7-16.5-16.1-24.8c0.1-11.6,0.9-23.4,2.4-35.3C658.2,545.7,667.6,562.8,677.1,579.9z"/>
		<path class="st3" d="M704.3,567.1c-5.4,2.1-10.6,4.4-15.9,7c-9.7-20-19.4-40.1-29-60.1c6.7-3.2,13.5-6.2,20.3-8.9
			C687.9,525.7,696.1,546.4,704.3,567.1z"/>
		<path class="st3" d="M728.3,541.2c-5.9,1.5-11.8,3.3-17.7,5.2c-5.3-15.6-10.5-31.3-15.8-46.9c7-2.3,14-4.4,21.1-6.2
			C720.1,509.2,724.2,525.2,728.3,541.2z M751.5,553.9c-11.9,2-23.8,5-35.3,8.9c-1.5-4.3-2.9-8.7-4.4-13c12.2-4.1,24.8-7.2,37.4-9.4
			c2.7-0.5,5-0.2,6.7,0.8c1.7,1,2.7,2.6,2.9,4.7c0.3,2.1-0.2,3.8-1.5,5.3C756,552.5,754.1,553.4,751.5,553.9z"/>
		<path class="st3" d="M786,523.3c3.6-0.1,7.2-0.1,10.8,0c1.1,4.6,2.1,9.2,3.1,13.8c-5.7-0.2-11.5-0.2-17.2,0c-1.1,4.6-2,9.1-3,13.7
			c-5.8,0.3-11.6,0.8-17.4,1.5c2.5-16.9,6-33.8,10.4-50.7c6.5-0.4,13-0.6,19.5-0.6C790,508.4,787.9,515.8,786,523.3z M811.3,484.3
			c6.1,22.7,10.5,45.6,13.3,68.4c-5.7-0.8-11.5-1.4-17.3-1.8c-3.2-17.9-7.4-35.8-12.5-53.5c-4.8-0.1-9.7,0-14.5,0.2
			c-3.3,0.1-5.8-0.3-7.7-1.4c-1.9-1.1-2.9-2.7-3-4.8c-0.2-2.1,0.6-3.8,2.4-5.2c1.8-1.4,4.4-2.1,7.8-2.3
			C790.2,483.5,800.8,483.7,811.3,484.3z M768.6,466.6c6.2-0.4,12.5-0.7,18.7-0.8c0.1,3.9,0.1,7.8,0.2,11.6
			c-6,0.1-12.1,0.3-18.1,0.8C769.2,474.3,768.9,470.5,768.6,466.6z M801.1,465.9c6.3,0.2,12.5,0.5,18.7,1.1c-0.3,3.9-0.7,7.7-1,11.6
			c-6-0.5-12-0.9-18.1-1C800.9,473.7,801,469.8,801.1,465.9z"/>
		<path class="st3" d="M847.8,557.1c-5.2-1.3-10.4-2.3-15.7-3.2c3.3-19.1,6.6-38.1,9.9-57.2c4.9,10.5,9.2,21.1,12.8,31.7
			C852.4,538,850.1,547.6,847.8,557.1z M867,493.1c8.4,21.9,14.2,44.1,17.3,66.1c0.2,1.8,0,3.3-0.4,4.3c-0.8,2-2.2,3.2-4.2,3.7
			c-2,0.4-4,0.3-6.2-0.6c-3-1.1-4.7-3.3-5.4-6.6c-4.7-24.1-12.7-48.2-24-71.8C851.8,489.5,859.4,491.2,867,493.1z M889.1,499.6
			c6.5,2.2,12.9,4.6,19.3,7.2c-6.7,16.2-13.4,32.4-20.2,48.6c-1.5-11.2-3.7-22.5-6.6-33.8C884.1,514.3,886.6,507,889.1,499.6z"/>
		<path class="st3" d="M929,576.9c-2.6,4-5.2,8-7.8,11.9c-17.9-11.5-24.2-23.1-17.1-38.7c2.2-4.7,4.5-9.5,6.7-14.2
			c7-15.3,23.3-18.1,46.8-3c-2.6,4-5.2,8-7.8,11.9c-5.6-3.6-10-5.2-12.9-4.9c-3,0.3-5.7,2.6-8.1,7c-2.1,3.8-4.3,7.5-6.4,11.3
			c-2.5,4.3-3.2,7.8-2.2,10.4C921.2,571,924.2,573.7,929,576.9z M989.3,575c-11-10.2-22.6-19.4-34.6-27.6c2.6-3.8,5.1-7.6,7.7-11.4
			c12.6,8.6,24.8,18.2,36.3,28.9c2.6,2.4,4.2,4.8,4.7,7.1c0.5,2.3,0,4.1-1.5,5.6c-1.5,1.5-3.4,2-5.6,1.5
			C994.2,578.8,991.8,577.4,989.3,575z M939.4,601.9c-4.7-3.7-9.5-7.3-14.4-10.6c9.3-13.7,18.5-27.3,27.8-41
			c5.9,4,11.7,8.3,17.4,12.8C959.9,576.1,949.6,589,939.4,601.9z M975.7,598.1c-5.2-5-10.5-9.8-15.9-14.3c2.9-3.5,5.8-7.1,8.7-10.6
			c5.7,4.7,11.3,9.7,16.8,15C982.1,591.6,978.9,594.8,975.7,598.1z M959.2,619.6c-5.3-5.3-10.8-10.3-16.5-15
			c2.9-3.5,5.8-7.1,8.7-10.6c6,5,11.8,10.2,17.5,15.9C965.7,613.1,962.5,616.4,959.2,619.6z"/>
	</g>
</g>
</svg>
