<?xml version="1.0" encoding="UTF-8"?>
<svg id="Layer_1" data-name="Layer 1" xmlns="http://www.w3.org/2000/svg" viewBox="0 0 1741.59 1389.89">
  <defs>
    <style>
      .cls-1 {
        stroke: #0d303a;
        stroke-miterlimit: 10;
      }

      .cls-1, .cls-2 {
        fill: #f15a29;
      }

      .cls-3 {
        fill: #0d303a;
      }

      .cls-3, .cls-2 {
        stroke-width: 0px;
      }
    </style>
  </defs>
  <path class="cls-3" d="m1164.49,603.97c-14.4-5.06-16.73-14.53-16.66-28.24.36-71.27-1.61-142.59.39-213.8.74-26.13-10.36-38.79-31.53-47.41-6.62-2.69-13.44-5.02-20.34-6.88-82.09-22.02-165.44-39.54-245.53-68.69-5.66-2.06-10.68-1.61-16.35.28-81.7,27.24-164.85,49.31-248.51,69.54-15.52,3.75-30.31,9.12-43.13,19.26-8.14,6.45-12.34,13.25-12.25,24.54.61,75.88.02,151.78.68,227.66.1,12.15-3.9,18.46-14.58,23.13-10.63,4.64-20.48,11.09-30.68,16.74.33,1.4.66,2.79.99,4.19h707.33c-11.04-10.17-19.87-16.81-29.83-20.32Zm-583.35-269.66c70.97-17.77,142.23-34.98,211.55-58.1,36.79-12.27,68.84-9.54,104.88,1.88,65.7,20.83,133.06,36.38,199.76,54,7.43,1.96,14.48,3.96,20.7,15.23-25.47-5.9-47.6-10.52-69.47-16.17-66.35-17.17-132.72-34.33-198.18-54.71-5.97-1.86-11.24-2.81-17.74-.6-73.68,25.03-149.02,44.24-224.53,62.76-15.11,3.71-29.99,9.38-46.96,8.63,3.62-10.51,12.55-11.06,19.99-12.92Zm44.26,272.72c-33.18,1.09-33.3,1.47-33.35-30.97-.08-50.63.36-101.26-.18-151.89-.11-10.68,2.77-15.26,13.59-17.26,32.86-6.07,32.8-6.5,32.83,27.12.03,23.01.01,46.02.01,69.04-.01,30.17-.33,60.35.18,90.52.17,9.93-3.12,13.11-13.08,13.44Zm143.72.23c-41.83.8-41.84,1.14-41.84-40.75,0-58.47.23-116.93-.13-175.4-.05-9.84,2.2-15.02,12.96-16.18,10.11-1.09,20.17-3.76,29.89-6.89,9.93-3.2,12.58-.07,12.49,9.73-.36,36.41-.15,72.82-.15,109.24h.54c0,35.39-.37,70.78.21,106.16.18,10.77-3.37,13.88-13.97,14.09Zm103.04-157.4c-3.09,21.48-14.24,40.51-16.4,62.22-2.65,26.62-4.44,53.28-1.11,79.76,1.77,14.12-3.74,16.03-15.4,16.11-15.52.11-6.87-10.59-7.63-16.3-1.14-8.56-.3-17.37-.3-26.08,1.29-30.36-1.34-60.27-11.49-89.22-3.03-8.63-4.04-17.93-6.75-26.69-4.17-13.44-1.18-23.48,12.81-28.02,8.76-2.84,5.73-8.87,5.5-14.61-.33-8.3-1.34-17.33,11.66-16.33,11.88.91,10.86,10.83,9.31,17.09-1.97,7.91-.18,10.83,6.67,13.51,13.32,5.21,15.07,15.05,13.13,28.56Zm-21.22-83.04c.19,7.63,1.6,14.22-10.93,14.05-12.83-.18-6.75-8.4-8.17-13.41-.67-2.36-.11-5.07-.11-9.05,3.11-5.69-7.81-19.88,10.59-19.5,5.84.12,8.38,2.25,8.34,8.02-.06,6.63.11,13.26.28,19.89Zm92.36,240.41c-39.56-.01-39.57.52-39.58-39.17v-81.51h-.05c0-35.38.43-70.76-.23-106.12-.23-11.94,4.04-13.1,14.33-11.09,40.54,7.89,40.56,7.62,40.56,48.11.01,57.93-.19,115.87.32,173.8.1,11.66-2.84,15.98-15.35,15.98Zm128.08,0c-30.01-.2-30.03.36-30.07-29.96-.03-24.62-.01-49.24-.01-73.85h.16c0-30.26.26-60.52-.17-90.78-.13-8.69,1.69-11.09,11.06-9.84,35.4,4.71,35.4,4.31,35.32,40.01-.1,49.24-.51,98.48.12,147.7.17,12.74-3.73,16.8-16.41,16.72Zm44.95-1.67c-9.82.24-6.89-8.47-6.89-13.93-.11-65.62-.09-131.25.27-196.87.05-8.86-1.53-13.21-11.62-15.25-76.76-15.51-152.66-34.64-227.05-59.22-19.02-6.29-35.88-7.29-55.88-.67-75.81,25.1-153.34,44.44-231.25,61.97-11.28,2.54-14.36,7.09-14.23,18.35.68,62.55.5,125.1.59,187.65,0,4.61-.07,9.23-.45,13.82-.39,4.61-3.79,5.6-7.71,5.55-3.72-.05-5.59-2.2-5.92-5.68-.3-3.05-.4-6.13-.39-9.2.31-68.19.92-136.37.73-204.56-.03-12.13,2.87-17.37,15.79-20.07,87.21-18.22,173.05-41.87,257.95-68.83,9.1-2.88,17.12-.72,25.45,1.84,74.83,23.02,150.6,42.52,226.78,60.5,8.45,2,17.05,4.93,25.54,4.8,13.28-.2,14.51,6.83,14.4,17.31-.36,34.34-.14,68.69-.14,103.04h.31c0,35.38.13,70.76-.15,106.13-.04,5,2.29,13.12-6.13,13.32Z"/>
  <path class="cls-2" d="m1118.03,347.32c-25.47-5.9-47.6-10.52-69.47-16.17-66.35-17.17-132.72-34.33-198.18-54.71-5.97-1.86-11.24-2.81-17.74-.6-73.68,25.03-149.02,44.24-224.53,62.76-15.11,3.71-29.99,9.38-46.96,8.63,3.62-10.51,12.55-11.06,19.99-12.92,70.97-17.77,142.23-34.98,211.55-58.1,36.79-12.27,68.84-9.54,104.88,1.88,65.7,20.83,133.06,36.38,199.76,54,7.43,1.96,14.48,3.96,20.7,15.23Z"/>
  <path class="cls-2" d="m1116.33,605.56c-9.82.24-6.89-8.47-6.89-13.93-.11-65.62-.09-131.25.27-196.87.05-8.86-1.53-13.21-11.62-15.25-76.76-15.51-152.66-34.64-227.05-59.22-19.02-6.29-35.88-7.29-55.88-.67-75.81,25.1-153.34,44.44-231.25,61.97-11.28,2.54-14.36,7.09-14.23,18.35.68,62.55.5,125.1.59,187.65,0,4.61-.07,9.23-.45,13.82-.39,4.61-3.79,5.6-7.71,5.55-3.72-.05-5.59-2.2-5.92-5.68-.3-3.05-.4-6.13-.39-9.2.31-68.19.92-136.37.73-204.56-.03-12.13,2.87-17.37,15.79-20.07,87.21-18.22,173.05-41.87,257.95-68.83,9.1-2.88,17.12-.72,25.45,1.84,74.83,23.02,150.6,42.52,226.78,60.5,8.45,2,17.05,4.93,25.54,4.8,13.28-.2,14.51,6.83,14.4,17.31-.36,34.34-.14,68.69-.14,103.04h.31c0,35.38.13,70.76-.15,106.13-.04,5,2.29,13.12-6.13,13.32Z"/>
  <path class="cls-3" d="m1201.67,811.14H478.08c9.08,15.16,22.22,20.76,37.39,25.12-7.88,10.57-14.96,20.09-25.11,33.72,29.18,0,53.67.54,78.12-.23,12.32-.38,19.64,2.39,23.2,15.64,4.79,17.82,13.55,34.29,22.71,50.36,50.54,88.64,128.79,144.21,219.87,184.59,7.59,3.36,13.77.93,20.38-2.04,29.07-13.04,57.07-28,83.42-45.97,69.48-47.39,125.12-106.06,151-188.22,3.7-11.77,9.18-14.84,20.56-14.53,25.84.72,51.72.23,80.1.23-6.99-15.31-19.71-21.04-23.52-33.34,13.5-5.52,25.71-12.4,35.47-25.33Zm-645.81,35.39c-4.4.28-6.89-1.48-6.44-6.18.4-4.32,1.74-8.01,6.38-8.75,4.99-.16,6.9,2.51,6.96,6.63.07,4.58-1.67,7.96-6.9,8.3Zm407.72-3.21c3.59,0,6.56,1.63,8.92,4.89s3.97,7.96,4.82,14.11l-7.78,12.52c-1.13-5.53-3.12-8.29-5.96-8.29v-23.23Zm0,89.56c1.63,0,2.93-.64,3.91-1.92.98-1.27,1.74-3.27,2.29-5.98l7.61,14.63c-2.64,11-7.24,16.5-13.81,16.5v-23.23Zm-20.38-45.99c0-6.05.37-11.67,1.1-16.86.74-5.19,1.81-9.79,3.22-13.81,1.41-4.01,3.25-7.17,5.53-9.46,2.28-2.29,4.87-3.44,7.76-3.44v23.23c-1.92,0-3.45,1.81-4.59,5.43-1.14,3.63-1.71,9.35-1.71,17.17v21.12c0,7.83.57,13.55,1.71,17.17,1.14,3.63,2.67,5.44,4.59,5.44v23.23c-2.89,0-5.48-1.15-7.76-3.44-2.28-2.29-4.12-5.45-5.53-9.47-1.41-4.01-2.48-8.61-3.22-13.8-.73-5.19-1.1-10.81-1.1-16.86v-25.65Zm-28.01,16.69h15.57v13.99h-15.57v-13.99Zm-50.59-57.15h35.81c2.42,0,4.31,1.49,5.66,4.46,1.34,2.97,2.01,6.98,2.01,12.01s-.67,9.02-2.01,11.95c-1.35,2.94-3.24,4.4-5.66,4.4h-35.81v-32.82Zm39.5,63.7v32.83h-19.92v-32.83h19.92Zm-39.5-22.41h15.79v118.03h-15.79v-118.03Zm-27.92,15.86h15.57v13.99h-15.57v-13.99Zm-48.56-52.69c1.2-2.97,2.87-4.46,5.03-4.46h20.08l14.36,159.32h-14.11l-10.65-126.5h-9.68c-2.18,0-3.87-1.46-5.05-4.4-1.18-2.93-1.77-6.92-1.77-11.95s.6-9.04,1.79-12.01Zm-.12,36.83h13.17l-4.56,52.95h7.88l2.6,32.71h-13.25l-2.82,32.37h-14.19l11.17-118.03Zm-28.97,15.86h15.57v13.99h-15.57v-13.99Zm-33.51,27.1c2.04,0,3.5-1.7,4.38-5.08.88-3.39,1.32-8.64,1.32-15.74v-14.31c0-7.1-.44-12.34-1.32-15.73-.88-3.39-2.34-5.08-4.38-5.08v-27.93c6.34,0,11.23,3.9,14.67,11.7,3.45,7.79,5.17,18.86,5.17,33.2v22c0,14.34-1.72,25.4-5.17,33.2-3.44,7.79-8.33,11.69-14.67,11.69v-27.92Zm-23.22-38.97c0-14.34,1.72-25.41,5.17-33.2,3.44-7.8,8.33-11.7,14.67-11.7v27.93c-2.07,0-3.54,1.67-4.4,5.03-.87,3.35-1.3,8.62-1.3,15.78v14.31c0,7.17.43,12.43,1.3,15.79.86,3.35,2.33,5.03,4.4,5.03v27.92c-6.34,0-11.23-3.9-14.67-11.69-3.45-7.8-5.17-18.86-5.17-33.2v-22Zm147.76,200.27c-4.27,2.06-9,2.92-13.39.71-17.76-8.9-36.2-16.55-52.34-28.77,13.06.23,24.75,5.74,35.73,11.45,14.39,7.49,27.2,8.16,41.92.77,14.55-7.32,30.31-12.22,45.54-18.18-16.74,15.01-37.23,24.28-57.46,34.02Zm210-247.69c-10.61,36.73-27.55,70.34-48.94,102.05-38.57,57.18-93.65,90.33-157.66,111.07-3.84,1.24-7.93,1.74-12.75,2.77-24.83-6.76-48.77-17.25-71.99-28.98-77.54-39.19-122.06-105.18-147.92-185.69-1.38-4.29-6.05-11.3,2.8-13.7,8.64-2.34,9.55,4.59,11.51,10.59,32.32,98.95,95.85,167.52,195.65,200.83,8.86,2.96,16.8,1.5,25.32-1.32,96.03-31.88,154.68-100.02,187.89-192.99,1.03-2.9,2.23-5.77,2.9-8.75,1.28-5.67,4.87-7.53,10.19-6.6,8.13,1.43,4.02,7.2,3,10.72Zm62.67,2.53c-4.28,0-7.74-3.47-7.74-7.74s3.46-7.74,7.74-7.74,7.74,3.46,7.74,7.74-3.47,7.74-7.74,7.74Z"/>
  <path class="cls-2" d="m1130.47,839.08c0,4.27-3.47,7.74-7.74,7.74s-7.74-3.47-7.74-7.74,3.46-7.74,7.74-7.74,7.74,3.46,7.74,7.74Z"/>
  <path class="cls-2" d="m562.76,838.23c.07,4.58-1.67,7.96-6.9,8.3-4.4.28-6.89-1.48-6.44-6.18.4-4.32,1.74-8.01,6.38-8.75,4.99-.16,6.9,2.51,6.96,6.63Z"/>
  <path class="cls-2" d="m907.52,1057.96c-16.74,15.01-37.23,24.28-57.46,34.02-4.27,2.06-9,2.92-13.39.71-17.76-8.9-36.2-16.55-52.34-28.77,13.06.23,24.75,5.74,35.73,11.45,14.39,7.49,27.2,8.16,41.92.77,14.55-7.32,30.31-12.22,45.54-18.18Z"/>
  <path class="cls-2" d="m1060.06,844.29c-10.61,36.73-27.55,70.34-48.94,102.05-38.57,57.18-93.65,90.33-157.66,111.07-3.84,1.24-7.93,1.74-12.75,2.77-24.83-6.76-48.77-17.25-71.99-28.98-77.54-39.19-122.06-105.18-147.92-185.69-1.38-4.29-6.05-11.3,2.8-13.7,8.64-2.34,9.55,4.59,11.51,10.59,32.32,98.95,95.85,167.52,195.65,200.83,8.86,2.96,16.8,1.5,25.32-1.32,96.03-31.88,154.68-100.02,187.89-192.99,1.03-2.9,2.23-5.77,2.9-8.75,1.28-5.67,4.87-7.53,10.19-6.6,8.13,1.43,4.02,7.2,3,10.72Z"/>
  <g>
    <path class="cls-1" d="m528.3,747.13v22.08c-5.06,0-9.59-.72-13.61-2.16-4.01-1.44-7.36-3.41-10.04-5.91-2.68-2.5-4.88-5.53-6.62-9.07-1.74-3.54-2.99-7.31-3.75-11.3-.77-3.99-1.15-8.31-1.15-12.97v-24.39c0-4.66.38-8.98,1.15-12.97.77-3.99,2.02-7.76,3.75-11.3,1.73-3.54,3.94-6.57,6.62-9.07,2.68-2.5,6.02-4.47,10.04-5.91s8.55-2.16,13.61-2.16v22.08c-3.62,0-6.25,1.65-7.88,4.94s-2.45,8.81-2.45,16.54v20.07c0,7.73.82,13.25,2.45,16.54s4.26,4.94,7.88,4.94Zm6.1,22.08v-22.08c3.62,0,6.26-1.65,7.92-4.94,1.66-3.3,2.49-8.81,2.49-16.54v-20.07c0-7.73-.83-13.25-2.49-16.54-1.66-3.3-4.3-4.94-7.92-4.94v-22.08c5.1,0,9.67.72,13.68,2.16s7.35,3.41,10,5.91c2.65,2.5,4.86,5.53,6.62,9.07,1.76,3.54,3.01,7.31,3.75,11.3.74,3.99,1.12,8.32,1.12,12.97v24.39c0,4.66-.37,8.98-1.12,12.97-.74,3.99-2,7.76-3.75,11.3-1.76,3.54-3.97,6.57-6.62,9.07-2.65,2.5-5.98,4.47-10,5.91-4.01,1.44-8.58,2.16-13.68,2.16Z"/>
    <path class="cls-1" d="m640.34,685.12h-54.79v-21.34h54.79c3.72,0,6.6.97,8.66,2.9,2.06,1.93,3.08,4.54,3.08,7.81s-1.03,5.86-3.08,7.77c-2.06,1.91-4.94,2.86-8.66,2.86Zm-30.63,82.23h-24.16v-76.73h24.16v76.73Zm36.28-40.82h-30.48v-21.34h30.48v21.34Z"/>
    <path class="cls-1" d="m717.07,685.12h-54.79v-21.34h54.79c3.72,0,6.6.97,8.66,2.9,2.06,1.93,3.08,4.54,3.08,7.81s-1.03,5.86-3.08,7.77c-2.06,1.91-4.94,2.86-8.66,2.86Zm-30.63,82.23h-24.16v-76.73h24.16v76.73Zm36.28-40.82h-30.48v-21.34h30.48v21.34Z"/>
    <path class="cls-1" d="m793.8,685.12h-54.79v-21.34h54.79c3.72,0,6.6.97,8.66,2.9,2.06,1.93,3.08,4.54,3.08,7.81s-1.03,5.86-3.08,7.77c-2.06,1.91-4.94,2.86-8.66,2.86Zm-30.63,82.23h-24.16v-76.73h24.16v76.73Zm37.47-41.71h-31.67v-21.34h31.67v21.34Zm4.16,41.71h-35.83v-21.34h35.83v21.34Z"/>
    <path class="cls-1" d="m863.09,724.9h-3.42c-3.72,0-6.59-.97-8.62-2.9-2.03-1.93-3.05-4.54-3.05-7.81s1.02-5.8,3.05-7.73c2.03-1.93,4.91-2.9,8.62-2.9h1.86c6.2,0,9.29-3,9.29-9,0-6.29-3.82-9.44-11.45-9.44h-39.85v-21.34h42.9c10.16,0,18.12,2.62,23.87,7.84,5.75,5.23,8.62,12.82,8.62,22.79s-2.76,17.66-8.29,22.79c-5.53,5.13-13.37,7.7-23.53,7.7Zm-19.41,42.45h-24.16v-76.73h24.16v76.73Zm53.9,0h-26.47l-17.69-37.92h25.28l18.88,37.92Z"/>
    <path class="cls-1" d="m948.73,733.82h-42.3v-18.21h42.3v18.21Z"/>
    <path class="cls-1" d="m991.19,725.04h13.75l4.54,21.26h-23.12l-4.91,21.04h-24.76l19.48-76.73h22.97l-7.96,34.42Zm29-61.26l25.06,103.57h-24.61l-18.59-82.23h-16.88c-3.82,0-6.75-.95-8.81-2.86-2.06-1.91-3.09-4.5-3.09-7.77s1.04-5.87,3.12-7.81,5.01-2.9,8.77-2.9h35.02Z"/>
    <path class="cls-1" d="m1099.51,724.9h-3.42c-3.72,0-6.59-.97-8.62-2.9-2.03-1.93-3.05-4.54-3.05-7.81s1.02-5.8,3.05-7.73c2.03-1.93,4.91-2.9,8.62-2.9h1.86c6.2,0,9.29-3,9.29-9,0-6.29-3.82-9.44-11.45-9.44h-39.85v-21.34h42.9c10.16,0,18.12,2.62,23.87,7.84,5.75,5.23,8.62,12.82,8.62,22.79s-2.76,17.66-8.29,22.79c-5.53,5.13-13.37,7.7-23.53,7.7Zm-19.41,42.45h-24.16v-76.73h24.16v76.73Zm53.9,0h-26.47l-17.69-37.92h25.28l18.88,37.92Z"/>
    <path class="cls-1" d="m1194.6,685.12h-56.65v-21.34h56.65c3.72,0,6.63.99,8.74,2.97,2.11,1.98,3.16,4.56,3.16,7.73s-1.05,5.74-3.16,7.69c-2.11,1.96-5.02,2.94-8.74,2.94Zm-13.09,82.23h-24.16v-77.62h24.16v77.62Z"/>
  </g>
</svg>