<?xml version="1.0" encoding="UTF-8"?>
<svg id="Layer_1" data-name="Layer 1" xmlns="http://www.w3.org/2000/svg" viewBox="0 0 1741.59 1389.89">
  <defs>
    <style>
      .cls-1, .cls-2, .cls-3, .cls-4 {
        stroke-width: 0px;
      }

      .cls-2 {
        fill: #2c3d7a;
      }

      .cls-3 {
        fill: #424242;
      }

      .cls-4 {
        fill: #332d00;
      }
    </style>
  </defs>
  <path class="cls-2" d="m1202.28,884.34c-22.32,0-42.66.66-62.92-.29-9.5-.44-13.35,3.14-17,11.26-50.32,112.1-134.76,190.05-243.98,243.21-6.89,3.36-11.99.91-17.28-1.83-98.99-51.33-180.3-121.27-228.59-223.82-10.84-23.02-22.16-35.18-48.57-29.09-10.26,2.36-21.45.55-32.21.86-8.96.26-11.53-3.18-6.4-10.84,15.19-22.67,6.55-39.65-12.3-54.79-7.85-6.31-14.84-13.69-23.88-22.13,16.39-3.43,30.59-6.85,44.96-9.23,8.37-1.39,10.13-3.41,5.85-11.62-8.24-15.8-15.1-32.33-23.28-50.18,15-.9,28.49-1.96,42-2.44,8.45-.3,11.87-3.81,10.48-12.33-2.22-13.65-4.48-27.31-5.92-41.05-.71-6.8-5.09-6.29-9.59-7.06-17.17-2.97-34.25-6.28-50.88-11.74-6.87-2.26-9.94-4.82-4.53-11.67,2.51-3.18,4.04-7.11,6.14-10.63,15.41-25.71,20.88-49.78-5.08-73.66-12.03-11.07-10.18-13.19,5.6-14.98,11.71-1.33,23.47-3.47,35.17-3.23,14.58.3,17.38-6.13,16.9-19.39-1.62-45.09-1.68-90.23-3.15-135.33-.39-11.95,3.2-15.31,15.21-15.68,91.9-2.8,180.7-22.77,267.99-50.37,11.59-3.66,22.52-4.3,34.53-.85,62.47,17.97,124.68,37.3,189.61,44.86,21.87,2.55,43.79,5.08,65.76,6.26,10.22.55,13.84,2.58,13.68,13.89-.64,46.65.29,93.33-.06,139.99-.09,11.41,3,16.16,15.13,16.43,17.64.39,35.23,2.79,54.93,4.51-10.11,13.18-18.24,24.14-26.78,34.78-5.73,7.14-6.38,14.02-3.1,22.75,5.3,14.08,12.34,27.12,21.16,39.06,6,8.13,3.58,10.7-4.83,13.38-16.64,5.3-33.65,8.75-50.72,12.08-5.03.98-10.29,1.32-10.87,8.42-1.11,13.78-2.4,27.56-3.95,41.3-.88,7.78,3,9.62,9.8,9.86,13.65.48,27.29,1.52,42.68,2.43-7.39,16.78-13.71,32.35-21.09,47.41-4.34,8.86-5.09,13.6,6.92,15.22,13.55,1.83,26.84,5.54,42.61,8.95-14.44,11.82-26.68,23.08-37.88,35.5-7.97,8.83-10.42,16.62-3.92,27.23,4.43,7.23,7.36,15.38,11.65,24.58Zm-308.87-479.62c-26.37,24.22-26.19,53-12.46,83.73-92.13-.48-182.21,1.83-271.98,11.56-6.16.67-10.97,1.18-10.92,9.23.21,29.62.08,59.23.08,89.46,65.52-13.03,130.15-18.48,195.27-18.46,54.86.01,109.72-.17,164.58.4,58.93.61,117.79,2.84,175.4,16.93,8.52,2.08,9.55-.87,9.43-7.97-.32-18.45-.39-36.91-.22-55.37.32-34.8.34-34.04-33.82-37.3-44.94-4.29-89.99-5.97-135.06-7.71-6.99-.27-14.23-.39-13.45-10.13.76-9.46-5-7.66-9.52-5.44-9.11,4.47-16.09,2.3-21.13-5.71-5.04-8.02-3.02-15.63,3.24-22.38,2.26-2.44,6.88-4.85,3.4-8.63-3.16-3.43-7.42-1.06-11.32.49-9.06,3.59-10.21,14.15-17.49,20.6-2.05-10.16,1.96-17.12,6.59-24,2.13-3.16,2.99-7.22-.47-9.68-3.24-2.3-6.86-.7-9.63,2.07-7.75,7.75-13.86,15.97-14.11,27.91-.22,10.93,4.91,20.04,10.74,32.76-22.27-20.59-26.21-42.38-14.88-66.45,2.53-5.37,7.95-9.5,7.29-16.28,3.34-.25,6.86-1.26,9.98-.54,3.96.91,8.38,3.35,9.09-2.75.73-6.32-1.62-12.1-8.88-13.63-5.34-1.13-8.81,1.4-9.48,6.87-.42,3.44-.19,6.95-.26,10.43Zm43.08,215.07c10.86-6.58,23.13-10.28,31.9-26.16-23.1,0-43,.21-62.89-.1-8.16-.13-10.1,3.63-7.93,10.47,5.22,16.43-4.86,27.22-13.85,38.42-2.88,3.59-7.02,6.21-9.71.73-6.85-13.91-20.2-25.31-17.23-43.18.56-3.4,1.56-7.23-4.47-7.16-25.8.31-51.62.21-78.98,3.95,10.5,11.44,22.58,16.51,34.5,22.26-21.95.43-41.79-9.05-66.46-14.15,19.21,20.73,40.89,26.81,63.29,31.74-22.57,4.09-44.45,2.31-66.34-2.34,18.69,13.19,39.35,19.45,62.29,18.46-20.49.41-40.87,3.88-61.26-.63,17.92,14.78,39.92,10.36,60.71,11.92-14.3,7.94-30.58,6.23-48.3,13.27,21.69,5.38,39.1.7,57.43-3.35-8.49,11.97-22.28,13.57-34.88,22.59,19.1.13,33.03-5.94,46.63-13.77-8.02,10.06-13.86,20.78-19.64,32.95,11.39.22,15.15-8.46,21.32-13.15,6.1-4.65,11.38-10.39,18.6-17.12-3.81,8.19-6.4,14.16-9.32,19.98-5.83,11.62-2.7,29.55-14.24,35.22-10.92,5.37-26.09,2.09-39.4,2.62-.51.02-1.03,0-1.54.02-56.42,1.29-112.59,5.96-168.49,13.45-6.17.83-16.77-2.32-16.29,10.66.84,22.55,1.27,45.11,1.71,67.67.15,7.35,3.23,9.38,10.64,8.74,27.06-2.33,54.2-3.89,81.29-5.83,113.18-8.12,226.43-8.91,339.72-2.84,35.3,1.89,70.56,4.5,105.8,7.3,11.52.91,16.54-1.99,15.71-14.76-1.13-17.36-1.31-34.94.03-52.27,1.08-13.84-3.73-18.6-17.21-20.08-59.65-6.56-119.37-11.32-179.4-11.9-5.81-.06-13.14,2.57-16.92-4.11-9.22-16.26-17.84-32.87-27.71-51.21,15.73,7.41,21.87,25.28,41.5,24.42-6.82-11.52-18.04-17.22-23.93-29.91,15.99,6.04,28.65,15.65,47.31,13.94-12.77-7.29-25.73-10.01-34.91-21.81,17.71,2.09,33.38,8.22,51.85.66-16.81-7.64-34.28-4.29-49.96-14.86,26.33-.74,52.15,7.14,73.72-19.04-19.83,8.52-36.46,12.44-54.26,6.73,20.24-1.37,38.7-6.04,52.82-24.74-39.92,15.49-44.97,16.46-68.96,13.03,22.82-4.65,41.42-12.69,51.84-32.89-19,5.61-35.69,17.19-56.14,16.19Zm-346.46-182.29h-.09c0,13.85-.28,27.7.18,41.53.13,3.9-2.54,10.77,4.38,11.01,7.26.24,6.45-6.32,6.44-11.44-.05-23.59.25-47.18-.29-70.76-.21-8.95,2.23-12.09,11.76-12.92,77.17-6.69,153.45-19.12,226.71-44.78,24.48-8.58,45.62-9,70.4-.73,67.58,22.55,137.15,37.5,208.32,43.57,12.65,1.08,17.04,5.44,16.28,18.67-1.25,21.97-.24,44.08-.02,66.12.04,4.52-.24,10.41,6.31,10.19,6.1-.2,4.42-5.88,4.39-9.62-.22-27.69-1.09-55.38-.73-83.05.13-9.75-5.13-10.89-12.21-11.52-78.85-6.92-155.52-24.27-230.78-48.31-17.14-5.48-34.15-6.11-51.29-.48-79.13,26.03-160.16,42.6-243.28,48.71-11.56.85-18.98,3.98-16.83,18.47,1.72,11.54.35,23.54.35,35.33Zm45.89,422.34c-1.3.39-2.59.78-3.89,1.17-1.86,16.64,7.43,30.23,14.19,44.11,45.91,94.36,120.15,160.39,210.77,210.16,10.93,6,19.57,5.34,29.8-.03,41.93-22,81.23-47.65,115.72-80.4,45.78-43.48,84.88-91.67,108.15-151.17,2.62-6.7,6.73-13.57,3.66-21.97-7.76,2.65-8.65,9.31-11.03,14.58-46.58,103.18-122.51,177.73-222.61,228.86-6.54,3.34-12.31,3.63-18.8.01-90.22-50.28-164.19-116.66-209.75-211.25-5.46-11.33-10.81-22.71-16.21-34.06Zm233.26,203.09c10.93,1.43,22.86,4.72,18.37-13.22-.92-3.66,3.18-4.58,5.14-6.7,2.56-2.78,2.05-6.63-2.07-6.2-4.83.5-5.34-.59-6.14-5.04-2.86-15.93-9.12-19.45-28.76-17.5-15.43,1.53-5.74,13.24-7.87,20.07-.99,3.18.13,7.06.45,10.61,1.2,13.22,3.7,24.98,20.89,17.98Zm270.58-438.3c-1.69-.08-3.38-.16-5.07-.23-2.53,27.31-5.19,54.61-7.51,81.94-.71,8.31-2.27,10.79-12.61,10.25-22.07-1.15-44.2-6.73-69.61-2.72,28.43,4.1,53.78,7.07,78.82,11.73,8.89,1.65,11.05-1.46,11.64-8.48,1.57-18.85,3.23-37.71,4.22-56.59.63-11.93.12-23.92.12-35.89Zm-536.53-3.87c-5.65,4.91-4.89,10.38-4.71,15.64.9,26.63,4.64,52.93,8.44,79.29,1.36,9.44,4.67,10.76,12.66,9.47,23.1-3.72,46.25-7.05,69.39-10.53-9.95-1.08-19.86-1.29-29.76-1.03-13.98.38-32.19,9.86-40.57,1.54-8.24-8.18-6.25-26.88-8.32-41.03-2.6-17.75-4.77-35.57-7.13-53.36Zm90.96-149.29c-1.79-13.99-4.47-24.46,7.74-30.11,2.35-1.09,2.28-6-.83-5.26-14.61,3.51-15.4-11.14-23.67-18.67-3.19,13.37-9.41,21.72-25.51,19.89,10.36,10.39,17,19.28,12.05,32.86,9.5-8.89,18.3-11.2,30.22,1.29Zm349.53-1.98c10.27-7.52,18.97-11.82,28.89-2.14-3.52-13.21,3.3-21.82,13.72-33.66-19.6,7.88-23.13-6.39-30.98-14.82-4.67,8.77-7.2,17.8-18.58,17.31-3.94-.17-5.24,5.32-2.29,6.18,14.11,4.09,11.36,14.68,9.24,27.14Zm-107.36,533.14c9.84-8.29,19.41-10.66,30.91-3.22-11.56-13.92-.54-22.46,6.55-33.04-17.86,9.51-21.97-5.9-30.23-15.55,3.27,18.92-4,25.79-22.77,22.11,9.45,8.74,21.62,14.03,15.53,29.7Zm-137.35,1.52c2.74-9.1-2.31-15.66,3.88-20.64,4.35-3.5,10.46-6.31,9.55-15.44-18.89,10.49-21.17-2.39-22-18.89-7.75,11.11-11.71,21.83-26.6,19.81,15.5,7.95,8.4,19.51,5.98,32.04,11.08-6.31,20.48-10.28,29.19,3.12Zm50.89-22.07c15.15-38.74,10.52-75.76,12.16-112.13-17.27,34.68-15.62,71.49-12.16,112.13Zm160.46-39.14c-3.29-11.97-4.99-22.29,4.94-32.93-11.73,6.32-16.8,1.84-20.1-7.55-1.45-4.15-7.38-5.27-7.58-1-.57,12.24-9.75,13.31-16.78,19.17-7.05,5.88,13.96,10.92,10.43,24.11,9.52-7.16,18.57-11.66,29.08-1.8Zm-282.47-31.01c6.95,8.07,11.22,14.48,5.59,23.34-1.2,1.89-3.4,4.69-.82,6.85,2.45,2.05,5.03-.19,6.49-1.91,4.31-5.07,8.47-6.56,14.03-1.69,2.94,2.58,7.25,3.47,8.63-1.3,2.2-7.57,13.11-10.67,11.37-18.56-1.16-5.25-6.48-1.98-10.67.74-2.16,1.4-5.26-3.66-6.51-7.1-1.5-4.1,1.58-9.07-2.81-13.35-8.12,4.37-10.62,19.57-25.29,12.98Zm154.33-44.97c3.32,34.29,1.19,68.67,4.68,102.73,12.24-35.76,10.45-73.15-4.68-102.73Zm-127.28-471.23c-4.17-2.14-7.28-2.23-8.42,1.61-.82,2.79-.8,5.87,1.38,8.66,2.89,3.69,6.63,5.75,10.5,3.27,5.29-3.4,9.44-6.14,14.74.17,1.36,1.62,7.97,1.69,8.35.82,5.67-13.07,14.04-4.28,21.42-3.05,2.58.43,5.39.48,6.84-1.96,1.76-2.96-.91-4.38-2.84-6-1.52-1.27-2.98-2.69-4.19-4.26-7.92-10.24-21.71,8.64-28.96-5.76-.16-.31-5,.72-5.15,1.57-2.06,11.49-9.99,2.54-13.68,4.93Zm238.33,3.33c-1.7-2.55-3.52-5.58-3.68-5.5-9.87,5.28-17.51-3.82-26.44-3.93-.95-.01-2.44.17-2.77.76-1.25,2.21,3.97,5.94-1.18,7.14-3.89.91-5.55-2.35-8.08-5.13-4.26-4.69-8.11.33-11.19,3.32-2.49,2.41-5.44,5.49-2.19,9.22,2.79,3.2,6.02,1.14,9.57.69,10.75-1.35,22.62.81,32.07,2.88,13.46,2.94,8.59-7.05,13.9-9.45Zm-143.27-16.39c-4.36,8.22-7.33,17.81-17.94,7.15-3.46-3.48-11.12-.69-14.6,4.54-2.31,3.47-.4,8.49,3.02,8.72,13.7.94,27.72,8.12,44.95-2.09-12.99-1.26-10.22-11.3-15.44-18.32Zm58.64,495.17c3.67,17.04,7.25,34.1,11.12,51.1.49,2.17,1.82,5.18,5.2,3.97,2.91-1.04,2.79-3.95,2.82-6.41.19-18.46-10.68-33-19.14-48.66Zm-72.82,1.45c-12.02,12.66-17.27,27.3-19.93,42.94-.52,3.06-.48,6.64,2.9,7.86,4.85,1.74,4.48-3.17,5.12-5.48,4.17-15.05,7.98-30.19,11.91-45.31Zm-43.19,26.04c12.6-12.82,19.96-27.96,22.1-45.58-6.19,15.86-22.43,26.64-22.1,45.58Zm136.13-46.91c2.55,23.24,11.4,39.89,25.62,46.03-7.32-16.95-15.45-31.06-25.62-46.03Zm4.94-459.75c-.6-5.52-1.04-9.95-8.45-10.28-10.96-.49-6.87,8.21-8.41,12.91-2.06,6.27,3.87,6.14,7.43,6.01,5.25-.19,9.88-2.18,9.43-8.64Zm-166.44,491.31c11.51-8.97,18.54-20.9,23.39-34.25-10.48,9.65-19.43,20.3-23.39,34.25Zm209.62,3.5c-4.85-14.33-13.77-25.81-23.37-36.87,3.4,15.07,12.89,26.37,23.37,36.87Zm-423.44-253.53c7.77,5.77,15.43,4.84,22.83,4.96,2.73.04,6.66.9,6.05-4-.46-3.73-3.43-5.09-6.64-4.28-6.77,1.69-14.1-1.34-22.24,3.33Z"/>
  <path class="cls-1" d="m852.75,293.88c-13.23-10.21-24.73-7.8-38.24,2.25,7.61-16.49-1.38-25.57-13.03-34.64,16.45-.52,24.45-10.02,30.14-24.56,7.86,12.17,12.88,25.45,34.57,19.51-14.29,12.26-20.72,22.45-13.44,37.44Z"/>
  <path class="cls-1" d="m722.83,313.95c3.62-16.45-.88-27.51-15.44-35.37,14.83-2.81,27.6-5.04,27.29-24.54,12.35,9.43,13.86,30.34,35.93,21.45-16.8,9.81-18.34,21.45-6.1,38.85-16.35-5.09-28.99-17.96-41.69-.38Z"/>
  <path class="cls-1" d="m985.79,276.89c12.89,0,20.79-4.41,24.54-16.03,2.51-7.77,6.85-5.1,8.8.24,3.99,10.93,10.3,17.57,24.79,15.39-12.66,10.32-20.08,21.07-11.18,38.04-12.76-8.9-24.42-13.06-37.6-1.96,3.39-14.16,4.14-26.31-9.34-35.69Z"/>
  <path class="cls-1" d="m942.34,297.19q-21.76-12.62-37.73-3.81c1.89-11.41,5.1-22.5-6.44-30.3-2.81-1.9-.8-6.7,3.01-6.14,14.13,2.1,16.04-10.14,22.51-19.03,8.3,7.99,10.47,23.58,26.47,21,3.08-.5,3.52,4.48,1.31,5.63-13.71,7.1-12.99,18.99-9.14,32.65Z"/>
  <path class="cls-1" d="m631.29,339.18c6.25-16.5-2.28-23.99-12.5-33,14.9-.96,21.88-9.2,26.06-23.5,6.64,13.94,15.39,20.26,29.9,18.28-11.88,10.54-13.89,21.55-5.74,34.97-12.49-6.93-23.74-7.15-37.71,3.24Z"/>
  <path class="cls-1" d="m1100.17,282.4c8.19,10.45,9.35,22.29,23.11,22.58,4.98.11,1.34,6.32-1.49,7.61-10.75,4.9-10.59,13.71-8.19,25.17-12.37-4.99-23.19-15.22-35.36-1.22q3.12-22.71-5.05-35.64c12.03-.61,23.65-1.85,26.99-18.5Z"/>
  <path class="cls-1" d="m901.41,709.47c11.53,9.07,18.56,19.82,26.08,30.23-1.45,1.23-2.17,2.37-2.86,2.35-8.45-.15-7.98-.28-9.36-7.8-.6-3.25-3.99-5.89-5.34-9.13-2.09-5.02-8.02-7.74-8.51-15.65Z"/>
  <path class="cls-1" d="m842.07,707.8c-.61,11.53-.97,19.16-1.43,26.77-.21,3.46-1.8,5.99-5.62,5.73-5.13-.35-3.38-4.19-2.73-6.77,1.93-7.64,2.17-15.94,9.79-25.73Z"/>
  <path class="cls-3" d="m872.34,1036.81c-6,4.39,10.41,14.88-3.01,15.99-12.64,1.04-4.75-11.47-6.99-17.48-1.53-4.1-5.62-12.85,2.23-13.63,9.29-.92,7.92,8.1,7.78,15.11Z"/>
  <g>
    <path class="cls-4" d="m782.24,558.83c.46,3.43.92,6.86,1.38,10.28-2.37.32-4.53.28-6.51-.12-1.98-.4-3.68-1.08-5.11-2.06-1.43-.97-2.69-2.22-3.76-3.74-1.08-1.52-1.94-3.17-2.6-4.97-.66-1.79-1.16-3.77-1.5-5.93-.6-3.77-1.19-7.54-1.79-11.32-.34-2.16-.47-4.2-.39-6.11.09-1.91.43-3.76,1.03-5.54.6-1.78,1.49-3.35,2.65-4.72,1.16-1.36,2.7-2.53,4.61-3.48,1.91-.96,4.15-1.61,6.68-1.95.46,3.43.92,6.86,1.38,10.28-1.79.24-2.99,1.19-3.58,2.83-.59,1.65-.63,4.27-.12,7.87.44,3.11.88,6.23,1.32,9.34.51,3.6,1.26,6.11,2.26,7.53.99,1.43,2.35,2.02,4.06,1.79Zm4.23,9.91c-.45-3.43-.89-6.86-1.34-10.29,1.72-.22,2.88-1.15,3.48-2.78.6-1.64.68-4.26.24-7.86-.38-3.12-.77-6.24-1.15-9.36-.44-3.61-1.17-6.13-2.18-7.56-1.01-1.43-2.42-2.04-4.21-1.81-.45-3.43-.89-6.86-1.34-10.29,2.56-.33,4.9-.28,7,.15,2.1.43,3.87,1.15,5.33,2.17,1.46,1.02,2.72,2.31,3.77,3.87,1.06,1.56,1.86,3.25,2.43,5.08.57,1.82.96,3.83,1.19,6,.4,3.8.8,7.6,1.2,11.39.23,2.18.26,4.22.11,6.12-.16,1.9-.57,3.73-1.22,5.47-.66,1.75-1.54,3.27-2.66,4.58-1.12,1.31-2.58,2.41-4.38,3.31-1.8.9-3.9,1.5-6.29,1.81Z"/>
    <path class="cls-4" d="m821.4,564.22c-3.68.29-7.35.61-11.02.96-1.33-14.03-2.66-28.05-3.98-42.08,4.55,6.61,9,13.26,13.34,19.95.56,7.06,1.11,14.12,1.67,21.17Zm9.92-13.91c-1.17.07-2.15-.09-2.95-.49-.8-.4-1.54-1.15-2.22-2.25-6.48-10.38-13.21-20.67-20.2-30.86,4.26-.4,8.53-.77,12.8-1.1,5.85,8.79,11.52,17.64,16.99,26.56.48.84.75,1.85.82,3.03.08,1.46-.39,2.66-1.4,3.58-1.01.92-2.29,1.43-3.83,1.53Zm19.96-36.49c-4.63,8.87-9.08,17.78-13.36,26.73-2.2-3.64-4.43-7.27-6.7-10.88,2.23-5.11,4.51-10.2,6.85-15.29,4.4-.22,8.8-.41,13.2-.56Zm1.69,48.63c-3.68.12-7.36.27-11.04.45-.35-7.16-.7-14.33-1.05-21.49,3.45-7.25,7.01-14.47,10.68-21.66.47,14.23.94,28.47,1.42,42.7Z"/>
    <path class="cls-4" d="m874.18,542.2c2.23,0,4.45,0,6.68.01.71,3.34,1.41,6.67,2.1,10.01-3.69-.04-7.38-.04-11.07-.02-.76,3.3-1.52,6.6-2.26,9.9-3.89.04-7.79.1-11.68.21,2.75-12.09,5.66-24.17,8.73-36.23,3.8-.05,7.6-.07,11.4-.06-1.33,5.39-2.63,10.78-3.91,16.17Zm14.56-28.68c3.94,16.29,7.61,32.61,10.99,48.96-3.87-.13-7.74-.23-11.61-.3-2.7-12.93-5.56-25.84-8.59-38.73-2.8-.01-5.6-.01-8.41,0-1.9.01-3.37-.42-4.41-1.3-1.04-.88-1.57-2.09-1.59-3.63-.02-1.54.48-2.77,1.52-3.69,1.04-.92,2.51-1.39,4.41-1.41,5.89-.04,11.79,0,17.68.09Z"/>
    <path class="cls-4" d="m926.73,543.92c-.55-.04-1.1-.08-1.66-.12-1.8-.12-3.16-.67-4.09-1.63-.93-.97-1.35-2.22-1.26-3.75.09-1.51.66-2.69,1.71-3.53,1.05-.84,2.5-1.21,4.32-1.08.3.02.61.04.91.06,3.04.21,4.67-1.07,4.89-3.88.23-2.95-1.56-4.57-5.35-4.83-6.6-.45-13.21-.81-19.83-1.09.14-3.34.28-6.68.41-10.02,7.21.3,14.43.7,21.63,1.21,5.12.36,9.04,1.92,11.7,4.62,2.67,2.7,3.77,6.39,3.33,11.05-.44,4.71-2.12,8.13-5.02,10.3-2.9,2.17-6.79,3.05-11.71,2.7Zm-10.55,19.31c-3.8-.22-7.59-.41-11.39-.56.49-12.01.99-24.01,1.48-36.02,3.99.16,7.99.36,11.98.59-.69,12-1.38,23.99-2.07,35.99Zm25.38,1.93c-4.15-.39-8.3-.75-12.46-1.06-2.33-6.13-4.72-12.26-7.19-18.36,4.07.26,8.14.56,12.21.89,2.56,6.17,5.04,12.35,7.44,18.54Z"/>
    <path class="cls-4" d="m962.18,547.39c2.21.27,4.43.55,6.64.83.3,3.4.59,6.79.86,10.19-3.66-.49-7.33-.95-11-1.38-1.16,3.18-2.32,6.36-3.46,9.55-3.88-.44-7.75-.85-11.63-1.23,4.22-11.66,8.59-23.29,13.12-34.88,3.78.42,7.56.87,11.34,1.34-1.98,5.18-3.94,10.37-5.87,15.57Zm18-26.67c1.92,16.65,3.56,33.3,4.93,49.94-3.84-.61-7.67-1.18-11.52-1.73-1.1-13.16-2.36-26.33-3.79-39.5-2.78-.36-5.57-.7-8.36-1.03-1.89-.22-3.3-.83-4.22-1.83-.92-1-1.3-2.27-1.14-3.8.17-1.53.82-2.69,1.96-3.48,1.14-.79,2.67-1.07,4.56-.85,5.86.69,11.72,1.44,17.57,2.26Z"/>
  </g>
  <g>
    <path class="cls-4" d="m726.83,790.45c-5.87.74-11.74,1.53-17.6,2.37-.32-2.22-.63-4.44-.95-6.66,5.9-.84,11.8-1.63,17.7-2.38,1.2-.15,2.17.03,2.91.56.74.52,1.17,1.29,1.3,2.32.13,1.02-.11,1.87-.69,2.55-.59.68-1.48,1.09-2.67,1.24Zm-6.36,26.97c-2.53.34-5.06.69-7.58,1.05-1.14-7.98-2.27-15.96-3.41-23.94,2.58-.37,5.16-.73,7.75-1.08,1.08,7.99,2.16,15.97,3.25,23.96Zm9.8-14.25c-3.23.4-6.46.82-9.68,1.25-.3-2.22-.59-4.44-.89-6.67,3.25-.43,6.49-.85,9.74-1.26.28,2.22.56,4.45.84,6.67Z"/>
    <path class="cls-4" d="m746.81,807.75c.26,2.31.51,4.61.77,6.92-1.59.18-3.04.11-4.36-.19-1.31-.3-2.44-.8-3.37-1.48-.94-.68-1.74-1.55-2.42-2.59-.68-1.04-1.22-2.17-1.61-3.39-.39-1.22-.68-2.56-.86-4.02-.31-2.54-.62-5.09-.92-7.63-.18-1.46-.22-2.83-.12-4.1.1-1.28.36-2.51.78-3.68.43-1.18,1.03-2.21,1.8-3.09.77-.89,1.78-1.63,3.03-2.23,1.25-.6,2.69-.99,4.33-1.17.26,2.31.51,4.61.77,6.92-1.17.13-1.95.74-2.36,1.83-.41,1.09-.47,2.85-.2,5.27.24,2.1.48,4.19.72,6.29.28,2.42.73,4.12,1.37,5.09.64.97,1.52,1.4,2.67,1.27Zm2.69,6.71c-.25-2.31-.5-4.61-.76-6.92,1.14-.13,1.92-.73,2.34-1.82.42-1.09.5-2.84.24-5.27-.22-2.1-.45-4.19-.67-6.29-.26-2.42-.71-4.12-1.35-5.1-.64-.98-1.55-1.4-2.72-1.27-.25-2.31-.5-4.61-.76-6.92,1.65-.18,3.16-.11,4.5.2,1.35.31,2.49.82,3.43,1.52.94.7,1.75,1.57,2.43,2.63.68,1.05,1.2,2.2,1.56,3.42.36,1.23.62,2.57.76,4.03.25,2.55.51,5.1.76,7.65.15,1.46.16,2.83.05,4.1-.11,1.27-.39,2.5-.83,3.66-.44,1.17-1.04,2.19-1.8,3.06-.76.87-1.74,1.6-2.96,2.18-1.22.58-2.63.96-4.23,1.14Z"/>
    <path class="cls-4" d="m775.54,804.93c.2,2.31.4,4.62.59,6.93-1.59.14-3.04.04-4.35-.3-1.31-.34-2.42-.86-3.33-1.57-.92-.71-1.7-1.59-2.36-2.65-.65-1.06-1.16-2.2-1.52-3.43-.36-1.23-.61-2.57-.75-4.04-.24-2.55-.49-5.1-.73-7.65-.14-1.46-.15-2.83-.02-4.11.13-1.27.42-2.5.87-3.66.46-1.16,1.08-2.18,1.87-3.05.79-.87,1.82-1.58,3.08-2.15,1.26-.57,2.71-.92,4.35-1.06.2,2.31.4,4.62.59,6.93-1.17.1-1.97.69-2.41,1.77-.44,1.08-.55,2.84-.33,5.26.19,2.1.37,4.2.56,6.3.21,2.43.63,4.14,1.24,5.12.61.99,1.49,1.43,2.63,1.34Zm2.51,6.77c-.19-2.31-.39-4.62-.58-6.94,1.15-.1,1.94-.68,2.38-1.76.44-1.08.57-2.83.37-5.26-.17-2.1-.34-4.2-.51-6.31-.2-2.43-.6-4.14-1.22-5.13-.62-.99-1.51-1.44-2.68-1.34-.19-2.31-.39-4.62-.58-6.93,1.66-.14,3.16-.03,4.49.31,1.34.35,2.47.88,3.39,1.6.92.72,1.71,1.62,2.36,2.69.65,1.07,1.14,2.22,1.48,3.46.33,1.24.55,2.59.66,4.05.19,2.55.38,5.11.57,7.66.11,1.46.09,2.83-.05,4.1-.14,1.27-.45,2.49-.93,3.64-.47,1.16-1.1,2.16-1.88,3.01-.78.85-1.78,1.55-3.01,2.11-1.23.55-2.65.9-4.26,1.03Z"/>
    <path class="cls-4" d="m808.2,783.03c-6.1.34-12.2.73-18.29,1.16-.16-2.24-.32-4.47-.48-6.71,6.13-.44,12.26-.83,18.4-1.17,1.21-.07,2.17.19,2.89.78.72.59,1.1,1.38,1.15,2.38.05,1-.25,1.82-.89,2.48-.65.65-1.57,1.01-2.77,1.08Zm-2.69,26.11c-2.54.15-5.09.31-7.63.48-.54-8.14-1.08-16.27-1.61-24.41,2.6-.17,5.19-.33,7.79-.49.48,8.14.97,16.28,1.45,24.42Z"/>
    <path class="cls-4" d="m837.46,786.34c-2.48.08-4.96.16-7.44.25-.06-1.58-.52-2.72-1.38-3.42-.86-.7-2.15-1.02-3.86-.95-3.4.14-6.79.3-10.18.47-.11-2.24-.22-4.48-.34-6.72,3.82-.19,7.65-.37,11.48-.52,3.72-.15,6.59.69,8.58,2.51,1.99,1.82,3.04,4.61,3.15,8.37Zm-13.94,21.88c-2.54.11-5.09.23-7.63.36-.4-8.05-.81-16.1-1.21-24.15,2.6-.13,5.2-.25,7.79-.37.35,8.05.7,16.11,1.05,24.16Zm15.89-10.75c.09,3.19-.73,5.7-2.46,7.55-1.73,1.85-4.16,2.83-7.3,2.95-1.43.05-2.87.11-4.3.17-.09-2.24-.19-4.48-.28-6.72,1.12-.05,2.24-.09,3.36-.14,2.28-.09,3.39-1.2,3.31-3.34-.04-1-.33-1.73-.87-2.18-.55-.46-1.28-.67-2.2-.63-.26.01-.52.02-.78.03-1.19.05-2.12-.22-2.79-.79-.67-.57-1.03-1.38-1.08-2.41-.04-1.03.25-1.86.87-2.5.63-.64,1.54-.98,2.73-1.02.43-.02.86-.03,1.29-.05,3.2-.12,5.74.62,7.59,2.22,1.86,1.6,2.82,3.88,2.91,6.85Z"/>
    <path class="cls-4" d="m852.28,794c1.47-.03,2.93-.05,4.4-.07.51,2.23,1.03,4.45,1.54,6.68-2.45.03-4.9.07-7.35.12-.48,2.22-.95,4.44-1.42,6.66-2.61.05-5.22.12-7.82.19,1.83-8.11,3.7-16.22,5.62-24.33,2.47-.05,4.94-.1,7.42-.14-.8,3.63-1.59,7.26-2.37,10.89Zm9.08-19.43c2.82,10.85,5.57,21.72,8.24,32.59-2.59,0-5.19.02-7.78.05-2.04-8.62-4.13-17.23-6.26-25.84-1.82.03-3.64.06-5.46.09-1.23.02-2.19-.26-2.87-.84-.68-.59-1.03-1.39-1.05-2.43-.02-1.03.3-1.86.96-2.48.66-.62,1.61-.95,2.83-.97,3.8-.07,7.59-.13,11.39-.17Z"/>
    <path class="cls-4" d="m880.68,798.74c-2.56-.02-5.13-.03-7.69-.03,0-8.07,0-16.14,0-24.2,2.62,0,5.24,0,7.86.03-.06,8.07-.11,16.14-.17,24.2Zm8.57,8.53c-5.42-.08-10.84-.12-16.26-.12,0-2.24,0-4.48,0-6.72,5.45,0,10.91.04,16.36.12,1.18.02,2.09.34,2.74.96.64.62.96,1.45.94,2.48-.02,1.03-.36,1.84-1.02,2.43-.66.59-1.58.88-2.75.86Z"/>
    <path class="cls-4" d="m904.28,799.15c-2.56-.07-5.13-.13-7.69-.19.17-8.07.34-16.13.5-24.2,2.62.05,5.24.12,7.86.19-.22,8.07-.44,16.13-.67,24.2Zm8.39,8.7c-5.42-.19-10.84-.34-16.26-.45.05-2.24.09-4.48.14-6.72,5.45.11,10.9.27,16.36.46,1.18.04,2.09.38,2.72,1.01.63.63.93,1.47.89,2.5-.04,1.03-.4,1.83-1.07,2.41-.67.58-1.6.84-2.77.8Z"/>
    <path class="cls-4" d="m941.99,802.87c-.14,2.32-.28,4.63-.42,6.95-2-.12-3.77-.57-5.31-1.34-1.54-.77-2.77-1.79-3.69-3.04-.92-1.25-1.59-2.67-2.03-4.25-.43-1.58-.61-3.27-.52-5.08.13-2.56.26-5.12.38-7.68.09-1.81.43-3.48,1.03-5,.6-1.53,1.43-2.86,2.5-4.01,1.07-1.15,2.43-2.02,4.1-2.62,1.66-.59,3.53-.83,5.59-.71-.14,2.32-.28,4.63-.42,6.95-1.36-.08-2.48.4-3.35,1.43-.87,1.04-1.37,2.73-1.5,5.07-.12,2.11-.24,4.21-.36,6.32-.13,2.34.17,4.07.9,5.2.73,1.13,1.77,1.73,3.1,1.82Zm13.01-20.32c-1.93,1.12-3.86,2.24-5.77,3.36-.69-1.7-2.04-2.62-4.06-2.75.14-2.32.29-4.63.43-6.95,2.56.16,4.65.79,6.26,1.88,1.61,1.09,2.66,2.58,3.14,4.46Zm-11.51,27.39c.14-2.32.29-4.63.43-6.95,1.13.07,2.05-.06,2.76-.4.71-.34,1.28-.9,1.71-1.68,1.68,1.57,3.35,3.15,5.01,4.74-2.07,3.16-5.37,4.58-9.92,4.29Z"/>
    <path class="cls-4" d="m964.61,802.4c-2.56-.21-5.12-.4-7.68-.59.59-8.05,1.19-16.09,1.78-24.14,2.61.19,5.23.39,7.84.61-.65,8.04-1.3,16.08-1.94,24.13Zm7.93,9.13c-5.41-.48-10.81-.91-16.22-1.31.16-2.24.33-4.47.49-6.71,5.44.4,10.88.84,16.32,1.32,1.18.1,2.07.49,2.66,1.16.6.67.85,1.51.75,2.54-.09,1.03-.49,1.81-1.2,2.35-.7.54-1.64.76-2.81.65Z"/>
    <path class="cls-4" d="m991.09,806.97c-.24,2.29-.48,4.58-.72,6.88-1.68-.18-3.17-.57-4.44-1.17-1.28-.61-2.31-1.36-3.1-2.26-.79-.9-1.42-1.95-1.88-3.16-.46-1.21-.75-2.45-.87-3.74-.12-1.29-.11-2.67.03-4.15.62-6.58,1.24-13.16,1.85-19.74,2.62.25,5.24.5,7.85.76-.65,6.47-1.3,12.93-1.95,19.4-.25,2.46-.08,4.23.49,5.34.57,1.1,1.48,1.72,2.74,1.85Zm1.2,7.08c.24-2.29.49-4.58.73-6.87,1.25.13,2.27-.28,3.06-1.24.79-.96,1.32-2.67,1.58-5.12.71-6.46,1.41-12.92,2.12-19.38,2.61.29,5.21.58,7.82.88-.76,6.56-1.53,13.13-2.29,19.69-.21,1.85-.62,3.51-1.21,5-.59,1.49-1.4,2.81-2.42,3.98-1.02,1.17-2.33,2.02-3.93,2.56-1.6.55-3.42.71-5.46.49Z"/>
    <path class="cls-4" d="m1034.12,797.11c-2.46-.35-4.93-.69-7.39-1.02.21-1.56-.05-2.76-.78-3.6-.73-.84-1.95-1.37-3.65-1.59-3.38-.44-6.75-.86-10.13-1.27.27-2.23.54-4.45.81-6.68,3.81.46,7.61.94,11.42,1.44,3.7.48,6.39,1.8,8.04,3.93,1.66,2.13,2.22,5.06,1.69,8.79Zm-17.48,19.19c-2.53-.32-5.06-.64-7.59-.94.97-8,1.94-16,2.9-24.01,2.59.31,5.17.63,7.76.96-1.02,8-2.04,15.99-3.06,23.99Zm17.52-7.9c-.45,3.16-1.69,5.49-3.71,7.03-2.02,1.53-4.59,2.08-7.71,1.67-1.42-.19-2.85-.38-4.27-.56.29-2.22.58-4.45.86-6.67,1.11.14,2.22.29,3.34.44,2.27.3,3.55-.6,3.84-2.73.13-.99-.03-1.76-.49-2.3-.46-.54-1.15-.88-2.06-1-.26-.03-.52-.07-.78-.1-1.18-.16-2.05-.57-2.62-1.25-.57-.68-.79-1.53-.66-2.55.13-1.02.56-1.79,1.29-2.31.73-.52,1.69-.7,2.87-.55.43.06.85.11,1.28.17,3.18.42,5.56,1.59,7.12,3.48,1.56,1.89,2.13,4.31,1.71,7.25Z"/>
  </g>
</svg>