<?xml version="1.0" encoding="utf-8"?>
<!-- Generator: Adobe Illustrator 27.9.0, SVG Export Plug-In . SVG Version: 6.00 Build 0)  -->
<svg version="1.1" id="Layer_1" xmlns="http://www.w3.org/2000/svg" xmlns:xlink="http://www.w3.org/1999/xlink" x="0px" y="0px"
	 viewBox="0 0 1741.6 1389.9" style="enable-background:new 0 0 1741.6 1389.9;" xml:space="preserve">
<style type="text/css">
	.st0{fill:#BE1E2D;}
	.st1{fill:#FFFFFF;}
</style>
<path d="M464.6,859.5c11.6,0,21.6,0.2,31.3,0L464.6,859.5z M971.9,860.2L971.9,860.2l0.6,0c0.1,0,0.2,0,0.4,0H971.9L971.9,860.2z
	 M982.2,860.3L982.2,860.3c17.5,0.2,35.2,0.1,53.6,0.1L982.2,860.3L982.2,860.3z"/>
<path class="st0" d="M971.9,860.3L971.9,860.3l7.8-17.9v0l2.7-6.1c18.5-62.9,37.2-125.8,56.5-188.4c24.7-80.3,40.5-161.8,37.3-246.4
	c-0.6-14.9-3.4-25.2-18.3-32.6c-15-7.4-28.3-18.4-41.6-28.8c-6.2-4.9-11.7-5.4-19.4-4.9c-51.2,2.9-102.5,1.4-153.8,1.2
	c-2,0-4.3-0.3-6-1.2c-14.5-8.3-27.3-3.3-40.5,3.8c-27.5,14.8-56,16.6-84.2,3.1c-16.5-7.9-32.1-15.3-50.7-6.1c-4.6,2.3-11.1,1-16.8,1
	c-31.3,0-62.8,2.2-93.8-0.7c-39.2-3.6-74.7-0.3-103.9,29.4c-4.2,4.2-10.2,6.8-15.8,9.5c-5.3,2.5-7.3,6-7.3,11.9
	c-0.1,46.2,0.5,92.4,8.7,138c13.4,74.8,37.7,146.8,57.8,219.9c10.6,38.5,27.4,75.6,35.7,114.7c3.5,16.6,5.5,33.5,4.9,51
	c-0.2,4.8,7.8,12.7-4.4,13.7c-8.8,0.7-13.2-3.2-13-12.6c0.3-13.8-0.3-27.7-0.3-41.5c0-5.1,0-9.6-5.2-10.6h-12.1l-0.3,0
	c-9.6,0.1-19.7,0-31.3,0c-2.6,0-5.4,0-8.2,0h-3l217.4,267.2l0.7,0.9l89.5,109.9l218.7-299.9c19.3-25.3,38.8-50.6,59.2-77.2h-3
	c-18.5,0-36.1,0.1-53.6,0l-2.5,15.3l2.7,17.9l4.2,13.1l-4.2,5.3l-7.2-2.2l-4.6-16.8c0,0-3.2-18-1.4-26.1
	C971,858.7,971.9,860.3,971.9,860.3L971.9,860.3z M755.7,1089.4c-3.3,2.9-6.7,6.5-11.8,1.9c-13.7-12.2-27.6-24.1-41.1-41.2
	c17,1.8,24.3,12,32.8,19.5c8.7,7.7,15.1,9.8,24,0.4c5.9-6.2,13.8-10.5,21-15.4c4.6-3.1,9.5-5.9,16.4-1.9
	C783,1065.1,769.4,1077.3,755.7,1089.4L755.7,1089.4z M888.4,778c-3.5-6.9,3-12.6-0.5-20.4c-25.6,45.4-59.9,73-115.3,58.8
	c16.8-8,27.9-21.7,39.2-36.4c-47.8,24.5-93.3,15-137.9-7.4c20.5,2.5,40.7,1.9,63.8-3.8c-66.8-8.9-120.7-35.7-159.9-88.7
	c44.3,30.2,88.5,60,146,51.2C656.1,719,601,688.8,570,623.7c34.1,48.9,82.2,67.9,139.9,66.6c-23.2-7.8-46.8-14.7-68.8-26.3
	c-23.5-12.4-39.8-29.5-43.3-57.2c14.2,25.3,34,42.6,63.5,46.2c28.1,3.4,53.8-2.6,76.2-20.9c-51.5,19.1-92.4,10.8-107.4-25.5
	c30.3,27.3,61.7,22.8,98,10.1c-21.5-1-39.5,3.3-58.5-8.3c39.1,1.6,70.1-16.1,103-27c34.5-11.4,90.3,1.3,114,28.5
	c2.4,2.7,5.3,5.7,4.5,9.4c-1.8,7.6-9.5,0.1-13.4,5.4c22,19.7,33.2,44.7,34.3,74.6C913.2,728.2,908.6,755,888.4,778L888.4,778z
	 M595.3,398.9c32.6-5.4,65.5-3.7,98.3-1.5C661,403.7,628.2,403.4,595.3,398.9z M812.2,400.8c0-1.5,0-2.9,0-4.4h94.7
	c0,1.5-0.1,3-0.1,4.5C875.2,402.2,843.7,403.7,812.2,400.8z M963.7,836.3c-1.3,0.5-3,0.6-5.4,0c-0.4-0.1-0.7-0.2-1.1-0.3
	c-10.6-3.3-3.9-10.5-2.5-15c22.8-73.9,44.8-148,65.6-222.5c17-61.1,24.6-123.3,25.9-186.5c0.2-7.5-1.4-12.5-8.2-16.3
	c-7.6-4.2-14.6-9.5-21.7-14.5c-13.1-9.4-26.4-14.7-43.8-13.9c-39.4,1.7-79.1,2.5-118.4-0.5c-24.8-1.8-47.4,0.6-70.2,9.8
	c-30.2,12.1-59.4,4.9-87.8-7.8c-7.8-3.5-15-9.5-23.9-1.8c-1.5,1.3-5,0.3-7.5,0.3c-46.7,0.4-93.3,1.5-140,0.7
	c-15.9-0.3-27.7,5.4-41.2,12.3c-23.9,12.3-29.9,28.9-28.2,55c4.7,74.1,20.2,145.8,40.6,216.7c15.1,52.6,31.3,105,47,157.5
	c1.8,5.9,3.4,11.8,4.7,17.8c0.7,3.3,2.1,7.3-3,8.9c-4.9,1.5-7.8-0.5-9.3-5.2c-1.7-5.3-3.6-10.7-5.2-16
	c-26.2-86.6-53.7-172.9-72.9-261.5c-10.7-49.2-14.9-99-15.8-149.2c-0.1-7.4,1.7-13,8.5-16.5c0.9-0.5,1.9-0.9,2.6-1.7
	c35.8-41.7,84.4-30.2,130-31.2c24.6,0,50.6,5,73.5-1.3c25.7-7.2,44.2,4.6,65.5,10.8c30.1,8.6,58.9,3.6,86.3-10.5
	c7.3-3.8,13.7-5.4,21.8-2.3c8.1,3.1,17,3.4,25.8,3.3c44.6-0.6,89.2-0.9,133.8-1.5c7-0.1,13.1,1.5,18.7,5.7c4.1,3.1,8,6.4,12.3,9.2
	c41.8,27.6,41.2,27.5,38.5,78c-3.8,71-18.7,139.8-39.1,207.6c-17.1,56.9-33.6,113.9-50.6,170.8C967.6,828.8,967.7,834.7,963.7,836.3
	L963.7,836.3z"/>
<path d="M504.9,859.3c-2.9,0.1-5.8,0.2-8.7,0.2h12.1C507.4,859.3,506.2,859.2,504.9,859.3z M979.7,842.4c1.1-1.4,1.9-3.5,2.7-6.1
	L979.7,842.4z"/>
<path d="M670.7,1130.1c0.2-1.2,0.2-2.3,0-3.4l0.7,0.9C671.3,1128.4,671,1129.2,670.7,1130.1L670.7,1130.1z"/>
<path class="st0" d="M805.3,737.8c8.4-15.2,10.3-28.2,2-41.2c-2.2-3.5-4.1-7.5-8.5-8.2c-15.7-2.5-11.8-11.2-5.9-19.6
	c4.7-6.5,3.3-9.7-2.8-14.5c-8.3-6.7-15-15.3-22.4-23.1c-2.4-2.5-5.9-4.8-2.5-9c2.5-3.1,5.8-4.5,9.5-2.8c10.2,4.7,15,0.7,22.3-7.8
	c9.2-10.7,24.5-7.9,37.3-3.3c5.7,2,10.7,5.9,17.9,10c-7.5,2.8-11.5,7.5-8.2,14.4c4.8,10,15.4,11.2,24.4,14.2
	c8.1,2.8,4.9-7.3,9.8-9.8c6.6,11.8,13.3,22.4-0.6,34.3c-4.9,4.2-5.1,11.7,0.3,18.1c13.6,16.1,13.6,24.7,1.1,41.5
	c-1.7,2.3-3,5.5-7.2,5.5c0.8-4,1.8-7.9,2.5-11.8c1.1-6.3,0.6-12.1-5.2-16.6c-6.3-4.9-11.5-1.8-16.8,1.5
	C837.6,718.4,822.9,727.3,805.3,737.8L805.3,737.8z M837.8,687.7c7.2-5.8,25.6,5,27.1-14.1c1-12.8-10.6-15.7-20.3-15
	c-9.4,0.6-22.5-0.3-23.3,14.1C820.8,681.1,824.6,688.8,837.8,687.7L837.8,687.7z M838.6,644.2c-8.8-9.4-15.9-18.2-28.5-18.4
	c-7.2-0.1-15.1-0.2-18.8,7c-2.8,5.5,1.9,10.3,5.1,15c4.8,7.2,10.5,5.2,17.1,3C821.1,648.3,829,646.7,838.6,644.2L838.6,644.2z"/>
<g>
	<path class="st1" d="M587.4,906.1l6-4.5c0.5,1.2,1.4,2.1,2.5,2.7c1.1,0.5,2.3,0.8,3.5,0.8v7.5C593.2,912.6,589.2,910.4,587.4,906.1
		z M601.5,889.9c2.1,0.6,3.9,1.2,5.2,1.8c1.3,0.6,2.5,1.3,3.5,2.2c1,0.9,1.7,1.9,2.2,3.2c0.4,1.2,0.6,2.7,0.6,4.5c0,3.6-1,6.4-3,8.2
		c-2,1.8-4.8,2.8-8.6,2.8v-7.5c2.1-0.2,3.2-1.3,3.2-3.4c0-1-0.3-1.8-1-2.5s-2-1.2-4-1.8c-4.1-1.1-6.9-2.6-8.5-4.2s-2.4-4-2.4-6.8
		c0-1.8,0.3-3.4,0.8-4.8c0.6-1.4,1.3-2.5,2.4-3.4s2.2-1.5,3.6-2c1.4-0.5,2.9-0.7,4.5-0.7v7.5c-0.8,0.1-1.5,0.4-2.1,0.9
		s-0.8,1.3-0.8,2.3s0.3,1.7,0.9,2.2C598.6,889,599.8,889.5,601.5,889.9L601.5,889.9z M613.2,881.8l-6,4.5c-0.6-2.2-2.3-3.3-5-3.3
		v-7.5c2.8,0,5.2,0.5,7,1.4C610.8,878,612.2,879.6,613.2,881.8L613.2,881.8z"/>
	<path class="st1" d="M629.4,905v7.6c-1.7,0-3.3-0.2-4.7-0.7c-1.4-0.5-2.5-1.2-3.5-2c-0.9-0.9-1.7-1.9-2.3-3.1
		c-0.6-1.2-1-2.5-1.3-3.9c-0.3-1.4-0.4-2.9-0.4-4.5v-8.4c0-1.6,0.1-3.1,0.4-4.5c0.3-1.4,0.7-2.7,1.3-3.9c0.6-1.2,1.4-2.3,2.3-3.1
		c0.9-0.9,2.1-1.5,3.5-2s3-0.7,4.7-0.7v7.6c-1.2,0-2.2,0.6-2.7,1.7c-0.6,1.1-0.8,3-0.8,5.7v6.9c0,2.7,0.3,4.6,0.8,5.7
		C627.2,904.4,628.2,904.9,629.4,905L629.4,905z M631.5,912.6V905c1.2,0,2.2-0.6,2.7-1.7c0.6-1.1,0.9-3,0.9-5.7v-6.9
		c0-2.7-0.3-4.6-0.9-5.7c-0.6-1.1-1.5-1.7-2.7-1.7v-7.6c1.8,0,3.3,0.2,4.7,0.7c1.4,0.5,2.5,1.2,3.5,2c0.9,0.9,1.7,1.9,2.3,3.1
		c0.6,1.2,1,2.5,1.3,3.9c0.3,1.4,0.4,2.9,0.4,4.5v8.4c0,1.6-0.1,3.1-0.4,4.5c-0.3,1.4-0.7,2.7-1.3,3.9c-0.6,1.2-1.4,2.3-2.3,3.1
		c-0.9,0.9-2.1,1.5-3.5,2C634.8,912.3,633.3,912.6,631.5,912.6L631.5,912.6z"/>
	<path class="st1" d="M661.9,905v7.6c-2.2,0-4.1-0.4-5.9-1.1s-3.1-1.8-4.2-3.1c-1.1-1.3-1.9-2.8-2.4-4.5s-0.8-3.5-0.8-5.5v-8.4
		c0-2,0.3-3.8,0.8-5.5s1.4-3.2,2.4-4.5c1.1-1.3,2.5-2.3,4.2-3.1s3.7-1.1,5.9-1.1v7.6c-1.5,0-2.6,0.6-3.5,1.8s-1.3,3.1-1.3,5.6v6.9
		c0,2.6,0.4,4.4,1.3,5.6S660.4,905,661.9,905L661.9,905z M674.4,881.8l-5.9,4.1c-0.8-1.8-2.4-2.7-4.5-2.7v-7.6c2.7,0,5,0.5,6.8,1.6
		C672.5,878.3,673.7,879.8,674.4,881.8L674.4,881.8z M664,912.6V905c1.2,0,2.2-0.2,3-0.6s1.3-1.1,1.7-2l5.8,4.8
		C672.4,910.8,669,912.6,664,912.6L664,912.6z"/>
	<path class="st1" d="M690.7,905v7.6c-2.2,0-4.1-0.4-5.9-1.1s-3.1-1.8-4.2-3.1c-1.1-1.3-1.9-2.8-2.4-4.5s-0.8-3.5-0.8-5.5v-8.4
		c0-2,0.3-3.8,0.8-5.5s1.4-3.2,2.4-4.5c1.1-1.3,2.5-2.3,4.2-3.1s3.7-1.1,5.9-1.1v7.6c-1.5,0-2.6,0.6-3.5,1.8s-1.3,3.1-1.3,5.6v6.9
		c0,2.6,0.4,4.4,1.3,5.6S689.2,905,690.7,905L690.7,905z M703.2,881.8l-5.9,4.1c-0.8-1.8-2.4-2.7-4.5-2.7v-7.6c2.7,0,5,0.5,6.8,1.6
		C701.3,878.3,702.5,879.8,703.2,881.8L703.2,881.8z M692.8,912.6V905c1.2,0,2.2-0.2,3-0.6s1.3-1.1,1.7-2l5.8,4.8
		C701.3,910.8,697.8,912.6,692.8,912.6L692.8,912.6z"/>
	<path class="st1" d="M725.7,883.6h-18.9v-7.4h18.9c1.3,0,2.3,0.3,3,1c0.7,0.7,1.1,1.6,1.1,2.7s-0.3,2-1.1,2.7
		S726.9,883.6,725.7,883.6z M715.1,911.9h-8.3v-26.5h8.3V911.9z M728,897.5h-10.9v-7.4H728V897.5z M729.5,911.9h-12.3v-7.4h12.3
		V911.9z"/>
	<path class="st1" d="M749.5,897.3h-1.2c-1.3,0-2.3-0.3-3-1c-0.7-0.7-1-1.6-1-2.7s0.3-2,1-2.7s1.7-1,3-1h0.6c2.1,0,3.2-1,3.2-3.1
		c0-2.2-1.3-3.3-4-3.3h-13.7v-7.4h14.8c3.5,0,6.2,0.9,8.2,2.7s3,4.4,3,7.9s-1,6.1-2.9,7.9C755.7,896.4,753,897.3,749.5,897.3
		L749.5,897.3z M742.8,911.9h-8.3v-26.5h8.3V911.9z M761.4,911.9h-9.1l-6.1-13.1h8.7L761.4,911.9L761.4,911.9z"/>
	<path class="st1" d="M789.1,905v7.6c-2.2,0-4.1-0.4-5.9-1.1s-3.1-1.8-4.2-3.1c-1.1-1.3-1.9-2.8-2.4-4.5s-0.8-3.5-0.8-5.5v-8.4
		c0-2,0.3-3.8,0.8-5.5s1.4-3.2,2.4-4.5c1.1-1.3,2.5-2.3,4.2-3.1s3.7-1.1,5.9-1.1v7.6c-1.5,0-2.6,0.6-3.5,1.8s-1.3,3.1-1.3,5.6v6.9
		c0,2.6,0.4,4.4,1.3,5.6S787.7,905,789.1,905L789.1,905z M801.7,881.8l-5.9,4.1c-0.8-1.8-2.4-2.7-4.5-2.7v-7.6c2.7,0,5,0.5,6.8,1.6
		C799.8,878.3,801,879.8,801.7,881.8L801.7,881.8z M791.2,912.6V905c1.2,0,2.2-0.2,3-0.6s1.3-1.1,1.7-2l5.8,4.8
		C799.7,910.8,796.2,912.6,791.2,912.6L791.2,912.6z"/>
	<path class="st1" d="M813.5,902.7h-8.3v-26.5h8.3V902.7z M822.9,911.9h-17.7v-7.4h17.7c1.3,0,2.3,0.3,3,1c0.7,0.7,1.1,1.6,1.1,2.7
		s-0.3,2-1.1,2.7S824.2,911.9,822.9,911.9z"/>
	<path class="st1" d="M842.5,905v7.6c-1.8,0-3.5-0.3-5-0.8c-1.5-0.5-2.7-1.2-3.6-2.1c-1-0.9-1.7-2-2.4-3.2c-0.6-1.3-1.1-2.6-1.3-4
		s-0.4-2.9-0.4-4.5v-21.7h8.4v21.3c0,2.7,0.4,4.6,1.1,5.8C840.1,904.4,841.2,905,842.5,905z M844.6,912.6V905c1.4,0,2.4-0.6,3.2-1.7
		c0.7-1.1,1.1-3,1.1-5.8v-21.3h8.3v21.7c0,2-0.2,3.9-0.7,5.6s-1.2,3.2-2.1,4.6c-1,1.4-2.3,2.5-3.9,3.3
		C848.8,912.2,846.9,912.6,844.6,912.6L844.6,912.6z"/>
	<path class="st1" d="M887.2,888.6h-8c0-1.7-0.4-3-1.3-3.8s-2.2-1.2-4.1-1.2h-10.9v-7.4h12.2c4,0,7,1,9,3.1S887.2,884.5,887.2,888.6
		L887.2,888.6z M871.3,911.9h-8.3v-26.5h8.3V911.9z M888.9,900.8c0,3.5-1,6.2-2.9,8.2c-1.9,2-4.6,3-8.1,3h-4.7v-7.4h3.6
		c2.5,0,3.7-1.2,3.7-3.5c0-1.1-0.3-1.9-0.9-2.4c-0.6-0.5-1.3-0.8-2.3-0.8h-0.8c-1.3,0-2.3-0.3-3-1c-0.7-0.7-1-1.5-1-2.7s0.3-2,1-2.7
		s1.7-1,3-1h1.4c3.4,0,6.1,0.9,8.1,2.7S888.9,897.6,888.9,900.8L888.9,900.8z"/>
</g>
<g>
	<path class="st1" d="M722.5,1007.7v9.1c-2.2,0-4.2-0.3-5.9-0.9c-1.7-0.6-3.2-1.5-4.3-2.5c-1.1-1.1-2.1-2.4-2.8-3.9
		s-1.3-3.1-1.6-4.8s-0.5-3.5-0.5-5.4v-26h10v25.6c0,3.2,0.4,5.5,1.3,6.9S720.9,1007.7,722.5,1007.7L722.5,1007.7z M725.1,1016.8
		v-9.1c1.6,0,2.9-0.7,3.8-2s1.3-3.7,1.3-6.9v-25.6h10v26c0,2.4-0.3,4.7-0.8,6.7c-0.5,2-1.4,3.9-2.5,5.5c-1.2,1.7-2.7,3-4.7,3.9
		S727.7,1016.8,725.1,1016.8L725.1,1016.8z"/>
	<path class="st1" d="M756.1,1016h-10.3v-10.1h10.3V1016z"/>
	<path class="st1" d="M762.1,999.6v-10.1c0-2.4,0.3-4.6,1-6.6s1.6-3.8,2.9-5.4s3-2.8,5-3.7c2.1-0.9,4.4-1.3,7-1.3v9.1
		c-1.6,0-3,0.7-4.1,2.2s-1.6,3.7-1.6,6.7v8.3c0,3,0.5,5.3,1.6,6.7c1.1,1.5,2.4,2.2,4.1,2.2v9.1c-2.6,0-4.9-0.5-7-1.3
		c-2.1-0.9-3.7-2.1-5-3.7s-2.3-3.4-2.9-5.4C762.4,1004.2,762.1,1002,762.1,999.6L762.1,999.6z M795.2,991.9v9.2
		c0,4.9-1.2,8.7-3.6,11.5s-6.1,4.2-11,4.2v-9.1c1.5,0,2.7-0.5,3.7-1.3c1-0.9,1.4-2.2,1.4-4v-1.4H780v-9.1L795.2,991.9L795.2,991.9z
		 M794,980l-7.4,5.1c-1.1-2.3-3-3.5-5.9-3.5v-9.1C787.3,972.4,791.7,974.9,794,980z"/>
</g>
<path d="M963.7,836.3c-1.3,0.5-3,0.6-5.4,0H963.7z"/>
<path d="M972.9,860.2c-0.1,0-0.2,0-0.4,0l0.2,0H972.9z"/>
<g>
	<path class="st1" d="M540.6,506.4v10.2c-2.3,0-4.4-0.3-6.3-1c-1.8-0.7-3.4-1.6-4.6-2.7s-2.2-2.5-3-4.2s-1.4-3.4-1.7-5.2
		c-0.4-1.8-0.5-3.8-0.5-6v-11.2c0-2.1,0.2-4.1,0.5-6c0.4-1.8,0.9-3.6,1.7-5.2s1.8-3,3-4.2c1.2-1.2,2.8-2.1,4.6-2.7
		c1.8-0.7,3.9-1,6.3-1v10.2c-1.7,0-2.9,0.8-3.6,2.3c-0.8,1.5-1.1,4.1-1.1,7.6v9.2c0,3.6,0.4,6.1,1.1,7.6
		C537.8,505.6,539,506.4,540.6,506.4z M543.5,516.6v-10.2c1.7,0,2.9-0.8,3.6-2.3c0.8-1.5,1.1-4.1,1.1-7.6v-9.2
		c0-3.6-0.4-6.1-1.1-7.6c-0.8-1.5-2-2.3-3.6-2.3v-10.2c2.4,0,4.5,0.3,6.3,1c1.8,0.7,3.4,1.6,4.6,2.7c1.2,1.2,2.2,2.5,3,4.2
		c0.8,1.6,1.4,3.4,1.7,5.2c0.3,1.8,0.5,3.8,0.5,6v11.2c0,2.1-0.2,4.1-0.5,6c-0.3,1.8-0.9,3.6-1.7,5.2c-0.8,1.6-1.8,3-3,4.2
		c-1.2,1.2-2.8,2.1-4.6,2.7C547.9,516.2,545.8,516.6,543.5,516.6z"/>
	<path class="st1" d="M577.8,515.7H567v-41.4l10.8,20.6V515.7z M588.3,502.8c-1.1,0-2-0.2-2.8-0.7c-0.7-0.4-1.4-1.2-2-2.3L567.1,468
		h11.7l14.1,27.1c0.4,0.8,0.6,1.8,0.6,3c0,1.4-0.5,2.6-1.5,3.4C591,502.4,589.8,502.8,588.3,502.8z M608.6,468l-13.5,25.6l-5.7-11
		l7.1-14.6H608.6z M608.6,515.7h-10.8v-21.1l10.8-20.8V515.7z"/>
	<path class="st1" d="M632.2,506.4v10.2c-2.3,0-4.4-0.3-6.3-1c-1.8-0.7-3.4-1.6-4.6-2.7s-2.2-2.5-3-4.2s-1.4-3.4-1.7-5.2
		c-0.4-1.8-0.5-3.8-0.5-6v-11.2c0-2.1,0.2-4.1,0.5-6c0.4-1.8,0.9-3.6,1.7-5.2s1.8-3,3-4.2c1.2-1.2,2.8-2.1,4.6-2.7
		c1.8-0.7,3.9-1,6.3-1v10.2c-1.7,0-2.9,0.8-3.6,2.3c-0.8,1.5-1.1,4.1-1.1,7.6v9.2c0,3.6,0.4,6.1,1.1,7.6
		C629.3,505.6,630.5,506.4,632.2,506.4z M635,516.6v-10.2c1.7,0,2.9-0.8,3.6-2.3c0.8-1.5,1.1-4.1,1.1-7.6v-9.2
		c0-3.6-0.4-6.1-1.1-7.6c-0.8-1.5-2-2.3-3.6-2.3v-10.2c2.4,0,4.5,0.3,6.3,1c1.8,0.7,3.4,1.6,4.6,2.7c1.2,1.2,2.2,2.5,3,4.2
		c0.8,1.6,1.4,3.4,1.7,5.2c0.3,1.8,0.5,3.8,0.5,6v11.2c0,2.1-0.2,4.1-0.5,6c-0.3,1.8-0.9,3.6-1.7,5.2c-0.8,1.6-1.8,3-3,4.2
		c-1.2,1.2-2.8,2.1-4.6,2.7C639.4,516.2,637.3,516.6,635,516.6z"/>
	<path class="st1" d="M669.3,515.7h-10.8v-41.4l10.8,20.6V515.7z M679.8,502.8c-1.1,0-2-0.2-2.8-0.7c-0.7-0.4-1.4-1.2-2-2.3
		L658.7,468h11.7l14.1,27.1c0.4,0.8,0.6,1.8,0.6,3c0,1.4-0.5,2.6-1.5,3.4C682.6,502.4,681.3,502.8,679.8,502.8z M700.1,468
		l-13.5,25.6l-5.7-11l7.1-14.6H700.1z M700.2,515.7h-10.8v-21.1l10.8-20.8V515.7z"/>
	<path class="st1" d="M723.7,506.4v10.2c-2.3,0-4.4-0.3-6.3-1c-1.8-0.7-3.4-1.6-4.6-2.7s-2.2-2.5-3-4.2s-1.4-3.4-1.7-5.2
		c-0.4-1.8-0.5-3.8-0.5-6v-11.2c0-2.1,0.2-4.1,0.5-6c0.4-1.8,0.9-3.6,1.7-5.2s1.8-3,3-4.2c1.2-1.2,2.8-2.1,4.6-2.7
		c1.8-0.7,3.9-1,6.3-1v10.2c-1.7,0-2.9,0.8-3.6,2.3c-0.8,1.5-1.1,4.1-1.1,7.6v9.2c0,3.6,0.4,6.1,1.1,7.6
		C720.9,505.6,722.1,506.4,723.7,506.4z M726.5,516.6v-10.2c1.7,0,2.9-0.8,3.6-2.3c0.8-1.5,1.1-4.1,1.1-7.6v-9.2
		c0-3.6-0.4-6.1-1.1-7.6c-0.8-1.5-2-2.3-3.6-2.3v-10.2c2.4,0,4.5,0.3,6.3,1c1.8,0.7,3.4,1.6,4.6,2.7c1.2,1.2,2.2,2.5,3,4.2
		c0.8,1.6,1.4,3.4,1.7,5.2c0.3,1.8,0.5,3.8,0.5,6v11.2c0,2.1-0.2,4.1-0.5,6c-0.3,1.8-0.9,3.6-1.7,5.2c-0.8,1.6-1.8,3-3,4.2
		c-1.2,1.2-2.8,2.1-4.6,2.7C731,516.2,728.9,516.6,726.5,516.6z"/>
	<path class="st1" d="M784.4,515.7h-1.7c-1.2,0-2.2-0.5-3.1-1.4c-0.9-1-1.3-2.2-1.3-3.7c0-1.5,0.4-2.7,1.2-3.7
		c0.8-1,1.8-1.4,2.9-1.4h1c0.7,0,1.4-0.1,1.9-0.2c0.5-0.1,1.1-0.5,1.7-1c0.6-0.5,1-1.3,1.4-2.2c0.4-0.9,0.6-2.2,0.9-3.8
		c0.2-1.6,0.3-3.6,0.3-5.8c0-2.9-0.2-5.3-0.6-7.2c-0.4-1.9-1.1-3.4-2-4.5c-0.9-1.1-2-1.8-3.1-2.2c-1.2-0.4-2.7-0.6-4.5-0.6h-14.1
		V468H780c2.7,0,5,0.2,7.1,0.7c2.1,0.4,4,1.2,5.8,2.3c1.8,1.1,3.3,2.6,4.4,4.4c1.2,1.8,2.1,4.2,2.7,7c0.7,2.9,1,6.2,1,10
		c0,3.6-0.2,6.7-0.7,9.3c-0.5,2.7-1.2,4.9-2.1,6.6c-0.9,1.8-2,3.2-3.4,4.3c-1.4,1.1-2.9,1.9-4.6,2.3
		C788.5,515.5,786.6,515.7,784.4,515.7z M776.5,515.7h-11.2v-35.3h11.2V515.7z"/>
	<path class="st1" d="M820,496.2h6.3l2.1,9.8h-10.6l-2.3,9.7h-11.4l9-35.3h10.6L820,496.2z M833.4,468l11.5,47.7h-11.3l-8.6-37.9
		h-7.8c-1.8,0-3.1-0.4-4.1-1.3c-0.9-0.9-1.4-2.1-1.4-3.6s0.5-2.7,1.4-3.6c1-0.9,2.3-1.3,4-1.3H833.4z"/>
	<path class="st1" d="M860.3,515.7h-10.4v-41.4l10.4,20.3V515.7z M862.1,468l20.7,41.1c0.5,1.2,0.8,2.2,0.8,3c0,1.6-0.5,2.7-1.6,3.5
		c-1.1,0.8-2.4,1.2-3.9,1.2c-2.1,0-3.6-1.1-4.7-3.1L850.2,468H862.1z M873.8,468h10.4v37.6l-10.4-21V468z"/>
	<path class="st1" d="M903.4,515.7h-11.1V468h11.1V515.7z"/>
	<path class="st1" d="M936.8,477.9h-25.2V468h25.2c1.7,0,3,0.4,4,1.3c0.9,0.9,1.4,2.1,1.4,3.6s-0.5,2.7-1.4,3.6
		C939.8,477.4,938.5,477.9,936.8,477.9z M922.7,515.7h-11.1v-35.3h11.1V515.7z M939.9,496.5h-14.6v-9.8h14.6V496.5z M941.8,515.7
		h-16.5v-9.8h16.5V515.7z"/>
	<path class="st1" d="M959.7,503.4h-11.1V468h11.1V503.4z M972.3,515.7h-23.7v-9.8h23.7c1.7,0,3,0.4,4,1.3s1.4,2.1,1.4,3.6
		s-0.5,2.7-1.4,3.6C975.4,515.3,974,515.7,972.3,515.7z"/>
</g>
</svg>
