<?xml version="1.0" encoding="UTF-8"?>
<svg id="Layer_1" data-name="Layer 1" xmlns="http://www.w3.org/2000/svg" viewBox="0 0 1741.59 1389.89">
  <defs>
    <style>
      .cls-1 {
        fill: #5b2736;
      }

      .cls-1, .cls-2, .cls-3 {
        stroke-width: 0px;
      }

      .cls-2 {
        fill: #231f20;
      }

      .cls-3 {
        fill: #8c572f;
      }
    </style>
  </defs>
  <path class="cls-2" d="m1146.18,914.98c2.26,4.26.96,6.33-2.27,8.82-6.85,5.27-14.55,6.87-23.04,6.86-213.9-.11-427.8-.12-641.7-.18-4.62,0-9.25-.06-13.84-.5-19.2-1.83-21.73-6.29-13.9-23.57,1.89-4.18,4-8.54,4.56-12.99,4.13-33.19,5.33-66.43.51-99.67-1.18-8.19-4.06-15.85-7.9-23.16-5.81-11.06-3.17-16.55,9.51-18.14,6.57-.83,13.32-.42,19.98-.42,106.69-.02,213.38-.01,320.07-.01s219.53-.02,329.29.05c4.57.01,9.4.07,13.64,1.48,7.74,2.58,13.03,6.35,5.3,15.3-8.04,9.31-10.4,21.33-10.85,33.08-1.47,38.12-8.51,76.9,10.64,113.05Z"/>
  <path class="cls-1" d="m1053.56,625.24c0,15.9-.43,31.81.17,47.68.34,9.1-3.7,10.61-11.77,13.46-16.77,5.93-34.63,6.94-51.28,14.35-9.26,4.12-7.92,8.03-7.99,14.24-.3,27.19,5.61,23.59-24.14,24.67-2.56.09-5.13.02-7.69,0-21.79-.13-22.36-.11-23.17-21.09-.37-9.65-4.92-11.83-12.47-9.91-7.87,2-23.41-6.39-21.26,10.72,2.56,20.29-7.71,21.77-22.7,20.34-4.06-.39-8.2,0-12.3,0-21.7-.08-22.08-.05-24.28-21.54-.8-7.81-4.47-9.04-11.03-8.89-17.94.4-35.9.78-53.83.41-9.58-.2-13.41,3.74-11.77,12.78,2.69,14.82-4.47,18.85-17.73,17.35-5.07-.57-10.29-.59-15.37-.11-15.56,1.46-25.26-1.47-22.68-21.03,1.99-15.1-11.77-8.35-18.81-10.02-7.46-1.77-12.21.37-12.47,10.09-.57,20.88-1.15,20.87-21.84,20.94-2.56,0-5.13,0-7.69,0-27.37-.06-27.15-.07-28.52-27.01-.85-16.7-16.62-12.2-25.69-16.26-11.59-5.18-24.49-7.54-36.94-10.67-6.75-1.7-10.57-4.6-10.53-12.34.17-32.82.09-65.64-.31-98.45-.11-8.7,4.48-9.96,11.53-10.23,34.91-1.36,69.66.38,104.43,3.63,77.63,7.26,155.34,11.76,233.26,4,48.45-4.83,96.93-9.26,145.71-9.54,14.23-.08,21.83,2.69,19.8,19.42-1.71,14.15-.35,28.67-.35,43.03-.1,0-.2,0-.3,0Zm-431.67-36.37c-23.39-.75-42.4,16.17-43.21,38.46-.84,23.13,16.78,40.31,42.05,40.99,22.28.6,39.81-17.27,40.49-41.26.61-21.49-15.82-37.44-39.33-38.2Zm387.32,18.52c-5.88-18.74-27.24-28.37-47.95-21.6-22.43,7.32-33.26,31.51-24.59,54.89,8.62,23.25,35.08,34.81,57.86,25.29,16.79-7.01,25.91-21.65,20.65-33.16-28.36,24.85-39.29,28.37-53.21,17.1-10.01-8.1-13.29-25.35-6.92-36.36,9.04-15.64,25.57-17.52,54.15-6.16Zm-265.09,2.42c-6.63,0-13.26,0-19.89,0-4.43,0-6.87,1.98-5.69,6.6,5.16,20.2,10.25,40.43,15.79,60.53,1.56,5.67,6.59,7.05,12.21,7.08,6.13.04,7.51-3.95,8.71-8.67,3.26-12.83,6.91-25.57,9.97-38.45,6.26-26.4,6.14-26.43-21.1-27.09Zm104.79.38c-4.07,0-8.18.34-12.22-.06-11.23-1.13-16.03,1.52-11.6,14.21,5.51,15.79,9,32.28,13.97,48.27,1.46,4.69,1.31,11.98,9.89,10.99,6.96-.81,11.01-4.52,12.68-11.22,2.83-11.35,5.81-22.67,8.65-34.02q7.14-28.48-21.38-28.16Z"/>
  <path class="cls-2" d="m1086.08,346.71c-51.45-1.22-102.26,1.42-152.88-3.78-42.48-4.37-84.09-12.2-123.18-30.25-5.64-2.6-10.66-4.74-17.24-1.22-49.39,26.4-103.8,30.79-158.07,33.55-38.32,1.95-76.79,5.31-115.25,1.36-8.05-.83-9.46,3.14-5.76,8.97,15.88,25.02,13.65,52.9,13.53,80.56-.44,95.93-.95,191.86-.74,287.79.03,11.56-4.04,13.7-14.06,13.39-34.57-1.08-28.22,4.85-28.72-28.01-.65-42.56.17-85.15.29-127.73.1-33.44,6.01-66.33,10.38-99.27,5.37-40.43-.82-78.49-15.53-115.91-6-15.25-10.64-31.03-16.51-46.34-3.52-9.16-.73-11.25,8.42-11.17,47.71.4,95.43.7,143.14.26,61.56-.57,121.81-8.07,176.94-38.39,6.79-3.73,12.39-2.88,18.68.47,53.95,28.72,112.5,37.05,172.5,37.85,47.19.63,94.4.37,141.59-.19,11.85-.14,14.07,2.86,9.51,13.7-5.75,13.67-9.08,28.4-15.26,41.85-21.65,47.14-23.41,95.96-14.41,146.03,12.99,72.25,7.08,145.24,8.33,217.95.12,7.05-2.19,10.76-9.58,10.29-.51-.03-1.03-.03-1.54,0-31.37,1.44-31.17,1.43-31.39-30.04-.7-99.01-1.34-198.02-2.57-297.02-.24-19.42,7.93-35.69,15.17-52.58,1.55-3.61,5.34-6.36,4.23-12.12Z"/>
  <path class="cls-2" d="m519.23,945.94c13.41-4.84,18.55,3.8,23.06,17.5,15.05,45.73,47,78.83,84.89,106.36,51.82,37.65,106.32,71.22,161.9,103.03,5.26,3.01,9.48,5.92,16.56,1.52,55.26-34.31,111.79-66.7,164.38-105.09,40.14-29.3,72.4-65.1,83.96-115.5,1.22-5.31,3.69-7.35,9.26-8,33.18-3.87,37.01-.32,26.88,31-13.6,42.05-38.86,76.7-73.07,104.33-64.88,52.4-137.58,92.63-210.02,133.22-6.03,3.38-11.05,3.56-17.17.2-77.77-42.72-155.13-86.18-222.8-144.3-31.78-27.3-52.89-62.4-65.93-102.16-7.14-21.77-6.84-21.87,18.11-22.12Z"/>
  <path class="cls-1" d="m722.95,1032.52c0-25.1.4-50.22-.22-75.31-.22-8.9,2.44-11.28,11.18-11.2,42.01.37,84.02.35,126.03-.16,9.61-.12,12.16,3.16,12.11,12.34-.31,50.21-.16,100.42.09,150.63.03,6.76-1.57,11.29-7.91,14.89-19.12,10.87-38,22.19-56.65,33.86-5.9,3.69-10.62,4.6-16.84.81-19.2-11.71-38.62-23.08-58.13-34.26-6.59-3.78-8.95-8.9-8.87-16.3.25-25.1.1-50.21.1-75.31-.3,0-.59,0-.89,0Zm77.5,14.57q-19.44,26.25-42.03,30.97c20.36,10.68,25.11,26.09,15.18,46.75,12.04-4.18,16.15-14.39,24.96-14.9,9.37-.54,12.87,11.76,26.42,14.49-16.68-22.47-2.32-34.97,12.5-49.65-27.26,9.78-32.43-7.58-37.03-27.67Zm-25.59-21.43c4.78-1.76,7.02-2.01,8.45-3.21,9.77-8.17,19.34-14.54,29.62-.62,1.58,2.14,4.6,2.79,6.83.8,2.89-2.57,1.33-6.05,0-8.49-6.22-11.45-2.48-19.3,7.91-25.66,2.76-1.69,6.1-3.7,6.85-9-12.87-.31-29.05,4.17-29.36-17.22-.06-3.94-.64-10.58-7.24-9.56-5.4.83-6.16,6.45-6.27,11.06-.28,11.99-6.97,15.97-17.96,15.66-3.32-.09-7.11-1.12-11.81,3.6,20.31,8.05,19.44,24.09,12.98,42.64Z"/>
  <path class="cls-1" d="m796.71,487.19c-45.55,0-91.09.05-136.64-.1-3.84-.01-9.26,2.14-11.28-1.97-2.64-5.39,3.57-7.65,6.44-10.74,38.01-40.82,76-81.67,114.32-122.19,18.7-19.77,39.08-20.99,57.23-1.94,39.53,41.49,78.1,83.9,116.96,126.02,2.24,2.43,6.21,4.86,4.1,8.97-1.67,3.27-5.48,1.82-8.32,1.84-47.62.36-95.17,4.28-142.82.11Zm-5.45-79.48c-5.33.84-9.04-2.53-13.19-4.2-4.26-1.71-8.06-4.54-13.18-7.54q7.3,23.12-11.9,33.12c-.45.24-.99.34-1.4.62-2.8,1.91-7.53,3.09-5.29,7.74,2.06,4.29,5.87,7.42,11.14,5.26,4.7-1.93,8.94-5.05,13.7-6.77,4.39-1.58,9.16-1.78,12.39,2.91,3.68,5.36-2.05,7.02-4.14,9.9-7,9.62-14.39,19-14.35,32.76,8.47-3,12.44-9.21,17.4-14.17q17.93-17.95,40.03-4.56c2.51,1.52,5.22,4.77,7.76,1.33,1.59-2.16,1.97-5.86,1.59-8.69-.77-5.66-7.46-9.77-4.91-16.59,16.61,1.68,20.81.13,35-12.92-2.31-.16-4.33-.37-6.35-.43-9.69-.31-22.76,3.21-28.3-1.73-8.5-7.58,5.26-17.06,5.5-26.65.01-.42-.52-.86-1-1.62-9.09,1.44-12.86,12.96-23.06,12.89-4.85-15.03-4.15-30.39-4.65-45.64-.14-4.36.89-10.76-5.52-10.55-5.7.19-3.47,6.36-3.78,10-1.29,15.2,1.09,30.7-3.47,45.54Z"/>
  <path class="cls-1" d="m835.39,335.34c76.66,22.56,152.17,24.95,227.88,23.24,1.17,7.9-4.05,10.51-7.41,13.93-19.39,19.75-39.32,38.98-58.28,59.13-6.25,6.64-9.32,4.56-14.46-.54-22.53-22.37-45.35-44.44-68.1-66.59-3.93-3.83-7.78-7.97-13.15-7.79,16.94,18.11,34.07,36.47,51.27,54.74,2.1,2.23,4.75,3.91,6.97,6.04,8.1,7.76,20.86,14.6,22.78,23.7,1.79,8.48-13.55,14.92-18.76,24.14-5.64,9.98-9.64,5.01-14.48-.34-26.83-29.61-53.83-59.07-80.6-88.73-11.25-12.46-23.81-23.87-33.66-40.92Zm149.49,65.58c5.18-2.83,11.11-5.34,9.81-12.2-1.23-6.47-6.04-11.05-12.87-10.99-4.57.04-9.07,2.35-8.37,8.57.82,7.22,4.81,11.9,11.44,14.62Z"/>
  <path class="cls-1" d="m697.38,357.9c-4.67-.8-8.18,3.91-12.4,7.51-24.14,20.65-46.7,42.95-69.15,65.38-3.02,3.02-5.44,10.06-12.02,4.03-24.79-22.77-48.31-46.73-74.56-75.53,80.3,1.6,155.46-2.5,232.25-21.05-22.49,30.12-47.42,53.51-70.17,78.78-14.39,15.98-29.92,30.93-44.15,47.04-6.02,6.82-9.2,6.19-15.22.07-18.9-19.22-18.74-18.51.35-37.8,22.27-22.5,43.68-45.87,65.07-68.44Zm-73.95,28.67c.28-5.62-2.79-9.49-8.83-9.32-7.46.21-12.61,3.91-11.79,12.32.51,5.24,2.31,10.95,8.68,10.32,6.88-.68,12.53-4.31,11.93-13.32Z"/>
  <path class="cls-1" d="m538.6,483.34c11.56-9.75,22.3-8.1,32.82-13.59-4.12-.41-5.94-.77-7.75-.75-22.81.28-22.93.3-23.23-23.59-.21-16.84-.04-33.68-.04-55.27,31.25,33.92,65.25,60.14,95.14,96.25-33.39,1.47-63.08.4-96.94-3.04Z"/>
  <path class="cls-1" d="m1028.06,468.56c9.29,6.93,18.96,6.03,27.87,14.44-31.74,5.45-60.69,3.97-93.6,4.16,28.64-34.41,59.49-61.43,91.04-93.45,0,26.55.09,50.07-.07,73.58-.03,4.85-3.75,3.41-6.69,3.07-5.03-.58-10.08-.99-18.54-1.8Z"/>
  <path class="cls-1" d="m899.48,1021.1c0-21.46.31-42.93-.16-64.38-.18-8.15,2.63-10.47,10.57-10.46,8.15,0,10.4,2.84,10.31,10.76-.45,39.85-.86,79.72-.19,119.56.2,11.62-7.83,15.18-14.83,18.99-6.69,3.64-5.32-3.74-5.35-7.02-.21-22.48-.11-44.97-.11-67.45-.08,0-.15,0-.23,0Z"/>
  <path class="cls-1" d="m696.72,1098c-14.99-4.57-20.46-12.34-20.15-26.51.82-37.79.31-75.62,0-113.43-.06-6.58-1.27-11.93,8.53-11.8,8.24.11,11.86,1.92,11.79,11.01-.35,46.47-.16,92.94-.16,140.74Z"/>
  <path class="cls-1" d="m946.06,1071.13c-3.27-41.39-1.77-78.58-1.59-115.76.04-7.7,3.35-9.26,10.21-9.29,7.22-.03,9.83,2.38,9.75,9.72-.31,30.61-.36,61.23-.06,91.83.11,11.74-9.87,13.99-18.31,23.49Z"/>
  <path class="cls-1" d="m651.39,1066.17c-13.09-4.33-20.24-9.27-19.71-23.11,1.09-28.64.62-57.34.47-86.01-.03-6.8,1.44-10.62,9.29-10.22,5.65.29,10.04.44,10.01,7.9-.14,36.69-.06,73.37-.06,111.45Z"/>
  <path class="cls-1" d="m608.12,1032.68c-10.51-4.27-14.96-10.43-15.14-19.4-.39-19.48-.5-38.96-.79-58.44-.07-5,.17-9.06,7.18-8.67,5.39.29,8.82,1.3,8.8,7.6-.1,25.85-.04,51.71-.04,78.92Z"/>
  <path class="cls-1" d="m989.19,1033.22c-2.02-28.08-1.34-53.47-.82-78.88.11-5.5,1.68-8.55,7.96-8.27,6.29.28,7.6,3.8,7.55,9.05-.19,18.44-.35,36.89-.42,55.34-.04,9.23-6.22,14.71-14.26,22.76Z"/>
  <path class="cls-1" d="m642.78,632.48c.07,13.13-12.4,24.69-26.43,24.5-12.6-.17-23.88-12.6-24.38-26.87-.47-13.36,9.14-22.83,23.21-22.87,15.12-.04,27.53,11.31,27.6,25.24Z"/>
  <g>
    <path class="cls-3" d="m512.83,863.72h-1.18c-1.36,0-2.53-.54-3.52-1.61-.99-1.07-1.49-2.49-1.49-4.26s.47-3.18,1.43-4.24c.95-1.06,2.12-1.59,3.5-1.59h.61c1.71,0,3.14-.63,4.28-1.89,1.14-1.26,1.71-3.16,1.71-5.68,0-2.36-.62-4.25-1.85-5.66-1.24-1.41-3.27-2.12-6.09-2.12h-18.49v-11.69h19.1c6.71,0,11.83,1.66,15.37,4.97,3.54,3.31,5.31,8.15,5.31,14.5s-1.64,10.88-4.93,14.23c-3.29,3.35-7.87,5.03-13.77,5.03Zm-7.86,18h-13.24v-42.03h13.24v42.03Z"/>
    <path class="cls-3" d="m561.95,858.47h-1.87c-2.04,0-3.61-.53-4.72-1.59-1.11-1.06-1.67-2.48-1.67-4.28s.56-3.18,1.67-4.24c1.11-1.06,2.69-1.59,4.72-1.59h1.02c3.39,0,5.09-1.64,5.09-4.93,0-3.45-2.09-5.17-6.27-5.17h-21.83v-11.69h23.5c5.57,0,9.92,1.43,13.07,4.3,3.15,2.87,4.72,7.03,4.72,12.48s-1.51,9.67-4.54,12.48c-3.03,2.81-7.32,4.21-12.89,4.21Zm-10.63,23.25h-13.24v-42.03h13.24v42.03Zm29.53,0h-14.5l-9.69-20.77h13.85l10.34,20.77Z"/>
    <path class="cls-3" d="m600.35,881.72h-13.24v-56.73h13.24v56.73Z"/>
    <path class="cls-3" d="m640.06,836.68h-30.02v-11.69h30.02c2.04,0,3.62.53,4.74,1.59,1.13,1.06,1.69,2.48,1.69,4.28s-.56,3.21-1.69,4.26c-1.13,1.04-2.71,1.57-4.74,1.57Zm-16.78,45.04h-13.24v-42.03h13.24v42.03Zm20.53-22.85h-17.35v-11.69h17.35v11.69Zm2.28,22.85h-19.63v-11.69h19.63v11.69Z"/>
    <path class="cls-3" d="m650.81,872.48l9.57-7.17c.87,1.98,2.21,3.41,4.03,4.28,1.82.87,3.65,1.3,5.5,1.3v11.85c-9.86,0-16.22-3.42-19.1-10.26Zm22.36-25.7c3.39.98,6.16,1.94,8.29,2.89,2.13.95,4,2.13,5.6,3.54,1.6,1.41,2.74,3.09,3.42,5.03.68,1.94,1.02,4.3,1.02,7.07,0,5.76-1.56,10.1-4.68,13.03-3.12,2.93-7.67,4.4-13.64,4.4v-11.85c3.39-.25,5.09-2.02,5.09-5.34,0-1.6-.53-2.9-1.59-3.91-1.06-1-3.18-1.96-6.35-2.85-6.46-1.82-10.97-4.07-13.52-6.76-2.55-2.69-3.83-6.27-3.83-10.75,0-2.85.45-5.39,1.34-7.62.9-2.23,2.15-4.03,3.77-5.42,1.62-1.38,3.5-2.44,5.66-3.16,2.16-.72,4.54-1.08,7.15-1.08v11.85c-1.33.14-2.42.63-3.28,1.49-.86.86-1.28,2.06-1.28,3.6s.47,2.74,1.4,3.5c.94.76,2.75,1.53,5.44,2.32Zm18.57-12.95l-9.57,7.21c-.95-3.45-3.62-5.17-8.02-5.17v-11.85c4.53,0,8.21.76,11.04,2.28,2.82,1.52,5.01,4.03,6.56,7.53Z"/>
    <path class="cls-3" d="m726.16,836.68h-31.03v-11.69h31.03c2.04,0,3.63.54,4.79,1.63,1.15,1.09,1.73,2.5,1.73,4.24s-.58,3.14-1.73,4.21c-1.15,1.07-2.75,1.61-4.79,1.61Zm-7.17,45.04h-13.24v-42.52h13.24v42.52Z"/>
    <path class="cls-3" d="m784.52,836.68h-30.02v-11.69h30.02c2.04,0,3.62.53,4.74,1.59,1.13,1.06,1.69,2.48,1.69,4.28s-.56,3.21-1.69,4.26c-1.13,1.04-2.71,1.57-4.74,1.57Zm-16.78,45.04h-13.24v-42.03h13.24v42.03Zm20.53-22.85h-17.35v-11.69h17.35v11.69Zm2.28,22.85h-19.63v-11.69h19.63v11.69Z"/>
    <path class="cls-3" d="m811.44,881.72h-12.83v-49.28l12.83,24.52v24.76Zm12.5-15.35c-1.33,0-2.44-.27-3.32-.79-.88-.53-1.66-1.46-2.34-2.79l-19.51-37.79h13.93l16.78,32.21c.49,1,.73,2.2.73,3.58,0,1.71-.6,3.07-1.81,4.07-1.21,1-2.7,1.51-4.46,1.51Zm24.11-41.38l-16.01,30.46-6.76-13.11,8.43-17.35h14.34Zm.08,56.73h-12.83v-25.09l12.83-24.72v49.81Z"/>
    <path class="cls-3" d="m887.84,836.68h-30.02v-11.69h30.02c2.04,0,3.62.53,4.74,1.59,1.13,1.06,1.69,2.48,1.69,4.28s-.56,3.21-1.69,4.26c-1.13,1.04-2.71,1.57-4.74,1.57Zm-16.78,45.04h-13.24v-42.03h13.24v42.03Zm20.53-22.85h-17.35v-11.69h17.35v11.69Zm2.28,22.85h-19.63v-11.69h19.63v11.69Z"/>
    <path class="cls-3" d="m925.8,858.47h-1.87c-2.04,0-3.61-.53-4.72-1.59-1.11-1.06-1.67-2.48-1.67-4.28s.56-3.18,1.67-4.24c1.11-1.06,2.69-1.59,4.72-1.59h1.02c3.39,0,5.09-1.64,5.09-4.93,0-3.45-2.09-5.17-6.27-5.17h-21.83v-11.69h23.5c5.57,0,9.92,1.43,13.07,4.3,3.15,2.87,4.72,7.03,4.72,12.48s-1.51,9.67-4.54,12.48c-3.03,2.81-7.32,4.21-12.89,4.21Zm-10.63,23.25h-13.24v-42.03h13.24v42.03Zm29.53,0h-14.5l-9.69-20.77h13.85l10.34,20.77Z"/>
    <path class="cls-3" d="m964.2,881.72h-13.24v-56.73h13.24v56.73Z"/>
    <path class="cls-3" d="m1000.82,836.68h-31.03v-11.69h31.03c2.04,0,3.63.54,4.79,1.63,1.15,1.09,1.73,2.5,1.73,4.24s-.58,3.14-1.73,4.21c-1.15,1.07-2.75,1.61-4.79,1.61Zm-7.17,45.04h-13.24v-42.52h13.24v42.52Z"/>
    <path class="cls-3" d="m1031.16,870.73v12.01c-2.93,0-5.55-.42-7.86-1.24-2.31-.83-4.21-1.96-5.72-3.38-1.51-1.42-2.76-3.14-3.75-5.15-.99-2.01-1.69-4.12-2.1-6.33s-.61-4.61-.61-7.19v-34.46h13.28v33.88c0,4.29.58,7.34,1.75,9.14,1.17,1.81,2.84,2.71,5.01,2.71Zm3.34,12.01v-12.01c2.17,0,3.84-.9,5.01-2.71,1.17-1.81,1.75-4.85,1.75-9.14v-33.88h13.24v34.46c0,3.23-.36,6.19-1.08,8.88-.72,2.69-1.84,5.14-3.36,7.35s-3.6,3.94-6.25,5.19c-2.65,1.25-5.75,1.87-9.31,1.87Z"/>
    <path class="cls-3" d="m1060.24,872.48l9.57-7.17c.87,1.98,2.21,3.41,4.03,4.28,1.82.87,3.65,1.3,5.5,1.3v11.85c-9.86,0-16.22-3.42-19.1-10.26Zm22.36-25.7c3.39.98,6.16,1.94,8.29,2.89,2.13.95,4,2.13,5.6,3.54,1.6,1.41,2.74,3.09,3.42,5.03.68,1.94,1.02,4.3,1.02,7.07,0,5.76-1.56,10.1-4.68,13.03-3.12,2.93-7.67,4.4-13.64,4.4v-11.85c3.39-.25,5.09-2.02,5.09-5.34,0-1.6-.53-2.9-1.59-3.91-1.06-1-3.18-1.96-6.35-2.85-6.46-1.82-10.97-4.07-13.52-6.76-2.55-2.69-3.83-6.27-3.83-10.75,0-2.85.45-5.39,1.34-7.62.9-2.23,2.15-4.03,3.77-5.42,1.62-1.38,3.5-2.44,5.66-3.16,2.16-.72,4.54-1.08,7.15-1.08v11.85c-1.33.14-2.42.63-3.28,1.49-.86.86-1.28,2.06-1.28,3.6s.47,2.74,1.4,3.5c.94.76,2.75,1.53,5.44,2.32Zm18.57-12.95l-9.57,7.21c-.95-3.45-3.62-5.17-8.02-5.17v-11.85c4.53,0,8.21.76,11.04,2.28,2.82,1.52,5.01,4.03,6.56,7.53Z"/>
  </g>
  <polygon class="cls-1" points="613.1 493.64 623.26 514.22 645.98 517.52 629.54 533.55 633.42 556.17 613.1 545.49 592.79 556.17 596.67 533.55 580.23 517.52 602.95 514.22 613.1 493.64"/>
  <polygon class="cls-1" points="694.11 494.89 704.27 515.48 726.98 518.78 710.55 534.8 714.43 557.42 694.11 546.74 673.79 557.42 677.67 534.8 661.23 518.78 683.95 515.48 694.11 494.89"/>
  <polygon class="cls-1" points="776.28 494.89 786.44 515.48 809.16 518.78 792.72 534.8 796.6 557.42 776.28 546.74 755.96 557.42 759.84 534.8 743.41 518.78 766.12 515.48 776.28 494.89"/>
  <polygon class="cls-1" points="861.9 493.64 872.06 514.22 894.78 517.52 878.34 533.55 882.22 556.17 861.9 545.49 841.58 556.17 845.46 533.55 829.03 517.52 851.74 514.22 861.9 493.64"/>
  <polygon class="cls-1" points="949.42 493.64 959.58 514.22 982.29 517.52 965.86 533.55 969.74 556.17 949.42 545.49 929.1 556.17 932.98 533.55 916.54 517.52 939.26 514.22 949.42 493.64"/>
</svg>