<?xml version="1.0" encoding="UTF-8"?>
<svg id="Layer_1" data-name="Layer 1" xmlns="http://www.w3.org/2000/svg" viewBox="0 0 1741.59 1389.89">
  <defs>
    <style>
      .cls-1, .cls-2, .cls-3 {
        stroke-width: 0px;
      }

      .cls-2 {
        fill: #be1e2d;
      }

      .cls-3 {
        fill: #fff;
      }
    </style>
  </defs>
  <path class="cls-1" d="m464.62,859.46c11.58.05,21.61.18,31.26.05l-31.26-.05Zm507.33.78l-.04.08.59-.06c.11-.01.24-.01.36-.02h-.91Zm10.3.02v.06c17.51.15,35.15.03,53.61.02l-53.61-.08Z"/>
  <path class="cls-2" d="m971.91,860.32l.04-.08,7.78-17.81v-.03s2.68-6.12,2.68-6.12c18.48-62.91,37.19-125.75,56.46-188.42,24.68-80.31,40.46-161.82,37.34-246.39-.56-14.93-3.41-25.22-18.3-32.58-14.98-7.4-28.31-18.42-41.62-28.8-6.25-4.88-11.7-5.37-19.42-4.94-51.23,2.9-102.55,1.39-153.83,1.16-2.01-.01-4.29-.29-5.97-1.25-14.46-8.33-27.32-3.31-40.5,3.78-27.45,14.75-55.97,16.63-84.25,3.1-16.54-7.92-32.09-15.3-50.69-6.08-4.63,2.3-11.12,1.04-16.75,1.04-31.3.01-62.8,2.16-93.83-.72-39.16-3.65-74.71-.26-103.9,29.39-4.17,4.24-10.23,6.84-15.76,9.47-5.34,2.53-7.28,6.02-7.29,11.94-.1,46.19.5,92.36,8.67,137.98,13.41,74.81,37.71,146.78,57.83,219.85,10.61,38.53,27.37,75.61,35.68,114.74,3.53,16.56,5.54,33.49,4.93,51.05-.16,4.8,7.83,12.73-4.37,13.65-8.83.67-13.18-3.19-13-12.56.26-13.84-.29-27.7-.31-41.55,0-5.14.04-9.57-5.24-10.62h-12.11s-.3-.01-.3-.01c-9.65.13-19.68,0-31.26-.05-2.65-.01-5.38-.02-8.2-.02h-3l217.36,267.16.72.88,89.45,109.94,218.66-299.92c19.3-25.35,38.83-50.6,59.25-77.16h-3c-18.46.01-36.1.13-53.62-.02l-2.5,15.28,2.67,17.92,4.18,13.06-4.18,5.34-7.25-2.23-4.62-16.79s-3.23-18.03-1.37-26.12c1.87-8.08,2.74-6.46,2.74-6.46Zm-216.19,229.04c-3.31,2.89-6.66,6.51-11.83,1.91-13.67-12.17-27.59-24.06-41.12-41.24,17.05,1.83,24.34,12.02,32.82,19.46,8.73,7.65,15.1,9.76,23.99.36,5.86-6.2,13.78-10.49,20.97-15.36,4.6-3.11,9.51-5.87,16.44-1.88-14,12.51-27.54,24.73-41.27,36.75Zm132.71-311.34c-3.53-6.92,3.03-12.63-.49-20.38-25.57,45.42-59.92,72.95-115.32,58.77,16.79-7.99,27.9-21.72,39.24-36.42-47.83,24.46-93.27,15.01-137.93-7.36,20.47,2.49,40.72,1.9,63.82-3.82-66.77-8.9-120.7-35.74-159.92-88.7,44.26,30.15,88.47,60.03,145.97,51.24-67.74-12.4-122.82-42.55-153.77-107.69,34.09,48.87,82.2,67.94,139.94,66.61-23.24-7.77-46.78-14.68-68.75-26.28-23.48-12.4-39.77-29.51-43.34-57.18,14.23,25.27,34.01,42.63,63.55,46.21,28.13,3.42,53.79-2.63,76.21-20.94-51.48,19.07-92.4,10.8-107.36-25.46,30.3,27.35,61.66,22.77,98,10.13-21.47-.95-39.5,3.33-58.45-8.28,39.13,1.64,70.14-16.14,102.96-27.01,34.5-11.43,90.33,1.31,114,28.48,2.39,2.74,5.35,5.74,4.51,9.37-1.76,7.62-9.54.11-13.43,5.37,21.98,19.71,33.22,44.7,34.3,74.57,1.05,28.93-3.59,55.78-23.74,78.77Zm-293.13-379.09c32.61-5.35,65.45-3.66,98.31-1.48-32.58,6.22-65.38,5.96-98.31,1.48Zm216.9,1.91c0-1.47,0-2.94.01-4.41h94.67c-.04,1.5-.08,3-.13,4.5-31.53,1.31-63.06,2.81-94.55-.09Zm151.48,435.44c-1.3.52-3.04.59-5.41,0-.36-.09-.74-.2-1.13-.32-10.6-3.31-3.89-10.5-2.5-15,22.83-73.88,44.81-148,65.61-222.48,17.05-61.07,24.63-123.32,25.89-186.55.15-7.54-1.42-12.46-8.24-16.28-7.57-4.23-14.61-9.45-21.66-14.53-13.1-9.43-26.43-14.68-43.76-13.94-39.41,1.68-79.1,2.45-118.37-.46-24.84-1.84-47.38.63-70.21,9.81-30.21,12.15-59.41,4.88-87.77-7.77-7.77-3.46-15.05-9.5-23.87-1.82-1.48,1.29-4.97.3-7.53.32-46.66.38-93.34,1.54-139.98.67-15.89-.3-27.72,5.38-41.22,12.29-23.93,12.26-29.9,28.87-28.25,55.04,4.69,74.08,20.24,145.81,40.65,216.71,15.14,52.64,31.31,104.98,46.97,157.46,1.76,5.89,3.38,11.83,4.66,17.84.71,3.3,2.1,7.35-2.97,8.89-4.86,1.48-7.85-.49-9.33-5.21-1.69-5.35-3.56-10.65-5.18-16.02-26.16-86.62-53.7-172.85-72.86-261.45-10.66-49.25-14.89-99.03-15.83-149.25-.14-7.42,1.7-13.05,8.52-16.53.91-.46,1.92-.94,2.56-1.69,35.8-41.72,84.39-30.23,129.96-31.24,24.62.01,50.64,5.05,73.47-1.33,25.7-7.18,44.19,4.65,65.55,10.76,30.11,8.61,58.94,3.62,86.31-10.5,7.31-3.77,13.72-5.35,21.75-2.27,8.13,3.12,16.96,3.43,25.77,3.31,44.6-.61,89.2-.9,133.8-1.5,6.98-.09,13.14,1.52,18.67,5.72,4.07,3.09,8.03,6.37,12.28,9.18,41.82,27.6,41.18,27.54,38.47,78.03-3.82,71.02-18.73,139.8-39.11,207.65-17.08,56.88-33.64,113.92-50.56,170.84-1.22,4.15-1.13,10.02-5.15,11.62Z"/>
  <path class="cls-1" d="m504.92,859.3c-2.9.1-5.8.17-8.74.21h12.11c-.94-.18-2.05-.26-3.37-.21Zm474.82-16.9c1.11-1.44,1.89-3.47,2.67-6.12l-2.67,6.12Z"/>
  <path class="cls-1" d="m670.74,1130.05c.18-1.18.18-2.33.04-3.45l.72.88c-.2.88-.45,1.74-.76,2.57Z"/>
  <path class="cls-2" d="m805.33,737.8c8.36-15.2,10.34-28.15,2.05-41.18-2.25-3.54-4.07-7.52-8.49-8.23-15.73-2.52-11.85-11.24-5.88-19.6,4.68-6.54,3.27-9.65-2.77-14.53-8.28-6.69-15.02-15.29-22.38-23.11-2.37-2.52-5.92-4.83-2.53-8.99,2.52-3.09,5.77-4.47,9.52-2.75,10.21,4.66,15.01.67,22.34-7.82,9.21-10.66,24.45-7.93,37.34-3.35,5.69,2.02,10.72,5.91,17.88,10-7.5,2.83-11.49,7.54-8.18,14.44,4.81,10.01,15.4,11.15,24.41,14.21,8.13,2.76,4.92-7.26,9.75-9.82,6.59,11.8,13.34,22.37-.61,34.27-4.86,4.15-5.13,11.67.28,18.07,13.57,16.09,13.6,24.73,1.1,41.55-1.74,2.34-2.96,5.49-7.19,5.5.84-4,1.79-7.87,2.45-11.78,1.06-6.34.59-12.1-5.15-16.59-6.3-4.93-11.5-1.76-16.85,1.45-14.79,8.85-29.56,17.73-47.1,28.26Zm32.48-50.14c7.25-5.83,25.64,4.95,27.09-14.13.97-12.8-10.57-15.66-20.28-15.02-9.42.62-22.49-.3-23.35,14.07-.51,8.53,3.36,16.24,16.55,15.08Zm.79-43.44c-8.85-9.36-15.93-18.2-28.53-18.39-7.2-.11-15.09-.22-18.75,7.01-2.78,5.5,1.93,10.3,5.07,14.98,4.84,7.21,10.55,5.24,17.08,3.03,7.59-2.57,15.53-4.15,25.13-6.62Z"/>
  <g>
    <path class="cls-3" d="m506.13,514.27l7.39-5.54c.67,1.53,1.71,2.63,3.11,3.3,1.4.67,2.82,1.01,4.25,1.01v9.15c-7.61,0-12.53-2.64-14.75-7.92Zm17.27-19.85c2.62.75,4.75,1.5,6.4,2.23,1.65.73,3.09,1.65,4.32,2.74,1.24,1.09,2.12,2.38,2.64,3.88.52,1.5.79,3.32.79,5.46,0,4.44-1.21,7.8-3.62,10.06-2.41,2.26-5.92,3.4-10.54,3.4v-9.15c2.62-.19,3.93-1.56,3.93-4.12,0-1.24-.41-2.24-1.23-3.02-.82-.78-2.45-1.51-4.91-2.2-4.99-1.4-8.47-3.15-10.44-5.22-1.97-2.08-2.96-4.84-2.96-8.3,0-2.2.35-4.16,1.04-5.88.69-1.72,1.66-3.11,2.91-4.18,1.25-1.07,2.7-1.88,4.37-2.44s3.51-.83,5.52-.83v9.15c-1.03.1-1.87.49-2.53,1.15-.66.66-.99,1.59-.99,2.78s.36,2.12,1.08,2.71c.72.59,2.12,1.18,4.2,1.79Zm14.34-10l-7.39,5.57c-.73-2.66-2.8-3.99-6.2-3.99v-9.15c3.5,0,6.34.59,8.52,1.76,2.18,1.17,3.87,3.11,5.06,5.82Z"/>
    <path class="cls-3" d="m555.1,503.52h5.82l1.92,8.99h-9.78l-2.08,8.9h-10.47l8.24-32.46h9.72l-3.37,14.56Zm12.27-25.92l10.6,43.81h-10.41l-7.86-34.78h-7.14c-1.61,0-2.86-.4-3.73-1.21-.87-.81-1.31-1.9-1.31-3.29s.44-2.48,1.32-3.3c.88-.82,2.12-1.23,3.71-1.23h14.81Z"/>
    <path class="cls-3" d="m592.71,510.09h-10.22v-32.49h10.22v32.49Zm11.54,11.32h-21.76v-9.03h21.76c1.57,0,2.79.41,3.66,1.23.87.82,1.31,1.92,1.31,3.3s-.44,2.48-1.31,3.29c-.87.81-2.09,1.21-3.66,1.21Z"/>
    <path class="cls-3" d="m624.07,521.41h-10.22v-43.81h10.22v43.81Z"/>
    <path class="cls-3" d="m641.46,521.41h-9.91v-38.05l9.91,18.93v19.12Zm9.65-11.86c-1.03,0-1.88-.2-2.56-.61-.68-.41-1.28-1.13-1.81-2.15l-15.06-29.19h10.76l12.96,24.88c.38.78.57,1.7.57,2.77,0,1.32-.47,2.37-1.4,3.14-.93.78-2.08,1.16-3.44,1.16Zm18.62-31.95l-12.36,23.52-5.22-10.13,6.51-13.4h11.07Zm.06,43.81h-9.91v-19.37l9.91-19.09v38.46Z"/>
    <path class="cls-3" d="m711.59,486.63h-23.96v-9.03h23.96c1.57,0,2.8.42,3.7,1.26.89.84,1.34,1.93,1.34,3.27s-.45,2.43-1.34,3.26-2.12,1.24-3.7,1.24Zm-5.54,34.78h-10.22v-32.83h10.22v32.83Z"/>
    <path class="cls-3" d="m730.18,493.26h5.47c1.59,0,2.83.41,3.71,1.23.88.82,1.32,1.91,1.32,3.27s-.44,2.46-1.32,3.29c-.88.83-2.12,1.24-3.71,1.24h-5.47v19.12h-10.22v-43.81h10.22v15.66Zm11.92,28.15v-43.81h10.25v43.81h-10.25Z"/>
    <path class="cls-3" d="m782.98,486.63h-23.18v-9.03h23.18c1.57,0,2.79.41,3.66,1.23.87.82,1.31,1.92,1.31,3.3s-.44,2.48-1.31,3.29c-.87.81-2.09,1.21-3.66,1.21Zm-12.96,34.78h-10.22v-32.46h10.22v32.46Zm15.85-17.64h-13.4v-9.03h13.4v9.03Zm1.76,17.64h-15.16v-9.03h15.16v9.03Z"/>
    <path class="cls-3" d="m804.81,514.27l7.39-5.54c.67,1.53,1.71,2.63,3.11,3.3,1.4.67,2.82,1.01,4.25,1.01v9.15c-7.61,0-12.53-2.64-14.75-7.92Zm17.27-19.85c2.62.75,4.75,1.5,6.4,2.23,1.65.73,3.09,1.65,4.32,2.74,1.24,1.09,2.12,2.38,2.64,3.88.52,1.5.79,3.32.79,5.46,0,4.44-1.21,7.8-3.62,10.06-2.41,2.26-5.92,3.4-10.54,3.4v-9.15c2.62-.19,3.93-1.56,3.93-4.12,0-1.24-.41-2.24-1.23-3.02-.82-.78-2.45-1.51-4.91-2.2-4.99-1.4-8.47-3.15-10.44-5.22-1.97-2.08-2.96-4.84-2.96-8.3,0-2.2.35-4.16,1.04-5.88.69-1.72,1.66-3.11,2.91-4.18,1.25-1.07,2.7-1.88,4.37-2.44s3.51-.83,5.52-.83v9.15c-1.03.1-1.87.49-2.53,1.15-.66.66-.99,1.59-.99,2.78s.36,2.12,1.08,2.71c.72.59,2.12,1.18,4.2,1.79Zm14.34-10l-7.39,5.57c-.73-2.66-2.8-3.99-6.2-3.99v-9.15c3.5,0,6.34.59,8.52,1.76,2.18,1.17,3.87,3.11,5.06,5.82Z"/>
    <path class="cls-3" d="m850.13,477.6l6.16,27.64,2.89-11.54,4.4,15.28-3.62,12.42h-10.38l-10.41-43.81h10.94Zm14.62,0c1.45,0,2.57.37,3.38,1.1.81.73,1.44,1.96,1.9,3.68l10.16,39.03h-10.38l-10.16-36.26c-.21-.69-.31-1.49-.31-2.39,0-1.51.48-2.75,1.45-3.71.96-.96,2.29-1.45,3.96-1.45Zm11.57,16.76l3.81-16.76h10.44l-8.9,36.92-5.35-20.16Z"/>
    <path class="cls-3" d="m904,503.52h5.82l1.92,8.99h-9.78l-2.08,8.9h-10.47l8.24-32.46h9.72l-3.37,14.56Zm12.27-25.92l10.6,43.81h-10.41l-7.86-34.78h-7.14c-1.61,0-2.86-.4-3.73-1.21-.87-.81-1.31-1.9-1.31-3.29s.44-2.48,1.32-3.3c.88-.82,2.12-1.23,3.71-1.23h14.81Z"/>
    <path class="cls-3" d="m949.83,503.45h-1.45c-1.57,0-2.79-.41-3.65-1.23-.86-.82-1.29-1.92-1.29-3.3s.43-2.45,1.29-3.27c.86-.82,2.08-1.23,3.65-1.23h.79c2.62,0,3.93-1.27,3.93-3.8,0-2.66-1.61-3.99-4.84-3.99h-16.86v-9.03h18.15c4.3,0,7.66,1.11,10.1,3.32,2.43,2.21,3.65,5.42,3.65,9.64s-1.17,7.47-3.51,9.64c-2.34,2.17-5.66,3.25-9.95,3.25Zm-8.21,17.96h-10.22v-32.46h10.22v32.46Zm22.8,0h-11.2l-7.49-16.04h10.69l7.99,16.04Z"/>
    <path class="cls-3" d="m979.17,521.41h-9.91v-38.05l9.91,18.93v19.12Zm9.65-11.86c-1.03,0-1.88-.2-2.56-.61-.68-.41-1.28-1.13-1.81-2.15l-15.06-29.19h10.76l12.96,24.88c.38.78.57,1.7.57,2.77,0,1.32-.47,2.37-1.4,3.14-.93.78-2.08,1.16-3.44,1.16Zm18.62-31.95l-12.36,23.52-5.22-10.13,6.51-13.4h11.07Zm.06,43.81h-9.91v-19.37l9.91-19.09v38.46Z"/>
  </g>
  <g>
    <path class="cls-3" d="m587.39,906.1l6.02-4.51c.55,1.25,1.39,2.14,2.54,2.69,1.14.55,2.3.82,3.46.82v7.46c-6.2,0-10.21-2.15-12.02-6.46Zm14.07-16.17c2.14.62,3.87,1.22,5.22,1.82,1.34.6,2.52,1.34,3.52,2.23,1.01.89,1.73,1.94,2.15,3.17.43,1.22.64,2.7.64,4.45,0,3.62-.98,6.36-2.95,8.2-1.97,1.84-4.83,2.77-8.59,2.77v-7.46c2.14-.15,3.2-1.27,3.2-3.36,0-1.01-.33-1.83-1-2.46-.67-.63-2-1.23-4-1.79-4.07-1.14-6.9-2.56-8.51-4.25-1.61-1.69-2.41-3.95-2.41-6.77,0-1.79.28-3.39.85-4.79.56-1.4,1.35-2.54,2.37-3.41,1.02-.87,2.2-1.53,3.56-1.99,1.36-.45,2.86-.68,4.5-.68v7.46c-.84.09-1.52.4-2.06.94-.54.54-.81,1.29-.81,2.27s.29,1.73.88,2.2c.59.48,1.73.97,3.42,1.46Zm11.69-8.15l-6.02,4.54c-.6-2.17-2.28-3.26-5.05-3.26v-7.46c2.85,0,5.17.48,6.95,1.43,1.78.96,3.15,2.54,4.13,4.74Z"/>
    <path class="cls-3" d="m629.41,904.95v7.61c-1.74,0-3.31-.25-4.69-.74-1.38-.5-2.54-1.17-3.46-2.04-.92-.86-1.68-1.9-2.28-3.13-.6-1.22-1.03-2.52-1.29-3.9-.27-1.38-.4-2.87-.4-4.47v-8.41c0-1.61.13-3.1.4-4.47.26-1.38.7-2.67,1.29-3.9.6-1.22,1.36-2.26,2.28-3.13.92-.86,2.08-1.54,3.46-2.04,1.38-.5,2.95-.74,4.69-.74v7.61c-1.25,0-2.15.57-2.72,1.7-.56,1.14-.85,3.04-.85,5.7v6.92c0,2.67.28,4.57.85,5.7.56,1.14,1.47,1.7,2.72,1.7Zm2.1,7.61v-7.61c1.25,0,2.16-.57,2.73-1.7.57-1.14.86-3.04.86-5.7v-6.92c0-2.67-.29-4.57-.86-5.7-.57-1.14-1.48-1.7-2.73-1.7v-7.61c1.76,0,3.33.25,4.72.74,1.38.5,2.53,1.17,3.45,2.04.91.86,1.67,1.91,2.28,3.13.61,1.22,1.04,2.52,1.29,3.9.26,1.38.38,2.87.38,4.47v8.41c0,1.61-.13,3.1-.38,4.47-.26,1.38-.69,2.67-1.29,3.9-.61,1.22-1.37,2.26-2.28,3.13-.91.86-2.06,1.54-3.45,2.04-1.38.5-2.96.74-4.72.74Z"/>
    <path class="cls-3" d="m661.88,904.95v7.61c-2.19,0-4.14-.38-5.87-1.13-1.73-.75-3.12-1.79-4.19-3.1-1.07-1.32-1.88-2.82-2.44-4.52s-.83-3.54-.83-5.52v-8.41c0-1.98.28-3.82.83-5.52s1.37-3.21,2.44-4.52c1.07-1.32,2.46-2.35,4.19-3.1,1.73-.75,3.68-1.13,5.87-1.13v7.61c-1.45,0-2.61.59-3.47,1.78-.86,1.19-1.29,3.06-1.29,5.63v6.92c0,2.56.43,4.44,1.29,5.63.86,1.19,2.02,1.78,3.47,1.78Zm12.51-23.12l-5.9,4.1c-.85-1.81-2.36-2.72-4.51-2.72v-7.61c2.72,0,4.97.53,6.75,1.6,1.79,1.07,3,2.61,3.65,4.63Zm-10.41,30.73v-7.61c1.23,0,2.22-.21,2.96-.63s1.32-1.07,1.73-1.96l5.77,4.79c-2,3.61-5.48,5.41-10.46,5.41Z"/>
    <path class="cls-3" d="m690.69,904.95v7.61c-2.19,0-4.14-.38-5.87-1.13-1.73-.75-3.12-1.79-4.19-3.1-1.07-1.32-1.88-2.82-2.44-4.52s-.83-3.54-.83-5.52v-8.41c0-1.98.28-3.82.83-5.52s1.37-3.21,2.44-4.52c1.07-1.32,2.46-2.35,4.19-3.1,1.73-.75,3.68-1.13,5.87-1.13v7.61c-1.45,0-2.61.59-3.47,1.78-.86,1.19-1.29,3.06-1.29,5.63v6.92c0,2.56.43,4.44,1.29,5.63.86,1.19,2.02,1.78,3.47,1.78Zm12.51-23.12l-5.9,4.1c-.85-1.81-2.36-2.72-4.51-2.72v-7.61c2.72,0,4.97.53,6.75,1.6,1.79,1.07,3,2.61,3.65,4.63Zm-10.41,30.73v-7.61c1.23,0,2.22-.21,2.96-.63s1.32-1.07,1.73-1.96l5.77,4.79c-2,3.61-5.48,5.41-10.46,5.41Z"/>
    <path class="cls-3" d="m725.65,883.57h-18.89v-7.36h18.89c1.28,0,2.28.33,2.99,1,.71.67,1.06,1.56,1.06,2.69s-.35,2.02-1.06,2.68c-.71.66-1.7.99-2.99.99Zm-10.56,28.35h-8.33v-26.45h8.33v26.45Zm12.92-14.38h-10.92v-7.36h10.92v7.36Zm1.44,14.38h-12.35v-7.36h12.35v7.36Z"/>
    <path class="cls-3" d="m749.54,897.28h-1.18c-1.28,0-2.27-.33-2.97-1-.7-.67-1.05-1.56-1.05-2.69s.35-2,1.05-2.67c.7-.67,1.69-1,2.97-1h.64c2.14,0,3.2-1.03,3.2-3.1,0-2.17-1.32-3.26-3.95-3.26h-13.74v-7.36h14.79c3.5,0,6.25.9,8.23,2.7s2.97,4.42,2.97,7.86-.95,6.09-2.86,7.86c-1.91,1.77-4.61,2.65-8.11,2.65Zm-6.69,14.64h-8.33v-26.45h8.33v26.45Zm18.58,0h-9.12l-6.1-13.07h8.71l6.51,13.07Z"/>
    <path class="cls-3" d="m789.14,904.95v7.61c-2.19,0-4.14-.38-5.87-1.13-1.73-.75-3.12-1.79-4.19-3.1-1.07-1.32-1.88-2.82-2.44-4.52s-.83-3.54-.83-5.52v-8.41c0-1.98.28-3.82.83-5.52s1.37-3.21,2.44-4.52c1.07-1.32,2.46-2.35,4.19-3.1,1.73-.75,3.68-1.13,5.87-1.13v7.61c-1.45,0-2.61.59-3.47,1.78-.86,1.19-1.29,3.06-1.29,5.63v6.92c0,2.56.43,4.44,1.29,5.63.86,1.19,2.02,1.78,3.47,1.78Zm12.51-23.12l-5.9,4.1c-.85-1.81-2.36-2.72-4.51-2.72v-7.61c2.72,0,4.97.53,6.75,1.6,1.79,1.07,3,2.61,3.65,4.63Zm-10.41,30.73v-7.61c1.23,0,2.22-.21,2.96-.63s1.32-1.07,1.73-1.96l5.77,4.79c-2,3.61-5.48,5.41-10.46,5.41Z"/>
    <path class="cls-3" d="m813.54,902.69h-8.33v-26.48h8.33v26.48Zm9.41,9.23h-17.74v-7.36h17.74c1.28,0,2.28.33,2.99,1,.71.67,1.06,1.56,1.06,2.69s-.35,2.02-1.06,2.68c-.71.66-1.7.99-2.99.99Z"/>
    <path class="cls-3" d="m842.53,905v7.56c-1.85,0-3.49-.26-4.95-.78-1.45-.52-2.65-1.23-3.6-2.13-.95-.9-1.73-1.98-2.36-3.24-.62-1.26-1.06-2.59-1.32-3.99s-.38-2.9-.38-4.52v-21.68h8.36v21.33c0,2.7.37,4.62,1.1,5.75.73,1.14,1.79,1.7,3.15,1.7Zm2.1,7.56v-7.56c1.37,0,2.42-.57,3.15-1.7.73-1.14,1.1-3.05,1.1-5.75v-21.33h8.33v21.68c0,2.03-.23,3.9-.68,5.59s-1.16,3.23-2.11,4.63c-.96,1.39-2.27,2.48-3.93,3.27-1.67.79-3.62,1.18-5.86,1.18Z"/>
    <path class="cls-3" d="m887.18,888.57h-7.97c0-1.73-.44-2.99-1.33-3.79-.89-.8-2.25-1.21-4.08-1.21h-10.87v-7.36h12.17c3.95,0,6.95,1.03,9,3.09,2.05,2.06,3.08,5.15,3.08,9.27Zm-15.92,23.35h-8.33v-26.45h8.33v26.45Zm17.66-11.12c0,3.49-.97,6.21-2.91,8.18-1.94,1.96-4.63,2.95-8.06,2.95h-4.69v-7.36h3.64c2.48,0,3.72-1.17,3.72-3.51,0-1.09-.29-1.9-.86-2.42-.57-.52-1.35-.78-2.35-.78h-.85c-1.28,0-2.27-.33-2.97-.99-.7-.66-1.05-1.55-1.05-2.68s.35-2.02,1.05-2.69c.7-.67,1.69-1,2.97-1h1.38c3.43,0,6.12.91,8.06,2.72,1.94,1.81,2.91,4.34,2.91,7.59Z"/>
  </g>
  <g>
    <path class="cls-3" d="m722.53,1007.69v9.08c-2.21,0-4.19-.31-5.94-.94-1.74-.63-3.18-1.48-4.32-2.55-1.14-1.08-2.08-2.37-2.83-3.89-.75-1.52-1.28-3.11-1.58-4.78s-.46-3.48-.46-5.43v-26.03h10.03v25.6c0,3.24.44,5.54,1.32,6.91s2.14,2.05,3.78,2.05Zm2.52,9.08v-9.08c1.64,0,2.9-.68,3.78-2.05s1.32-3.67,1.32-6.91v-25.6h10v26.03c0,2.44-.27,4.68-.82,6.71-.54,2.03-1.39,3.88-2.54,5.55-1.15,1.67-2.72,2.98-4.72,3.92-2,.94-4.34,1.42-7.03,1.42Z"/>
    <path class="cls-3" d="m756.09,1016h-10.34v-10.09h10.34v10.09Z"/>
    <path class="cls-3" d="m762.06,999.63v-10.09c0-2.38.33-4.59,1-6.63.67-2.04,1.64-3.85,2.92-5.43s2.95-2.82,5.01-3.72c2.06-.9,4.39-1.35,7-1.35v9.14c-1.64,0-2.99.72-4.06,2.17-1.07,1.45-1.6,3.69-1.6,6.72v8.31c0,3.04.53,5.28,1.6,6.72,1.07,1.45,2.42,2.17,4.06,2.17v9.14c-2.6,0-4.94-.45-7-1.35-2.06-.9-3.73-2.14-5.01-3.72s-2.26-3.39-2.92-5.43c-.67-2.04-1-4.25-1-6.63Zm33.16-7.75v9.2c0,4.86-1.21,8.69-3.63,11.49-2.42,2.8-6.09,4.2-11.01,4.2v-9.14c1.5,0,2.72-.45,3.68-1.34.95-.89,1.43-2.21,1.43-3.95v-1.38h-5.72v-9.08h15.26Zm-1.26-11.91l-7.44,5.08c-1.07-2.34-3.05-3.51-5.94-3.51v-9.14c6.71,0,11.17,2.52,13.38,7.57Z"/>
  </g>
  <path class="cls-1" d="m963.68,836.28c-1.3.52-3.04.59-5.41,0h5.41Z"/>
  <path class="cls-1" d="m972.86,860.24c-.12.01-.25.01-.36.02l.23-.02h.13Z"/>
</svg>