<?xml version="1.0" encoding="utf-8"?>
<!-- Generator: Adobe Illustrator 28.0.0, SVG Export Plug-In . SVG Version: 6.00 Build 0)  -->
<svg version="1.1" id="Layer_1" xmlns="http://www.w3.org/2000/svg" xmlns:xlink="http://www.w3.org/1999/xlink" x="0px" y="0px"
	 viewBox="0 0 1741.6 1389.9" style="enable-background:new 0 0 1741.6 1389.9;" xml:space="preserve">
<style type="text/css">
	.st0{fill:url(#SVGID_1_);}
	.st1{fill:url(#SVGID_00000024680341230394699420000002181738906894822047_);}
	.st2{fill:url(#SVGID_00000075140383668079829780000014247084735273024132_);}
	.st3{fill:url(#SVGID_00000111165047320641963600000002143370737717316776_);}
	.st4{fill:url(#SVGID_00000181787545569397932970000007658680853049945259_);}
	.st5{fill:url(#SVGID_00000057830008919155931670000014028724200712794013_);}
	.st6{fill:url(#SVGID_00000154400526909711540270000016825813792964317824_);}
	.st7{fill:url(#SVGID_00000033349930392596009670000014562174787377804966_);}
	.st8{fill:url(#SVGID_00000096763298066530407470000002431537738681759136_);}
	.st9{fill:url(#SVGID_00000143597468372845046260000015403822675130995104_);}
	.st10{fill:url(#SVGID_00000102522626324272131310000000662334844258026626_);}
	.st11{fill:url(#SVGID_00000177468842035984062830000007986388652843616428_);}
	.st12{fill:#FFFFFF;}
	.st13{fill:#AFAC37;}
</style>
<linearGradient id="SVGID_1_" gradientUnits="userSpaceOnUse" x1="1072.8739" y1="1006.2742" x2="637.5139" y2="253.8642" gradientTransform="matrix(1 0 0 -1 4.262400e-03 1390.6145)">
	<stop  offset="0" style="stop-color:#000000"/>
	<stop  offset="1" style="stop-color:#001E94"/>
</linearGradient>
<path class="st0" d="M853.1,315.7c194.7-17.2,368,143.2,386.9,358.1s-123.5,403.1-318.3,420.3S553.7,951,534.8,736
	C515.8,521,658.3,332.9,853.1,315.7z"/>
<linearGradient id="SVGID_00000173133529532670427170000011559540346899954588_" gradientUnits="userSpaceOnUse" x1="1064.1892" y1="991.2512" x2="649.2292" y2="274.0911" gradientTransform="matrix(1 0 0 -1 4.297257e-03 1390.6154)">
	<stop  offset="0" style="stop-color:#00AA56"/>
	<stop  offset="1" style="stop-color:#00204D"/>
</linearGradient>
<path style="fill:url(#SVGID_00000173133529532670427170000011559540346899954588_);" d="M854.7,333.9
	c185.6-16.4,350.7,136.5,368.8,341.3c18.1,204.9-117.8,384.3-303.4,400.6S569.4,939.4,551.3,734.6S669.1,350.3,854.7,333.9z"/>
<g>
	
		<linearGradient id="SVGID_00000111150076458964122350000016239056730199937190_" gradientUnits="userSpaceOnUse" x1="898.982" y1="266.6472" x2="881.6619" y2="786.0472" gradientTransform="matrix(1 0 0 -1 0 1390.6141)">
		<stop  offset="0" style="stop-color:#B68000"/>
		<stop  offset="1" style="stop-color:#F8C74A"/>
	</linearGradient>
	<path style="fill:url(#SVGID_00000111150076458964122350000016239056730199937190_);" d="M765.5,655.6c0.2-0.2,19.1-19.4,54.3-37.2
		c0.5-0.2,1.1-0.2,1.5,0l8.5-16.8c-33.4,10.9-62.6,31.1-84.5,57.5L765,657C765,656.5,765.1,656,765.5,655.6L765.5,655.6z
		 M885.8,628.3c-32-6.7-57-8.1-63.5-8.3c0,0.6-0.4,1.2-0.9,1.4c-34.7,17.6-53.2,36.4-53.4,36.6c-0.3,0.3-0.8,0.5-1.2,0.5
		c-0.2,0-0.5,0-0.7-0.2c-7.4,16-13.2,52.7-14.4,61c0.1,0,0.1,0,0.2,0l60,17.5c0.4,0.1,0.7,0.4,0.9,0.7L886,687
		c-0.2-0.3-0.3-0.6-0.3-1v-57.4C885.7,628.5,885.8,628.4,885.8,628.3L885.8,628.3z M954.2,618.4c0.3,0.2,35.7,18.8,56.4,37.2
		c0.4,0.4,0.6,0.9,0.5,1.4l18.2,1.8c-22-26.3-51.1-46.3-84.3-57.2l7.7,16.8C953.1,618.2,953.7,618.2,954.2,618.4L954.2,618.4z
		 M733.8,851.8c-14.8-38.3-17-66.4-17-66.7c0-0.4,0.1-0.8,0.4-1.2l-14.6-11.8c-0.1,1.7-0.1,3.5-0.1,5.2c0,35.1,9.8,68,26.8,96
		l5.7-20.6C734.5,852.7,734.1,852.3,733.8,851.8L733.8,851.8z M888.8,687l72.9,50.4c0.2-0.3,0.5-0.6,0.9-0.7l60-16.9
		c0.1,0,0.3-0.1,0.4-0.1c-0.6-18-10.8-53.4-13.1-61.3c-0.2,0.1-0.3,0.1-0.5,0.1c-0.4,0-0.8-0.1-1.1-0.4
		c-20.4-18.1-55.4-36.5-55.8-36.7c-0.6-0.3-0.9-0.9-0.9-1.6c-18-0.4-54.5,6.8-62.6,8.4c0,0.1,0,0.2,0,0.3V686
		C889.1,686.4,889,686.7,888.8,687L888.8,687z M1072.4,772.7l-14.1,11.3c0.3,0.4,0.4,0.9,0.3,1.4c-0.4,2.1-9.9,51.2-19.2,66.7
		c-0.2,0.4-0.6,0.6-0.9,0.7l6.8,21c17.2-28.1,27.1-61.1,27.1-96.4C1072.4,775.9,1072.4,774.3,1072.4,772.7L1072.4,772.7z
		 M933.5,828.1c-0.2-0.3-0.3-0.6-0.3-1h-92c0,0.3-0.1,0.7-0.3,1l-40.5,55.4c-0.1,0.2-0.3,0.3-0.5,0.4c10.7,16.1,42.9,46.1,49.6,52.3
		c0.3-0.4,0.8-0.6,1.3-0.5c0.6,0,60.9,3,71.8,0.1c0.7-0.2,1.5,0.1,1.9,0.7c10.1-7,42.4-43.9,48.7-51.2c-0.1-0.1-0.2-0.2-0.3-0.3
		L933.5,828.1L933.5,828.1z M839,825.5L811.9,740c-0.2,0.1-0.3,0.1-0.5,0.1c-0.2,0-0.3,0-0.5-0.1l-60-17.4c-0.2-0.1-0.5-0.2-0.7-0.4
		c-11.9,13.3-27.8,53-31.1,61.3c0.6,0.2,1,0.7,1.1,1.4c0,0.3,2.2,27.9,16.8,65.7c0.2,0.6,0.1,1.2-0.2,1.6
		c18.5,14.1,53,26.9,60.7,29.7c0-0.2,0.1-0.3,0.2-0.4l40.5-55.4C838.4,825.8,838.7,825.6,839,825.5L839,825.5z M1036.6,850.3
		c9-15,18.7-65.1,18.8-65.6c0.1-0.6,0.6-1.1,1.1-1.3c-6.2-18.7-27.7-53.1-32.4-60.5c-0.1,0.1-0.3,0.1-0.5,0.2l-60,16.9
		c-0.2,0-0.3,0.1-0.5,0.1c-0.2,0-0.4,0-0.5-0.1l-27.2,85.5c0.3,0.1,0.7,0.3,0.9,0.6l39.5,56.9c0.1,0.1,0.2,0.3,0.2,0.4
		c18-6.2,53.1-27,60.6-31.4C1036.3,851.6,1036.2,850.9,1036.6,850.3L1036.6,850.3z M923.6,939c-3.9,1.1-13.5,1.4-24.5,1.4
		c-20.9,0-46.8-1.3-48.4-1.4c-0.5,0-1-0.3-1.3-0.7l-20.1,14.8c18.2,6,37.8,9.3,58.1,9.3s39.8-3.3,58-9.3l-21-14.8
		C924.3,938.7,924,938.9,923.6,939L923.6,939z"/>
	
		<linearGradient id="SVGID_00000053533375757858367020000007838445301594843578_" gradientUnits="userSpaceOnUse" x1="911.1326" y1="285.3469" x2="867.2726" y2="885.5368" gradientTransform="matrix(1 0 0 -1 0 1390.6141)">
		<stop  offset="0" style="stop-color:#B68000"/>
		<stop  offset="1" style="stop-color:#F8C74A"/>
	</linearGradient>
	<path style="fill:url(#SVGID_00000053533375757858367020000007838445301594843578_);" d="M720.2,784.9c0-0.7-0.5-1.2-1.1-1.4
		c-0.4,1-0.6,1.6-0.6,1.6l-1.3-1c-0.2,0.3-0.4,0.7-0.4,1.2c0,0.3,2.2,28.4,17,66.7c0.2,0.5,0.6,0.9,1.1,1l0.5-1.6
		c0.4,0.3,0.9,0.7,1.3,1c0.4-0.5,0.5-1.1,0.2-1.6C722.4,812.8,720.2,785.2,720.2,784.9L720.2,784.9z M766,658.3
		c0.2,0.1,0.5,0.2,0.7,0.2c0.4,0,0.9-0.2,1.2-0.5c0.2-0.2,18.7-19,53.4-36.6c0.6-0.3,0.9-0.8,0.9-1.4c-1.1-0.1-1.7-0.1-1.7-0.1
		l0.7-1.5c-0.5-0.3-1-0.3-1.5,0c-35.2,17.9-54.1,37.1-54.3,37.2c-0.4,0.4-0.5,0.9-0.5,1.3l1.7-0.2
		C766.5,657.3,766.2,657.8,766,658.3L766,658.3z M887.4,686l1.4,1c0.2-0.3,0.3-0.6,0.3-1v-57.4c0-0.1,0-0.2,0-0.3
		c-1.1,0.2-1.7,0.3-1.7,0.3c-0.6-0.1-1.1-0.2-1.7-0.3c0,0.1,0,0.2,0,0.3V686c0,0.4,0.1,0.7,0.3,1L887.4,686L887.4,686z M811.3,740.1
		c0.2,0,0.4,0,0.5-0.1l-0.5-1.6l1.4-1c-0.2-0.3-0.5-0.6-0.9-0.7l-60-17.5c-0.1,0-0.1,0-0.2,0c-0.2,1.1-0.2,1.7-0.2,1.7
		c-0.4,0.4-0.8,0.8-1.1,1.2c0.2,0.2,0.4,0.3,0.7,0.4l60,17.4C811,740.1,811.2,740.1,811.3,740.1L811.3,740.1z M952.6,621.4
		c0.4,0.2,35.3,18.6,55.8,36.7c0.3,0.3,0.7,0.4,1.1,0.4c0.2,0,0.3,0,0.5-0.1c-0.3-1-0.5-1.6-0.5-1.6l1.7,0.2
		c0.1-0.5-0.1-1.1-0.5-1.4c-20.8-18.4-56.1-37-56.4-37.2c-0.5-0.2-1-0.2-1.5,0l0.7,1.5c-0.5,0-1.1,0-1.7,0
		C951.7,620.5,952,621.1,952.6,621.4L952.6,621.4z M1058.3,784l-1.3,1.1c-0.2-0.5-0.3-1.1-0.5-1.6c-0.6,0.2-1,0.7-1.1,1.3
		c-0.1,0.5-9.8,50.7-18.8,65.6c-0.3,0.6-0.3,1.2,0,1.7c0.9-0.6,1.4-0.9,1.4-0.9l0.5,1.6c0.4-0.1,0.7-0.4,0.9-0.7
		c9.3-15.5,18.8-64.6,19.2-66.7C1058.7,784.9,1058.6,784.4,1058.3,784L1058.3,784z M1023.1,719.7c-0.1,0-0.3,0-0.4,0.1l-60,16.9
		c-0.4,0.1-0.7,0.4-0.9,0.7l1.4,1l-0.5,1.6c0.2,0.1,0.3,0.1,0.5,0.1c0.1,0,0.3,0,0.5-0.1l60-16.9c0.2,0,0.3-0.1,0.5-0.2
		c-0.6-1-0.9-1.4-0.9-1.4C1023.1,720.9,1023.1,720.3,1023.1,719.7L1023.1,719.7z M936.3,826.1c-0.2-0.3-0.5-0.5-0.9-0.6l-0.5,1.6
		h-1.7c0,0.3,0.1,0.7,0.3,1L973,885c0.1,0.1,0.2,0.2,0.3,0.3c0.7-0.8,1.1-1.3,1.1-1.3c0.5-0.2,1-0.3,1.6-0.5c0-0.2-0.1-0.3-0.2-0.4
		L936.3,826.1L936.3,826.1z M922.7,935.7c-10.9,3-71.2,0-71.8-0.1c-0.6,0-1,0.2-1.3,0.5c0.8,0.7,1.2,1.2,1.2,1.2l-1.3,1
		c0.3,0.4,0.7,0.7,1.3,0.7c1.6,0.1,27.5,1.4,48.4,1.4c11,0,20.5-0.4,24.5-1.4c0.4-0.1,0.7-0.3,1-0.7l-1.4-1c0.4-0.2,0.9-0.5,1.5-0.9
		C924.2,935.8,923.4,935.5,922.7,935.7L922.7,935.7z M839,825.5c-0.3,0.1-0.6,0.3-0.8,0.6l-40.5,55.4c-0.1,0.1-0.2,0.3-0.2,0.4
		c1,0.4,1.6,0.6,1.6,0.6c0.3,0.5,0.6,0.9,0.9,1.4c0.2-0.1,0.3-0.2,0.5-0.4l40.5-55.4c0.2-0.3,0.3-0.7,0.3-1h-1.7L839,825.5z"/>
	
		<linearGradient id="SVGID_00000131334892927222731070000000427461891920166027_" gradientUnits="userSpaceOnUse" x1="899.1595" y1="266.6468" x2="881.8395" y2="786.0469" gradientTransform="matrix(1 0 0 -1 0 1390.6141)">
		<stop  offset="0" style="stop-color:#C08F2F"/>
		<stop  offset="1" style="stop-color:#B68000"/>
	</linearGradient>
	<path style="fill:url(#SVGID_00000131334892927222731070000000427461891920166027_);" d="M885.8,628.3c0.2-0.8,0.8-1.3,1.7-1.3
		s1.5,0.6,1.7,1.3c8.1-1.7,44.6-8.8,62.6-8.4c0.6,0,1.2,0,1.7,0l-0.7-1.5l-7.7-16.8c-18.1-6-37.5-9.2-57.6-9.2s-39.5,3.2-57.6,9.2
		l-8.5,16.8l-0.7,1.5c0,0,0.6,0,1.7,0.1C828.8,620.2,853.8,621.5,885.8,628.3L885.8,628.3z M839,825.5l0.5,1.6h95.4l0.5-1.6
		l27.2-85.5l0.5-1.6l-1.4-1L888.8,687l-1.4-1l-1.4,1l-73.3,50.4l-1.4,1l0.5,1.6L839,825.5L839,825.5z M887.4,626.9
		c-0.8,0-1.5,0.6-1.7,1.3c0.5,0.1,1.1,0.2,1.7,0.3c0,0,0.6-0.1,1.7-0.3C888.9,627.5,888.3,626.9,887.4,626.9z M1029.4,658.8
		l-18.2-1.8l-1.7-0.2c0,0,0.2,0.6,0.5,1.6c2.3,7.9,12.5,43.4,13.1,61.3c0,0.6,0,1.2,0,1.7c0,0,0.3,0.5,0.9,1.4
		c4.7,7.4,26.2,41.8,32.4,60.5c0.2,0.6,0.4,1.1,0.5,1.6l1.3-1.1l14.1-11.3C1071.3,729.4,1055.3,689.8,1029.4,658.8L1029.4,658.8z
		 M751.3,721c0,0,0.1-0.6,0.2-1.7c1.2-8.2,7-45,14.4-61c0.2-0.5,0.5-1,0.7-1.5L765,657l-19.7,2.1h0c-25.7,30.8-41.6,70.2-42.7,113.2
		l14.6,11.8l1.3,1c0,0,0.2-0.5,0.6-1.6c3.3-8.3,19.2-48,31.1-61.3C750.6,721.7,750.9,721.3,751.3,721L751.3,721z M1038,851.2
		c0,0-0.5,0.3-1.4,0.9c-7.5,4.5-42.6,25.2-60.6,31.4c-0.6,0.2-1.1,0.4-1.6,0.5c0,0-0.4,0.5-1.1,1.3c-6.4,7.3-38.6,44.2-48.7,51.2
		c-0.6,0.4-1.1,0.7-1.5,0.9l1.4,1l21,14.8c42-13.8,77.2-42.3,99.9-79.3l-6.8-21L1038,851.2L1038,851.2z M799.9,883.9
		c-0.3-0.5-0.6-1-0.9-1.4c0,0-0.6-0.2-1.6-0.6c-7.7-2.8-42.1-15.5-60.7-29.7c-0.5-0.3-0.9-0.7-1.3-1l-0.5,1.6l-5.7,20.6
		c22.6,37.2,58,65.8,100.1,79.7l20.1-14.8l1.3-1c0,0-0.4-0.4-1.2-1.2C842.8,930,810.7,900,799.9,883.9L799.9,883.9z"/>
</g>
<g>
	
		<linearGradient id="SVGID_00000005232892894423373110000008754848421140395960_" gradientUnits="userSpaceOnUse" x1="877.7985" y1="925.6163" x2="890.7485" y2="964.4464" gradientTransform="matrix(1 0 0 -1 0 1390.6141)">
		<stop  offset="0" style="stop-color:#B68000"/>
		<stop  offset="1" style="stop-color:#F8C74A"/>
	</linearGradient>
	<polygon style="fill:url(#SVGID_00000005232892894423373110000008754848421140395960_);" points="887.4,417.5 895.2,433.3 
		912.6,435.8 900,448.1 903,465.5 887.4,457.3 871.8,465.5 874.8,448.1 862.2,435.8 879.6,433.3 	"/>
	
		<linearGradient id="SVGID_00000152946073913040457520000006650403037166034878_" gradientUnits="userSpaceOnUse" x1="807.8266" y1="924.217" x2="818.0566" y2="954.897" gradientTransform="matrix(1 0 0 -1 0 1390.6141)">
		<stop  offset="0" style="stop-color:#B68000"/>
		<stop  offset="1" style="stop-color:#F8C74A"/>
	</linearGradient>
	<polygon style="fill:url(#SVGID_00000152946073913040457520000006650403037166034878_);" points="815.4,428.9 821.6,441.4 
		835.3,443.4 825.4,453.1 827.7,466.8 815.4,460.3 803.1,466.8 805.4,453.1 795.5,443.4 809.2,441.4 	"/>
	
		<linearGradient id="SVGID_00000182525074238025718260000013783575058665341616_" gradientUnits="userSpaceOnUse" x1="952.1066" y1="924.217" x2="962.3366" y2="954.897" gradientTransform="matrix(1 0 0 -1 0 1390.6141)">
		<stop  offset="0" style="stop-color:#B68000"/>
		<stop  offset="1" style="stop-color:#F8C74A"/>
	</linearGradient>
	<polygon style="fill:url(#SVGID_00000182525074238025718260000013783575058665341616_);" points="959.7,428.9 965.8,441.4 
		979.6,443.4 969.6,453.1 972,466.8 959.7,460.3 947.4,466.8 949.7,453.1 939.8,443.4 953.5,441.4 	"/>
	
		<linearGradient id="SVGID_00000170244275808040168850000017947999601702496163_" gradientUnits="userSpaceOnUse" x1="751.5762" y1="925.3871" x2="758.3862" y2="945.8171" gradientTransform="matrix(1 0 0 -1 0 1390.6141)">
		<stop  offset="0" style="stop-color:#B68000"/>
		<stop  offset="1" style="stop-color:#F8C74A"/>
	</linearGradient>
	<polygon style="fill:url(#SVGID_00000170244275808040168850000017947999601702496163_);" points="756.6,440.3 760.7,448.6 
		769.9,449.9 763.3,456.3 764.8,465.5 756.6,461.2 748.4,465.5 750,456.3 743.4,449.9 752.5,448.6 	"/>
	
		<linearGradient id="SVGID_00000116930783075692186550000003660222904941461127_" gradientUnits="userSpaceOnUse" x1="1013.1962" y1="925.3871" x2="1020.0062" y2="945.8171" gradientTransform="matrix(1 0 0 -1 0 1390.6141)">
		<stop  offset="0" style="stop-color:#B68000"/>
		<stop  offset="1" style="stop-color:#F8C74A"/>
	</linearGradient>
	<polygon style="fill:url(#SVGID_00000116930783075692186550000003660222904941461127_);" points="1018.2,440.3 1022.3,448.6 
		1031.5,449.9 1024.9,456.3 1026.4,465.5 1018.2,461.2 1010,465.5 1011.6,456.3 1005,449.9 1014.1,448.6 	"/>
</g>
<g>
	
		<linearGradient id="SVGID_00000170264660691799702060000003505288366582358706_" gradientUnits="userSpaceOnUse" x1="681.6285" y1="513.9971" x2="683.1985" y2="756.4071" gradientTransform="matrix(1 0 0 -1 0 1390.6141)">
		<stop  offset="0" style="stop-color:#B68000"/>
		<stop  offset="1" style="stop-color:#F8C74A"/>
	</linearGradient>
	<path style="fill:url(#SVGID_00000170264660691799702060000003505288366582358706_);" d="M690.3,777.5c0-26.4,5.2-51.5,14.6-74.5
		c-75.1-5.1-99.6-67.8-99.6-67.8S594,708.1,637,757c0,0-27-18.6-36.9-39c0,0,2.3,85.3,66.6,135.8c0,0-25.5-7.3-33.2-14.7
		c0,0,40.6,63.3,130.4,91.9C719,894.9,690.3,839.5,690.3,777.5L690.3,777.5z"/>
	
		<linearGradient id="SVGID_00000177445946674458756060000011553076249424902030_" gradientUnits="userSpaceOnUse" x1="1092.5643" y1="513.317" x2="1094.1443" y2="757.407" gradientTransform="matrix(1 0 0 -1 0 1390.6141)">
		<stop  offset="0" style="stop-color:#B68000"/>
		<stop  offset="1" style="stop-color:#F8C74A"/>
	</linearGradient>
	<path style="fill:url(#SVGID_00000177445946674458756060000011553076249424902030_);" d="M1174.8,717.9c-9.9,20.4-36.9,39-36.9,39
		c42.9-48.9,31.7-121.8,31.7-121.8S1145,697.8,1070,703c9.4,23,14.6,48.1,14.6,74.5c0,62.1-28.7,117.4-73.5,153.5
		c89.8-28.5,130.4-91.9,130.4-91.9c-7.8,7.4-33.2,14.7-33.2,14.7C1172.5,803.3,1174.8,718,1174.8,717.9L1174.8,717.9z"/>
</g>
<g>
	<path class="st12" d="M770.9,1008.7c-1.8-0.8-3.4-1.9-4.8-3.3c-1.4-1.4-2.3-2.8-2.9-4.2l3.3-3.3c0.5,1.3,1.4,2.5,2.5,3.7
		s2.4,2.1,3.8,2.8c1.2,0.6,2.3,0.8,3.2,0.9s1.6-0.1,2.2-0.5s1-0.9,1.4-1.6c0.4-0.8,0.4-1.6,0.2-2.4c-0.3-0.7-0.8-1.4-1.4-2.1
		c-0.7-0.7-1.5-1.3-2.3-2.1c-0.9-0.7-1.7-1.4-2.5-2.3c-0.8-0.8-1.5-1.7-2.1-2.6s-0.9-2-1-3.2s0.2-2.5,0.9-3.9
		c0.7-1.5,1.6-2.7,2.9-3.6s2.7-1.4,4.5-1.6s3.7,0.3,5.8,1.3c1.4,0.6,2.7,1.5,3.9,2.5s2.1,2.2,2.8,3.4l-3.2,3.3
		c-0.7-1.2-1.5-2.2-2.5-3.1c-1-0.9-1.9-1.5-3-2c-1.2-0.5-2.2-0.8-3.1-0.8s-1.7,0.2-2.3,0.6c-0.6,0.4-1,0.9-1.4,1.6
		c-0.4,0.8-0.4,1.6-0.2,2.3c0.3,0.7,0.7,1.4,1.4,2.1c0.7,0.7,1.5,1.3,2.3,2.1c0.9,0.7,1.7,1.5,2.5,2.3c0.8,0.8,1.5,1.7,2.1,2.6
		c0.6,0.9,0.9,2,1,3.1c0.1,1.2-0.2,2.4-0.9,3.9c-0.7,1.5-1.6,2.7-2.9,3.6c-1.2,0.9-2.7,1.4-4.5,1.6
		C774.9,1010.2,773,1009.7,770.9,1008.7L770.9,1008.7z"/>
	<path class="st12" d="M789.4,1016.1l10.6-28.1l4.5,1.7l-10.6,28.1L789.4,1016.1z"/>
	<path class="st12" d="M805.2,1021.9l8.2-28.9l3.8,1.1l9.1,26.7l-1.9-0.5l6.3-22.3l4.5,1.3l-8.2,28.9l-3.8-1.1l-9.1-26.7l1.9,0.5
		l-6.3,22.3L805.2,1021.9L805.2,1021.9z"/>
	<path class="st12" d="M851.2,1033.1c-2-0.3-3.7-1-5.2-2s-2.8-2.3-3.8-3.9s-1.7-3.3-2.1-5.3c-0.4-1.9-0.4-4,0-6.3
		c0.3-2.2,1-4.2,2-5.9s2.2-3.2,3.6-4.4c1.5-1.2,3-2,4.8-2.5s3.6-0.6,5.6-0.3c2.1,0.3,3.9,1,5.5,2.1c1.6,1.1,2.8,2.6,3.8,4.4
		l-3.6,2.9c-0.8-1.3-1.7-2.3-2.7-3.1c-1-0.8-2.2-1.2-3.5-1.4c-1.3-0.2-2.6-0.1-3.8,0.2c-1.2,0.3-2.2,0.9-3.2,1.7
		c-1,0.8-1.8,1.8-2.4,3s-1.1,2.6-1.3,4.1c-0.2,1.5-0.2,3,0,4.3c0.3,1.3,0.7,2.6,1.4,3.6c0.7,1.1,1.5,1.9,2.5,2.6
		c1,0.7,2.2,1.1,3.5,1.3c1.3,0.2,2.6,0.1,3.8-0.3c1.2-0.4,2.4-1.1,3.5-2.2l2.5,3.8c-1.4,1.5-3.1,2.5-4.9,3.1
		C855.2,1033.2,853.3,1033.4,851.2,1033.1L851.2,1033.1z"/>
	<path class="st12" d="M876.6,1030.5l14.4,0.5l-0.2,4.7l-19.2-0.7l1.1-30l18.7,0.7l-0.2,4.7l-13.9-0.5L876.6,1030.5L876.6,1030.5z
		 M876.7,1017.6l12.7,0.5l-0.2,4.6l-12.7-0.5L876.7,1017.6z"/>
	<path class="st12" d="M914.5,1034.5l-0.5-3.7l8.6-12.6c0.7-1.1,1.2-1.9,1.5-2.7s0.5-1.5,0.6-2.1s0.1-1.2,0-1.8
		c-0.2-1.4-0.7-2.4-1.6-3s-2.2-0.9-3.7-0.6c-1.2,0.2-2.3,0.6-3.2,1.2s-1.7,1.5-2.3,2.7l-3.7-2.5c0.8-1.7,2-3.1,3.5-4.2
		c1.6-1.1,3.4-1.8,5.5-2.1c1.8-0.2,3.5-0.1,4.9,0.4c1.5,0.5,2.6,1.3,3.5,2.5c0.9,1.2,1.5,2.6,1.7,4.4c0.1,1,0.2,2,0.1,3
		c-0.1,1-0.4,2-0.8,3.2c-0.5,1.2-1.2,2.4-2.2,3.9l-7.4,10.8l-1.3-1.9l14.8-2l0.6,4.7L914.5,1034.5L914.5,1034.5z"/>
	<path class="st12" d="M952,1028.2c-2,0.5-3.9,0.4-5.8-0.4c-1.8-0.8-3.5-2.2-5-4.2s-2.6-4.6-3.4-7.8c-0.8-3.2-1-6-0.7-8.5
		c0.3-2.5,1.2-4.5,2.4-6c1.3-1.6,2.9-2.6,4.9-3.1c2-0.5,3.9-0.3,5.7,0.4s3.5,2.2,5,4.2s2.6,4.6,3.4,7.8c0.8,3.2,1,6,0.7,8.5
		c-0.3,2.5-1.2,4.5-2.4,6C955.6,1026.7,954,1027.7,952,1028.2L952,1028.2z M950.8,1023.5c1.1-0.3,2-0.9,2.7-1.8
		c0.7-0.9,1-2.2,1.2-3.9c0.1-1.7-0.1-3.6-0.7-6c-0.6-2.3-1.3-4.2-2.2-5.6c-0.9-1.4-1.8-2.4-2.9-2.9s-2.1-0.6-3.2-0.4
		c-1.1,0.3-2,0.9-2.7,1.9s-1.1,2.2-1.2,3.9c-0.1,1.7,0.1,3.6,0.7,6c0.6,2.3,1.3,4.2,2.2,5.6s1.8,2.4,2.9,2.9
		S949.7,1023.8,950.8,1023.5L950.8,1023.5z"/>
	<path class="st12" d="M970.3,1022.6l-1.3-3.5l5.7-14.2c0.5-1.2,0.8-2.2,0.9-3c0.1-0.8,0.2-1.5,0.1-2.2c-0.1-0.6-0.2-1.2-0.4-1.7
		c-0.5-1.3-1.2-2.2-2.2-2.6c-1-0.4-2.3-0.4-3.8,0.2c-1.1,0.4-2.1,1.1-2.9,1.9s-1.3,1.9-1.7,3.1l-4.1-1.6c0.4-1.8,1.2-3.4,2.5-4.8
		c1.3-1.4,2.9-2.5,4.9-3.2c1.7-0.6,3.4-0.9,4.9-0.7c1.5,0.2,2.9,0.8,4,1.7c1.2,0.9,2,2.2,2.6,3.9c0.3,0.9,0.6,1.9,0.7,2.9
		c0.1,1,0.1,2.1-0.1,3.3c-0.2,1.2-0.6,2.7-1.3,4.3l-4.9,12.1l-1.7-1.6l14.1-5.2l1.6,4.4L970.3,1022.6L970.3,1022.6z"/>
	<path class="st12" d="M1003.3,1009.7c-1.6,0.8-3.3,1.2-5.1,1.4c-1.8,0.2-3.5,0-5-0.5l0-4.8c1.2,0.4,2.5,0.6,4,0.5
		c1.4-0.1,2.8-0.4,4.1-1c1.5-0.7,2.6-1.7,3.1-2.8c0.5-1.2,0.5-2.4-0.1-3.7c-0.4-0.8-1-1.5-1.6-2s-1.6-0.7-2.6-0.6
		c-1.1,0.1-2.4,0.5-4,1.3l-5.5,2.6l-5.8-15.3l13.6-6.5l2,4.3l-12,5.7l1.1-3.5l4.4,11.5l-3.4-1.3l4.6-2.2c2.3-1.1,4.3-1.6,6.1-1.6
		s3.2,0.5,4.5,1.5c1.2,0.9,2.2,2.2,3,3.8c0.8,1.6,1.1,3.2,1.1,4.8c0,1.6-0.5,3.2-1.5,4.6C1007,1007.5,1005.4,1008.7,1003.3,1009.7
		L1003.3,1009.7z"/>
</g>
<path class="st12" d="M734.7,564h2.8v-7.8h9.7v-2.4h-9.7v-6.7h10.8v-2.4h-13.6V564z M773.7,547.3c-0.9-0.9-2-1.6-3.2-2.1
	c-1.2-0.5-2.6-0.7-4.1-0.7s-2.8,0.2-4.1,0.7s-2.3,1.2-3.2,2.1s-1.6,1.9-2.2,3.1s-0.8,2.5-0.8,3.9s0.3,2.7,0.8,3.9s1.2,2.2,2.2,3.1
	c0.9,0.9,2,1.6,3.3,2.1s2.6,0.7,4.1,0.7s2.8-0.2,4.1-0.7s2.3-1.2,3.2-2.1s1.6-1.9,2.1-3.1s0.8-2.5,0.8-3.9s-0.2-2.7-0.8-3.9
	C775.3,549.2,774.6,548.2,773.7,547.3L773.7,547.3z M773.3,557.3c-0.4,0.9-0.9,1.7-1.6,2.3s-1.5,1.2-2.4,1.5c-0.9,0.4-1.9,0.5-3,0.5
	s-2-0.2-3-0.5c-0.9-0.4-1.7-0.9-2.4-1.5s-1.2-1.5-1.6-2.3s-0.6-1.9-0.6-2.9s0.2-2,0.6-2.9s0.9-1.7,1.6-2.3s1.5-1.2,2.4-1.6
	c0.9-0.4,1.9-0.5,3-0.5s2.1,0.2,3,0.5c0.9,0.4,1.7,0.9,2.4,1.6s1.2,1.5,1.6,2.3s0.6,1.9,0.6,2.9S773.7,556.4,773.3,557.3z
	 M802.3,547.3c-0.9-0.9-2-1.6-3.2-2.1c-1.2-0.5-2.6-0.7-4.1-0.7s-2.8,0.2-4.1,0.7s-2.3,1.2-3.2,2.1s-1.6,1.9-2.2,3.1
	s-0.8,2.5-0.8,3.9s0.3,2.7,0.8,3.9s1.2,2.2,2.2,3.1c0.9,0.9,2,1.6,3.3,2.1s2.6,0.7,4.1,0.7s2.8-0.2,4.1-0.7s2.3-1.2,3.2-2.1
	s1.6-1.9,2.1-3.1s0.8-2.5,0.8-3.9s-0.2-2.7-0.8-3.9C804,549.2,803.2,548.2,802.3,547.3L802.3,547.3z M801.9,557.3
	c-0.4,0.9-0.9,1.7-1.6,2.3s-1.5,1.2-2.4,1.5c-0.9,0.4-1.9,0.5-3,0.5s-2-0.2-3-0.5c-0.9-0.4-1.7-0.9-2.4-1.5s-1.2-1.5-1.6-2.3
	s-0.6-1.9-0.6-2.9s0.2-2,0.6-2.9s0.9-1.7,1.6-2.3s1.5-1.2,2.4-1.6c0.9-0.4,1.9-0.5,3-0.5s2.1,0.2,3,0.5c0.9,0.4,1.7,0.9,2.4,1.6
	s1.2,1.5,1.6,2.3s0.6,1.9,0.6,2.9S802.3,556.4,801.9,557.3z M812.1,547.1h6.6V564h2.7v-16.9h6.6v-2.4h-15.9L812.1,547.1L812.1,547.1
	z M1005.8,555.6c0,2.2-0.5,3.7-1.4,4.7c-1,1-2.3,1.5-4,1.5s-3.1-0.5-4-1.5s-1.4-2.6-1.4-4.7v-10.8h-2.8v11c0,2.8,0.7,4.9,2.2,6.4
	s3.4,2.2,6,2.2s4.5-0.7,6-2.2s2.2-3.6,2.2-6.4v-11h-2.7L1005.8,555.6L1005.8,555.6z M973.3,544.7h-2.8V564h13.2v-2.4h-10.4V544.7z
	 M948.5,549c0.7-0.7,1.5-1.2,2.4-1.5s1.9-0.5,3-0.5s2,0.2,2.9,0.6c0.9,0.4,1.7,1,2.5,1.7l1.8-1.7c-0.9-1-2-1.7-3.2-2.2
	s-2.6-0.8-4.1-0.8s-2.8,0.2-4.1,0.7s-2.3,1.2-3.2,2.1c-0.9,0.9-1.6,1.9-2.2,3.1s-0.8,2.5-0.8,3.9s0.3,2.7,0.8,3.9s1.2,2.2,2.1,3.1
	c0.9,0.9,2,1.6,3.2,2.1s2.6,0.7,4.1,0.7s2.9-0.3,4.1-0.8s2.3-1.3,3.2-2.3l-1.8-1.7c-0.7,0.8-1.6,1.4-2.5,1.8s-1.9,0.6-2.9,0.6
	s-2.1-0.2-3-0.5c-0.9-0.4-1.7-0.9-2.4-1.5s-1.2-1.4-1.6-2.3s-0.6-1.9-0.6-3s0.2-2,0.6-3S947.8,549.7,948.5,549L948.5,549z
	 M1035.5,556c-0.5-0.7-1.2-1.3-2-1.7c-0.3-0.1-0.6-0.2-0.9-0.3c0,0,0,0,0,0c0.8-0.4,1.4-0.9,1.9-1.7c0.5-0.7,0.7-1.6,0.7-2.6
	c0-1.5-0.6-2.8-1.8-3.7c-1.2-0.9-2.9-1.3-5.1-1.3h-8.6V564h9.2c2.4,0,4.3-0.5,5.5-1.4s1.9-2.2,1.9-3.8
	C1036.2,557.7,1036,556.8,1035.5,556L1035.5,556z M1022.4,546.9h5.6c1.4,0,2.5,0.3,3.2,0.8s1.2,1.3,1.2,2.3s-0.4,1.8-1.2,2.3
	c-0.8,0.5-1.8,0.8-3.2,0.8h-5.6V546.9L1022.4,546.9z M1032.2,561c-0.8,0.5-2,0.8-3.5,0.8h-6.3v-6.4h6.3c1.5,0,2.7,0.3,3.5,0.8
	c0.8,0.5,1.2,1.3,1.2,2.5S1033,560.5,1032.2,561L1032.2,561z M850.4,554.3c-0.3-0.1-0.6-0.2-0.9-0.3c0,0,0,0,0,0
	c0.8-0.4,1.4-0.9,1.9-1.7c0.5-0.7,0.7-1.6,0.7-2.6c0-1.5-0.6-2.8-1.8-3.7s-2.9-1.3-5.1-1.3h-8.6V564h9.2c2.4,0,4.3-0.5,5.5-1.4
	s1.9-2.2,1.9-3.8c0-1.1-0.2-2-0.7-2.8S851.2,554.7,850.4,554.3L850.4,554.3z M839.3,546.9h5.6c1.4,0,2.5,0.3,3.2,0.8
	s1.2,1.3,1.2,2.3s-0.4,1.8-1.2,2.3c-0.8,0.5-1.8,0.8-3.2,0.8h-5.6V546.9L839.3,546.9z M849.1,561c-0.8,0.5-2,0.8-3.5,0.8h-6.3v-6.4
	h6.3c1.5,0,2.7,0.3,3.5,0.8c0.8,0.5,1.2,1.3,1.2,2.5S850,560.5,849.1,561L849.1,561z M868.7,544.7L860,564h2.8l2.1-4.8h10.2l2.1,4.8
	h2.9l-8.8-19.3H868.7L868.7,544.7z M865.9,557l4.2-9.5l4.2,9.5H865.9L865.9,557z M891.3,544.7h-2.8V564h13.2v-2.4h-10.4V544.7z
	 M913.1,544.7h-2.8V564h13.2v-2.4h-10.4V544.7z"/>
<g>
	<path class="st13" d="M776.2,518.4l-3.6,10.9H768l11.8-34.6h5.4l11.8,34.6h-4.8l-3.7-10.9H776.2z M787.6,514.9l-3.4-10
		c-0.8-2.3-1.3-4.3-1.8-6.3h-0.1c-0.5,2.1-1.1,4.2-1.7,6.3l-3.4,10H787.6z"/>
	<path class="st13" d="M802.1,529.3v-34.6h4.9l11.1,17.5c2.6,4.1,4.6,7.7,6.2,11.3l0.1-0.1c-0.4-4.6-0.5-8.8-0.5-14.2v-14.5h4.2
		v34.6h-4.5l-11-17.6c-2.4-3.9-4.7-7.8-6.5-11.6l-0.2,0.1c0.3,4.4,0.4,8.5,0.4,14.3v14.8H802.1z"/>
	<path class="st13" d="M835.9,494.7h4.5v16.7h0.2c0.9-1.3,1.8-2.6,2.7-3.7l10.6-13h5.6l-12.5,14.7l13.5,19.9H855l-11.4-17l-3.3,3.8
		v13.2h-4.5V494.7z"/>
	<path class="st13" d="M892.5,511.6c0,11.9-7.2,18.2-16.1,18.2c-9.1,0-15.6-7.1-15.6-17.6c0-11,6.8-18.2,16.1-18.2
		C886.3,494.1,892.5,501.4,892.5,511.6z M865.6,512.2c0,7.4,4,14,11,14c7.1,0,11.1-6.5,11.1-14.4c0-6.9-3.6-14.1-11-14.1
		C869.3,497.8,865.6,504.6,865.6,512.2z"/>
	<path class="st13" d="M909.2,494.7h18.7v3.8h-14.2v11.5h13.1v3.7h-13.1v15.7h-4.5V494.7z"/>
	<path class="st13" d="M938.7,494.7v34.6h-4.5v-34.6H938.7z"/>
	<path class="st13" d="M953.1,498.5h-10.5v-3.8h25.6v3.8h-10.6v30.8h-4.5V498.5z"/>
	<path class="st13" d="M970,520.8c0-4.2,2.5-7.2,6.6-8.9l-0.1-0.2c-3.7-1.7-5.3-4.6-5.3-7.5c0-5.3,4.5-8.9,10.3-8.9
		c6.5,0,9.7,4.1,9.7,8.2c0,2.8-1.4,5.9-5.5,7.8v0.2c4.2,1.6,6.7,4.6,6.7,8.6c0,5.8-5,9.7-11.4,9.7C974.2,529.9,970,525.7,970,520.8z
		 M988,520.6c0-4.1-2.8-6-7.3-7.3c-3.9,1.1-6,3.7-6,6.9c-0.2,3.4,2.4,6.4,6.7,6.4C985.4,526.6,988,524.1,988,520.6z M975.6,503.9
		c0,3.3,2.5,5.1,6.4,6.2c2.9-1,5.1-3,5.1-6.1c0-2.7-1.6-5.4-5.7-5.4C977.6,498.6,975.6,501.1,975.6,503.9z"/>
</g>
</svg>
