<?xml version="1.0" encoding="UTF-8"?>
<svg id="Layer_1" data-name="Layer 1" xmlns="http://www.w3.org/2000/svg" viewBox="0 0 1741.59 1389.89">
  <defs>
    <style>
      .cls-1, .cls-2, .cls-3, .cls-4, .cls-5, .cls-6 {
        stroke-width: 0px;
      }

      .cls-2 {
        fill: #3389a3;
      }

      .cls-3 {
        fill: #ffa357;
      }

      .cls-4 {
        fill: #fff;
      }

      .cls-5 {
        fill: #eac300;
      }

      .cls-6 {
        fill: #002f3f;
      }
    </style>
  </defs>
  <path class="cls-1" d="m1199.25,485.52c-.94,54.81,2.82,109.78-4.08,164.44-15.91,126.05-65.26,235.95-156.59,325.9-46.44,45.74-99.42,82.17-156.25,113.49-6.49,3.57-11.67,4.42-18.44.71-143.82-78.62-250.65-188.61-296.92-349.89-15.69-54.67-19.83-110.89-20.15-167.41-.43-76.41.07-152.83-.39-229.24-.07-11.57,3.27-16.37,14.89-20.09,101.96-32.63,204.97-62.09,305.17-100.08,5.11-1.94,9.84-1.85,14.9.06,99.31,37.45,201.19,67.15,302.16,99.58,12.36,3.97,16.31,9.52,16.06,22.54-.9,46.65-.35,93.32-.35,139.99Zm-626.69,6.05s.07,0,.1,0c0,37.43-.92,74.89.17,112.29,3.5,120.33,42.61,227.62,120.58,319.86,45.76,54.14,100.98,96.96,161.65,133.37,12.42,7.45,21.46,8.1,33.15.66,41.5-26.44,82.55-53.14,119.07-86.71,105.6-97.1,159.02-218.52,165.47-360.07,3.82-83.92.64-168.15,1.07-252.24.05-8.92-3.05-12.21-11.13-14.87-93.8-30.94-188.76-58.35-281.37-92.89-5.95-2.22-11.64-2.11-17.88.19-27.38,10.07-54.77,20.2-82.5,29.24-64.76,21.12-129.68,41.76-194.65,62.24-10.33,3.26-14.22,8.39-14.03,19.72.75,43.06.3,86.14.3,129.21Z"/>
  <path class="cls-6" d="m1157.97,503.82c0-48.91-.26-91.99.21-135.07.1-8.76-2.57-12.02-11.03-14.74-80.89-26.02-161.85-51.88-242.14-79.67-21.86-7.57-41.37-12.22-62.31.26-5.16,3.07-11.54,4.11-17.39,6.01-75.01,24.35-150,48.79-225.09,72.87-8.43,2.7-12.31,5.93-12.23,15.88.62,77.44.6,154.89.55,232.33-.03,37.62,5.22,74.57,14.23,110.94,36.88,148.8,129.98,253.79,258.61,331.04,7.06,4.24,12.61,3.9,19.69-.14,36.59-20.94,71.27-44.51,103.07-72.27,99.55-86.86,154.99-196.75,170.93-327.25,5.93-48.56,1.19-97.36,2.9-140.19Zm-142.2-151.38c-7.03,12.63,22.29,10.56,4.81,25.12-5.11,4.26-5.25,4.08-9.26-.8q-9.61-11.7,4.45-24.32Zm-72.1-20.13c6.36,9.18,7.89,19.02,18.78,16.47,2.51-.59,5.89,2.97,3.62,4.37-8.81,5.42-7.8,12.47-6.1,20.77.51,2.52-4.11,3.13-5.95,1.34-7.06-6.88-13.28-4.42-20.47,3.46-.42-10.86-2.94-18.78-9.36-26.61,10.8-1.39,17.53-6.64,19.48-19.8Zm-11.66,255.08c12.41-12.92,25.29-25.39,37.64-38.37,22.44-23.6,47.39-45.02,63.83-75.99,9.74,19.97,10.34,36.62-2.12,53.55-14.47,19.66-32.67,35.15-51.66,49.97-7.66,5.97-15.62,11.58-22.97,17.91-23.6,20.3-25.15,28.88-11.66,57.07,5.74,12.01,11.33,24.26,8.42,38.15-1.21,5.79-1.93,12.33-11.6,15.21,4.89-25.23-8.09-44.34-18.87-64.31-10.71-19.84-6-37.58,8.99-53.19Zm116.25-55.52c-2.77,24.63-14.91,40.34-30.26,52.93-19.37,15.88-40.34,29.8-60.64,44.54-2.39,1.73-5.29,4.79-7.85,1.9-1.68-1.9-1.66-5.72-1.61-8.67.12-6.37,5.06-9.97,9.31-13.44,14.67-11.98,29.52-23.76,44.53-35.31,15.71-12.08,31.72-23.77,46.52-41.95Zm-180.37-208.16c1.08-4.49,6.21-8.32,7.75-1.73,3.78,16.14,15.44,19.69,32.15,21.29-12.94,8.57-19.6,17.43-12.9,30.68,1.23,2.44.83,5.18-1.38,7-3.14,2.59-5.83.76-7.87-1.69-8.05-9.64-15.62-7.11-23.51.31-1.63,1.53-4.74,2.73-6.79,2.29-4.2-.89-2.75-4.92-2.43-7.63,1.35-11.33,3.7-22.82-10.62-29.99,12.97-2.98,22.48-7.57,25.6-20.53Zm-31.76,236.23c15.06-8.23,31.72-7.98,47.5-1.36,10.07,4.23,16.2,12.45,16.04,24.05-.13,9.72.19,19.54-1.04,29.15-3.04,23.77,2.73,44.69,18.38,62.81,14.87,17.21,16.23,35.73,5.48,55.36-6.24,11.38-10.96,23.09-10.72,36.36.33,17.97,6.36,32.86,21.87,43.29,12.29,8.27,24.18,17.12,32.51,30.61-23.21-10.91-48.47-13.03-73.86-18.1,14.46-11.48,13.92-22.49-1.07-34.21-14.12-11.04-30.79-18.05-45.17-29-31.47-23.98-44.36-66.34-12.17-101.5,9.29-10.13,18.1-20.99,22.1-34.71,6.74-23.09-.69-34.33-24.41-36.64-4.52-.44-9.07-.45-13.18-.64-3.49-3.2,12.89-15.86-5.72-10.91-.78.21-3.4-2.76-3.43-4.28-.04-2.44,2.81-2.7,4.67-2.5,8.75.93,14.95-3.81,22.22-7.78Zm127.38,208.27c-12.11,7.75-22.68,7.63-31.85,3.72-9-3.83-9.38-13.11-6.85-24.18,10.81,10.49,22.62,15.81,38.7,20.46Zm-161.9,50.66c15.4-11.29,29.84-23.21,35.58-42.49,1.29-4.33,3.14-8.12,8.43-5.66,4.71,2.19,9.14,5.31,6.93,11.73-.98,2.87-2.51,5.56-3.94,8.26-5.69,10.72-10.77,21.34,6.99,30.03-27.02,11.1-55.13,6.35-77.76,21.97,5.76-11.03,14.93-17.35,23.77-23.84Zm-17.55-49.81c12.2-5.45,25.52-4.95,34.05-15.26,2.62-3.17,5.16-1.68,7.47,1.02,3.44,4.03,1.77,7.39-.94,10.81-8.3,10.51-21.11,11.94-40.58,3.43Zm85.92,57.87c32.93-.36,57.87,29.39,56.06,68.16-38.78-26.9-60.91-27.19-107.55-2.41-3.15-32.35,22.76-65.44,51.49-65.75Zm1.59-34.67c7.54.77,7.97,8.4,9.05,14.15,1.07,5.67-3.26,6.71-7.73,6.53-6-.24-10.05-2.36-7.03-12.76.37-1.04-2.19-8.72,5.71-7.92Zm-70.43-457.85c6.38,1.3,5.22,8.5,8.83,9.15,12.54,2.27,10.39,10.13,10.02,19.37-.42,10.32-.91,15.57-11.69,7.22-2.85-2.21-5.94-1.13-8.28,1.16-2.88,2.81-5.91,7.55-9.89,4.43-3.16-2.47-1.7-7.98.24-11.48,5.38-9.73-8.41-8.3-8.57-16.06,9.92.14,20.23.05,19.34-13.79Zm-75.99,29.08c2.58-3.02,4.36-6.72,6.7-10.46,6.14,2.31,2.89,9.78,8.51,11.11,4.97,1.17,7.29,3.99,4.63,8.77-2.53,4.53-7.89,9.94-11.38,8.77-5.98-1.99-12.35-6.85-15.48-12.28-3.85-6.71,4.98-3.51,7.02-5.91Zm-18.21,120.66c4.94-1.49,8.84,1.44,11.82,5.34,24.97,32.65,56.38,59.29,83.85,89.64,29.42,32.51,28.91,45.96,10.23,78.67-8.79,15.4-9.46,31.81-11.3,48.81-11.15-15.19-14.45-29.89-4.21-47.78,18.84-32.89,15.59-43.45-13.76-67.71-23.23-19.19-48.2-36.44-67.21-60.41-8.17-10.31-14.38-21.16-13.76-34.77.2-4.33-1.61-10,4.34-11.79Zm80.28,124.8c7.53,6.67,13.48,14.03,9.35,26.22-37.54-30.19-87.31-47.26-99.66-101.85,26.38,29.75,60.88,49.63,90.31,75.63Zm-19.71,17.22c4.84,2.85,9.89,5.54,14.12,9.15,4.68,4,13.32,8.01,7.85,15.58-4.91,6.8-9.6-1.81-13.88-3.77-20.41-9.35-40.46-19.54-58.08-33.72-11.32-9.11-19.21-20.55-23.76-38.99,25.07,22.08,49.15,37.29,73.75,51.75Zm.69,25.7c4.8,1.83,9.62,3.63,11.43,9.17,1.12,3.41,2.65,7.1.3,10.25-3.02,4.07-6.39.6-9.49-.5-16.26-5.76-32.75-10.98-47.56-20.19-11.04-6.87-18.69-16.29-24.32-32.67,24.54,15.52,46.85,25.25,69.64,33.94Zm-58.15,5.42c22.25,10.92,41.37,17.64,61.6,20.83,11.07,1.74,10.38,12.24,9.59,18.01-.99,7.25-8.53,1.34-12.62.5-23.16-4.76-45.56-11.21-58.57-39.34Zm21.18,48.23c-2.36-2.6-5.49-4.81-4.07-10.48,16.99,5.01,33.05,9.9,49.95,11.13,3.02.21,6.12.95,8.95,2.03,6.35,2.44,14.55,6.54,13.72,12.69-.99,7.27-10.04,3.84-15.54,3.83-19.87-.06-38.74-3.42-53.01-19.2Zm15.16,24.88c18.78,4.78,37.18,4.08,55.44,2.24,8.03-.82,12.39,2.63,13.47,9.03,1.25,7.38-6.29,6.55-10.7,7.97-23.32,7.49-45.23.42-58.21-19.24Zm60.35,123.2c-18.81,16.48-20.97,40.58-34.91,58.17-5.77-38.83,20.93-76.12,55.16-75.98-28.03,33.18-27.4,97.15,23.76,121.85-45.79,1.61-67.6-47.88-44.01-104.04Zm63.21,96.24c-17.91-2.2-35.27-11-45.62-31.15-4.46-8.66-2.83-15.16,4.63-21.47,21.9-18.51,67.17-17.55,88.51,2,4.7,4.32,6.15,8.11,4.11,14.59-6.83,21.65-25.52,36.12-51.63,36.03Zm78.47-35.84c-8.24,26.82-27.45,42.73-55.07,43.48,21.66-11.38,35.37-26.72,41.31-48.61,5.88-21.64-2.78-40.8-11.08-61.73,22.52,15.78,32.12,43.19,24.84,66.86Zm-33.31-80.33c37.61,3.6,58.77,32.35,60.17,79.65-18.25-29.3-27.35-61.25-60.17-79.65Zm20.53-88.14c-3.45-2.47-6.63-4.75-4.06-9.93,2.03-4.09,4.31-7.15,9.31-5.43,18.33,6.31,36.99,3.67,55.92,1.75-13.45,21.71-41.41,27.73-61.17,13.61Zm13.15-21.56c-6.29-2.12-6.95-5.24-2.33-9.78,4.38-4.31,8.58-8.76,15.61-8.42,19.51.94,38.05-4.94,58.96-9.37-15.9,25.25-46.55,36.22-72.24,27.57Zm18.17-27.01c-4.05-1.25-4.09-3.3-3.86-6.67.36-5.47,1.45-9.66,7.76-11.37,21.48-5.81,42.85-12.01,64.56-18.15-7.77,21.18-48.62,42.35-68.46,36.19Zm47.5-40.67c-13,4.58-25.98,9.23-39.11,13.42-4.44,1.42-10.47,5.35-13.19-1.87-2.68-7.14,3.55-10.05,8.58-12.38,19.04-8.81,38.17-17.43,57.41-25.8,5.54-2.41,11.35-4.19,16.83-7.5-4.23,17.15-14.43,28.46-30.52,34.13Zm-6.26-27.86c-13.76,8.55-29.76,13.49-44.73,20.12-2.85,1.26-5.77,3.07-8.11-.31-2.29-3.32-2.11-7.29,1.04-9.71,5.64-4.36,11.54-8.53,17.81-11.89,26.13-14,51.25-29.54,75.73-49.12-3.8,26.62-23,39.26-41.74,50.91Z"/>
  <path class="cls-4" d="m1020.58,377.56c-5.11,4.26-5.25,4.08-9.26-.8q-9.61-11.7,4.45-24.32c-7.03,12.63,22.29,10.56,4.81,25.12Z"/>
  <path class="cls-4" d="m966.07,353.15c-8.81,5.42-7.8,12.47-6.1,20.77.51,2.52-4.11,3.13-5.95,1.34-7.06-6.88-13.28-4.42-20.47,3.46-.42-10.86-2.94-18.78-9.36-26.61,10.8-1.39,17.53-6.64,19.48-19.8,6.36,9.18,7.89,19.02,18.78,16.47,2.51-.59,5.89,2.97,3.62,4.37Z"/>
  <path class="cls-4" d="m894.89,373.95c1.23,2.44.83,5.18-1.38,7-3.14,2.59-5.83.76-7.87-1.69-8.05-9.64-15.62-7.11-23.51.31-1.63,1.53-4.74,2.73-6.79,2.29-4.2-.89-2.75-4.92-2.43-7.63,1.35-11.33,3.7-22.82-10.62-29.99,12.97-2.98,22.48-7.57,25.6-20.53,1.08-4.49,6.21-8.32,7.75-1.73,3.78,16.14,15.44,19.69,32.15,21.29-12.94,8.57-19.6,17.43-12.9,30.68Z"/>
  <path class="cls-4" d="m819.99,362.93c-.42,10.32-.91,15.57-11.69,7.22-2.85-2.21-5.94-1.13-8.28,1.16-2.88,2.81-5.91,7.55-9.89,4.43-3.16-2.47-1.7-7.98.24-11.48,5.38-9.73-8.41-8.3-8.57-16.06,9.92.14,20.23.05,19.34-13.79,6.38,1.3,5.22,8.5,8.83,9.15,12.54,2.27,10.39,10.13,10.02,19.37Z"/>
  <path class="cls-4" d="m744.99,372.91c-2.53,4.53-7.89,9.94-11.38,8.77-5.98-1.99-12.35-6.85-15.48-12.28-3.85-6.71,4.98-3.51,7.02-5.91,2.58-3.02,4.36-6.72,6.7-10.46,6.14,2.31,2.89,9.78,8.51,11.11,4.97,1.17,7.29,3.99,4.63,8.77Z"/>
  <path class="cls-5" d="m926.04,895.09c-38.78-26.9-60.91-27.19-107.55-2.41-3.15-32.35,22.76-65.44,51.49-65.75,32.93-.36,57.87,29.39,56.06,68.16Z"/>
  <g>
    <path class="cls-3" d="m850.75,957.64c-45.79,1.61-67.6-47.88-44.01-104.04-18.81,16.48-20.97,40.58-34.91,58.17-5.77-38.83,20.93-76.12,55.16-75.98-28.03,33.18-27.4,97.15,23.76,121.85Z"/>
    <path class="cls-3" d="m975.28,913.32c-18.25-29.3-27.35-61.25-60.17-79.65,37.61,3.6,58.77,32.35,60.17,79.65Z"/>
    <path class="cls-3" d="m948.42,914c-8.24,26.82-27.45,42.73-55.07,43.48,21.66-11.38,35.37-26.72,41.31-48.61,5.88-21.64-2.78-40.8-11.08-61.73,22.52,15.78,32.12,43.19,24.84,66.86Z"/>
    <path class="cls-3" d="m921.58,913.81c-6.83,21.65-25.52,36.12-51.63,36.03-17.91-2.2-35.27-11-45.62-31.15-4.46-8.66-2.83-15.16,4.63-21.47,21.9-18.51,67.17-17.55,88.51,2,4.7,4.32,6.15,8.11,4.11,14.59Z"/>
  </g>
  <g>
    <path class="cls-2" d="m812.84,657.8c-8.79,15.4-9.46,31.81-11.3,48.81-11.15-15.19-14.45-29.89-4.21-47.78,18.84-32.89,15.59-43.45-13.76-67.71-23.23-19.19-48.2-36.44-67.21-60.41-8.17-10.31-14.38-21.16-13.76-34.77.2-4.33-1.61-10,4.34-11.79,4.94-1.49,8.84,1.44,11.82,5.34,24.97,32.65,56.38,59.29,83.85,89.64,29.42,32.51,28.91,45.96,10.23,78.67Z"/>
    <g>
      <path class="cls-2" d="m872.89,812.94c-6-.24-10.05-2.36-7.03-12.76.37-1.04-2.19-8.72,5.71-7.92,7.54.77,7.97,8.4,9.05,14.15,1.07,5.67-3.26,6.71-7.73,6.53Z"/>
      <path class="cls-2" d="m855.6,820.74c-27.02,11.1-55.13,6.35-77.76,21.97,5.76-11.03,14.93-17.35,23.77-23.84,15.4-11.29,29.84-23.21,35.58-42.49,1.29-4.33,3.14-8.12,8.43-5.66,4.71,2.19,9.14,5.31,6.93,11.73-.98,2.87-2.51,5.56-3.94,8.26-5.69,10.72-10.77,21.34,6.99,30.03Z"/>
      <path class="cls-2" d="m824.64,765.63c-8.3,10.51-21.11,11.94-40.58,3.43,12.2-5.45,25.52-4.95,34.05-15.26,2.62-3.17,5.16-1.68,7.47,1.02,3.44,4.03,1.77,7.39-.94,10.81Z"/>
      <path class="cls-2" d="m804.6,749.64c-23.32,7.49-45.23.42-58.21-19.24,18.78,4.78,37.18,4.08,55.44,2.24,8.03-.82,12.39,2.63,13.47,9.03,1.25,7.38-6.29,6.55-10.7,7.97Z"/>
      <path class="cls-2" d="m799.78,720.89c-.99,7.27-10.04,3.84-15.54,3.83-19.87-.06-38.74-3.42-53.01-19.2-2.36-2.6-5.49-4.81-4.07-10.48,16.99,5.01,33.05,9.9,49.95,11.13,3.02.21,6.12.95,8.95,2.03,6.35,2.44,14.55,6.54,13.72,12.69Z"/>
      <path class="cls-2" d="m781.24,696.13c-.99,7.25-8.53,1.34-12.62.5-23.16-4.76-45.56-11.21-58.57-39.34,22.25,10.92,41.37,17.64,61.6,20.83,11.07,1.74,10.38,12.24,9.59,18.01Z"/>
      <path class="cls-2" d="m779.93,671.29c-3.02,4.07-6.39.6-9.49-.5-16.26-5.76-32.75-10.98-47.56-20.19-11.04-6.87-18.69-16.29-24.32-32.67,24.54,15.52,46.85,25.25,69.64,33.94,4.8,1.83,9.62,3.63,11.43,9.17,1.12,3.41,2.65,7.1.3,10.25Z"/>
      <path class="cls-2" d="m789.48,650.9c-4.91,6.8-9.6-1.81-13.88-3.77-20.41-9.35-40.46-19.54-58.08-33.72-11.32-9.11-19.21-20.55-23.76-38.99,25.07,22.08,49.15,37.29,73.75,51.75,4.84,2.85,9.89,5.54,14.12,9.15,4.68,4,13.32,8.01,7.85,15.58Z"/>
      <path class="cls-2" d="m796.57,635.17c-37.54-30.19-87.31-47.26-99.66-101.85,26.38,29.75,60.88,49.63,90.31,75.63,7.53,6.67,13.48,14.03,9.35,26.22Z"/>
      <path class="cls-2" d="m963.51,768.21c-12.11,7.75-22.68,7.63-31.85,3.72-9-3.83-9.38-13.11-6.85-24.18,10.81,10.49,22.62,15.81,38.7,20.46Z"/>
      <path class="cls-2" d="m996.81,731.92c-13.45,21.71-41.41,27.73-61.17,13.61-3.45-2.47-6.63-4.75-4.06-9.93,2.03-4.09,4.31-7.15,9.31-5.43,18.33,6.31,36.99,3.67,55.92,1.75Z"/>
      <path class="cls-2" d="m1021.03,696.4c-15.9,25.25-46.55,36.22-72.24,27.57-6.29-2.12-6.95-5.24-2.33-9.78,4.38-4.31,8.58-8.76,15.61-8.42,19.51.94,38.05-4.94,58.96-9.37Z"/>
      <path class="cls-2" d="m1035.42,660.77c-7.77,21.18-48.62,42.35-68.46,36.19-4.05-1.25-4.09-3.3-3.86-6.67.36-5.47,1.45-9.66,7.76-11.37,21.48-5.81,42.85-12.01,64.56-18.15Z"/>
      <path class="cls-2" d="m1044.98,622.16c-4.23,17.15-14.43,28.46-30.52,34.13-13,4.58-25.98,9.23-39.11,13.42-4.44,1.42-10.47,5.35-13.19-1.87-2.68-7.14,3.55-10.05,8.58-12.38,19.04-8.81,38.17-17.43,57.41-25.8,5.54-2.41,11.35-4.19,16.83-7.5Z"/>
      <path class="cls-2" d="m1049.94,577.52c-3.8,26.62-23,39.26-41.74,50.91-13.76,8.55-29.76,13.49-44.73,20.12-2.85,1.26-5.77,3.07-8.11-.31-2.29-3.32-2.11-7.29,1.04-9.71,5.64-4.36,11.54-8.53,17.81-11.89,26.13-14,51.25-29.54,75.73-49.12Z"/>
      <path class="cls-2" d="m1048.26,531.87c-2.77,24.63-14.91,40.34-30.26,52.93-19.37,15.88-40.34,29.8-60.64,44.54-2.39,1.73-5.29,4.79-7.85,1.9-1.68-1.9-1.66-5.72-1.61-8.67.12-6.37,5.06-9.97,9.31-13.44,14.67-11.98,29.52-23.76,44.53-35.31,15.71-12.08,31.72-23.77,46.52-41.95Z"/>
      <path class="cls-2" d="m1031.36,526.58c-14.47,19.66-32.67,35.15-51.66,49.97-7.66,5.97-15.62,11.58-22.97,17.91-23.6,20.3-25.15,28.88-11.66,57.07,5.74,12.01,11.33,24.26,8.42,38.15-1.21,5.79-1.93,12.33-11.6,15.21,4.89-25.23-8.09-44.34-18.87-64.31-10.71-19.84-6-37.58,8.99-53.19,12.41-12.92,25.29-25.39,37.64-38.37,22.44-23.6,47.39-45.02,63.83-75.99,9.74,19.97,10.34,36.62-2.12,53.55Z"/>
      <path class="cls-2" d="m891.22,787.9c-14.12-11.04-30.79-18.05-45.17-29-31.47-23.98-44.36-66.34-12.17-101.5,9.29-10.13,18.1-20.99,22.1-34.71,6.74-23.09-.69-34.33-24.41-36.64-4.52-.44-9.07-.45-13.18-.64-3.49-3.2,12.89-15.86-5.72-10.91-.78.21-3.4-2.76-3.43-4.28-.04-2.44,2.81-2.7,4.67-2.5,8.75.93,14.95-3.81,22.22-7.78,15.06-8.23,31.72-7.98,47.5-1.36,10.07,4.23,16.2,12.45,16.04,24.05-.13,9.72.19,19.54-1.04,29.15-3.04,23.77,2.73,44.69,18.38,62.81,14.87,17.21,16.23,35.73,5.48,55.36-6.24,11.38-10.96,23.09-10.72,36.36.33,17.97,6.36,32.86,21.87,43.29,12.29,8.27,24.18,17.12,32.51,30.61-23.21-10.91-48.47-13.03-73.86-18.1,14.46-11.48,13.92-22.49-1.07-34.21Z"/>
    </g>
  </g>
  <path class="cls-1" d="m793.27,423.34c6.11.21,9.8,3.6,9.64,9.47-.11,4.15-2.65,7.99-7.87,7.46-5.61-.57-9.63-2.92-9.33-9.63.23-5.05,2.43-7.55,7.56-7.31Z"/>
  <g>
    <path class="cls-5" d="m663.26,419.6h-34.66v-13.06h34.66c2.27,0,4.06.61,5.35,1.82,1.29,1.21,1.93,2.79,1.93,4.73s-.64,3.51-1.93,4.71c-1.29,1.2-3.07,1.8-5.35,1.8Zm-8.01,50.31h-14.78v-47.49h14.78v47.49Z"/>
    <path class="cls-5" d="m690.15,429.2h7.92c2.3,0,4.09.59,5.37,1.77,1.27,1.18,1.91,2.76,1.91,4.73s-.64,3.56-1.91,4.75c-1.27,1.2-3.06,1.8-5.37,1.8h-7.92v27.66h-14.78v-63.37h14.78v22.65Zm17.24,40.71v-63.37h14.83v63.37h-14.83Z"/>
    <path class="cls-5" d="m753.47,457.53v13.51c-3.09,0-5.87-.44-8.32-1.32-2.46-.88-4.5-2.08-6.14-3.62-1.64-1.53-2.99-3.38-4.05-5.55-1.06-2.17-1.83-4.47-2.3-6.91-.47-2.44-.71-5.09-.71-7.94v-14.92c0-2.85.23-5.5.71-7.94.47-2.44,1.23-4.75,2.3-6.91,1.06-2.17,2.41-4.02,4.05-5.55,1.64-1.53,3.68-2.74,6.14-3.62,2.46-.88,5.23-1.32,8.32-1.32v13.51c-2.21,0-3.82,1.01-4.82,3.02-1,2.02-1.5,5.39-1.5,10.12v12.28c0,4.73.5,8.1,1.5,10.12,1,2.02,2.61,3.02,4.82,3.02Zm3.73,13.51v-13.51c2.21,0,3.83-1.01,4.84-3.02,1.02-2.02,1.52-5.39,1.52-10.12v-12.28c0-4.73-.51-8.1-1.52-10.12-1.02-2.02-2.63-3.02-4.84-3.02v-13.51c3.12,0,5.91.44,8.37,1.32,2.46.88,4.5,2.09,6.12,3.62,1.62,1.53,2.97,3.38,4.05,5.55,1.08,2.17,1.84,4.47,2.3,6.91.45,2.44.68,5.09.68,7.94v14.92c0,2.85-.23,5.5-.68,7.94-.46,2.44-1.22,4.75-2.3,6.91-1.08,2.17-2.43,4.02-4.05,5.55-1.62,1.53-3.66,2.74-6.12,3.62-2.46.88-5.25,1.32-8.37,1.32Z"/>
    <path class="cls-5" d="m815.15,443.93h-2.09c-2.27,0-4.03-.59-5.28-1.77-1.24-1.18-1.87-2.77-1.87-4.78s.62-3.55,1.87-4.73c1.24-1.18,3-1.77,5.28-1.77h1.14c3.79,0,5.69-1.83,5.69-5.5,0-3.85-2.34-5.78-7.01-5.78h-24.38v-13.06h26.25c6.22,0,11.08,1.6,14.6,4.8,3.52,3.2,5.28,7.85,5.28,13.94s-1.69,10.8-5.07,13.94c-3.38,3.14-8.18,4.71-14.4,4.71Zm-11.87,25.97h-14.78v-46.94h14.78v46.94Zm32.98,0h-16.19l-10.83-23.2h15.47l11.55,23.2Z"/>
    <path class="cls-5" d="m863.69,471.05c-2.12,0-3.78-.45-4.96-1.34-1.18-.89-2.14-2.51-2.87-4.84l-18.29-58.32h15.97l17.1,54.81c.33,1.12.5,2.14.5,3.05,0,2.06-.64,3.69-1.91,4.87s-3.12,1.77-5.55,1.77Zm25.88-64.5l-15.92,51.27-7.28-23.75,8.1-27.52h15.1Z"/>
    <path class="cls-5" d="m910.41,469.91h-14.78v-63.37h14.78v63.37Z"/>
    <path class="cls-5" d="m917.5,459.58l10.69-8.01c.97,2.21,2.47,3.81,4.5,4.78,2.03.97,4.08,1.46,6.14,1.46v13.24c-11.01,0-18.12-3.82-21.33-11.46Zm24.97-28.7c3.79,1.09,6.88,2.17,9.26,3.23,2.38,1.06,4.47,2.38,6.25,3.96,1.79,1.58,3.06,3.45,3.82,5.62.76,2.17,1.14,4.8,1.14,7.89,0,6.43-1.74,11.28-5.23,14.56-3.49,3.27-8.57,4.91-15.24,4.91v-13.24c3.79-.27,5.69-2.26,5.69-5.96,0-1.79-.59-3.24-1.77-4.37-1.18-1.12-3.55-2.18-7.1-3.18-7.22-2.03-12.25-4.55-15.1-7.55-2.85-3-4.28-7.01-4.28-12.01,0-3.18.5-6.02,1.5-8.51,1-2.49,2.4-4.5,4.21-6.05,1.8-1.55,3.91-2.72,6.32-3.53,2.41-.8,5.07-1.21,7.98-1.21v13.24c-1.49.15-2.71.71-3.66,1.66-.96.96-1.43,2.3-1.43,4.03s.52,3.06,1.57,3.91c1.05.85,3.07,1.71,6.07,2.59Zm20.74-14.47l-10.69,8.05c-1.06-3.85-4.05-5.78-8.96-5.78v-13.24c5.06,0,9.17.85,12.33,2.55,3.15,1.7,5.6,4.5,7.32,8.42Z"/>
    <path class="cls-5" d="m993.38,457.63v13.42c-3.28,0-6.2-.46-8.78-1.39-2.58-.92-4.71-2.18-6.39-3.78s-3.08-3.51-4.19-5.75c-1.11-2.24-1.89-4.6-2.34-7.07-.46-2.47-.68-5.15-.68-8.03v-38.48h14.83v37.85c0,4.79.65,8.2,1.96,10.21,1.3,2.02,3.17,3.02,5.6,3.02Zm3.73,13.42v-13.42c2.43,0,4.29-1.01,5.6-3.02,1.3-2.02,1.96-5.42,1.96-10.21v-37.85h14.78v38.48c0,3.61-.4,6.91-1.21,9.92-.8,3-2.05,5.74-3.75,8.21-1.7,2.47-4.03,4.41-6.98,5.8-2.96,1.39-6.42,2.09-10.39,2.09Z"/>
    <path class="cls-5" d="m1045.42,444.02h8.42l2.77,13.01h-14.15l-3,12.87h-15.15l11.92-46.94h14.06l-4.87,21.06Zm17.74-37.48l15.33,63.37h-15.06l-11.37-50.31h-10.33c-2.34,0-4.13-.58-5.39-1.75-1.26-1.17-1.89-2.75-1.89-4.75s.64-3.59,1.91-4.78c1.27-1.18,3.06-1.77,5.37-1.77h21.43Z"/>
    <path class="cls-5" d="m1099.83,453.53h-14.78v-46.99h14.78v46.99Zm16.69,16.38h-31.48v-13.06h31.48c2.27,0,4.04.59,5.3,1.77,1.26,1.18,1.89,2.77,1.89,4.78s-.63,3.59-1.89,4.75c-1.26,1.17-3.03,1.75-5.3,1.75Z"/>
  </g>
</svg>