<?xml version="1.0" encoding="utf-8"?>
<!-- Generator: Adobe Illustrator 27.9.0, SVG Export Plug-In . SVG Version: 6.00 Build 0)  -->
<svg version="1.1" id="Layer_1" xmlns="http://www.w3.org/2000/svg" xmlns:xlink="http://www.w3.org/1999/xlink" x="0px" y="0px"
	 viewBox="0 0 1741.6 1389.9" style="enable-background:new 0 0 1741.6 1389.9;" xml:space="preserve">
<style type="text/css">
	.st0{fill:#49070F;}
	.st1{fill:#FFFFFF;}
	.st2{font-family:'eFootballStencil-Regular';}
	.st3{font-size:60.74px;}
</style>
<path class="st0" d="M1194.9,334.9c0-11-3.1-13.8-13.7-13.8c-102.6,0.3-205.2,0.2-307.8,0.2v0.5c-101.6,0-203.1,0.2-304.7-0.3
	c-13.5-0.1-18,2.6-18,17.3c0.5,185.2,0.5,370.3-0.2,555.5c-0.1,16.8,5.8,27.4,18,37.6c52,43.2,103.5,87.2,155.2,130.8
	c46.6,39.3,93.4,78.5,139.9,117.9c7,5.9,11.6,6.3,19.2,0.1C983,1099.1,1080.2,1014,1178.3,930c12.8-11,16.3-22.3,16.2-38.2
	C1194.3,706.2,1194.4,520.5,1194.9,334.9L1194.9,334.9z M643,893.6c0,8,0.6,16.4-4.5,24.4c-9.7-4.4-11.3-12-11.6-19.7
	c-0.7-17.4-1.1-34.8-1.1-52.2c-0.1-88.2,0-176.3,0-264.5c0-5.1,0.3-10.2,0.4-15.4c0.1-8,2.9-15.7,11.5-15.1c9.3,0.7,4.6,10,4.6,14.9
	C642.9,675.2,643,784.4,643,893.6L643,893.6z M1078.9,983.6c-64.6,55.4-129.4,110.6-193.9,166.1c-7.2,6.2-12,7.8-20.5,0.5
	c-64.2-55-129-109.3-193.6-163.9c-3.1-2.6-6.3-5.3-8.9-8.5c-2.6-3.1-9.7-5.5-4.9-10.8c3.8-4.2,7.3,1.3,10.1,3.6
	c58.2,47.7,116.8,95,174.3,143.7c32.3,27.4,31.2,28.2,64.1,0.7c54.2-45.5,108.6-90.7,163-135.9c6.5-5.4,13.6-10,20.4-14.9
	C1089.8,974.4,1084.2,979,1078.9,983.6z M671.3,707c0-4-2.8-10.4,4.1-11.2c6.1-0.7,11.1,3,12.3,9.2c1.1,5.5,1.1,11.2,1.1,16.8
	c0.1,41.4-0.5,82.9,0.4,124.3c0.3,14.4-1.5,26.1-18.1,33.5c0-26.6,0-52,0-77.5C671.1,770.4,671,738.7,671.3,707L671.3,707z
	 M709.6,900.4c6.8-7.6,15.1-14.2,20.5-22.7c6.8-10.6,12.1-9.9,19.5-1.4c2.9,3.3,7.1,5.6,11.4,9c-25,27-49.9,53.4-74.2,80.3
	c-5.5,6.1-8.1,1.2-10.8-1.6c-4.8-4.8-15.5-8.1-7.2-17.8C682.2,930.7,695.9,915.6,709.6,900.4z M792.7,637.8
	c15.1,4.1,29,2.8,43.7-0.9c20.6-5.2,42.6-6.8,62.6-1.6c28.2,7.3,54.7,1.1,81.8-2.5c4.5-0.6,9-1.1,14.6-1.7
	c-1.4,13.1-9.7,19.4-19,24.7c-6.6,3.8-9.2,7.6-2.7,14c6.9,6.7,9.1,31.7,3,39.2c-9.1,11.2-7.9,26.8-6.1,36.6
	c4.1,21.9,2.3,40-11.2,57.4c-14.4-16.4-26.8-15.5-37.2,2.5c6.2,3.2,8-4.5,13.3-5.2c0,4.9,0.4,9.5-0.1,14
	c-3.6,31.7-12.6,36.2-40.3,20.1c-22.2-12.9-23.1-23.9-3.3-41c3.5-3,7.7-5.3,10.8-8.7c3.1-3.5,10.4-5.6,7.3-11.8
	c-2.3-4.6-8.4-7.2-13.3-5.7c-15.5,4.5-30.4,0.9-45.5-1.2c-6-0.8-11.4,0.2-14.2,6.5c-2.7,6.2,2.1,9.5,5.8,12.9
	c5.7,5.2,12.1,9.6,17.4,15.1c10.9,11.2,9,23.7-4.6,31.6c-3.5,2.1-7.2,3.8-11,5.5c-22.1,9.5-35-0.3-32.5-24.7c0-0.5,0.1-1,0.1-1.5
	c-1.1-10.2,12.4-0.7,12.2-8.9c-0.1-6.2-13.5-2.4-9.8-12.4c2.1-5.6,3-10.4-5.8-12c-7.5-1.3-5.7-7.3-2.7-12c2.5-4,3.5-7.6-1.4-10.2
	c-4.2-2.2-7.8-0.7-11.2,2.2c-9.9,8.5-3.6,18.8-2.3,29.1c-14.1-8.9-16.8-21.8-6.7-35.8c5.3-7.3,8.6-12.4-1.1-18.1
	c-4.6-2.7-6.2-7.4-2.5-11.7c5.4-6.2,8.2-17.9,19-15.3c20.3,4.8,29-3.4,33.1-22.6c2.1-9.9,10.8-15.9,22.1-15.5
	c7.7,0.3,10.4,4.8,10.3,11.6c20.7-11.1,42-19.7,69.4-15c-10-11.6-20.9-12.5-30.8-14.1c-31.4-5.1-62.2-2.7-92.3,8.4
	c-21.6,8-33,23-32.9,45.4c-7.7-6.2-9.8-24.4-2.2-30.3c10.4-8.2,7.3-12.8-2.6-17.1c-10.4-4.6-20-10-23-24.5
	C765.8,634.1,779.7,634.3,792.7,637.8L792.7,637.8z M941.8,853.4c0.1-13.3,2.3-23.9,7.5-33.9C950.6,830.8,955.2,842.9,941.8,853.4z
	 M791.7,687.4c0.2-5.6,4.5-7.3,9.8-6.8s11.1,1.5,11.5,7.7c0.5,7.4-6.2,4.3-10.2,5.4C798.5,692.5,791.4,695.8,791.7,687.4z
	 M746.4,675.7c7.1,2.6,3.7,9.6,4.7,14.8c6.6,33.9,2.1,68.7,9,102.6c2.1,10.1,5.5,19.7,13.2,27.1c1.8,1.7,4.3,4.3,4.2,6.2
	c-2.2,25.4,19,31.2,34.5,41.7c4.6,3.1,9.4,6,18.3,11.6c-8.2-17-2.7-21,9.7-20.2c3.3,0.2,7.1-1.4,10-3.3c13.9-9.5,28.1-8.5,42.3-1.6
	c9,4.4,18,7.2,27.8,4.2c3.9,6.1-4.4,9.2-1.6,15.5c15.8-4.3,28.2-15.3,42.1-22.9c5.8-3.2,2.7-11.4,2.8-17.3c0-6.6-0.6-13.1-1.1-22.7
	c11.3,13,15.7,3.9,19.8-3.7c10.4-19.4,9.8-40.7,8.8-61.6c-1-22.1,9.9-42.8,6.5-65.1c-0.7-4.3,2.7-5.8,6.7-6.7
	c7.5-1.7,14.8-4.1,22.1-6.3c2.7-0.8,5.9-3.8,8,0c1.7,3-0.4,6.7-3,7.9c-19.9,9-17.1,27.8-21.6,44.6c-5.5,20.4-3.1,40.5-5.1,60.7
	c-1.8,17.8-5.3,34.4-18,47.9c-1.4,1.5-3.6,3.2-3.6,4.8c1.2,24.1-18.4,30.6-33.9,40.6c-9,5.8-17.5,12.7-27.1,17.4
	c-4.9,2.4-11.5,16.6-18,0.1c-1.3-3.3-6,1.5-9,2.8c-14,5.9-27.8,9.8-41.9,0.3c-3.6-2.4-7.8-5.5-10.2,2.4c-1.2,3.9-4.9,1.5-7.6-0.1
	c-19.7-11.9-39.5-23.7-59.3-35.5c-3.7-2.2-6.7-4.7-8.2-8.7c-13.8-37.9-32.3-74-26-117.3c1.9-12.9-5.5-28.5-5.8-43.3
	c-0.1-5.5-5.1-7-9-9.5c-5.3-3.5-12.6-4.8-15.7-13.5C724.1,668.3,735.4,671.7,746.4,675.7L746.4,675.7z M926.7,1048.5
	c-0.3,19.3-8.8,29.9-28.3,30.6c-9.3,0.3-14.6,3.5-17.7,11.3c-3.4,8.8-7.8,7.9-13.3,2.2c-5.3-5.5-10.6-11.2-15.8-16.8
	c-2-2.2-4-7.2-6.4-5.7c-18.6,11.3-12-7.6-13.6-12.5c-3.3-9.9-3.4-20.9-4.7-30.4c-8.5,7.5-17.5,14.8-25.5,22.9
	c-4.4,4.4-7.2,8.7-13.2,2.2c-5.1-5.5-10.6-10-2.4-17.6c12.4-11.5,24.2-23.7,36.3-35.5c1.4-1.4,4.9-2.8,4.7-3.3
	c-9.2-25.9,20.3-20.5,26.3-37.3c11.5,27.4,14.5,29.5,33.6,23.4c15-4.8-0.1-15.5,4-22.9c5.7,0.4,7.8,5.4,10.4,9.4
	c5.9,9,8.7,21.7,24.1,18.3c0.9-0.2,3.3,1.6,3.3,2.5c-0.3,22.6,21.2,29.9,31.6,44.9c4.3,6.2,9.7,10.1,1.5,17.6
	c-9.2,8.5-11.5,0.6-16.1-4.7c-4.6-5.4-9.1-11.1-16.2-14.3C924,1037.3,926.8,1043.3,926.7,1048.5L926.7,1048.5z M744.9,1008.7
	c-5.6,6.2-9,3.5-11.8-0.9c-3.2-5-16.2-6.7-8.4-15.4c25-27.6,51-54.2,76.7-81.2c1.3-1.4,3-2.3,5-3.9c6.1,4.6,13,7.9,16.9,13.3
	c2.5,3.5-3.8,7.4-6.7,10.6C792.7,957.1,768.4,982.5,744.9,1008.7L744.9,1008.7z M929.2,930.1c-3-3.3-10-7.5-1.6-11.2
	c6.4-2.8,10.1-17.3,20.8-5.8c23.2,25.1,46.7,49.9,70,74.9c2.7,2.8,6.5,5.1,6.4,10.1c-4.1,5.8-9.2,11.1-15.5,14.2
	c-5.2,2.6-6.2-3.9-8.7-6.5C976.7,980.7,953,955.4,929.2,930.1L929.2,930.1z M994.5,893.6c-2.7-3-10-5.4-6.4-10
	c4.9-6.2,12.4-10.3,19-15.5c2,1.7,3.7,2.8,4.9,4.3c19.5,25.2,43.9,45.7,64.5,69.9c4.2,4.9,10.5,9.3,1.5,15.9
	c-7.1,5.2-11.2,10.5-20.7,0.5C1036.5,937,1014.6,916.1,994.5,893.6L994.5,893.6z M1074,879.2c-13.6-8.5-17.3-18.2-17.1-31.3
	c0.8-44.1,0.8-88.2,1.1-132.3c0-4.1,0.1-8.3,1.1-12.2c1.4-5.4,6.8-6.1,11.2-6.5c4.5-0.5,3.7,3.9,3.7,6.7
	C1074,761.5,1074,819.3,1074,879.2L1074,879.2z M1119.9,569.2c-0.3,106.6-0.7,213.2-1.2,319.7c-0.1,10.5,0.9,21.8-13.8,28.6
	c-0.8-10.8-2-19.4-2-28c0.2-110.2,0.5-220.3,1-330.5c0-3.3-3.5-9.3,2.9-9.9c5.2-0.5,10.1,3.1,12.1,7.9
	C1120.4,560.7,1119.9,565.2,1119.9,569.2L1119.9,569.2z M1170,889.4c0,9.9-2.2,17.9-9.3,24.8c-10.3,10-20.1,20.5-30.3,30.6
	c-2.1,2-4.9,5.4-7.8,3c-3.8-3-0.7-6.5,1.5-9.3c5.6-7.3,10.8-15,17.1-21.7c10.8-11.7,13.4-25,13.3-40.7
	c-0.4-163.6-0.4-327.2,0.4-490.8c0.1-16.1-4.5-19-19.5-18.9c-176.4,0.7-352.9,0.8-529.3,0.6c-11.3,0-14.6,2.3-14.6,14.2
	c0.5,165.7,0.7,331.3,0.4,497c0,17.7,5.6,31.7,17.2,44.3c6.3,6.9,12.9,14,15.5,25.7c-14.9-4.6-20.2-17.4-30-24.8
	c-14.9-11.2-18.7-25.7-18.6-44.2c0.7-169.8,0.8-339.5,0.2-509.3c0-15.6,5.2-18.5,19.2-18.5c142.6,0.4,285.2,0.2,427.7,0.2
	c43.6,0,87.2,0.5,130.8,0c12.2-0.1,16.5,3.1,16.5,16.2C1169.8,541.7,1169.8,715.5,1170,889.4L1170,889.4z"/>
<path class="st0" d="M864.8,679.8c-18.1,15.9-15.6,37.6-15.2,58c0.3,13.7-4.4,15.2-16,12.2c-13-3.4-25.7-6.6-35.2-17.1
	c-3.7-4.2-8-7.7-5.5-14.6c2.6-7.1,8.4-8,13.7-6.6c22.3,6.2,35.5,0,39.5-24.4c1.6-10.1,13.7-1.5,19.1-7
	C865.3,680.3,864.9,679.8,864.8,679.8L864.8,679.8z"/>
<path class="st0" d="M895.7,704c8.1,10.7,16.8,12.8,28.9,7.8c8.9-3.7,16.5,3.3,23.8,7.8c6,3.8,2.5,7.6-0.7,11.2
	c-11.6,12.9-27.4,17.1-43.4,20.7c-3.6,0.8-5.9,0.3-6.1-4C897.4,733,896.6,718.5,895.7,704L895.7,704z"/>
<path d="M747.1,440.8c1.5,12.2,2.6,20.2,3.4,28.2c0.3,2.7-0.8,5.1-4.2,4.8c-3.4-0.2-4.2-2.8-3.3-5.3
	C745.4,460.7,741.5,452.2,747.1,440.8L747.1,440.8z"/>
<path d="M685.7,567.8c2.2-4.6-5.6-15.9,4.7-16c9.8-0.2,4,11.3,5.7,17.5c0.4,1.4,0.2,3.1-0.1,4.6c-1,5,2.3,13.7-5.7,13.4
	s-3.1-8.8-4.4-13.6C685.3,572.3,685.7,570.6,685.7,567.8L685.7,567.8z"/>
<text transform="matrix(1 0 0 1 670.71 597.6352)" class="st1 st2 st3">FOOTBALL C</text>
<text transform="matrix(1 0 0 1 978.4702 597.6352)" class="st1 st2 st3">L</text>
<text transform="matrix(1 0 0 1 1007.4502 597.6352)" class="st1 st2 st3">UB</text>
<g>
	<path class="st1" d="M649.6,481.3V493c-2.9,0-5.4-0.4-7.7-1.2c-2.3-0.8-4.1-1.9-5.6-3.3c-1.5-1.4-2.7-3.1-3.7-5c-1-2-1.7-4-2-6.2
		c-0.4-2.2-0.6-4.5-0.6-7v-33.7h13v33.1c0,4.2,0.6,7.2,1.7,8.9C645.8,480.4,647.4,481.3,649.6,481.3z M652.8,493v-11.7
		c2.1,0,3.8-0.9,4.9-2.6c1.1-1.8,1.7-4.7,1.7-8.9v-33.1h12.9v33.7c0,3.2-0.4,6-1.1,8.7c-0.7,2.6-1.8,5-3.3,7.2
		c-1.5,2.2-3.5,3.9-6.1,5.1C659.3,492.4,656.3,493,652.8,493z"/>
	<path class="st1" d="M704.6,469.3h-1.8c-2,0-3.5-0.5-4.6-1.6c-1.1-1-1.6-2.4-1.6-4.2c0-1.7,0.5-3.1,1.6-4.1c1.1-1,2.6-1.6,4.6-1.6
		h1c3.3,0,5-1.6,5-4.8c0-3.4-2-5.1-6.1-5.1h-21.3v-11.4h23c5.4,0,9.7,1.4,12.8,4.2c3.1,2.8,4.6,6.9,4.6,12.2c0,5.4-1.5,9.5-4.4,12.2
		S710,469.3,704.6,469.3z M694.2,492h-12.9v-41.1h12.9V492z M723,492h-14.2l-9.5-20.3h13.5L723,492z"/>
	<path class="st1" d="M766.8,455.7h-12.4c0-2.7-0.7-4.6-2.1-5.9c-1.4-1.2-3.5-1.9-6.3-1.9h-16.9v-11.4h18.9c6.1,0,10.8,1.6,14,4.8
		C765.2,444.6,766.8,449.4,766.8,455.7z M742.1,492h-12.9v-41.1h12.9V492z M769.5,474.7c0,5.4-1.5,9.6-4.5,12.7
		c-3,3.1-7.2,4.6-12.5,4.6h-7.3v-11.4h5.7c3.8,0,5.8-1.8,5.8-5.5c0-1.7-0.4-3-1.3-3.8c-0.9-0.8-2.1-1.2-3.6-1.2h-1.3
		c-2,0-3.5-0.5-4.6-1.5c-1.1-1-1.6-2.4-1.6-4.2c0-1.8,0.5-3.1,1.6-4.2c1.1-1,2.6-1.6,4.6-1.6h2.1c5.3,0,9.5,1.4,12.5,4.2
		C768,465.8,769.5,469.7,769.5,474.7z"/>
	<path class="st1" d="M791.2,469.4h7.4l2.4,11.4h-12.4L786,492h-13.3l10.4-41.1h12.3L791.2,469.4z M806.7,436.6l13.4,55.4H807
		l-10-44h-9c-2,0-3.6-0.5-4.7-1.5c-1.1-1-1.7-2.4-1.7-4.2s0.6-3.1,1.7-4.2c1.1-1,2.7-1.6,4.7-1.6H806.7z"/>
	<path class="st1" d="M838,492h-12.1v-48.2l12.1,23.6V492z M840.1,436.6l24,47.8c0.6,1.4,0.9,2.5,0.9,3.5c0,1.8-0.6,3.2-1.9,4.1
		c-1.2,0.9-2.7,1.4-4.5,1.4c-2.4,0-4.2-1.2-5.5-3.7l-27-53.1H840.1z M853.7,436.6h12.1v43.7l-12.1-24.4V436.6z"/>
	<path class="st1" d="M915.1,492h-2c-1.4,0-2.6-0.6-3.6-1.7c-1-1.1-1.5-2.5-1.5-4.3c0-1.7,0.5-3.1,1.5-4.3c1-1.1,2.1-1.7,3.4-1.7
		h1.2c0.8,0,1.6-0.1,2.2-0.3c0.6-0.2,1.3-0.6,1.9-1.2s1.2-1.5,1.6-2.5c0.4-1.1,0.8-2.5,1-4.4c0.3-1.9,0.4-4.1,0.4-6.8
		c0-3.4-0.2-6.2-0.7-8.4c-0.5-2.2-1.2-3.9-2.3-5.2c-1-1.2-2.3-2.1-3.7-2.6c-1.4-0.5-3.1-0.7-5.2-0.7H893v-11.4h17
		c3.1,0,5.9,0.3,8.2,0.8c2.4,0.5,4.6,1.4,6.7,2.7s3.8,3,5.1,5.1c1.3,2.1,2.4,4.8,3.2,8.2c0.8,3.3,1.2,7.2,1.2,11.7
		c0,4.1-0.3,7.8-0.9,10.8c-0.6,3.1-1.4,5.7-2.4,7.7c-1,2.1-2.4,3.7-4,5c-1.6,1.3-3.4,2.2-5.3,2.7S917.6,492,915.1,492z M905.9,492
		h-13v-41.1h13V492z"/>
	<path class="st1" d="M971.2,448h-29.3v-11.4h29.3c2,0,3.5,0.5,4.6,1.6c1.1,1,1.7,2.4,1.7,4.2s-0.6,3.1-1.7,4.2
		C974.7,447.5,973.2,448,971.2,448z M954.8,492h-12.9v-41.1h12.9V492z M974.9,469.7h-17v-11.4h17V469.7z M977.1,492h-19.2v-11.4
		h19.2V492z"/>
	<path class="st1" d="M1004.8,481.2V493c-3.4,0-6.4-0.6-9.1-1.8c-2.7-1.2-4.8-2.8-6.5-4.8c-1.7-2-2.9-4.4-3.8-7
		c-0.9-2.6-1.3-5.5-1.3-8.6v-13.1c0-3.1,0.4-5.9,1.3-8.6c0.9-2.6,2.1-5,3.8-7c1.7-2,3.8-3.6,6.5-4.8c2.7-1.2,5.7-1.8,9.1-1.8v11.8
		c-2.3,0-4.1,0.9-5.4,2.8c-1.3,1.8-2,4.8-2,8.7v10.7c0,4,0.7,6.9,2,8.7C1000.7,480.3,1002.5,481.2,1004.8,481.2z M1024.2,445.3
		l-9.2,6.4c-1.3-2.8-3.7-4.2-7-4.2v-11.8c4.2,0,7.7,0.8,10.5,2.5C1021.3,439.8,1023.2,442.1,1024.2,445.3z M1008,493v-11.8
		c1.9,0,3.4-0.3,4.6-1c1.2-0.6,2.1-1.7,2.7-3l9,7.4C1021.2,490.2,1015.8,493,1008,493z"/>
	<path class="st1" d="M1044.4,469.4h7.4l2.4,11.4h-12.4l-2.6,11.3h-13.3l10.4-41.1h12.3L1044.4,469.4z M1059.9,436.6l13.4,55.4
		h-13.2l-10-44h-9c-2,0-3.6-0.5-4.7-1.5c-1.1-1-1.7-2.4-1.7-4.2s0.6-3.1,1.7-4.2c1.1-1,2.7-1.6,4.7-1.6H1059.9z"/>
	<path class="st1" d="M1085.5,436.6l13.2,24.9c0.5,1,0.8,2,0.8,3.3c0,1.9-0.7,3.3-2.1,4.4c-1.4,1-3,1.6-4.8,1.6
		c-2.7,0-4.6-1.2-5.9-3.6l-16.3-30.5H1085.5z M1099.3,492h-12.9v-19.3h12.9V492z M1100.3,436.6h13.5l-11.9,23.3l-6.8-12.3
		L1100.3,436.6z"/>
</g>
</svg>
