<?xml version="1.0" encoding="utf-8"?>
<!-- Generator: Adobe Illustrator 27.9.0, SVG Export Plug-In . SVG Version: 6.00 Build 0)  -->
<svg version="1.1" id="Layer_1" xmlns="http://www.w3.org/2000/svg" xmlns:xlink="http://www.w3.org/1999/xlink" x="0px" y="0px"
	 viewBox="0 0 1741.6 1389.9" style="enable-background:new 0 0 1741.6 1389.9;" xml:space="preserve">
<style type="text/css">
	.st0{fill:#FFFFFF;}
	.st1{fill:#FFB600;}
	.st2{enable-background:new    ;}
</style>
<g>
	<path class="st0" d="M890.4,428.4c-16.9,71.8-16.9,72.8-1.4,28.3l13.9-39.8l21.6,76.5c11.8,42.4,22.4,78.3,23.7,79.9
		c1.4,1.8,36.3,4.3,77.3,5.5l74.4,2.6l-50.8,36.3c-28.3,20.2-51.6,36.7-52.4,37.3c-0.8,0.4,1.4,5.1,4.7,9.8l5.9,9.6l75.4-55.7
		l75.8-55.7l-97.7-1.2l-97.3-0.8l-24.1-76.1c-13.7-41.6-26.3-81.6-28.5-88.5c-2.2-6.9-4.7-13.9-6.3-15.3
		C903.2,378.9,896.9,400.5,890.4,428.4L890.4,428.4z M679.8,480c-56.1,18.3-90.9,58.7-101.5,116.6C567,660,602.9,726.9,662.6,754.4
		c26.3,12.4,71.8,15.3,97.3,6.7c9.6-3.3,17.9-5.1,18.6-4.3c0.8,0.4-6.3,24.5-15.7,53.2c-9.2,28.9-16.1,52.8-15.3,53.4
		c1.4,1.8,154.7-111.1,156-114.6c0.4-1.8-4.7-4.7-11.4-6.9c-11.8-3.7-13.9-2.6-52.4,24.9c-22,15.7-41,28.7-42.4,28.9
		c-1.2,0,1.8-13.1,6.7-29.6c6.9-21.6,13.9-35.1,26.1-50.2c27.1-33.4,31.8-47.3,32.2-94.2c0-38.5-0.8-41.8-12.2-64.8
		C818.6,492.6,743.8,458.8,679.8,480L679.8,480z M748.5,493c30,7.7,58.9,24.9,54.6,31.8c-3.3,5.5-20.6,3.7-41-4.1
		c-10.6-4.1-22-7.3-25.3-7.3c-3.3,0-13.5-4.3-22.8-9.8c-14.3-8.4-15.7-9.8-9.6-12.4C715.5,487.1,728.5,487.5,748.5,493z
		 M673.5,502.4c-6.9,4.1-14.3,6.9-16.5,6.9c-1.8,0,2.2-2.9,9.2-6.9c7.1-3.9,14.7-6.9,16.5-6.9C684.9,495.5,680.4,498.5,673.5,502.4z
		 M765,526.9c17.9,7.3,27.5,17.3,36.3,38.1c7.3,16.5,7.3,18.6,2.2,28.9c-10.6,20.2-27.5,36.7-38.1,36.7c-15.3,0-46.1-10.2-52.4-17.3
		c-3.3-3.7-9.8-19-15.1-33.8c-10.6-31.6-9.8-35.1,12.8-51.6C727.3,515.9,737.9,515.9,765,526.9L765,526.9z M639.4,530.6
		c-8,18.3-37.7,64.8-42.4,66.3c-10.2,3.3,9.6-43.6,27.1-64.8C636.8,517.1,646.1,516.3,639.4,530.6L639.4,530.6z M681.6,553
		c4.7,5.1,21.2,53.2,21.2,62.6c0,5.1-5.9,18.3-12.8,28.9c-14.7,21.2-23.4,23.7-48.3,13.5c-20.2-8.4-26.1-15.3-30.8-37.1
		c-4.1-17.9-3.7-20.6,5.1-38.9c5.1-10.6,13.1-23.4,17.7-28.3c6.9-7.7,10.2-8,26.7-5.9C670.6,549.3,680,551.4,681.6,553z M828,594.4
		c17.3,9.2,23.4,54.6,10.6,82c-9.8,21.6-23.2,32.6-35.9,29.6c-23.4-5.9-26.7-11-26.7-39.8c0-26.7,0-27.1,18.6-51.2
		c10.6-13.5,20.6-24.5,22.4-24.5C818.8,590.5,823.7,592.3,828,594.4L828,594.4z M848.2,607.6c-1.2,3.7-1.8,1.4-1.8-4.3
		c0-6.3,0.8-8.8,1.8-6.7C849,599.1,849,604.2,848.2,607.6z M650,666.3c15.7,4.7,23.4,10.2,39.6,28.9l20.2,22.8l-8,12.2
		c-9.8,14.7-19.8,16.9-37.1,8.8c-33-15.7-54.2-46.1-48.3-69.3C619.4,658,624.1,657.8,650,666.3z M609,680.4c1.2,2.9,0.8,4.3-1.4,3.3
		c-2.2-1.2-3.7-3.7-3.7-5.9C603.9,672.7,606.4,673.9,609,680.4z M794,707.9c17.3,6.3,13.1,14.3-15.1,28.7
		c-18.3,9.2-30.4,12.8-49.8,14.3c-30,1.8-34.7-1.8-22-18.3c6.3-8,16.1-13.9,32.6-19.4C767.6,703.5,778.3,702.4,794,707.9z"/>
	<path class="st1" d="M870.2,543.8c28.9,27.5,62.6,65.9,72.6,82.8c1.4,2.6-6.9-1.4-18.6-9.6c-11.8-8-25.7-16.5-30.8-19
		c-10.2-4.7-11.4-6.3,19.4,19c15.1,12.4,51.2,53.8,59.3,68.5c1.8,2.9-1.4,1.4-7.3-2.9c-16.1-12.4-59.3-41-62.2-41
		c-1.4,0,7.3,7.3,19.4,16.5c27.9,20.8,58.9,54.6,79.9,85.8c16.9,26.1,36.3,66.3,31.6,66.3c-1.8,0-8.8-5.9-15.7-13.1
		c-18.6-19.4-56.7-44.4-87.1-56.3c-14.7-6.3-28.7-11-31.2-10.6c-2.2,0,3.3,2.9,12.4,6.9c44.7,17.9,93.8,55.7,124.6,94.8
		c11,14.3,20.6,24.1,21.2,22.4c0.8-1.8-2.9-20.6-8-42.2c-28.7-117.6-96-216.9-196.3-287.9C842.3,516.3,848.6,523.8,870.2,543.8
		L870.2,543.8z"/>
	<path class="st1" d="M576.2,889.6h-35.9v-13.9h35.9c2.4,0,4.3,0.6,5.7,2c1.4,1.2,2,2.9,2,5.1c0,2.2-0.6,3.9-2,5.1
		C580.5,889,578.6,889.6,576.2,889.6z M556.2,943.4h-15.9v-50.2h15.9V943.4z M580.7,916.1h-20.8v-13.9h20.8
		C580.7,902.2,580.7,916.1,580.7,916.1z M583.3,943.4h-23.4v-13.9h23.4V943.4z"/>
	<path class="st1" d="M628.8,889.6h-35.9v-13.9h35.9c2.4,0,4.3,0.6,5.7,2c1.4,1.2,2,2.9,2,5.1c0,2.2-0.6,3.9-2,5.1
		S631.4,889.6,628.8,889.6z M608.8,943.4h-15.9v-50.2h15.9V943.4z M632.5,916.7h-20v-13.9h20V916.7z"/>
	<path class="st1" d="M659,925.9h-15.9v-50.2H659V925.9z M676.9,943.4h-33.8v-13.9h33.8c2.4,0,4.3,0.6,5.7,2c1.4,1.2,2,2.9,2,5.1
		s-0.6,3.9-2,5.1C681.2,942.8,679.2,943.4,676.9,943.4z"/>
	<path class="st0" d="M736.7,930.2v14.5c-4.1,0-7.9-0.8-11.2-2.2c-3.3-1.4-5.9-3.3-8-5.9c-2-2.6-3.5-5.3-4.7-8.6
		c-1-3.1-1.6-6.7-1.6-10.4v-15.9c0-3.7,0.6-7.3,1.6-10.4c1-3.1,2.6-6.1,4.7-8.6c2.2-2.6,4.7-4.5,8-5.9s7.1-2.2,11.2-2.2v14.5
		c-2.7,0-4.9,1.2-6.7,3.3c-1.6,2.2-2.6,5.9-2.6,10.6v13.1c0,4.9,0.8,8.4,2.6,10.6C731.8,929,734,930.2,736.7,930.2z M760.5,886.3
		l-11.2,7.9c-1.6-3.5-4.5-5.1-8.6-5.1v-14.5c5.1,0,9.4,1,12.8,2.9C757,879.6,759.3,882.3,760.5,886.3z M740.9,944.6V930
		c2.4,0,4.1-0.4,5.7-1.2c1.4-0.8,2.6-2,3.3-3.7l11,9C756.8,941.2,750.3,944.6,740.9,944.6z"/>
	<path class="st0" d="M783.1,899.8h8.4c2.6,0,4.3,0.6,5.7,2c1.4,1.2,2,2.9,2,5.1c0,2.2-0.6,3.7-2,5.1s-3.3,2-5.7,2h-8.4v29.6h-15.9
		v-67.7h15.9V899.8z M801.5,943.4v-67.7h15.9v67.7H801.5z"/>
	<path class="st0" d="M846.8,915.7h9l2.9,13.9h-15.1l-3.1,13.7h-16.3l12.8-50.2h15.1L846.8,915.7z M865.9,875.7l16.5,67.7h-16.1
		l-12.2-53.8h-11c-2.6,0-4.5-0.6-5.7-2c-1.4-1.2-2-2.9-2-5.1s0.6-3.9,2-5.1c1.4-1.2,3.3-2,5.7-2h22.8V875.7z"/>
	<path class="st0" d="M904.5,943.4h-15.3v-58.9l15.3,29.2V943.4z M919.5,925.1c-1.6,0-2.9-0.4-3.9-1c-1-0.6-2-1.8-2.7-3.3
		l-23.4-45.1h16.7l20,38.5c0.6,1.2,0.8,2.6,0.8,4.3c0,2-0.8,3.7-2.2,4.9S921.6,925.1,919.5,925.1z M948.3,875.7l-19,36.3l-8-15.7
		l10-20.8h17.1V875.7z M948.3,943.4H933v-30l15.3-29.4V943.4z"/>
	<path class="st0" d="M985.2,921.8h-1.4c-1.6,0-2.9-0.6-4.1-2s-1.8-2.9-1.8-5.1c0-2.2,0.6-3.7,1.8-5.1s2.6-2,4.1-2h0.8
		c2,0,3.7-0.8,5.1-2.4s2-3.7,2-6.9c0-2.7-0.8-5.1-2.2-6.7c-1.6-1.8-3.9-2.6-7.3-2.6h-22.2v-13.9h22.8c8,0,14.1,2,18.4,5.9
		s6.3,9.8,6.3,17.3c0,7.3-2,13-5.9,17.1C997.6,919.8,992.3,921.8,985.2,921.8z M975.8,943.4h-15.9v-50.2h15.9V943.4z"/>
	<path class="st0" d="M1031.1,943.4h-15.9v-67.7h15.9V943.4z"/>
	<path class="st0" d="M1064.5,930.2v14.5c-3.3,0-6.3-0.4-8.8-1.4c-2.6-1-4.9-2.2-6.5-3.9c-1.8-1.6-3.1-3.5-4.3-5.9
		c-1.2-2.4-2-4.7-2.6-7.5s-0.8-5.5-0.8-8.4v-15.9c0-3.1,0.2-5.9,0.8-8.4c0.6-2.6,1.4-5.1,2.6-7.5c1.2-2.4,2.6-4.3,4.3-5.9
		c1.8-1.6,3.9-2.9,6.5-3.9c2.6-1,5.7-1.4,8.8-1.4v14.5c-2.4,0-4.1,1-5.1,3.1s-1.6,5.7-1.6,10.8v13.1c0,5.1,0.6,8.6,1.6,10.8
		C1060.6,929,1062.1,930.2,1064.5,930.2z M1068.6,944.6V930c2.4,0,4.1-1,5.1-3.1c1.2-2.2,1.6-5.7,1.6-10.8v-13.1
		c0-5.1-0.6-8.6-1.6-10.8c-1.2-2.2-2.7-3.1-5.1-3.1v-14.5c3.3,0,6.3,0.4,9,1.4c2.6,1,4.7,2.2,6.5,3.9c1.8,1.6,3.1,3.5,4.3,5.9
		c1.2,2.4,2,4.7,2.6,7.5c0.4,2.6,0.8,5.5,0.8,8.4v15.9c0,3.1-0.2,5.9-0.8,8.4c-0.4,2.6-1.4,5.1-2.6,7.5c-1.2,2.4-2.6,4.3-4.3,5.9
		s-3.9,2.9-6.5,3.9C1074.9,944.2,1072,944.6,1068.6,944.6z"/>
	<path class="st0" d="M1116.9,943.4H1102v-58.9l14.9,28.9V943.4z M1119.4,875.7l29.4,58.3c0.8,1.6,1.2,3.1,1.2,4.3
		c0,2.2-0.8,3.9-2.4,5.1s-3.3,1.8-5.5,1.8c-2.9,0-5.1-1.6-6.7-4.5l-33-65L1119.4,875.7L1119.4,875.7z M1135.9,875.7h14.7V929
		l-14.7-29.8V875.7z"/>
	<path class="st0" d="M1158.3,932.4l11.4-8.6c1,2.4,2.6,4.1,4.9,5.1c2.2,1,4.3,1.6,6.5,1.6v14.1
		C1169.3,944.6,1161.8,940.4,1158.3,932.4z M1185,901.6c4.1,1.2,7.3,2.4,9.8,3.5c2.6,1.2,4.7,2.6,6.7,4.3c2,1.8,3.3,3.7,4.1,6.1
		c0.8,2.4,1.2,5.1,1.2,8.4c0,6.9-2,12-5.7,15.5c-3.7,3.5-9.2,5.3-16.3,5.3v-14.1c4.1-0.2,6.1-2.4,6.1-6.3c0-2-0.6-3.5-2-4.7
		c-1.4-1.2-3.7-2.4-7.7-3.3c-7.7-2.2-13.1-4.9-16.1-8c-3.1-3.1-4.5-7.5-4.5-12.8c0-3.3,0.6-6.5,1.6-9c1-2.7,2.6-4.9,4.5-6.5
		c2-1.6,4.1-2.9,6.7-3.7c2.6-0.8,5.5-1.4,8.6-1.4V889c-1.6,0.2-2.9,0.8-3.9,1.8c-1,1-1.6,2.6-1.6,4.3c0,2,0.6,3.3,1.8,4.1
		S1181.9,900.8,1185,901.6z M1207.2,886.1l-11.4,8.6c-1.2-4.1-4.3-6.1-9.6-6.1v-14.1c5.5,0,9.8,1,13.1,2.7
		C1202.7,879,1205.4,881.9,1207.2,886.1z"/>
	<g class="st2">
		<path class="st0" d="M752.2,1029.1h-15.8v-50.3h15.8V1029.1z M770,1046.6h-33.7v-14H770c2.4,0,4.3,0.6,5.7,1.9c1.3,1.3,2,3,2,5.1
			s-0.7,3.8-2,5.1C774.3,1045.9,772.5,1046.6,770,1046.6z"/>
		<path class="st0" d="M820.7,992.8h-35.9v-14h35.9c2.4,0,4.3,0.6,5.7,1.9s2,3,2,5.1s-0.7,3.8-2,5.1
			C825,992.1,823.1,992.8,820.7,992.8z M800.7,1046.6h-15.8v-50.2h15.8V1046.6z M825.2,1019.3h-20.7v-14h20.7V1019.3z M827.9,1046.6
			h-23.4v-14h23.4V1046.6z"/>
		<path class="st0" d="M855.4,1018.9h9l3,13.9h-15.1l-3.2,13.8h-16.2l12.7-50.2h15L855.4,1018.9z M874.4,978.8l16.4,67.8h-16.1
			l-12.2-53.8h-11c-2.5,0-4.4-0.6-5.8-1.9c-1.3-1.2-2-2.9-2-5.1s0.7-3.8,2-5.1s3.3-1.9,5.7-1.9H874.4z"/>
		<path class="st0" d="M895.7,1020.7v-16c0-3.8,0.5-7.3,1.6-10.5c1.1-3.2,2.6-6.1,4.6-8.6c2-2.5,4.7-4.5,7.9-5.9
			c3.3-1.4,6.9-2.1,11.1-2.1v14.4c-2.6,0-4.7,1.1-6.4,3.4s-2.5,5.8-2.5,10.6v13.1c0,4.8,0.8,8.3,2.5,10.6s3.8,3.4,6.4,3.4v14.4
			c-4.1,0-7.8-0.7-11.1-2.1c-3.3-1.4-5.9-3.4-7.9-5.9c-2-2.5-3.6-5.4-4.6-8.6C896.3,1027.9,895.7,1024.4,895.7,1020.7z
			 M948.2,1008.4v14.5c0,7.7-1.9,13.7-5.7,18.2c-3.8,4.4-9.6,6.6-17.4,6.6v-14.4c2.4,0,4.3-0.7,5.8-2.1c1.5-1.4,2.3-3.5,2.3-6.3
			v-2.2h-9v-14.4H948.2z M946.2,989.6l-11.8,8c-1.7-3.7-4.8-5.5-9.4-5.5v-14.4C935.6,977.6,942.7,981.6,946.2,989.6z"/>
		<path class="st0" d="M981.2,1033.4v14.4c-3.5,0-6.6-0.5-9.4-1.5c-2.8-1-5-2.3-6.8-4c-1.8-1.7-3.3-3.8-4.5-6.2s-2-4.9-2.5-7.6
			c-0.5-2.6-0.7-5.5-0.7-8.6v-41.2h15.9v40.5c0,5.1,0.7,8.8,2.1,10.9C976.6,1032.4,978.6,1033.4,981.2,1033.4z M985.2,1047.8v-14.4
			c2.6,0,4.6-1.1,6-3.2c1.4-2.2,2.1-5.8,2.1-10.9v-40.5h15.8v41.2c0,3.9-0.4,7.4-1.3,10.6c-0.9,3.2-2.2,6.1-4,8.8
			c-1.8,2.6-4.3,4.7-7.5,6.2S989.4,1047.8,985.2,1047.8z"/>
		<path class="st0" d="M1055.8,992.8h-35.9v-14h35.9c2.4,0,4.3,0.6,5.7,1.9s2,3,2,5.1s-0.7,3.8-2,5.1
			C1060.1,992.1,1058.2,992.8,1055.8,992.8z M1035.7,1046.6h-15.8v-50.2h15.8V1046.6z M1060.3,1019.3h-20.7v-14h20.7V1019.3z
			 M1063,1046.6h-23.4v-14h23.4V1046.6z"/>
	</g>
</g>
</svg>
